<svg id="Layer_1" enable-background="new 0 0 512 512" viewBox="0 0 512 512" xmlns="http://www.w3.org/2000/svg"><path d="m478.95 364.11c-10.41-9.64-24.72-16.11-40.3-18.21l-1.85-.25c-17.39-2.34-22.26-3-37.17-11.3l-62.35-62.87c-11.3-11.4-25.17-17.18-41.23-17.18h-164.37c-15.42 0-28.9 5.4-40.06 16.04l-63.33 60.36c-8.82 8.4-13.29 18.85-13.29 31.03v52.89c0 24.24 19.72 43.96 43.96 43.96h7.69c2.94 21.67 21.54 38.42 43.99 38.42s41.05-16.75 43.99-38.41h201.3c2.94 21.66 21.54 38.41 43.99 38.41 22.46 0 41.06-16.76 43.99-38.42 14.43-.17 27.86-5.87 37.86-16.12 10.16-10.4 15.55-24.22 15.2-38.89-.36-15.24-6.59-28.88-18.02-39.46zm-368.31 120.89c-17.87 0-32.41-14.54-32.41-32.41s14.54-32.41 32.41-32.41 32.41 14.54 32.41 32.41-14.54 32.41-32.41 32.41zm289.29 0c-17.87 0-32.41-14.54-32.41-32.41s14.54-32.41 32.41-32.41 32.41 14.54 32.41 32.41-14.54 32.41-32.41 32.41zm73.27-50.92c-7.73 7.92-18.11 12.34-29.28 12.5-2.95-21.65-21.54-38.39-43.99-38.39s-41.05 16.75-43.99 38.41h-201.3c-2.94-21.66-21.54-38.41-43.99-38.41s-41.05 16.75-43.99 38.41h-7.69c-17.63 0-31.96-14.34-31.96-31.96v-52.89c0-8.78 3.22-16.3 9.57-22.35l63.32-60.36c8.98-8.56 19.38-12.72 31.78-12.72h164.39c12.74 0 23.74 4.58 32.71 13.63l62.94 63.47c.39.4.84.73 1.32 1.01 17.48 9.81 24.2 10.71 42.17 13.13l1.85.25c23.38 3.16 47.28 18.63 47.94 46.07.26 11.39-3.92 22.12-11.8 30.2zm-157.89-135.77c-6.25-6.99-14.51-10.68-23.88-10.68h-157.88c-9.37 0-17.63 3.69-23.88 10.68l-40.24 45c-3.34 3.73-4.14 8.89-2.1 13.45s6.42 7.4 11.43 7.4h267.47c5.01 0 9.38-2.84 11.43-7.4 2.04-4.56 1.24-9.72-2.1-13.45zm-100.13 1.32v52.53h-53.15v-52.53zm-136.9 52.23c-.13-.3 0-.45.09-.55l40.24-45c3.96-4.43 8.99-6.68 14.93-6.68h16.48v52.53h-71.27c-.14 0-.33 0-.47-.3zm268.42 0c-.13.3-.33.3-.47.3h-119.05v-52.53h64.26c5.95 0 10.97 2.25 14.93 6.68l40.24 45c.09.1.22.25.09.55zm-236.06 77.24c-12.95 0-23.49 10.54-23.49 23.49s10.54 23.49 23.49 23.49 23.49-10.54 23.49-23.49-10.54-23.49-23.49-23.49zm0 34.98c-6.33 0-11.49-5.15-11.49-11.49 0-6.33 5.15-11.49 11.49-11.49 6.33 0 11.49 5.15 11.49 11.49 0 6.33-5.15 11.49-11.49 11.49zm289.29-34.98c-12.95 0-23.49 10.54-23.49 23.49s10.54 23.49 23.49 23.49 23.49-10.54 23.49-23.49-10.54-23.49-23.49-23.49zm0 34.98c-6.33 0-11.49-5.15-11.49-11.49 0-6.33 5.15-11.49 11.49-11.49 6.33 0 11.49 5.15 11.49 11.49 0 6.33-5.16 11.49-11.49 11.49zm-74.23-266.86c.8 1.38 2.11 2.38 3.64 2.8 1.54.41 3.17.2 4.55-.6l13.43-7.75c1.98-1.15 3.14-3.32 2.99-5.61l-1.5-21.76c16.98-7.94 37.67-17.62 58.5-28.18l30.27 85.43c.6 1.68 1.91 3.01 3.58 3.63.67.25 1.38.37 2.08.37 1.04 0 2.08-.27 3-.8l11.27-6.51c1.93-1.11 3.08-3.2 3-5.43l-4.02-103.89c31.82-19.85 44.07-34.31 39.68-46.69-.25-.69-.61-1.33-1.09-1.89-8.53-10-27.17-6.61-60.27 11.02l-87.97-55.43c-1.88-1.19-4.27-1.23-6.2-.12l-11.27 6.51c-1.54.89-2.61 2.42-2.91 4.18s.19 3.56 1.35 4.91l58.85 68.93c-19.56 12.76-38.29 25.83-53.66 36.57l-18.1-12.18c-1.9-1.28-4.37-1.36-6.35-.22l-13.43 7.75c-2.87 1.66-3.85 5.33-2.2 8.2zm-14.39-60.45 18.4 12.38c2.06 1.38 4.75 1.36 6.79-.06l2.96-2.07c16.86-11.78 37.84-26.44 59.45-40.33 1.46-.94 2.44-2.46 2.69-4.17s-.25-3.45-1.37-4.77l-58.62-68.65 1.89-1.09 87.87 55.36c1.84 1.16 4.16 1.23 6.07.19 34.03-18.53 44.55-17.45 47.51-16.13-.33 3.23-4.66 12.88-37.72 33.08-1.85 1.13-2.95 3.18-2.87 5.35l4.01 103.77-1.89 1.09-30.15-85.09c-.58-1.63-1.83-2.94-3.44-3.57-.71-.28-1.46-.42-2.21-.42-.95 0-1.89.22-2.75.67-22.84 11.77-46.02 22.61-64.65 31.32l-3.28 1.54c-2.25 1.05-3.61 3.37-3.44 5.85l1.52 22.13-4.99 2.88-26.77-46.37z"/></svg>