<svg width="488" height="488" viewBox="0 0 488 488" fill="none" xmlns="http://www.w3.org/2000/svg">
<g clip-path="url(#clip0_6507_12232)">
<path d="M20.2592 262.601C17.6782 214.836 30.2802 167.479 56.2592 127.313C58.7672 123.676 57.8522 118.694 54.2142 116.186C50.5772 113.678 45.5952 114.593 43.0872 118.231C43.0052 118.35 42.9272 118.471 42.8512 118.594C15.0112 161.602 1.50417 212.322 4.26717 263.481C4.50517 267.723 8.01817 271.04 12.2672 271.033H12.7152C17.1272 270.788 20.5042 267.013 20.2592 262.601Z" fill="black"/>
<path d="M98.9854 123.617C102.029 120.414 101.9 115.351 98.6974 112.307C95.4944 109.263 90.4314 109.392 87.3874 112.595C87.2274 112.764 87.0744 112.939 86.9294 113.121C44.8614 161.745 27.4604 226.998 39.7294 290.113C40.5884 294.45 44.8004 297.268 49.1374 296.409C53.4744 295.55 56.2924 291.338 55.4334 287.001C44.1094 228.742 60.1654 168.509 98.9854 123.617Z" fill="black"/>
<path d="M483.354 236.665C483.12 232.247 479.348 228.855 474.93 229.089C470.512 229.323 467.12 233.095 467.354 237.513C469.794 285.262 457.064 332.559 430.986 372.633C428.556 376.329 429.582 381.295 433.278 383.725C436.974 386.155 441.94 385.129 444.37 381.433C472.319 338.501 485.965 287.826 483.354 236.665Z" fill="black"/>
<path d="M447.954 209.857C447.053 205.532 442.816 202.756 438.49 203.657C434.245 204.542 431.478 208.646 432.25 212.913C443.411 271.208 427.191 331.399 388.25 376.193C385.119 379.31 385.108 384.376 388.226 387.507C391.343 390.638 396.409 390.649 399.54 387.531C399.795 387.277 400.032 387.007 400.251 386.721C442.446 338.208 460.031 273.008 447.954 209.857Z" fill="black"/>
<path d="M355.476 95.553V95.545C386.516 114.154 410.319 142.749 422.988 176.649C423.817 178.903 425.614 180.665 427.884 181.449C428.72 181.741 429.599 181.89 430.484 181.889C431.965 181.887 433.416 181.475 434.676 180.697C464.797 162.201 474.22 122.789 455.724 92.669C437.228 62.549 397.816 53.125 367.696 71.621C362.477 74.826 357.744 78.764 353.644 83.313C350.678 86.588 350.93 91.647 354.205 94.613C354.597 94.967 355.023 95.282 355.476 95.553ZM413.532 79.865C439.137 86.733 454.326 113.057 447.458 138.661C445.146 147.282 440.475 155.087 433.972 161.201C420.742 131.454 399.521 105.96 372.668 87.553C384.403 78.89 399.452 76.058 413.532 79.865Z" fill="black"/>
<path d="M408.586 188.025C394.642 150.729 368.45 119.271 334.298 98.801C322.564 91.761 310.037 86.138 296.978 82.049L301.194 66.321L324.394 72.537C325.073 72.717 325.772 72.809 326.474 72.809C330.892 72.807 334.472 69.223 334.47 64.805C334.468 61.185 332.035 58.017 328.538 57.081L297.626 48.801L266.706 40.521C262.404 39.513 258.1 42.183 257.092 46.485C256.129 50.597 258.527 54.749 262.57 55.969L285.77 62.185L281.562 77.905C268.222 74.919 254.574 73.525 240.906 73.753C143.683 75.4 66.203 155.55 67.85 252.773C68.652 300.131 88.502 345.168 122.915 377.712L76.707 415.448C73.285 418.245 72.778 423.286 75.575 426.708C78.372 430.13 83.413 430.637 86.835 427.84L135.251 388.296C172.926 417.904 221.073 430.813 268.507 424.024L290.659 482.424C291.839 485.531 294.816 487.584 298.139 487.584C299.107 487.588 300.067 487.411 300.971 487.064C305.101 485.499 307.182 480.883 305.619 476.752L284.443 420.912C301.048 416.975 316.995 410.654 331.787 402.144C406.268 359.126 438.746 268.576 408.586 188.025ZM400.082 283.369L384.93 279.305C380.662 278.161 376.274 280.693 375.13 284.961C373.986 289.229 376.518 293.617 380.786 294.761L395.866 298.801C388.999 320.376 377.594 340.231 362.418 357.033L351.266 345.881C348.088 342.811 343.024 342.899 339.954 346.077C336.959 349.177 336.959 354.093 339.954 357.193L351.098 368.337C334.319 383.58 314.46 395.039 292.866 401.937L288.786 386.737C287.642 382.469 283.254 379.937 278.986 381.081C274.718 382.225 272.186 386.613 273.33 390.881L277.418 406.121C255.262 410.859 232.35 410.802 210.218 405.953L214.218 390.881C215.362 386.613 212.83 382.225 208.562 381.081C204.294 379.937 199.906 382.469 198.762 386.737L194.762 401.817C173.168 394.949 153.296 383.536 136.482 368.345L147.634 357.193C150.704 354.015 150.616 348.951 147.438 345.881C144.338 342.887 139.423 342.887 136.322 345.881L125.178 357.025C109.93 340.249 98.471 320.389 91.578 298.793L106.778 294.713C111.046 293.569 113.578 289.181 112.434 284.913C111.29 280.645 106.902 278.113 102.634 279.257L87.434 283.345C82.693 261.19 82.748 238.277 87.594 216.145L102.666 220.145C103.345 220.325 104.044 220.417 104.746 220.417C109.164 220.415 112.744 216.831 112.742 212.413C112.74 208.793 110.307 205.625 106.81 204.689L91.658 200.625C98.549 179.033 109.987 159.168 125.202 142.369L136.354 153.521C139.532 156.59 144.597 156.502 147.666 153.324C150.66 150.224 150.66 145.309 147.666 142.209L136.578 131.121C138.418 129.473 140.202 127.777 142.122 126.193C157.707 113.404 175.574 103.683 194.778 97.545L198.834 112.665C199.771 116.159 202.936 118.59 206.554 118.593C207.256 118.597 207.956 118.505 208.634 118.321C212.902 117.177 215.434 112.79 214.29 108.523V108.521L210.186 93.401C220.371 91.168 230.752 89.946 241.178 89.753C242.218 89.753 243.258 89.753 244.298 89.753C255.435 89.785 266.537 91 277.418 93.377L273.338 108.577C272.193 112.844 274.725 117.232 278.992 118.376H278.994C279.672 118.56 280.372 118.652 281.074 118.648C284.692 118.645 287.857 116.214 288.794 112.72L292.866 97.52C314.467 104.369 334.321 115.834 351.05 131.12L339.962 142.208C336.784 145.278 336.696 150.342 339.766 153.52C342.836 156.698 347.9 156.786 351.078 153.716C351.145 153.652 351.21 153.586 351.274 153.52L362.338 142.512C375.908 157.448 386.522 174.821 393.618 193.712C394.482 196.032 395.218 198.392 395.946 200.736L380.81 204.792C376.542 205.934 374.008 210.32 375.15 214.588C376.086 218.085 379.254 220.518 382.874 220.52C383.576 220.52 384.275 220.428 384.954 220.248L400.154 216.168C404.937 238.316 404.912 261.232 400.082 283.369Z" fill="black"/>
<path d="M112.972 94.457C114.109 96.566 116.132 98.055 118.484 98.513C118.988 98.608 119.499 98.657 120.012 98.657C121.87 98.656 123.671 98.011 125.108 96.833C153.039 73.806 187.961 60.944 224.156 60.353C228.574 60.289 232.103 56.656 232.039 52.238C232.031 51.709 231.971 51.182 231.86 50.665C224.488 16.096 190.488 -5.951 155.919 1.421C121.35 8.793 99.3026 42.793 106.675 77.362C107.948 83.331 110.069 89.088 112.972 94.457ZM122.924 51.681C129.78 26.073 156.097 10.872 181.705 17.728C195.797 21.501 207.408 31.478 213.26 44.841C180.801 47.356 149.675 58.82 123.34 77.961C120.747 69.412 120.603 60.307 122.924 51.681Z" fill="black"/>
<path d="M270.701 149.257C266.435 148.117 262.053 150.649 260.909 154.913L241.893 225.865C234.676 226.326 228.089 230.132 224.085 236.153L184.037 225.425C179.764 224.303 175.39 226.858 174.268 231.131C173.154 235.376 175.667 239.726 179.901 240.881L219.901 251.601C220.86 264.821 232.355 274.76 245.575 273.801C258.795 272.842 268.734 261.347 267.775 248.127C267.243 240.802 263.387 234.124 257.309 230.001L276.317 159.049C277.46 154.795 274.95 150.419 270.701 149.257ZM251.534 251.783V251.785H251.502C250.358 256.053 245.971 258.584 241.703 257.44C237.435 256.296 234.904 251.908 236.048 247.641C236.987 244.139 240.164 241.706 243.79 241.713C244.495 241.712 245.197 241.804 245.878 241.985C250.145 243.129 252.678 247.515 251.534 251.783Z" fill="black"/>
</g>
<defs>
<clipPath id="clip0_6507_12232">
<rect width="487.585" height="487.585" fill="white"/>
</clipPath>
</defs>
</svg>
