<svg width="512" height="512" viewBox="0 0 512 512" fill="none" xmlns="http://www.w3.org/2000/svg">
<path d="M475.331 240.303C470.936 231.835 464.226 224.789 455.982 219.986C447.738 215.183 438.299 212.821 428.764 213.174C432.585 204.394 433.884 194.722 432.517 185.245C431.15 175.767 427.17 166.857 421.024 159.514C414.878 152.171 406.808 146.685 397.719 143.67C388.63 140.656 378.881 140.232 369.565 142.447C371.72 133.139 371.255 123.415 368.221 114.355C365.187 105.295 359.702 97.2522 352.376 91.1194C345.049 84.9865 336.166 81.0032 326.714 79.6112C317.261 78.2192 307.607 79.473 298.823 83.2336C299.254 71.4321 295.527 59.8542 288.292 50.5207C281.057 41.1871 270.773 34.6909 259.237 32.1657C247.701 29.6405 235.644 31.2468 225.172 36.7043C214.699 42.1617 206.476 51.1236 201.937 62.0258L141.045 208.284L140.996 208.4L108.756 285.838L51.9261 342.669C38.5256 356.102 31 374.301 31 393.275C31 412.249 38.5256 430.448 51.9261 443.881L68.117 460.072C81.5491 473.474 99.7487 481 118.723 481C137.697 481 155.897 473.474 169.329 460.072L226.159 403.242L449.972 310.061C456.413 307.379 462.227 303.389 467.045 298.343C471.864 293.298 475.583 287.307 477.967 280.75C480.351 274.193 481.347 267.212 480.893 260.25C480.439 253.288 478.545 246.495 475.331 240.303ZM382.606 156.971C387.56 157.147 392.423 158.36 396.88 160.53C401.337 162.7 405.291 165.78 408.485 169.571C411.764 173.424 414.19 177.928 415.605 182.786C417.019 187.644 417.39 192.747 416.693 197.758C415.995 202.77 414.245 207.577 411.558 211.864C408.871 216.151 405.306 219.821 401.1 222.633L263.171 314.879L235.767 287.475L355.796 167.447C359.269 163.904 363.455 161.138 368.077 159.332C372.698 157.526 377.651 156.721 382.606 156.971ZM152.276 315.878L188.106 262.303L213.279 287.475L168.576 332.177L152.276 315.878ZM223.513 387.115L207.586 371.188L261.161 335.358L286.638 360.834L223.513 387.115ZM196.12 359.722L179.821 343.422L224.523 298.72L249.695 323.892L196.12 359.722ZM289.365 110.895C292.178 106.689 295.848 103.125 300.135 100.439C304.423 97.7519 309.23 96.0025 314.241 95.3054C319.252 94.6083 324.355 94.9793 329.212 96.3939C334.07 97.8085 338.574 100.235 342.427 103.513C346.2 106.723 349.268 110.68 351.436 115.134C353.605 119.588 354.827 124.443 355.027 129.393C355.226 134.343 354.399 139.28 352.596 143.895C350.793 148.509 348.054 152.699 344.551 156.203L224.523 276.231L197.119 248.827L289.365 110.895ZM216.621 68.1372C218.456 63.7287 221.187 59.7494 224.64 56.4511C228.093 53.1529 232.194 50.6076 236.682 48.9764C241.17 47.3452 245.948 46.6637 250.713 46.9751C255.478 47.2864 260.126 48.5838 264.364 50.7851C268.668 53.0207 272.453 56.139 275.47 59.9364C278.488 63.7338 280.67 68.1249 281.876 72.823C283.081 77.5211 283.282 82.4206 282.466 87.2018C281.65 91.9829 279.834 96.5381 277.138 100.57L185.654 237.361L157.775 209.482L216.621 68.1372ZM151.164 225.36L176.641 250.837L140.811 304.412L124.883 288.485L151.164 225.36ZM158.085 448.827C147.637 459.25 133.481 465.103 118.723 465.103C103.966 465.103 89.8101 459.25 79.3618 448.827L63.171 432.636C52.7486 422.188 46.8955 408.033 46.8955 393.275C46.8955 378.517 52.7486 364.361 63.171 353.913L80.5289 336.555L175.443 431.469L158.085 448.827ZM186.687 420.225L91.7733 325.311L115.495 301.589L136.372 322.467L136.442 322.536L189.461 375.556L189.531 375.626L210.409 396.503L186.687 420.225ZM463.022 275.314C461.411 279.814 458.873 283.924 455.572 287.381C452.271 290.837 448.281 293.561 443.861 295.377L302.516 354.223L274.637 326.345L411.432 234.86C417.476 230.818 424.642 228.791 431.908 229.066C439.173 229.341 446.166 231.904 451.887 236.391C457.609 240.877 461.766 247.057 463.766 254.047C465.766 261.037 465.505 268.481 463.022 275.314Z" fill="black"/>
</svg>
