<svg width="512" height="512" viewBox="0 0 512 512" fill="none" xmlns="http://www.w3.org/2000/svg">
<path d="M472.964 288.143C475.095 288.143 477.139 287.296 478.646 285.789C480.153 284.282 481 282.238 481 280.107V247.964C481 245.833 480.153 243.789 478.646 242.282C477.139 240.775 475.095 239.929 472.964 239.929H432.786V79.2143H448.857C450.988 79.2143 453.032 78.3677 454.539 76.8607C456.046 75.3537 456.893 73.3098 456.893 71.1786V39.0357C456.893 36.9045 456.046 34.8606 454.539 33.3536C453.032 31.8466 450.988 31 448.857 31H175.643C173.512 31 171.468 31.8466 169.961 33.3536C168.454 34.8606 167.607 36.9045 167.607 39.0357V71.1786C167.607 73.3098 168.454 75.3537 169.961 76.8607C171.468 78.3677 173.512 79.2143 175.643 79.2143H191.714V239.929H150.057C151.009 237.355 151.509 234.637 151.536 231.893V199.75C151.536 197.619 150.689 195.575 149.182 194.068C147.675 192.561 145.631 191.714 143.5 191.714H119.393V183.679H127.429C138.081 183.666 148.293 179.429 155.825 171.896C163.357 164.364 167.594 154.152 167.607 143.5C167.607 141.369 166.761 139.325 165.254 137.818C163.747 136.311 161.703 135.464 159.571 135.464H143.5C134.777 135.494 126.307 138.391 119.393 143.709V135.464C119.38 124.812 115.143 114.6 107.611 107.068C100.079 99.5357 89.8664 95.2985 79.2143 95.2857H63.1429C61.0117 95.2857 58.9677 96.1323 57.4608 97.6393C55.9538 99.1463 55.1071 101.19 55.1071 103.321C55.1199 113.974 59.3571 124.186 66.8893 131.718C74.4214 139.25 84.6336 143.487 95.2857 143.5H103.321V191.714H79.2143C77.0831 191.714 75.0392 192.561 73.5322 194.068C72.0252 195.575 71.1786 197.619 71.1786 199.75V231.893C71.2052 234.637 71.7054 237.355 72.6571 239.929H39.0357C36.9045 239.929 34.8606 240.775 33.3536 242.282C31.8466 243.789 31 245.833 31 247.964V280.107C31 282.238 31.8466 284.282 33.3536 285.789C34.8606 287.296 36.9045 288.143 39.0357 288.143H47.0714V432.786H39.0357C36.9045 432.786 34.8606 433.632 33.3536 435.139C31.8466 436.646 31 438.69 31 440.821V472.964C31 475.095 31.8466 477.139 33.3536 478.646C34.8606 480.153 36.9045 481 39.0357 481H472.964C475.095 481 477.139 480.153 478.646 478.646C480.153 477.139 481 475.095 481 472.964V440.821C481 438.69 480.153 436.646 478.646 435.139C477.139 433.632 475.095 432.786 472.964 432.786H464.929V288.143H472.964ZM143.5 151.536H150.162C148.494 156.233 145.413 160.299 141.343 163.176C137.273 166.053 132.413 167.601 127.429 167.607H120.767C122.435 162.91 125.515 158.844 129.585 155.967C133.655 153.09 138.516 151.542 143.5 151.536ZM95.2857 127.429C90.3014 127.422 85.4409 125.875 81.371 122.997C77.301 120.12 74.2208 116.054 72.5527 111.357H79.2143C84.1986 111.363 89.0591 112.911 93.129 115.788C97.199 118.666 100.279 122.732 101.947 127.429H95.2857ZM183.679 47.0714H440.821V63.1429H183.679V47.0714ZM207.786 79.2143H416.714V239.929H400.643V103.321C400.643 101.19 399.796 99.1463 398.289 97.6393C396.782 96.1323 394.738 95.2857 392.607 95.2857H328.321C326.19 95.2857 324.146 96.1323 322.639 97.6393C321.132 99.1463 320.286 101.19 320.286 103.321V239.929H304.214V103.321C304.214 101.19 303.368 99.1463 301.861 97.6393C300.354 96.1323 298.31 95.2857 296.179 95.2857H231.893C229.762 95.2857 227.718 96.1323 226.211 97.6393C224.704 99.1463 223.857 101.19 223.857 103.321V239.929H207.786V79.2143ZM384.571 239.929H336.357V111.357H384.571V239.929ZM288.143 239.929H239.929V111.357H288.143V239.929ZM87.25 231.893V207.786H135.464V231.893C135.464 234.024 134.618 236.068 133.111 237.575C131.604 239.082 129.56 239.929 127.429 239.929H95.2857C93.1545 239.929 91.1106 239.082 89.6036 237.575C88.0966 236.068 87.25 234.024 87.25 231.893ZM47.0714 256H464.929V272.071H47.0714V256ZM464.929 464.929H47.0714V448.857H464.929V464.929ZM448.857 432.786H63.1429V288.143H448.857V432.786Z" fill="black"/>
<path d="M239.928 416.714H272.071C274.202 416.714 276.246 415.867 277.753 414.36C279.26 412.853 280.107 410.809 280.107 408.678V312.25C280.107 310.118 279.26 308.074 277.753 306.567C276.246 305.06 274.202 304.214 272.071 304.214H239.928C237.797 304.214 235.753 305.06 234.246 306.567C232.739 308.074 231.893 310.118 231.893 312.25V408.678C231.893 410.809 232.739 412.853 234.246 414.36C235.753 415.867 237.797 416.714 239.928 416.714ZM247.964 320.285H264.035V400.642H247.964V320.285Z" fill="black"/>
<path d="M167.608 416.714H199.751C201.882 416.714 203.926 415.867 205.433 414.36C206.94 412.853 207.787 410.809 207.787 408.678V312.25C207.787 310.118 206.94 308.074 205.433 306.567C203.926 305.06 201.882 304.214 199.751 304.214H167.608C165.477 304.214 163.433 305.06 161.926 306.567C160.419 308.074 159.572 310.118 159.572 312.25V408.678C159.572 410.809 160.419 412.853 161.926 414.36C163.433 415.867 165.477 416.714 167.608 416.714ZM175.644 320.285H191.715V400.642H175.644V320.285Z" fill="black"/>
<path d="M95.2857 416.714H127.429C129.56 416.714 131.604 415.867 133.111 414.36C134.618 412.853 135.464 410.809 135.464 408.678V312.25C135.464 310.118 134.618 308.074 133.111 306.567C131.604 305.06 129.56 304.214 127.429 304.214H95.2857C93.1545 304.214 91.1106 305.06 89.6036 306.567C88.0966 308.074 87.25 310.118 87.25 312.25V408.678C87.25 410.809 88.0966 412.853 89.6036 414.36C91.1106 415.867 93.1545 416.714 95.2857 416.714ZM103.321 320.285H119.393V400.642H103.321V320.285Z" fill="black"/>
<path d="M384.571 416.714H416.714C418.845 416.714 420.889 415.867 422.396 414.36C423.903 412.853 424.749 410.809 424.749 408.678V312.25C424.749 310.118 423.903 308.074 422.396 306.567C420.889 305.06 418.845 304.214 416.714 304.214H384.571C382.44 304.214 380.396 305.06 378.889 306.567C377.382 308.074 376.535 310.118 376.535 312.25V408.678C376.535 410.809 377.382 412.853 378.889 414.36C380.396 415.867 382.44 416.714 384.571 416.714ZM392.607 320.285H408.678V400.642H392.607V320.285Z" fill="black"/>
<path d="M312.251 416.714H344.393C346.525 416.714 348.569 415.867 350.076 414.36C351.583 412.853 352.429 410.809 352.429 408.678V312.25C352.429 310.118 351.583 308.074 350.076 306.567C348.569 305.06 346.525 304.214 344.393 304.214H312.251C310.119 304.214 308.075 305.06 306.568 306.567C305.061 308.074 304.215 310.118 304.215 312.25V408.678C304.215 410.809 305.061 412.853 306.568 414.36C308.075 415.867 310.119 416.714 312.251 416.714ZM320.286 320.285H336.358V400.642H320.286V320.285Z" fill="black"/>
</svg>
