<svg width="512" height="512" viewBox="0 0 512 512" fill="none" xmlns="http://www.w3.org/2000/svg">
<mask id="path-1-outside-1_5683_14283" maskUnits="userSpaceOnUse" x="30" y="39" width="451" height="434" fill="black">
<rect fill="white" x="30" y="39" width="451" height="434"/>
<path d="M450.573 124.067C453.236 119.431 454.697 114.545 454.697 109.405C454.697 65.9601 353.416 40 255.5 40C157.584 40 56.303 65.961 56.303 109.406C56.303 114.545 57.7653 119.431 60.4273 124.068L32.082 295.944C31.5748 299.002 33.4667 301.945 36.4551 302.76L100.07 320.073L98.52 356.834C98.4415 358.719 99.2473 360.533 100.698 361.741C102.146 362.945 104.088 363.397 105.913 362.981L154.088 351.852L192.078 365.346C192.31 365.428 192.546 365.414 192.78 365.466C193.055 365.529 193.298 365.668 193.588 365.692L215.56 367.516V386.648C175.128 391.387 133.371 404.612 133.371 428.197C133.371 456.649 196.293 472 255.5 472C314.702 472 377.624 456.649 377.624 428.197C377.624 404.609 335.905 391.391 295.44 386.648V367.502L317.4 365.671C317.619 365.652 317.799 365.54 318.01 365.499C318.314 365.443 318.618 365.45 318.917 365.344L356.911 351.85L405.082 362.979C406.919 363.396 408.849 362.943 410.296 361.739C411.747 360.531 412.554 358.721 412.476 356.836L410.932 320.073L474.545 302.759C477.533 301.944 479.425 299 478.918 295.943L450.573 124.067ZM255.5 52.089C365.772 52.089 442.616 82.2957 442.616 109.405C442.616 136.514 365.772 166.721 255.5 166.721C145.228 166.721 68.3842 136.514 68.3842 109.406C68.3842 82.2966 145.228 52.089 255.5 52.089ZM78.7953 301.757L87.3756 230.557C87.7728 227.244 85.413 224.233 82.1015 223.832C78.7429 223.455 75.778 225.796 75.3808 229.11L67.0118 298.55L44.887 292.529L70.6838 136.098C79.4798 143.727 91.9259 150.44 106.981 156.149L100.592 307.689L78.7953 301.757ZM118.9 160.305C139.455 166.855 163.704 171.762 189.48 174.875L188.114 351.106L160.51 341.304L160.972 250.347C160.987 247.01 158.298 244.287 154.963 244.271C154.95 244.271 154.942 244.271 154.931 244.271C151.608 244.271 148.906 246.959 148.89 250.284L148.431 340.753L110.929 349.416L118.9 160.305ZM365.543 428.198C365.543 441.44 323.68 459.912 255.5 459.912C187.32 459.912 145.452 441.44 145.452 428.198C145.452 417.732 171.591 404.226 215.56 398.855V410.608C215.56 423.819 226.3 434.565 239.501 434.565H271.498C284.7 434.565 295.439 423.818 295.439 410.608V398.855C339.407 404.222 365.543 417.724 365.543 428.198ZM283.359 410.608C283.359 417.152 278.038 422.477 271.498 422.477H239.501C232.961 422.477 227.64 417.152 227.64 410.608V368.52L255 370.793C255.165 370.805 255.334 370.813 255.499 370.813C255.668 370.813 255.833 370.805 256.003 370.793L283.358 368.511L283.359 410.608ZM255.5 358.703L200.172 354.107L201.551 176.2C219.211 177.918 237.41 178.81 255.5 178.81C273.584 178.81 291.779 177.919 309.433 176.202L310.813 354.092L255.5 358.703ZM362.57 340.753L362.11 250.284C362.095 246.959 359.393 244.271 356.07 244.271C356.062 244.271 356.05 244.271 356.038 244.271C352.703 244.287 350.013 247.01 350.029 250.347L350.491 341.304L322.871 351.11L321.505 174.877C347.299 171.763 371.564 166.85 392.129 160.295L398.663 315.88C398.664 315.885 398.664 315.89 398.664 315.895L400.072 349.416L362.57 340.753ZM448.663 297.278L440.449 229.109C440.052 225.795 437.087 223.459 433.728 223.832C430.417 224.233 428.057 227.243 428.454 230.557L436.88 300.485L410.412 307.689L404.048 156.137C419.09 150.43 431.525 143.721 440.315 136.097L466.112 292.528L448.663 297.278Z"/>
</mask>
<path d="M450.573 124.067C453.236 119.431 454.697 114.545 454.697 109.405C454.697 65.9601 353.416 40 255.5 40C157.584 40 56.303 65.961 56.303 109.406C56.303 114.545 57.7653 119.431 60.4273 124.068L32.082 295.944C31.5748 299.002 33.4667 301.945 36.4551 302.76L100.07 320.073L98.52 356.834C98.4415 358.719 99.2473 360.533 100.698 361.741C102.146 362.945 104.088 363.397 105.913 362.981L154.088 351.852L192.078 365.346C192.31 365.428 192.546 365.414 192.78 365.466C193.055 365.529 193.298 365.668 193.588 365.692L215.56 367.516V386.648C175.128 391.387 133.371 404.612 133.371 428.197C133.371 456.649 196.293 472 255.5 472C314.702 472 377.624 456.649 377.624 428.197C377.624 404.609 335.905 391.391 295.44 386.648V367.502L317.4 365.671C317.619 365.652 317.799 365.54 318.01 365.499C318.314 365.443 318.618 365.45 318.917 365.344L356.911 351.85L405.082 362.979C406.919 363.396 408.849 362.943 410.296 361.739C411.747 360.531 412.554 358.721 412.476 356.836L410.932 320.073L474.545 302.759C477.533 301.944 479.425 299 478.918 295.943L450.573 124.067ZM255.5 52.089C365.772 52.089 442.616 82.2957 442.616 109.405C442.616 136.514 365.772 166.721 255.5 166.721C145.228 166.721 68.3842 136.514 68.3842 109.406C68.3842 82.2966 145.228 52.089 255.5 52.089ZM78.7953 301.757L87.3756 230.557C87.7728 227.244 85.413 224.233 82.1015 223.832C78.7429 223.455 75.778 225.796 75.3808 229.11L67.0118 298.55L44.887 292.529L70.6838 136.098C79.4798 143.727 91.9259 150.44 106.981 156.149L100.592 307.689L78.7953 301.757ZM118.9 160.305C139.455 166.855 163.704 171.762 189.48 174.875L188.114 351.106L160.51 341.304L160.972 250.347C160.987 247.01 158.298 244.287 154.963 244.271C154.95 244.271 154.942 244.271 154.931 244.271C151.608 244.271 148.906 246.959 148.89 250.284L148.431 340.753L110.929 349.416L118.9 160.305ZM365.543 428.198C365.543 441.44 323.68 459.912 255.5 459.912C187.32 459.912 145.452 441.44 145.452 428.198C145.452 417.732 171.591 404.226 215.56 398.855V410.608C215.56 423.819 226.3 434.565 239.501 434.565H271.498C284.7 434.565 295.439 423.818 295.439 410.608V398.855C339.407 404.222 365.543 417.724 365.543 428.198ZM283.359 410.608C283.359 417.152 278.038 422.477 271.498 422.477H239.501C232.961 422.477 227.64 417.152 227.64 410.608V368.52L255 370.793C255.165 370.805 255.334 370.813 255.499 370.813C255.668 370.813 255.833 370.805 256.003 370.793L283.358 368.511L283.359 410.608ZM255.5 358.703L200.172 354.107L201.551 176.2C219.211 177.918 237.41 178.81 255.5 178.81C273.584 178.81 291.779 177.919 309.433 176.202L310.813 354.092L255.5 358.703ZM362.57 340.753L362.11 250.284C362.095 246.959 359.393 244.271 356.07 244.271C356.062 244.271 356.05 244.271 356.038 244.271C352.703 244.287 350.013 247.01 350.029 250.347L350.491 341.304L322.871 351.11L321.505 174.877C347.299 171.763 371.564 166.85 392.129 160.295L398.663 315.88C398.664 315.885 398.664 315.89 398.664 315.895L400.072 349.416L362.57 340.753ZM448.663 297.278L440.449 229.109C440.052 225.795 437.087 223.459 433.728 223.832C430.417 224.233 428.057 227.243 428.454 230.557L436.88 300.485L410.412 307.689L404.048 156.137C419.09 150.43 431.525 143.721 440.315 136.097L466.112 292.528L448.663 297.278Z" fill="black"/>
<path d="M450.573 124.067C453.236 119.431 454.697 114.545 454.697 109.405C454.697 65.9601 353.416 40 255.5 40C157.584 40 56.303 65.961 56.303 109.406C56.303 114.545 57.7653 119.431 60.4273 124.068L32.082 295.944C31.5748 299.002 33.4667 301.945 36.4551 302.76L100.07 320.073L98.52 356.834C98.4415 358.719 99.2473 360.533 100.698 361.741C102.146 362.945 104.088 363.397 105.913 362.981L154.088 351.852L192.078 365.346C192.31 365.428 192.546 365.414 192.78 365.466C193.055 365.529 193.298 365.668 193.588 365.692L215.56 367.516V386.648C175.128 391.387 133.371 404.612 133.371 428.197C133.371 456.649 196.293 472 255.5 472C314.702 472 377.624 456.649 377.624 428.197C377.624 404.609 335.905 391.391 295.44 386.648V367.502L317.4 365.671C317.619 365.652 317.799 365.54 318.01 365.499C318.314 365.443 318.618 365.45 318.917 365.344L356.911 351.85L405.082 362.979C406.919 363.396 408.849 362.943 410.296 361.739C411.747 360.531 412.554 358.721 412.476 356.836L410.932 320.073L474.545 302.759C477.533 301.944 479.425 299 478.918 295.943L450.573 124.067ZM255.5 52.089C365.772 52.089 442.616 82.2957 442.616 109.405C442.616 136.514 365.772 166.721 255.5 166.721C145.228 166.721 68.3842 136.514 68.3842 109.406C68.3842 82.2966 145.228 52.089 255.5 52.089ZM78.7953 301.757L87.3756 230.557C87.7728 227.244 85.413 224.233 82.1015 223.832C78.7429 223.455 75.778 225.796 75.3808 229.11L67.0118 298.55L44.887 292.529L70.6838 136.098C79.4798 143.727 91.9259 150.44 106.981 156.149L100.592 307.689L78.7953 301.757ZM118.9 160.305C139.455 166.855 163.704 171.762 189.48 174.875L188.114 351.106L160.51 341.304L160.972 250.347C160.987 247.01 158.298 244.287 154.963 244.271C154.95 244.271 154.942 244.271 154.931 244.271C151.608 244.271 148.906 246.959 148.89 250.284L148.431 340.753L110.929 349.416L118.9 160.305ZM365.543 428.198C365.543 441.44 323.68 459.912 255.5 459.912C187.32 459.912 145.452 441.44 145.452 428.198C145.452 417.732 171.591 404.226 215.56 398.855V410.608C215.56 423.819 226.3 434.565 239.501 434.565H271.498C284.7 434.565 295.439 423.818 295.439 410.608V398.855C339.407 404.222 365.543 417.724 365.543 428.198ZM283.359 410.608C283.359 417.152 278.038 422.477 271.498 422.477H239.501C232.961 422.477 227.64 417.152 227.64 410.608V368.52L255 370.793C255.165 370.805 255.334 370.813 255.499 370.813C255.668 370.813 255.833 370.805 256.003 370.793L283.358 368.511L283.359 410.608ZM255.5 358.703L200.172 354.107L201.551 176.2C219.211 177.918 237.41 178.81 255.5 178.81C273.584 178.81 291.779 177.919 309.433 176.202L310.813 354.092L255.5 358.703ZM362.57 340.753L362.11 250.284C362.095 246.959 359.393 244.271 356.07 244.271C356.062 244.271 356.05 244.271 356.038 244.271C352.703 244.287 350.013 247.01 350.029 250.347L350.491 341.304L322.871 351.11L321.505 174.877C347.299 171.763 371.564 166.85 392.129 160.295L398.663 315.88C398.664 315.885 398.664 315.89 398.664 315.895L400.072 349.416L362.57 340.753ZM448.663 297.278L440.449 229.109C440.052 225.795 437.087 223.459 433.728 223.832C430.417 224.233 428.057 227.243 428.454 230.557L436.88 300.485L410.412 307.689L404.048 156.137C419.09 150.43 431.525 143.721 440.315 136.097L466.112 292.528L448.663 297.278Z" stroke="black" stroke-width="2" mask="url(#path-1-outside-1_5683_14283)"/>
</svg>
