<svg enable-background="new 0 0 512 512" viewBox="0 0 512 512" xmlns="http://www.w3.org/2000/svg"><g id="_x31_8170_-_Beach"><g><g><g><path d="m363.54 443.771h-269.118c-9.246 0-18.077-4.416-23.624-11.813l-64.587-86.117c-9.769-13.025-7.12-31.571 5.906-41.341 6.309-4.733 14.082-6.725 21.894-5.61 7.808 1.116 14.715 5.206 19.447 11.517l55.729 74.305h254.353c16.282 0 29.529 13.247 29.529 29.53 0 16.281-13.247 29.529-29.529 29.529zm-333.735-129.18c-2.906 0-5.721.933-8.086 2.708-5.969 4.477-7.183 12.975-2.708 18.942l64.588 86.117c2.542 3.389 6.587 5.412 10.823 5.412h269.118c7.46 0 13.529-6.069 13.529-13.529 0-7.461-6.069-13.53-13.529-13.53h-258.353c-2.518 0-4.889-1.186-6.4-3.2l-58.129-77.505c-2.169-2.892-5.333-4.766-8.911-5.276-.649-.093-1.298-.139-1.942-.139z"/></g></g><g><g><path d="m110.569 497.594c-4.418 0-8-3.582-8-8v-53.823c0-4.418 3.582-8 8-8s8 3.582 8 8v53.823c0 4.418-3.582 8-8 8z"/></g></g><g><g><path d="m368.922 497.594c-4.418 0-8-3.582-8-8v-53.823c0-4.418 3.582-8 8-8s8 3.582 8 8v53.823c0 4.418-3.582 8-8 8z"/></g></g><g><g><path d="m444.274 504.053h-430.587c-4.418 0-8-3.582-8-8s3.582-8 8-8h430.588c4.418 0 8 3.582 8 8s-3.583 8-8.001 8z"/></g></g><g><g><g><g><path d="m487.098 303.26c-.921 0-1.843-.159-2.725-.479l-283.394-102.646c-4.154-1.505-6.302-6.092-4.797-10.247l7.595-20.968c29.658-81.88 120.401-124.364 202.278-94.708l1.454.527c39.662 14.366 71.357 43.318 89.245 81.523s19.827 81.09 5.46 120.754l-7.595 20.969c-.723 1.995-2.208 3.621-4.129 4.521-1.072.501-2.231.754-3.392.754zm-273.148-115.445 268.35 97.198 4.871-13.447c12.911-35.646 11.168-74.186-4.907-108.52-16.076-34.334-44.561-60.354-80.206-73.265l-1.454-.527c-73.58-26.649-155.13 11.53-181.783 85.114z"/></g></g><g><g><path d="m416.248 277.6c-.904 0-1.824-.154-2.724-.48-4.154-1.505-6.302-6.092-4.797-10.246l7.332-20.242c13.294-36.704 18.662-73.659 15.115-104.06-3.27-28.031-14.147-47.368-29.844-53.053-34.318-12.433-85.582 38.506-111.926 111.238l-7.332 20.242c-1.505 4.154-6.092 6.301-10.246 4.797-4.154-1.505-6.302-6.092-4.797-10.247l7.332-20.242c30.309-83.673 88.467-136.747 132.419-120.832 21.922 7.94 36.229 31.466 40.287 66.243 3.829 32.819-1.841 72.369-15.965 111.363l-7.332 20.242c-1.178 3.254-4.249 5.277-7.522 5.277z"/></g></g></g><g><g><path d="m253.865 504.052c-.904 0-1.824-.154-2.723-.479-4.154-1.505-6.303-6.092-4.798-10.246l149.988-414.123c.034-.095.069-.188.107-.281l7.229-19.968c1.505-4.154 6.092-6.302 10.246-4.798s6.303 6.091 4.799 10.246l-7.328 20.239c-.035.095-.071.189-.109.283l-149.888 413.848c-1.179 3.255-4.25 5.279-7.523 5.279z"/></g></g></g><g><g><g><path d="m94.421 163.888c-34.09 0-61.824-27.734-61.824-61.823s27.734-61.823 61.824-61.823c34.089 0 61.823 27.734 61.823 61.823s-27.733 61.823-61.823 61.823zm0-107.646c-25.267 0-45.824 20.556-45.824 45.823s20.557 45.823 45.824 45.823 45.823-20.556 45.823-45.823-20.556-45.823-45.823-45.823z"/></g></g><g><g><g><path d="m94.421 56.242c-4.418 0-8-3.582-8-8v-32.295c0-4.418 3.582-8 8-8s8 3.582 8 8v32.294c0 4.419-3.581 8.001-8 8.001z"/></g></g><g><g><path d="m94.421 196.183c-4.418 0-8-3.582-8-8v-32.294c0-4.418 3.582-8 8-8s8 3.582 8 8v32.294c0 4.418-3.581 8-8 8z"/></g></g></g><g><g><g><path d="m132.48 72.006c-2.048 0-4.095-.781-5.657-2.343-3.125-3.124-3.125-8.189 0-11.313l22.835-22.835c3.125-3.125 8.19-3.124 11.313 0 3.125 3.124 3.125 8.189 0 11.313l-22.835 22.835c-1.561 1.562-3.609 2.343-5.656 2.343z"/></g></g><g><g><path d="m33.527 170.959c-2.048 0-4.095-.781-5.657-2.343-3.125-3.124-3.125-8.189 0-11.313l22.835-22.835c3.125-3.124 8.191-3.124 11.313 0 3.125 3.124 3.125 8.189 0 11.313l-22.835 22.835c-1.561 1.562-3.609 2.343-5.656 2.343z"/></g></g></g><g><g><g><path d="m180.539 110.065h-32.294c-4.418 0-8-3.582-8-8s3.582-8 8-8h32.294c4.418 0 8 3.582 8 8s-3.582 8-8 8z"/></g></g><g><g><path d="m40.598 110.065h-32.294c-4.418 0-8-3.582-8-8s3.582-8 8-8h32.294c4.418 0 8 3.582 8 8s-3.582 8-8 8z"/></g></g></g><g><g><g><path d="m155.315 170.959c-2.047 0-4.095-.781-5.657-2.343l-22.835-22.835c-3.125-3.124-3.125-8.189 0-11.313 3.124-3.124 8.189-3.124 11.313 0l22.835 22.835c3.125 3.124 3.125 8.189 0 11.313-1.561 1.562-3.608 2.343-5.656 2.343z"/></g></g><g><g><path d="m56.362 72.006c-2.047 0-4.095-.781-5.657-2.343l-22.835-22.835c-3.125-3.124-3.125-8.189 0-11.313 3.124-3.124 8.189-3.124 11.313 0l22.835 22.835c3.125 3.124 3.125 8.189 0 11.313-1.561 1.562-3.608 2.343-5.656 2.343z"/></g></g></g></g></g></g><g id="Layer_1"/></svg>