<svg width="512" height="512" viewBox="0 0 512 512" fill="none" xmlns="http://www.w3.org/2000/svg">
<path d="M391.45 168.917H379.07V159.648C390.551 148.218 397.323 132.415 397.323 116.711C397.323 83.917 370.23 57.149 336.627 56.378C333.722 41.8 326.074 28.482 314.649 18.316C301.375 6.504 284.139 0 266.114 0C241.293 0 218.448 12.455 205.407 32.432C194.349 23.587 180.407 18.655 165.88 18.655C140.091 18.655 117.197 34.107 107.975 56.974C105.403 56.66 102.816 56.502 100.237 56.502C65.948 56.502 38.051 83.575 38.051 116.853C38.051 140.846 52.672 162.37 74.949 171.984V307.059C74.949 311.201 78.306 314.559 82.449 314.559C86.592 314.559 89.949 311.201 89.949 307.059V205.317C91.094 206.608 92.298 207.86 93.564 209.067C101.408 216.542 110.957 221.743 121.339 224.366C118.868 228.487 117.444 233.304 117.444 238.449V409.882C117.444 425.046 129.781 437.382 144.944 437.382C160.107 437.382 172.444 425.046 172.444 409.882V238.449C172.444 231.285 169.682 224.761 165.176 219.864C175.083 215.008 183.595 207.599 189.693 198.209C191.288 198.346 192.881 198.415 194.46 198.415C217.837 198.415 238.7 184.266 246.295 164.026L364.07 163.924V434.5C364.07 446.907 353.976 457 341.57 457H191.681C187.538 457 184.181 460.358 184.181 464.5C184.181 468.642 187.538 472 191.681 472H341.57C350.005 472 357.798 469.199 364.07 464.48V474.5C364.07 486.907 353.976 497 341.57 497H112.449C100.043 497 89.949 486.907 89.949 474.5V464.473C96.221 469.193 104.012 472 112.449 472H201.681C205.824 472 209.181 468.642 209.181 464.5C209.181 460.358 205.824 457 201.681 457H112.449C100.043 457 89.949 446.907 89.949 434.5V297.059C89.949 292.917 86.592 289.559 82.449 289.559C78.306 289.559 74.949 292.917 74.949 297.059V474.5C74.949 495.178 91.771 512 112.449 512H341.57C362.248 512 379.07 495.178 379.07 474.5V434.52L431.281 399.01C457.999 380.839 473.95 350.7 473.95 318.389V251.417C473.95 205.926 436.94 168.917 391.45 168.917ZM379.07 223.917H396.45C408.856 223.917 418.95 234.01 418.95 246.417V318.884C418.95 331.376 412.765 343.002 402.405 349.983L379.07 365.707V223.917ZM157.444 409.882C157.444 416.775 151.837 422.382 144.944 422.382C138.051 422.382 132.444 416.775 132.444 409.882V238.449C132.444 231.556 138.051 225.949 144.944 225.949C151.837 225.949 157.444 231.556 157.444 238.449V409.882ZM240.749 149.031C237.276 149.034 234.259 151.421 233.458 154.801C229.591 171.113 212.825 183.415 194.46 183.415C192.028 183.415 189.546 183.191 187.082 182.748C183.879 182.171 180.668 183.732 179.137 186.605C171.014 201.864 154.911 211.343 137.114 211.343C111.504 211.343 90.345 191.319 89.949 166.707C89.897 163.521 87.84 160.715 84.815 159.71C65.816 153.395 53.051 136.172 53.051 116.852C53.051 91.846 74.218 71.501 100.237 71.501C103.944 71.501 107.674 71.929 111.323 72.773C115.235 73.679 119.185 71.329 120.248 67.444C125.688 47.549 144.453 33.653 165.881 33.653C179.649 33.653 192.702 39.428 201.693 49.499C203.379 51.387 205.9 52.298 208.404 51.92C210.906 51.544 213.05 49.931 214.104 47.631C223.199 27.809 243.615 15 266.114 15C295.302 15 320.165 36.887 322.716 64.828C323.086 68.882 326.634 71.899 330.687 71.629L331.682 71.558C332.699 71.484 334.401 71.36 335.138 71.36C361.157 71.36 382.324 91.704 382.324 116.711C382.324 128.433 377.235 140.281 368.595 148.919L240.749 149.031ZM458.95 318.389C458.95 345.729 445.453 371.231 422.846 386.607L379.07 416.38V383.795L410.788 362.422C425.291 352.649 433.95 336.373 433.95 318.884V246.417C433.95 225.739 417.128 208.917 396.45 208.917H379.07V183.917H391.45C428.67 183.917 458.95 214.197 458.95 251.417V318.389Z" fill="black"/>
<path d="M254.938 409.882V238.449C254.938 223.285 242.601 210.949 227.438 210.949C212.275 210.949 199.938 223.285 199.938 238.449V409.882C199.938 425.046 212.275 437.382 227.438 437.382C242.601 437.382 254.938 425.045 254.938 409.882ZM214.938 409.882V238.449C214.938 231.556 220.545 225.949 227.438 225.949C234.331 225.949 239.938 231.556 239.938 238.449V409.882C239.938 416.775 234.331 422.382 227.438 422.382C220.545 422.382 214.938 416.774 214.938 409.882Z" fill="black"/>
<path d="M329.932 280.676C334.075 280.676 337.432 277.318 337.432 273.176V238.448C337.432 223.284 325.095 210.948 309.932 210.948C294.769 210.948 282.432 223.284 282.432 238.448V409.881C282.432 425.045 294.769 437.381 309.932 437.381C325.095 437.381 337.432 425.045 337.432 409.881V263.176C337.432 259.034 334.075 255.676 329.932 255.676C325.789 255.676 322.432 259.034 322.432 263.176V409.882C322.432 416.775 316.825 422.382 309.932 422.382C303.039 422.382 297.432 416.775 297.432 409.882V238.449C297.432 231.556 303.039 225.949 309.932 225.949C316.825 225.949 322.432 231.556 322.432 238.449V273.177C322.432 277.318 325.79 280.676 329.932 280.676Z" fill="black"/>
</svg>
