<svg width="683" height="683" viewBox="0 0 683 683" fill="none" xmlns="http://www.w3.org/2000/svg">
<g clip-path="url(#clip0_396_2893)">
<path d="M448.333 230.328L288.908 322.082" stroke="black" stroke-width="20" stroke-miterlimit="10" stroke-linecap="round" stroke-linejoin="round"/>
<mask id="mask0_396_2893" style="mask-type:luminance" maskUnits="userSpaceOnUse" x="0" y="0" width="683" height="683">
<path d="M0 0.00012207H682.667V682.667H0V0.00012207Z" fill="white"/>
</mask>
<g mask="url(#mask0_396_2893)">
<path d="M379.349 466.53C379.349 487.738 362.156 504.931 340.948 504.931C319.74 504.931 302.545 487.738 302.545 466.53C302.545 445.321 319.74 428.129 340.948 428.129C362.156 428.129 379.349 445.321 379.349 466.53Z" stroke="black" stroke-width="20" stroke-miterlimit="10" stroke-linecap="round" stroke-linejoin="round"/>
<path d="M254.895 244.537L327.707 430.474" stroke="black" stroke-width="20" stroke-miterlimit="10" stroke-linecap="round" stroke-linejoin="round"/>
<path d="M343.9 428.125C350.712 378.808 375.254 295.657 462.802 275.824" stroke="black" stroke-width="20" stroke-miterlimit="10" stroke-linecap="round" stroke-linejoin="round"/>
<path d="M340.948 466.53V543.862" stroke="black" stroke-width="20" stroke-miterlimit="10" stroke-linecap="round" stroke-linejoin="round"/>
<path d="M319.029 545.264H362.866" stroke="black" stroke-width="20" stroke-miterlimit="10" stroke-linecap="round" stroke-linejoin="round"/>
<path d="M423.527 183.809L442.465 177.731" stroke="black" stroke-width="20" stroke-miterlimit="10" stroke-linecap="round" stroke-linejoin="round"/>
<path d="M430.95 177.73L430.153 175.322C426.089 163.03 429.274 149.497 438.396 140.309L446.328 132.32C452.132 126.476 453.588 117.593 449.954 110.202C445.672 101.489 435.585 97.3118 426.396 100.445L361.57 122.553" stroke="black" stroke-width="20" stroke-miterlimit="10" stroke-linecap="round" stroke-linejoin="round"/>
<path d="M406.752 95.8379L413.884 115.829" stroke="black" stroke-width="20" stroke-miterlimit="10" stroke-linecap="round" stroke-linejoin="round"/>
<path d="M290.495 199.708H211.771C209.051 199.708 206.449 200.825 204.577 202.798C201.269 206.286 200.939 211.644 203.793 215.51L212.504 227.317C224.415 243.458 245.769 249.449 264.339 241.856L272.609 238.474C279.335 235.724 286.531 234.31 293.797 234.31C302.44 234.31 309.447 227.302 309.447 218.66C309.447 208.193 300.963 199.708 290.495 199.708Z" stroke="black" stroke-width="20" stroke-miterlimit="10" stroke-linecap="round" stroke-linejoin="round"/>
<path d="M466.595 196.705L497.322 256.888C499.319 260.8 503.898 262.638 508.046 261.194L563.956 241.732C568.106 240.288 570.552 236.004 569.687 231.696L556.4 165.444L466.595 196.705Z" stroke="black" stroke-width="20" stroke-miterlimit="10" stroke-linecap="round" stroke-linejoin="round"/>
<path d="M440.526 205.78L565.295 162.347" stroke="black" stroke-width="20" stroke-miterlimit="10" stroke-linecap="round" stroke-linejoin="round"/>
<path d="M542.706 436.202C531.291 436.202 522.039 445.454 522.039 456.869C522.039 468.284 531.291 477.536 542.706 477.536C554.12 477.536 563.372 468.284 563.372 456.869C563.372 445.454 554.12 436.202 542.706 436.202Z" stroke="black" stroke-width="20" stroke-miterlimit="10" stroke-linecap="round" stroke-linejoin="round"/>
<path d="M139.961 436.202C128.546 436.202 119.294 445.454 119.294 456.869C119.294 468.284 128.546 477.536 139.961 477.536C151.376 477.536 160.628 468.284 160.628 456.869C160.628 445.454 151.376 436.202 139.961 436.202Z" stroke="black" stroke-width="20" stroke-miterlimit="10" stroke-linecap="round" stroke-linejoin="round"/>
<path d="M533.338 438.456L500.59 374.075C484.64 342.716 471.977 309.79 462.802 275.824L432.645 181.003" stroke="black" stroke-width="20" stroke-miterlimit="10" stroke-linecap="round" stroke-linejoin="round"/>
<path d="M151.915 440.014L265.399 280.001" stroke="black" stroke-width="20" stroke-miterlimit="10" stroke-linecap="round" stroke-linejoin="round"/>
<path d="M302.653 463.684L160.608 457.734" stroke="black" stroke-width="20" stroke-miterlimit="10" stroke-linecap="round" stroke-linejoin="round"/>
<path d="M139.962 326.911C68.1889 326.911 10.0022 385.095 10.0022 456.869C10.0022 528.644 68.1875 586.828 139.961 586.828C211.734 586.828 269.921 528.644 269.921 456.869C269.921 385.095 211.736 326.911 139.962 326.911Z" stroke="black" stroke-width="20" stroke-miterlimit="10" stroke-linecap="round" stroke-linejoin="round"/>
<path d="M542.705 326.91C470.931 326.91 412.747 385.094 412.747 456.869C412.747 528.644 470.931 586.829 542.705 586.829C614.48 586.829 672.664 528.644 672.664 456.869C672.664 385.094 614.48 326.91 542.705 326.91Z" stroke="black" stroke-width="20" stroke-miterlimit="10" stroke-linecap="round" stroke-linejoin="round"/>
</g>
</g>
<defs>
<clipPath id="clip0_396_2893">
<rect width="682.667" height="682.667" fill="white"/>
</clipPath>
</defs>
</svg>
