<svg width="512" height="512" viewBox="0 0 512 512" fill="none" xmlns="http://www.w3.org/2000/svg">
<path d="M136.668 257.598H94.0508C89.8086 257.602 85.7414 259.289 82.7418 262.289C79.7421 265.288 78.055 269.355 78.0508 273.598V290.777C78.055 295.02 79.7421 299.087 82.7418 302.086C85.7414 305.086 89.8086 306.773 94.0508 306.777H136.668C140.91 306.773 144.977 305.086 147.977 302.086C150.977 299.087 152.664 295.02 152.668 290.777V273.598C152.664 269.355 150.977 265.288 147.977 262.289C144.977 259.289 140.91 257.602 136.668 257.598ZM136.668 290.777H94.0508C94.0625 290.777 94.0165 273.574 94.0508 273.598H136.668V290.777Z" fill="black"/>
<path d="M142.087 323.59H88.6304C86.5357 323.631 84.5406 324.492 83.0737 325.988C81.6068 327.483 80.7851 329.495 80.7852 331.59C80.7852 333.685 81.6071 335.697 83.0741 337.193C84.5411 338.688 86.5363 339.549 88.631 339.59H142.087C144.182 339.549 146.177 338.688 147.644 337.192C149.111 335.697 149.933 333.685 149.933 331.59C149.933 329.495 149.111 327.483 147.644 325.987C146.177 324.491 144.182 323.631 142.087 323.59Z" fill="black"/>
<path d="M417.961 257.598H375.344C371.102 257.603 367.035 259.29 364.035 262.289C361.036 265.289 359.349 269.356 359.344 273.598V290.777C359.349 295.019 361.036 299.086 364.035 302.086C367.035 305.085 371.102 306.772 375.344 306.777H417.961C422.203 306.772 426.27 305.085 429.269 302.086C432.269 299.086 433.956 295.019 433.961 290.777V273.598C433.956 269.356 432.269 265.289 429.269 262.289C426.27 259.29 422.203 257.602 417.961 257.598ZM417.961 290.777H375.344V273.598H417.961L417.961 290.777Z" fill="black"/>
<path d="M423.377 323.59H369.923C367.829 323.631 365.834 324.492 364.367 325.988C362.9 327.483 362.078 329.495 362.078 331.59C362.078 333.685 362.9 335.697 364.367 337.193C365.834 338.688 367.829 339.549 369.924 339.59H423.377C425.471 339.549 427.466 338.688 428.933 337.192C430.4 335.697 431.222 333.685 431.222 331.59C431.222 329.495 430.4 327.483 428.933 325.987C427.466 324.491 425.471 323.631 423.377 323.59Z" fill="black"/>
<path d="M335.617 292.735C334.404 287.451 331.43 282.737 327.184 279.366C322.938 275.996 317.671 274.17 312.25 274.188H199.758C194.336 274.17 189.07 275.996 184.823 279.367C180.576 282.737 177.602 287.451 176.387 292.735L170.219 319.164C169.424 322.683 169.427 326.335 170.229 329.852C171.031 333.369 172.611 336.661 174.853 339.487C177.095 342.313 179.942 344.6 183.185 346.181C186.428 347.762 189.983 348.595 193.59 348.621H256.004H318.422C322.029 348.594 325.584 347.76 328.826 346.179C332.067 344.598 334.914 342.31 337.155 339.485C339.397 336.659 340.977 333.367 341.779 329.85C342.58 326.333 342.584 322.682 341.789 319.164L335.617 292.735ZM324.688 329.594C323.941 330.541 322.989 331.305 321.904 331.83C320.818 332.354 319.628 332.625 318.422 332.621H193.59C192.387 332.613 191.202 332.335 190.121 331.808C189.04 331.281 188.091 330.518 187.343 329.576C186.596 328.634 186.069 327.536 185.801 326.364C185.534 325.191 185.532 323.974 185.797 322.801L191.965 296.371C192.371 294.61 193.363 293.038 194.779 291.914C196.195 290.791 197.951 290.182 199.758 290.187C227.799 290.197 284.217 290.18 312.251 290.187C314.058 290.182 315.813 290.792 317.228 291.915C318.643 293.039 319.634 294.61 320.039 296.371L326.211 322.805C326.487 323.978 326.493 325.198 326.229 326.374C325.965 327.55 325.438 328.651 324.688 329.594Z" fill="black"/>
<path d="M464 160.992H436.703C433.022 161.242 429.494 162.56 426.55 164.784C423.607 167.008 421.375 170.042 420.129 173.515L400.867 138.801C393.249 125.072 382.096 113.63 368.567 105.663C355.037 97.6954 339.623 93.4918 323.922 93.4878H188.086C172.384 93.4917 156.968 97.6952 143.437 105.663C129.907 113.63 118.753 125.071 111.133 138.801L91.8768 173.514C90.6286 170.041 88.3952 167.007 85.4499 164.783C82.5045 162.559 78.9749 161.242 75.2928 160.993L48 160.992C43.7578 160.996 39.6906 162.683 36.691 165.683C33.6913 168.682 32.0042 172.75 32 176.992V194.14C32.0042 198.382 33.6913 202.45 36.691 205.449C39.6906 208.449 43.7578 210.136 48 210.14H60.563C56.2123 213.37 52.6428 217.536 50.1183 222.33C47.5937 227.125 46.1785 232.425 45.9772 237.84L45.9766 339.332C45.9632 345.009 47.4702 350.586 50.3409 355.484C53.2117 360.382 57.3414 364.422 62.3013 367.184C62.1053 367.773 61.9817 368.384 61.9333 369.004V396.476C61.9535 402.332 64.2956 407.94 68.4456 412.071C72.5956 416.202 78.2147 418.518 84.0703 418.512H125.875C131.73 418.518 137.349 416.202 141.499 412.071C145.649 407.94 147.991 402.332 148.012 396.477V377.106C182.223 379.397 220.713 381.25 256.004 381.25C291.297 381.25 329.784 379.398 363.992 377.107V396.476C364.012 402.331 366.353 407.939 370.503 412.07C374.652 416.201 380.27 418.518 386.125 418.512H427.93C433.785 418.518 439.403 416.201 443.552 412.07C447.701 407.939 450.042 402.331 450.062 396.477V369.004C450.014 368.386 449.891 367.777 449.697 367.189C454.659 364.428 458.791 360.388 461.664 355.489C464.536 350.59 466.045 345.011 466.031 339.332V237.84C465.832 232.425 464.419 227.124 461.894 222.329C459.37 217.535 455.8 213.369 451.448 210.141H464C468.242 210.136 472.309 208.449 475.308 205.449C478.308 202.45 479.995 198.383 480 194.141V176.992C479.995 172.75 478.308 168.683 475.308 165.683C472.309 162.684 468.242 160.997 464 160.992ZM125.125 146.558C131.36 135.326 140.486 125.966 151.557 119.448C162.627 112.93 175.239 109.491 188.086 109.488H323.922C336.768 109.492 349.38 112.931 360.45 119.449C371.521 125.967 380.647 135.327 386.883 146.558L408.602 185.71C357.98 191.913 307.001 194.744 256.004 194.187C205.006 194.745 154.028 191.913 103.406 185.71L125.125 146.558ZM48 194.14V176.992H75.293L82.445 188.874L77.026 194.14L48 194.14ZM132.012 396.476C132.013 397.278 131.855 398.072 131.546 398.812C131.237 399.551 130.784 400.222 130.212 400.784C129.641 401.346 128.963 401.789 128.218 402.085C127.473 402.382 126.677 402.527 125.875 402.512H84.0703C82.4568 402.523 80.9047 401.894 79.7543 400.763C78.6039 399.631 77.9491 398.09 77.9336 396.476V371.468C92.3584 372.819 110.996 374.447 132.012 375.989V396.476ZM427.93 402.512H386.125C385.324 402.526 384.528 402.381 383.783 402.084C383.039 401.787 382.361 401.345 381.79 400.783C381.219 400.221 380.766 399.55 380.457 398.811C380.148 398.071 379.99 397.278 379.992 396.476V375.989C401.003 374.447 419.637 372.819 434.062 371.469V396.476C434.048 398.09 433.394 399.631 432.244 400.762C431.094 401.894 429.543 402.523 427.93 402.512ZM450.031 339.332C450.056 343.309 448.588 347.151 445.918 350.099C443.248 353.046 439.57 354.886 435.609 355.254C396.242 358.988 320.555 365.25 256.004 365.25C191.457 365.25 115.766 358.988 76.3906 355.254C72.4318 354.884 68.7552 353.044 66.0868 350.096C63.4183 347.149 61.9517 343.308 61.9766 339.332V237.84C61.9809 235.701 62.412 233.585 63.2444 231.615C64.0769 229.645 65.294 227.861 66.8246 226.367C72.3676 220.864 88.2716 205.606 93.507 200.435C147.347 207.804 201.669 211.064 256.004 210.187C310.338 211.064 364.659 207.804 418.498 200.435C423.886 205.543 439.627 221.059 445.18 226.363C446.711 227.857 447.929 229.642 448.762 231.613C449.595 233.583 450.026 235.7 450.031 237.84V339.332ZM464 194.14H434.986L429.559 188.866L436.703 176.992H464V194.14Z" fill="black"/>
</svg>
