<svg width="513" height="513" viewBox="0 0 513 513" fill="none" xmlns="http://www.w3.org/2000/svg">
<g clip-path="url(#clip0_5683_14385)">
<mask id="mask0_5683_14385" style="mask-type:luminance" maskUnits="userSpaceOnUse" x="0" y="0" width="513" height="513">
<path d="M0.333984 0.334015H512.334V512.334H0.333984V0.334015Z" fill="white"/>
</mask>
<g mask="url(#mask0_5683_14385)">
<path d="M213.154 441.815C224.909 447.638 239.272 447.665 251.478 440.611L261.178 435.005C261.178 435.005 261.178 435.014 261.187 435.005" stroke="black" stroke-width="13.5817" stroke-miterlimit="10" stroke-linecap="round" stroke-linejoin="round"/>
<path d="M463.585 243.645L475.556 264.38C486.756 283.793 480.119 308.593 460.715 319.802L349.68 383.908" stroke="black" stroke-width="13.5817" stroke-miterlimit="10" stroke-linecap="round" stroke-linejoin="round"/>
<path d="M330.337 402.449V402.458L311.238 425.216C307.95 429.137 304.074 432.279 299.846 434.625" stroke="black" stroke-width="13.5817" stroke-miterlimit="10" stroke-linecap="round" stroke-linejoin="round"/>
<path d="M229.951 409.983L254.077 430.223C259.845 435.059 266.565 438.02 273.492 439.161" stroke="black" stroke-width="13.5817" stroke-miterlimit="10" stroke-linecap="round" stroke-linejoin="round"/>
<path d="M353.131 375.282L353.14 375.273L466.528 240.132C480.946 222.98 478.7 197.389 461.539 182.989L432.108 158.294" stroke="black" stroke-width="13.5817" stroke-miterlimit="10" stroke-linecap="round" stroke-linejoin="round"/>
<path d="M348.456 77.9868L410.008 100.391C431.064 108.052 441.923 131.335 434.252 152.389L351.626 379.421C343.955 400.484 320.672 411.324 299.618 403.672L234.705 380.046" stroke="black" stroke-width="13.5817" stroke-miterlimit="10" stroke-linecap="round" stroke-linejoin="round"/>
<path d="M101.975 282.061V71.6015C101.975 49.1889 120.141 31.032 142.546 31.032H307.887C330.292 31.032 348.458 49.1889 348.458 71.6015V106.34" stroke="black" stroke-width="13.5817" stroke-miterlimit="10" stroke-linecap="round" stroke-linejoin="round"/>
<path d="M348.455 133.509V313.204C348.455 335.608 330.29 353.774 307.885 353.774H231.525" stroke="black" stroke-width="13.5817" stroke-miterlimit="10" stroke-linecap="round" stroke-linejoin="round"/>
<path d="M284.187 192.401L225.217 106.699L166.248 192.401L225.217 278.103L284.187 192.401Z" stroke="black" stroke-width="13.5817" stroke-miterlimit="10" stroke-linecap="round" stroke-linejoin="round"/>
<path d="M392.826 137.542L384.441 160.576" stroke="black" stroke-width="13.5817" stroke-miterlimit="10" stroke-linecap="round" stroke-linejoin="round"/>
<path d="M404.342 141.734L381.309 133.351" stroke="black" stroke-width="13.5817" stroke-miterlimit="10" stroke-linecap="round" stroke-linejoin="round"/>
<path d="M143.508 64.391V88.9033" stroke="black" stroke-width="13.5817" stroke-miterlimit="10" stroke-linecap="round" stroke-linejoin="round"/>
<path d="M155.766 64.3916H131.254" stroke="black" stroke-width="13.5817" stroke-miterlimit="10" stroke-linecap="round" stroke-linejoin="round"/>
<path d="M306.924 320.411V295.899" stroke="black" stroke-width="13.5817" stroke-miterlimit="10" stroke-linecap="round" stroke-linejoin="round"/>
<path d="M294.67 320.411H319.181" stroke="black" stroke-width="13.5817" stroke-miterlimit="10" stroke-linecap="round" stroke-linejoin="round"/>
<path d="M234.715 379.144C234.715 322.891 189.113 277.289 132.859 277.289C76.606 277.289 31.0039 322.891 31.0039 379.144C31.0039 435.397 76.606 481 132.859 481C189.113 481 234.715 435.397 234.715 379.144Z" stroke="black" stroke-width="13.5817" stroke-miterlimit="10" stroke-linecap="round" stroke-linejoin="round"/>
<path d="M193.866 379.144C193.866 345.451 166.552 318.137 132.859 318.137C99.1662 318.137 71.8516 345.451 71.8516 379.144C71.8516 412.838 99.1662 440.151 132.859 440.151C166.552 440.151 193.866 412.838 193.866 379.144Z" stroke="black" stroke-width="13.5817" stroke-miterlimit="10" stroke-linecap="round" stroke-linejoin="round"/>
<path d="M132.855 481V440.149" stroke="black" stroke-width="13.5817" stroke-miterlimit="10" stroke-linejoin="round"/>
<path d="M132.855 318.139V277.288" stroke="black" stroke-width="13.5817" stroke-miterlimit="10" stroke-linejoin="round"/>
<path d="M81.9258 467.354L102.352 431.977" stroke="black" stroke-width="13.5817" stroke-miterlimit="10" stroke-linejoin="round"/>
<path d="M163.357 326.312L183.783 290.934" stroke="black" stroke-width="13.5817" stroke-miterlimit="10" stroke-linejoin="round"/>
<path d="M44.6445 430.072L80.0222 409.646" stroke="black" stroke-width="13.5817" stroke-miterlimit="10" stroke-linejoin="round"/>
<path d="M185.686 348.642L221.063 328.216" stroke="black" stroke-width="13.5817" stroke-miterlimit="10" stroke-linejoin="round"/>
<path d="M31 379.145H71.8511" stroke="black" stroke-width="13.5817" stroke-miterlimit="10" stroke-linejoin="round"/>
<path d="M193.857 379.145H234.709" stroke="black" stroke-width="13.5817" stroke-miterlimit="10" stroke-linejoin="round"/>
<path d="M44.6445 328.216L80.0222 348.642" stroke="black" stroke-width="13.5817" stroke-miterlimit="10" stroke-linejoin="round"/>
<path d="M185.686 409.646L221.063 430.072" stroke="black" stroke-width="13.5817" stroke-miterlimit="10" stroke-linejoin="round"/>
<path d="M81.9258 290.934L102.352 326.312" stroke="black" stroke-width="13.5817" stroke-miterlimit="10" stroke-linejoin="round"/>
<path d="M163.357 431.977L183.783 467.354" stroke="black" stroke-width="13.5817" stroke-miterlimit="10" stroke-linejoin="round"/>
<path d="M107.633 356.132V402.158" stroke="black" stroke-width="13.5817" stroke-miterlimit="10" stroke-linecap="round" stroke-linejoin="round"/>
<path d="M158.082 379.145C158.082 365.214 151.742 353.92 143.921 353.92C136.1 353.92 129.76 365.214 129.76 379.145C129.76 393.077 136.1 404.37 143.921 404.37C151.742 404.37 158.082 393.077 158.082 379.145Z" stroke="black" stroke-width="13.5817" stroke-miterlimit="10" stroke-linecap="round" stroke-linejoin="round"/>
</g>
</g>
<defs>
<clipPath id="clip0_5683_14385">
<rect width="512" height="512" fill="white" transform="translate(0.333984 0.333008)"/>
</clipPath>
</defs>
</svg>
