<svg width="66" height="66" viewBox="0 0 66 66" fill="none" xmlns="http://www.w3.org/2000/svg">
<path d="M64.2803 64.8198H1.78027C1.37027 64.8198 1.03027 64.4798 1.03027 64.0698V60.3198C1.03027 59.9098 1.37027 59.5698 1.78027 59.5698H64.2803C64.6903 59.5698 65.0303 59.9098 65.0303 60.3198V64.0698C65.0303 64.4798 64.6903 64.8198 64.2803 64.8198ZM2.53027 63.3198H63.5303V61.0698H2.53027V63.3198Z" fill="black"/>
<path d="M34.2704 61.07H7.86035C7.45035 61.07 7.11035 60.73 7.11035 60.32V10.45C7.11035 10.04 7.45035 9.69995 7.86035 9.69995H34.2704C34.6804 9.69995 35.0204 10.04 35.0204 10.45V60.32C35.0204 60.73 34.6904 61.07 34.2704 61.07ZM8.61035 59.57H33.5204V11.2H8.61035V59.57Z" fill="black"/>
<path d="M60.4505 61.0699H34.2705C33.8605 61.0699 33.5205 60.7299 33.5205 60.3199V21.1699C33.5205 20.7599 33.8605 20.4199 34.2705 20.4199H60.4505C60.8605 20.4199 61.2005 20.7599 61.2005 21.1699V60.3199C61.2005 60.7299 60.8605 61.0699 60.4505 61.0699ZM35.0205 59.5699H59.7005V21.9199H35.0205V59.5699Z" fill="black"/>
<path d="M36.7898 11.1999H5.33984C4.92984 11.1999 4.58984 10.8599 4.58984 10.4499V6.37988C4.58984 5.96988 4.92984 5.62988 5.33984 5.62988H36.7898C37.1998 5.62988 37.5398 5.96988 37.5398 6.37988V10.4499C37.5398 10.8599 37.2098 11.1999 36.7898 11.1999ZM6.08984 9.69988H36.0398V7.12988H6.08984V9.69988Z" fill="black"/>
<path d="M63.1905 21.9199H34.2705C33.8605 21.9199 33.5205 21.5799 33.5205 21.1699V17.0999C33.5205 16.6899 33.8605 16.3499 34.2705 16.3499H63.1905C63.6005 16.3499 63.9405 16.6899 63.9405 17.0999V21.1699C63.9405 21.5799 63.6105 21.9199 63.1905 21.9199ZM35.0205 20.4199H62.4405V17.8499H35.0205V20.4199Z" fill="black"/>
<path d="M44.2805 32.01H37.7705C37.3605 32.01 37.0205 31.67 37.0205 31.26V24.75C37.0205 24.34 37.3605 24 37.7705 24H44.2805C44.6905 24 45.0305 24.34 45.0305 24.75V31.26C45.0305 31.67 44.6905 32.01 44.2805 32.01ZM38.5105 30.51H43.5205V25.5H38.5105V30.51Z" fill="black"/>
<path d="M50.6703 32.01H44.2803C43.8703 32.01 43.5303 31.67 43.5303 31.26V24.75C43.5303 24.34 43.8703 24 44.2803 24H50.6703C51.0803 24 51.4203 24.34 51.4203 24.75V31.26C51.4203 31.67 51.0803 32.01 50.6703 32.01ZM45.0303 30.51H49.9203V25.5H45.0303V30.51Z" fill="black"/>
<path d="M57.1799 32.01H50.6699C50.2599 32.01 49.9199 31.67 49.9199 31.26V24.75C49.9199 24.34 50.2599 24 50.6699 24H57.1799C57.5899 24 57.9299 24.34 57.9299 24.75V31.26C57.9299 31.67 57.5999 32.01 57.1799 32.01ZM51.4199 30.51H56.4299V25.5H51.4199V30.51Z" fill="black"/>
<path d="M14.3804 24.3699H7.86035C7.45035 24.3699 7.11035 24.0299 7.11035 23.6199V17.0999C7.11035 16.6899 7.45035 16.3499 7.86035 16.3499H14.3704C14.7804 16.3499 15.1204 16.6899 15.1204 17.0999V23.6099C15.1204 24.0299 14.7904 24.3699 14.3804 24.3699ZM8.61035 22.8699H13.6204V17.8599H8.61035V22.8699Z" fill="black"/>
<path d="M20.7699 24.3699H14.3799C13.9699 24.3699 13.6299 24.0299 13.6299 23.6199V17.0999C13.6299 16.6899 13.9699 16.3499 14.3799 16.3499H20.7699C21.1799 16.3499 21.5199 16.6899 21.5199 17.0999V23.6099C21.5199 24.0299 21.1799 24.3699 20.7699 24.3699ZM15.1199 22.8699H20.0099V17.8599H15.1199V22.8699Z" fill="black"/>
<path d="M27.2805 24.3699H20.7705C20.3605 24.3699 20.0205 24.0299 20.0205 23.6199V17.0999C20.0205 16.6899 20.3605 16.3499 20.7705 16.3499H27.2805C27.6905 16.3499 28.0305 16.6899 28.0305 17.0999V23.6099C28.0305 24.0299 27.6905 24.3699 27.2805 24.3699ZM21.5205 22.8699H26.5305V17.8599H21.5205V22.8699Z" fill="black"/>
<path d="M14.3804 37.5H7.86035C7.45035 37.5 7.11035 37.16 7.11035 36.75V30.24C7.11035 29.83 7.45035 29.49 7.86035 29.49H14.3704C14.7804 29.49 15.1204 29.83 15.1204 30.24V36.75C15.1204 37.17 14.7904 37.5 14.3804 37.5ZM8.61035 36H13.6204V30.99H8.61035V36Z" fill="black"/>
<path d="M20.7699 37.5H14.3799C13.9699 37.5 13.6299 37.16 13.6299 36.75V30.24C13.6299 29.83 13.9699 29.49 14.3799 29.49H20.7699C21.1799 29.49 21.5199 29.83 21.5199 30.24V36.75C21.5199 37.17 21.1799 37.5 20.7699 37.5ZM15.1199 36H20.0099V30.99H15.1199V36Z" fill="black"/>
<path d="M27.2805 37.5H20.7705C20.3605 37.5 20.0205 37.16 20.0205 36.75V30.24C20.0205 29.83 20.3605 29.49 20.7705 29.49H27.2805C27.6905 29.49 28.0305 29.83 28.0305 30.24V36.75C28.0305 37.17 27.6905 37.5 27.2805 37.5ZM21.5205 36H26.5305V30.99H21.5205V36Z" fill="black"/>
<path d="M14.3804 50.6399H7.86035C7.45035 50.6399 7.11035 50.2999 7.11035 49.8899V43.3799C7.11035 42.9699 7.45035 42.6299 7.86035 42.6299H14.3704C14.7804 42.6299 15.1204 42.9699 15.1204 43.3799V49.8899C15.1204 50.2999 14.7904 50.6399 14.3804 50.6399ZM8.61035 49.1399H13.6204V44.1299H8.61035V49.1399Z" fill="black"/>
<path d="M20.7699 50.6399H14.3799C13.9699 50.6399 13.6299 50.2999 13.6299 49.8899V43.3799C13.6299 42.9699 13.9699 42.6299 14.3799 42.6299H20.7699C21.1799 42.6299 21.5199 42.9699 21.5199 43.3799V49.8899C21.5199 50.2999 21.1799 50.6399 20.7699 50.6399ZM15.1199 49.1399H20.0099V44.1299H15.1199V49.1399Z" fill="black"/>
<path d="M27.2805 50.6399H20.7705C20.3605 50.6399 20.0205 50.2999 20.0205 49.8899V43.3799C20.0205 42.9699 20.3605 42.6299 20.7705 42.6299H27.2805C27.6905 42.6299 28.0305 42.9699 28.0305 43.3799V49.8899C28.0305 50.2999 27.6905 50.6399 27.2805 50.6399ZM21.5205 49.1399H26.5305V44.1299H21.5205V49.1399Z" fill="black"/>
<path d="M44.2805 42.6499H37.7705C37.3605 42.6499 37.0205 42.3099 37.0205 41.8999V35.3899C37.0205 34.9799 37.3605 34.6399 37.7705 34.6399H44.2805C44.6905 34.6399 45.0305 34.9799 45.0305 35.3899V41.8999C45.0305 42.3099 44.6905 42.6499 44.2805 42.6499ZM38.5105 41.1499H43.5205V36.1399H38.5105V41.1499Z" fill="black"/>
<path d="M50.6703 42.6499H44.2803C43.8703 42.6499 43.5303 42.3099 43.5303 41.8999V35.3899C43.5303 34.9799 43.8703 34.6399 44.2803 34.6399H50.6703C51.0803 34.6399 51.4203 34.9799 51.4203 35.3899V41.8999C51.4203 42.3099 51.0803 42.6499 50.6703 42.6499ZM45.0303 41.1499H49.9203V36.1399H45.0303V41.1499Z" fill="black"/>
<path d="M57.1799 42.6499H50.6699C50.2599 42.6499 49.9199 42.3099 49.9199 41.8999V35.3899C49.9199 34.9799 50.2599 34.6399 50.6699 34.6399H57.1799C57.5899 34.6399 57.9299 34.9799 57.9299 35.3899V41.8999C57.9299 42.3099 57.5999 42.6499 57.1799 42.6499ZM51.4199 41.1499H56.4299V36.1399H51.4199V41.1499Z" fill="black"/>
<path d="M44.2805 53.2798H37.7705C37.3605 53.2798 37.0205 52.9398 37.0205 52.5298V46.0198C37.0205 45.6098 37.3605 45.2698 37.7705 45.2698H44.2805C44.6905 45.2698 45.0305 45.6098 45.0305 46.0198V52.5298C45.0305 52.9498 44.6905 53.2798 44.2805 53.2798ZM38.5105 51.7798H43.5205V46.7698H38.5105V51.7798Z" fill="black"/>
<path d="M50.6703 53.2798H44.2803C43.8703 53.2798 43.5303 52.9398 43.5303 52.5298V46.0198C43.5303 45.6098 43.8703 45.2698 44.2803 45.2698H50.6703C51.0803 45.2698 51.4203 45.6098 51.4203 46.0198V52.5298C51.4203 52.9498 51.0803 53.2798 50.6703 53.2798ZM45.0303 51.7798H49.9203V46.7698H45.0303V51.7798Z" fill="black"/>
<path d="M57.1799 53.2798H50.6699C50.2599 53.2798 49.9199 52.9398 49.9199 52.5298V46.0198C49.9199 45.6098 50.2599 45.2698 50.6699 45.2698H57.1799C57.5899 45.2698 57.9299 45.6098 57.9299 46.0198V52.5298C57.9299 52.9498 57.5999 53.2798 57.1799 53.2798ZM51.4199 51.7798H56.4299V46.7698H51.4199V51.7798Z" fill="black"/>
<path d="M59.7098 17.8498H40.3398C39.9298 17.8498 39.5898 17.5098 39.5898 17.0998V12.2798C39.5898 11.8698 39.9298 11.5298 40.3398 11.5298H59.6998C60.1098 11.5298 60.4498 11.8698 60.4498 12.2798V17.0998C60.4598 17.5198 60.1198 17.8498 59.7098 17.8498ZM41.0898 16.3498H58.9498V13.0298H41.0898V16.3498Z" fill="black"/>
<path d="M57.1807 13.0299H54.4307C54.0207 13.0299 53.6807 12.6899 53.6807 12.2799V2.87988C53.6807 2.46988 54.0207 2.12988 54.4307 2.12988H57.1807C57.5907 2.12988 57.9307 2.46988 57.9307 2.87988V12.2799C57.9307 12.6999 57.6007 13.0299 57.1807 13.0299ZM55.1807 11.5299H56.4307V3.62988H55.1807V11.5299Z" fill="black"/>
<path d="M46.9902 13.0299H44.2402C43.8302 13.0299 43.4902 12.6899 43.4902 12.2799V6.37988C43.4902 5.96988 43.8302 5.62988 44.2402 5.62988H46.9902C47.4002 5.62988 47.7402 5.96988 47.7402 6.37988V12.2799C47.7402 12.6999 47.4002 13.0299 46.9902 13.0299ZM44.9902 11.5299H46.2402V7.12988H44.9902V11.5299Z" fill="black"/>
</svg>
