<svg width="512" height="512" viewBox="0 0 512 512" fill="none" xmlns="http://www.w3.org/2000/svg">
<path d="M465.929 220.634C470.189 220.629 474.274 218.934 477.287 215.921C480.3 212.908 481.995 208.823 482 204.563V174.429C481.995 170.169 480.3 166.084 477.287 163.071C474.274 160.058 470.189 158.363 465.929 158.358H444.717C442.605 158.387 440.588 159.246 439.104 160.75C437.62 162.254 436.788 164.281 436.788 166.394C436.788 168.507 437.62 170.534 439.104 172.038C440.588 173.542 442.605 174.401 444.717 174.429H465.929V204.563C460.593 204.483 383.5 204.62 375.684 204.563L375.684 174.429H461.832C463.942 174.397 465.954 173.536 467.434 172.032C468.915 170.529 469.744 168.504 469.744 166.394C469.744 164.284 468.915 162.259 467.434 160.756C465.954 159.252 463.942 158.391 461.832 158.358H375.684V136.931C379.031 135.979 381.978 133.964 384.08 131.19C386.182 128.417 387.325 125.035 387.337 121.555V87.9655C387.332 83.7047 385.637 79.6198 382.625 76.607C379.612 73.5941 375.527 71.8994 371.266 71.8945H318.917C312.075 61.765 302.852 53.469 292.057 47.7339C281.261 41.9988 269.224 38.9999 257 39C244.776 39.0001 232.738 41.9994 221.943 47.7347C211.148 53.47 201.925 61.7663 195.083 71.8959L142.734 71.8945C138.473 71.8994 134.388 73.5941 131.375 76.607C128.363 79.6198 126.668 83.7047 126.663 87.9655V121.555C126.675 125.035 127.818 128.417 129.92 131.19C132.022 133.964 134.969 135.979 138.316 136.931V158.358H48.0714C43.8105 158.363 39.7255 160.058 36.7126 163.071C33.6997 166.084 32.0049 170.169 32 174.429V204.563C32.0771 207.06 32.7041 209.51 33.8364 211.738C34.9686 213.966 36.5783 215.917 38.5506 217.451C40.523 218.986 42.8095 220.067 45.2473 220.617C47.6851 221.167 50.2142 221.172 52.6544 220.633V420.395H48.0714C43.8105 420.4 39.7255 422.094 36.7126 425.107C33.6997 428.12 32.0049 432.205 32 436.466V459.929C32.0049 464.19 33.6997 468.275 36.7126 471.288C39.7255 474.3 43.8105 475.995 48.0714 476H411.366C413.48 475.973 415.498 475.115 416.983 473.611C418.468 472.107 419.301 470.078 419.301 467.964C419.301 465.851 418.468 463.822 416.983 462.318C415.498 460.814 413.48 459.956 411.366 459.929H48.0714V436.465C52.1146 436.741 363.791 436.464 465.929 436.465V459.929H384.206C382.095 459.96 380.082 460.821 378.6 462.324C377.119 463.828 376.289 465.854 376.289 467.964C376.289 470.075 377.119 472.101 378.6 473.605C380.082 475.108 382.095 475.969 384.206 476H465.929C470.189 475.995 474.274 474.3 477.287 471.288C480.3 468.275 481.995 464.19 482 459.929V436.465C481.923 433.967 481.296 431.517 480.164 429.289C479.032 427.061 477.422 425.111 475.45 423.576C473.477 422.041 471.191 420.96 468.753 420.411C466.315 419.861 463.786 419.855 461.346 420.395V220.633L465.929 220.634ZM138.316 420.394H68.7257V220.634H138.316V420.394ZM138.316 204.562H48.0714V174.429H138.316V204.562ZM257 54.7916C272.479 54.8096 287.319 60.9664 298.264 71.9114C309.21 82.8565 315.366 97.6959 315.384 113.175C312.319 190.571 201.669 190.549 198.615 113.174C198.634 97.6954 204.791 82.856 215.736 71.9112C226.681 60.9663 241.521 54.8095 257 54.7916ZM142.734 121.555V87.9655H187.031C183.104 98.6986 181.74 110.201 183.048 121.555H142.734ZM315.58 420.394H265.036V258.802H293.561C299.398 258.809 304.995 261.13 309.123 265.257C313.251 269.384 315.573 274.98 315.58 280.817V420.394ZM359.612 420.394H331.652V280.817C331.64 270.719 327.623 261.038 320.482 253.898C313.341 246.758 303.659 242.742 293.561 242.731H220.439C210.341 242.742 200.659 246.758 193.518 253.898C186.377 261.038 182.36 270.719 182.348 280.817V342.531C182.378 344.643 183.238 346.658 184.742 348.14C186.245 349.623 188.272 350.454 190.384 350.454C192.496 350.454 194.523 349.623 196.026 348.14C197.53 346.658 198.39 344.643 198.42 342.531V280.817C198.427 274.98 200.749 269.384 204.877 265.257C209.006 261.13 214.602 258.808 220.439 258.802H248.964V420.394H198.42V305.328C198.39 303.216 197.53 301.202 196.026 299.719C194.522 298.236 192.495 297.405 190.384 297.405C188.272 297.405 186.245 298.237 184.741 299.719C183.238 301.202 182.378 303.217 182.348 305.328V420.394H154.388V137.626H186.754C191.885 152.157 201.396 164.74 213.977 173.639C226.558 182.539 241.59 187.318 257 187.318C272.411 187.318 287.442 182.539 300.023 173.639C312.604 164.739 322.115 152.157 327.246 137.625L359.612 137.627L359.612 420.394ZM371.265 121.555H330.952C332.261 110.201 330.897 98.6982 326.969 87.9652H371.266L371.265 121.555ZM445.274 420.394H375.684V220.634H445.274V420.394Z" fill="black"/>
<path d="M401.673 268.809H415.931C418.052 268.809 420.087 267.966 421.588 266.465C423.088 264.965 423.931 262.93 423.931 260.809C423.931 258.687 423.088 256.652 421.588 255.152C420.087 253.651 418.052 252.809 415.931 252.809H401.673C399.571 252.838 397.565 253.694 396.089 255.191C394.613 256.688 393.785 258.706 393.785 260.809C393.785 262.911 394.613 264.929 396.089 266.426C397.565 267.923 399.571 268.779 401.673 268.809Z" fill="black"/>
<path d="M401.673 303.738H415.931C418.052 303.738 420.087 302.895 421.588 301.395C423.088 299.895 423.931 297.86 423.931 295.738C423.931 293.617 423.088 291.582 421.588 290.081C420.087 288.581 418.052 287.738 415.931 287.738H401.673C399.571 287.768 397.565 288.624 396.089 290.121C394.613 291.618 393.785 293.636 393.785 295.738C393.785 297.841 394.613 299.859 396.089 301.356C397.565 302.853 399.571 303.709 401.673 303.738Z" fill="black"/>
<path d="M401.673 338.668H415.931C418.052 338.668 420.087 337.825 421.588 336.325C423.088 334.825 423.931 332.79 423.931 330.668C423.931 328.546 423.088 326.511 421.588 325.011C420.087 323.511 418.052 322.668 415.931 322.668H401.673C399.571 322.698 397.565 323.554 396.089 325.051C394.613 326.548 393.785 328.566 393.785 330.668C393.785 332.77 394.613 334.788 396.089 336.285C397.565 337.782 399.571 338.638 401.673 338.668Z" fill="black"/>
<path d="M92.9228 268.809H107.181C109.302 268.809 111.337 267.966 112.838 266.465C114.338 264.965 115.181 262.93 115.181 260.809C115.181 258.687 114.338 256.652 112.838 255.152C111.337 253.651 109.302 252.809 107.181 252.809H92.9228C90.8207 252.838 88.8147 253.694 87.3387 255.191C85.8626 256.688 85.0352 258.706 85.0352 260.809C85.0352 262.911 85.8626 264.929 87.3387 266.426C88.8147 267.923 90.8207 268.779 92.9228 268.809Z" fill="black"/>
<path d="M92.9228 303.738H107.181C109.302 303.738 111.337 302.895 112.838 301.395C114.338 299.895 115.181 297.86 115.181 295.738C115.181 293.617 114.338 291.582 112.838 290.081C111.337 288.581 109.302 287.738 107.181 287.738H92.9228C90.8207 287.768 88.8147 288.624 87.3387 290.121C85.8626 291.618 85.0352 293.636 85.0352 295.738C85.0352 297.841 85.8626 299.859 87.3387 301.356C88.8147 302.853 90.8207 303.709 92.9228 303.738Z" fill="black"/>
<path d="M92.9228 338.668H107.181C109.302 338.668 111.337 337.825 112.838 336.325C114.338 334.825 115.181 332.79 115.181 330.668C115.181 328.546 114.338 326.511 112.838 325.011C111.337 323.511 109.302 322.668 107.181 322.668H92.9228C90.8207 322.698 88.8147 323.554 87.3387 325.051C85.8626 326.548 85.0352 328.566 85.0352 330.668C85.0352 332.77 85.8626 334.788 87.3387 336.285C88.8147 337.782 90.8207 338.638 92.9228 338.668Z" fill="black"/>
</svg>
