<?xml version="1.0" encoding="UTF-8"?>
<svg xmlns="http://www.w3.org/2000/svg" id="Layer_1" data-name="Layer 1" viewBox="0 0 64 64" width="512" height="512"><path d="M13,24a5,5,0,1,1,5-5A5.006,5.006,0,0,1,13,24Zm0-8a3,3,0,1,0,3,3A3,3,0,0,0,13,16Z"/><path d="M10.984,44.179l-1.968-.358,2-11a1,1,0,0,1,1.879-.268L15.618,38h7.24a1.142,1.142,0,0,0,.162-2.272l-5.162-.738a1,1,0,0,1-.706-.46l-4.077-6.523a3.036,3.036,0,0,0-5.393.481L4.414,36.657A19.7,19.7,0,0,0,3,44H1a21.681,21.681,0,0,1,1.557-8.085l3.267-8.169a5.037,5.037,0,0,1,8.947-.8l3.831,6.13,4.7.671A3.142,3.142,0,0,1,22.858,40H15a1,1,0,0,1-.895-.553l-1.658-3.316Z"/><path d="M51,24a5,5,0,1,1,5-5A5.006,5.006,0,0,1,51,24Zm0-8a3,3,0,1,0,3,3A3,3,0,0,0,51,16Z"/><path d="M53.016,44.179l-1.463-8.048L49.9,39.447A1,1,0,0,1,49,40H41.142a3.142,3.142,0,0,1-.444-6.253l4.7-.671,3.831-6.13a5.037,5.037,0,0,1,8.947.8l3.267,8.169A21.681,21.681,0,0,1,63,44H61a19.7,19.7,0,0,0-1.414-7.343l-3.268-8.169a3.037,3.037,0,0,0-5.394-.481L46.848,34.53a1,1,0,0,1-.706.46l-5.161.738A1.142,1.142,0,0,0,41.142,38h7.24l2.723-5.447a1,1,0,0,1,1.879.268l2,11Z"/><path d="M32,49a6.006,6.006,0,0,1-6-6V42a6,6,0,0,1,12,0v1A6.006,6.006,0,0,1,32,49Zm0-11a4,4,0,0,0-4,4v1a4,4,0,0,0,8,0V42A4,4,0,0,0,32,38Z"/><path d="M43,60H41V55a3,3,0,0,0-3-3H26a3,3,0,0,0-3,3v5H21V55a5.006,5.006,0,0,1,5-5H38a5.006,5.006,0,0,1,5,5Z"/><path d="M32,14a5.006,5.006,0,0,1-5-5V8A5,5,0,0,1,37,8V9A5.006,5.006,0,0,1,32,14Zm0-9a3,3,0,0,0-3,3V9a3,3,0,0,0,6,0V8A3,3,0,0,0,32,5Z"/><path d="M41,24H39V20a3,3,0,0,0-3-3H28a3,3,0,0,0-3,3v4H23V20a5.006,5.006,0,0,1,5-5h8a5.006,5.006,0,0,1,5,5Z"/><path d="M19,54H11a1,1,0,0,1-1-1V49a.985.985,0,0,1,.069-.364l3-7.667,1.862.728L12,49.188V52h7Z"/><path d="M44.634,30.364,43.317,27H20.683l-1.317,3.364L17.5,29.636l1.566-4A1,1,0,0,1,20,25H44a1,1,0,0,1,.931.636l1.566,4Z"/><path d="M53,54H45V52h7V49.188L49.069,41.7l1.862-.728,3,7.667A.985.985,0,0,1,54,49v4A1,1,0,0,1,53,54Z"/></svg>
