<svg id="Layer_1" enable-background="new 0 0 512 512" viewBox="0 0 512 512" xmlns="http://www.w3.org/2000/svg"><path d="m498.916 291.467c-4.719-7.879-24.089-31.271-75.219-1.493l-90.155 52.51c-4.52 2.632-9.116 4.492-13.914 5.601 1.778-2.851 3.17-6.075 4.126-9.645 4.609-17.201-5.615-35.159-23.275-40.885-.343-.111-.692-.198-1.047-.263-25.912-4.674-51.486-13.92-72.036-21.35-7.138-2.58-13.879-5.018-19.613-6.877-23.082-7.485-43.947 1.783-61.313 11.838l-67.073 38.834-6.324-11.174c-5.778-10.209-18.783-13.815-28.993-8.036l-25.296 14.315c-10.208 5.778-13.812 18.784-8.036 28.992l74.368 131.403c2.792 4.933 7.351 8.486 12.836 10.007 1.897.525 3.824.786 5.738.786 3.62 0 7.191-.932 10.418-2.758l25.295-14.316c10.209-5.777 13.814-18.783 8.037-28.992l-7.668-13.548 15.289-8.827 115.469 30.94c6.522 1.748 12.923 2.62 19.187 2.62 12.488 0 24.427-3.47 35.663-10.386l163.61-100.742c14.915-9.183 19.646-32.326 9.926-48.554zm-364.922 160.381c-.379 1.367-1.256 2.499-2.47 3.186l-25.295 14.316c-2.49 1.407-5.779.495-7.187-1.992l-74.368-131.404c-1.408-2.487-.495-5.779 1.992-7.188l25.295-14.314c.796-.451 1.673-.664 2.546-.664 1.854 0 3.684.964 4.642 2.656l74.368 131.401c.686 1.214.856 2.634.477 4.003zm346.607-125.452-163.608 100.744c-12.975 7.987-27.213 9.982-42.319 5.936l-118.67-31.798c-2.05-.55-4.233-.263-6.071.8l-18.039 10.415-44.615-78.831 67.21-38.913c15.035-8.704 31.3-15.996 48.36-10.465 5.48 1.777 11.796 4.062 19.109 6.705 20.966 7.58 47.022 17.001 74.058 21.943 9.422 3.291 14.69 12.393 12.285 21.366-3.163 11.805-12.998 13.277-20.82 12.375-13.281-2.731-25.901-6.332-39.254-10.146-6.333-1.809-12.88-3.679-19.611-5.482-4.266-1.14-8.654 1.39-9.798 5.657-1.144 4.268 1.389 8.654 5.657 9.798 6.604 1.77 13.087 3.621 19.357 5.412 13.761 3.93 26.758 7.643 40.754 10.503.051.01.102.014.153.023.056.01.109.026.165.035l11.212 1.823c16.767 2.682 31.645.068 45.479-7.988l90.155-52.51c25.952-15.116 45.929-16.652 53.44-4.112 5.176 8.645 2.861 22.124-4.589 26.71zm-421.3 13.434c.722 4.936-2.694 9.521-7.63 10.243-4.935.721-9.521-2.695-10.243-7.63-.721-4.936 2.694-9.521 7.63-10.243 4.936-.721 9.522 2.695 10.243 7.63zm290.557-47.341c73.478 0 133.256-59.778 133.256-133.256 0-20.322-4.682-40.456-13.557-58.588 10.755-12.715 20.023-23.329 26.063-29.424 10.292-10.388 10.236-27.219-.122-37.52-5.012-4.983-11.658-7.725-18.724-7.725-.035 0-.071 0-.106 0-7.092.028-13.743 2.816-18.728 7.852-.151.151-.295.31-.433.474l-20.4 24.214c-24.224-21.039-54.882-32.538-87.249-32.538-73.478 0-133.256 59.778-133.256 133.256s59.778 133.255 133.256 133.255zm119.649-247.598c1.95-1.871 4.503-2.903 7.223-2.914h.042c2.809 0 5.451 1.09 7.443 3.07 4.115 4.091 4.132 10.781.039 14.912-12.449 12.564-36.128 41.21-61.199 71.537-24.5 29.639-49.836 60.287-62.128 72.58-4.124 4.123-10.835 4.124-14.959-.001l-54.506-54.506c-1.997-1.997-3.097-4.653-3.097-7.479s1.1-5.482 3.098-7.48c1.997-1.997 4.653-3.097 7.479-3.097s5.482 1.1 7.48 3.098l41.328 41.328c1.584 1.584 3.77 2.442 5.998 2.335 2.238-.095 4.334-1.125 5.777-2.838zm-119.649-2.913c28.555 0 55.598 10.171 76.939 28.776l-73.894 87.71-35.167-35.167c-5.02-5.02-11.694-7.784-18.794-7.784s-13.774 2.765-18.793 7.783c-5.02 5.02-7.784 11.694-7.784 18.794 0 7.101 2.765 13.775 7.784 18.794l54.506 54.506c5.182 5.181 11.988 7.771 18.793 7.771 6.806 0 13.612-2.591 18.793-7.771 12.828-12.828 38.408-43.773 63.146-73.699 7.654-9.259 15.389-18.616 22.761-27.454 5.881 14.183 8.965 29.526 8.965 44.997 0 64.655-52.601 117.256-117.256 117.256s-117.256-52.601-117.256-117.256 52.602-117.256 117.257-117.256z"/></svg>