<svg width="587" height="587" viewBox="0 0 587 587" fill="none" xmlns="http://www.w3.org/2000/svg">
<path d="M495.922 344.275C493.133 327.438 479.562 312.932 463.008 309.187V306.257C481.794 293.5 494.659 272.612 496.654 248.364C503.384 241.718 508.156 233.184 510.201 224.009C527.473 162.661 484.39 110.854 423.486 111.585H381.721C354.645 110.241 334.862 137.369 339.126 158.379C333.243 162.365 329.108 167.946 326.801 175.035C318.419 200.803 337.883 238.345 342.756 247.119C344.369 271.368 356.846 292.368 375.287 305.417V309.186C358.747 312.926 345.18 327.415 342.378 344.236C318.02 357.043 298.746 379.446 289.765 405.475C275.25 372.988 244.75 348.967 208.07 343.97V331.219C226.26 318.847 238.244 297.887 238.244 274.159C238.244 274.159 238.175 220.838 238.039 220.261C232.904 198.592 211.846 195.799 210.953 195.69C208.161 195.346 205.42 196.554 203.784 198.825C189.37 218.804 160.51 229.629 134.915 229.387H109.353C105.223 229.305 101.585 232.934 101.669 237.048L101.687 274.159C101.687 297.879 113.664 318.834 131.844 331.207V343.97C114.051 346.393 97.7102 353.294 83.9388 363.461V224.915C83.9388 224.816 83.9366 224.706 83.9322 224.606C83.9212 224.307 82.9376 194.491 97.7102 178.788C103.467 172.668 110.794 169.576 120.113 169.336C124.278 169.229 127.599 165.833 127.599 161.682C127.599 150.467 136.695 141.344 147.877 141.344C150.772 141.18 195.667 132.298 228.58 158.697C247.271 174.406 256.491 199.789 255.984 234.143C255.984 234.18 255.983 234.218 255.983 234.255V376.827C255.983 381.056 259.423 384.484 263.667 384.484C267.911 384.484 271.351 381.056 271.351 376.827V234.312C271.92 195.121 260.833 165.716 238.401 146.917C203.558 117.716 153.968 124.882 147.161 126.036C130.243 126.371 116.18 138.552 112.936 154.608C102.45 156.172 93.5628 160.782 86.4516 168.365C67.7743 188.279 68.467 221.977 68.5724 225.055V377.35C51.4386 396.137 41 421.079 41 448.237V556.804C41 561.034 44.4404 564.461 48.6843 564.461C52.9282 564.461 56.3686 561.034 56.3686 556.804V479.246H97.7003V556.804C97.7003 561.034 101.141 564.461 105.385 564.461C109.629 564.461 113.069 561.034 113.069 556.804V440.834C113.069 436.605 109.629 433.177 105.385 433.177C101.141 433.177 97.7003 436.605 97.7003 440.834V463.931H56.3686V448.237C56.3686 403.848 88.9127 366.346 131.843 359.46C129.077 382.691 146.359 404.527 170.539 403.635C194.301 403.816 210.726 382.239 208.069 359.454C249.426 366.087 281.134 401.141 283.404 443.388H283.543V463.93H242.542V440.833C242.542 436.604 239.101 433.176 234.857 433.176C230.613 433.176 227.173 436.604 227.173 440.833L227.185 556.803C227.185 561.033 230.626 564.46 234.869 564.46C239.113 564.46 242.554 561.033 242.554 556.803V479.245H283.543V556.803C283.543 561.033 286.983 564.46 291.227 564.46C295.471 564.46 298.912 561.033 298.912 556.803V479.245H340.164V556.803C340.164 561.033 343.605 564.46 347.848 564.46C352.092 564.46 355.533 561.033 355.533 556.803L355.547 438.064C355.547 433.835 352.107 430.407 347.863 430.407C343.619 430.407 340.178 433.835 340.178 438.064V463.93H298.913V442.125C298.913 409.553 315.83 379.131 342.809 361.748C343.713 365.696 345.152 369.56 347.166 373.222C347.193 373.272 347.222 373.322 347.25 373.373L369.206 411.25C371.281 414.846 375.86 416.094 379.445 414.193L392.235 407.472V466.783C392.235 471.013 395.676 474.44 399.92 474.44H438.374C442.618 474.44 446.058 471.013 446.058 466.783V407.471L458.848 414.193C462.433 416.094 467.012 414.845 469.087 411.25L491.043 373.373C491.072 373.322 491.1 373.272 491.128 373.222C493.136 369.569 494.573 365.717 495.477 361.779C522.462 379.163 539.382 409.575 539.382 442.126V463.931H498.494V438.065C498.494 433.836 495.053 430.408 490.809 430.408C486.565 430.408 483.125 433.836 483.125 438.065V556.804C483.125 561.034 486.565 564.461 490.809 564.461C495.053 564.461 498.494 561.034 498.494 556.804V479.246H539.382V556.804C539.382 561.034 542.822 564.461 547.066 564.461C551.31 564.461 554.75 561.034 554.75 556.804V442.126C554.75 382.723 512.756 353.208 495.922 344.275ZM192.701 366.238C192.701 378.415 182.76 388.321 170.54 388.321H169.373C157.153 388.321 147.211 378.415 147.211 366.238V339.015C154.334 341.56 161.988 342.958 169.966 342.958C177.935 342.958 185.585 341.562 192.701 339.022V366.238ZM169.966 327.643C140.791 327.643 117.056 303.651 117.056 274.156L117.041 244.704H134.914C163.774 244.912 194.92 233.347 212.955 212.005C216.384 213.406 221.033 216.46 222.875 222.989V274.161C222.875 303.651 199.141 327.643 169.966 327.643ZM341.422 179.759C343.033 174.81 346.031 171.499 350.862 169.341C354.347 167.784 356.141 163.863 355.093 160.202C350.947 150.687 358.255 126.168 381.722 126.901H423.487C474.04 127.262 509.836 165.072 495.2 220.687C494.499 223.831 493.333 226.866 491.767 229.689L470.966 174.726C469.333 170.034 463.023 168.222 459.134 171.326C423.155 198.514 382.089 172.175 380.373 171.05C376.46 168.316 370.54 170.203 368.945 174.691L349.374 225.635C343.261 211.348 337.378 192.187 341.422 179.759ZM358.072 245.825L380.137 188.391C402.814 200.536 437.947 203.139 459.978 189.097L481.44 245.805C479.402 278.671 452.589 304.204 419.755 304.204C386.928 304.202 360.119 278.682 358.072 245.825ZM447.639 314.317V335.193L419.148 372.114L390.657 335.193V313.851C399.635 317.505 409.457 319.518 419.756 319.518C429.594 319.518 438.99 317.667 447.639 314.317ZM378.815 397.211L360.603 365.793C352.137 351.323 359.602 330.772 375.287 325.163V337.796C375.287 339.485 375.847 341.126 376.88 342.465L407.497 382.139L378.815 397.211ZM430.69 459.128H407.604V399.398L419.148 393.332L430.691 399.397V459.128H430.69ZM477.69 365.795L459.478 397.213L430.797 382.14L461.415 342.466C462.448 341.127 463.008 339.487 463.008 337.798V325.164C478.693 330.774 486.154 351.324 477.69 365.795Z" fill="black"/>
<path fill-rule="evenodd" clip-rule="evenodd" d="M283.325 38.9824C312.615 9.7323 365.489 42.7833 336.736 92.5156C323.503 115.405 296.815 136.39 283.325 140C269.836 136.391 243.147 115.405 229.914 92.5164C201.162 42.7826 254.035 9.7323 283.325 38.9824Z" stroke="black" stroke-width="15" stroke-miterlimit="2.6131" stroke-linecap="round" stroke-linejoin="round"/>
</svg>
