<svg width="512" height="512" viewBox="0 0 512 512" fill="none" xmlns="http://www.w3.org/2000/svg">
<path d="M173.039 106.048L161.12 86.6568V59.7881H123.422C121.331 59.7881 119.512 61.2205 119.021 63.2532L114.936 80.1848C114.445 82.2175 112.626 83.6499 110.535 83.6499H104.503C101.873 79.6886 97.3759 77.0601 92.2901 77.0601C88.4981 77.0601 85.0421 78.5324 82.4327 80.9173C79.4954 83.6019 77.6348 87.4472 77.6348 91.7164V102.301C77.6348 110.361 84.2299 116.956 92.2901 116.956C93.1838 116.956 94.0575 116.871 94.9068 116.715V159.668C95.5859 159.618 96.2686 159.585 96.9603 159.585H117.96C122.63 159.585 127.134 160.296 131.371 161.614V150.678C131.371 148.178 133.398 146.151 135.898 146.151H145.926C154.316 146.151 161.119 139.349 161.119 130.958V112.806H169.259C172.729 112.806 174.855 109.003 173.039 106.048Z" stroke="black" stroke-width="15" stroke-miterlimit="10" stroke-linecap="round" stroke-linejoin="round"/>
<path d="M344.589 199.078L332.67 179.688V160.146L249.221 179.048C249.199 179.346 249.186 179.646 249.186 179.949V190.534C249.186 198.594 255.781 205.189 263.841 205.189C264.735 205.189 265.607 205.104 266.458 204.948V249.744C267.137 249.695 267.819 249.661 268.511 249.661H289.511C294.181 249.661 298.686 250.372 302.922 251.69V243.71C302.922 241.21 304.949 239.183 307.449 239.183H317.477C325.868 239.183 332.67 232.38 332.67 223.989V205.836H340.81C344.28 205.837 346.406 202.034 344.589 199.078Z" stroke="black" stroke-width="15" stroke-miterlimit="10" stroke-linecap="round" stroke-linejoin="round"/>
<path d="M75.7168 332.646V476.473C75.7168 478.972 77.7441 481 80.244 481H105.414" stroke="black" stroke-width="15" stroke-miterlimit="10" stroke-linecap="round" stroke-linejoin="round"/>
<path d="M104.508 481H147.96C150.46 481 152.488 478.973 152.488 476.473V332.962H104.508" stroke="black" stroke-width="15" stroke-miterlimit="10" stroke-linecap="round" stroke-linejoin="round"/>
<path d="M401.861 393.677H376.68L396.527 420.281C399.444 424.191 401.02 428.939 401.02 433.816V480.999H433.228C438.228 480.999 442.282 476.946 442.282 471.945V434.098C442.282 411.774 424.185 393.677 401.861 393.677Z" stroke="black" stroke-width="15" stroke-miterlimit="10" stroke-linecap="round" stroke-linejoin="round"/>
<path d="M392.359 352.881H378.947V380.043H392.359C397.36 380.043 401.414 375.989 401.414 370.989V361.935C401.414 356.934 397.36 352.881 392.359 352.881Z" stroke="black" stroke-width="15" stroke-miterlimit="10" stroke-linecap="round" stroke-linejoin="round"/>
<path d="M69 197.148V323.908C69 328.909 73.0536 332.963 78.0543 332.963H153.986C158.986 332.963 163.04 328.909 163.04 323.908V315.577C161.396 316.748 159.117 316.725 157.503 315.364L99.5511 266.512C95.4694 263.071 93.1135 258.005 93.1135 252.666V201.808C93.1135 191.588 101.58 183.345 111.882 183.711C121.695 184.06 129.331 192.422 129.331 202.242V244.247L163.04 272.663V204.664C163.04 179.768 142.858 159.586 117.962 159.586H96.9625C81.5194 159.586 69 172.105 69 187.548V207.108" stroke="black" stroke-width="15" stroke-miterlimit="10" stroke-linecap="round" stroke-linejoin="round"/>
<path d="M164.272 31H108.317C94.0233 31 82.4355 42.5877 82.4355 56.8818V80.9174C85.045 78.5325 88.501 77.0603 92.293 77.0603C97.3779 77.0603 101.875 79.6887 104.506 83.65H110.537C112.629 83.65 114.448 82.2176 114.939 80.1849L119.024 63.2533C119.515 61.2206 121.334 59.7882 123.425 59.7882H161.123L168.089 48.8642C168.553 48.1371 168.799 47.2924 168.799 46.4295V35.5272C168.799 33.0273 166.772 31 164.272 31Z" stroke="black" stroke-width="15" stroke-miterlimit="10" stroke-linecap="round" stroke-linejoin="round"/>
<path d="M140.01 79.9395V85.6971" stroke="black" stroke-width="15" stroke-miterlimit="10" stroke-linecap="round" stroke-linejoin="round"/>
<path d="M264.664 361.935V291.884C264.664 281.664 273.131 273.422 283.433 273.787C293.246 274.136 300.882 282.499 300.882 292.318V343.826H334.591V294.74C334.591 269.844 314.409 249.662 289.513 249.662H268.513C253.07 249.662 240.551 262.182 240.551 277.625V365.849H265.113C264.83 364.588 264.664 363.282 264.664 361.935Z" stroke="black" stroke-width="15" stroke-miterlimit="10" stroke-linecap="round" stroke-linejoin="round"/>
<path d="M357.836 481H401.018V433.816C401.018 428.937 399.442 424.19 396.525 420.28L366.506 380.042" stroke="black" stroke-width="15" stroke-miterlimit="10" stroke-linecap="round" stroke-linejoin="round"/>
<path d="M265.101 365.849H240.551V396.257" stroke="black" stroke-width="15" stroke-miterlimit="10" stroke-linecap="round" stroke-linejoin="round"/>
<path d="M311.561 172.971V178.728" stroke="black" stroke-width="15" stroke-miterlimit="10" stroke-linecap="round" stroke-linejoin="round"/>
<path d="M338.489 380.044H378.95V348.354C378.95 345.854 376.922 343.827 374.423 343.827H300.883V292.319C300.883 282.499 293.248 274.137 283.435 273.788C273.133 273.422 264.666 281.664 264.666 291.885V361.936C264.666 371.937 272.773 380.044 282.775 380.044H343.016" stroke="black" stroke-width="15" stroke-miterlimit="10" stroke-linecap="round" stroke-linejoin="round"/>
<path d="M195.883 304.6H215.541" stroke="black" stroke-width="15" stroke-miterlimit="10" stroke-linecap="round" stroke-linejoin="round"/>
<path d="M192.606 300.667L181.528 291.464C181.463 292.177 181.193 292.879 180.696 293.468L164.525 312.652L175.248 321.56C179.095 324.756 184.803 324.228 187.999 320.382L193.784 313.418C196.981 309.571 196.453 303.862 192.606 300.667Z" stroke="black" stroke-width="15" stroke-miterlimit="10" stroke-linecap="round" stroke-linejoin="round"/>
<path d="M240.552 396.256V292.919H224.595C219.595 292.919 215.541 296.973 215.541 301.973V409.24C223.061 403.671 231.483 399.256 240.552 396.256Z" stroke="black" stroke-width="15" stroke-miterlimit="10" stroke-linecap="round" stroke-linejoin="round"/>
<path d="M268.594 391.758C220.922 391.758 181.98 429.137 179.479 476.186C179.341 478.795 181.387 480.999 184 480.999H357.836C357.836 431.712 317.881 391.758 268.594 391.758Z" stroke="black" stroke-width="15" stroke-miterlimit="10" stroke-linecap="round" stroke-linejoin="round"/>
<path d="M268.594 415.747C232.614 415.747 203.342 445.02 203.342 481H333.846C333.847 445.02 304.575 415.747 268.594 415.747Z" stroke="black" stroke-width="15" stroke-miterlimit="10" stroke-linecap="round" stroke-linejoin="round"/>
<path d="M268.596 415.747V481" stroke="black" stroke-width="15" stroke-miterlimit="10" stroke-linecap="round" stroke-linejoin="round"/>
<path d="M268.596 481L314.737 434.86" stroke="black" stroke-width="15" stroke-miterlimit="10" stroke-linecap="round" stroke-linejoin="round"/>
<path d="M222.455 434.86L268.595 481" stroke="black" stroke-width="15" stroke-miterlimit="10" stroke-linecap="round" stroke-linejoin="round"/>
<path d="M331.167 134.58C331.108 110.726 311.755 91.4062 287.887 91.4062C263.982 91.4062 244.604 110.784 244.604 134.69V154.186L331.167 134.58Z" stroke="black" stroke-width="15" stroke-miterlimit="10" stroke-linecap="round" stroke-linejoin="round"/>
<path d="M336.09 133.464L241.665 154.851C239.48 155.347 237.928 157.29 237.928 159.531V178.003C237.928 179.849 239.642 181.218 241.443 180.811L335.867 159.424C338.053 158.928 339.606 156.985 339.606 154.744V136.272C339.605 134.425 337.891 133.056 336.09 133.464Z" stroke="black" stroke-width="15" stroke-miterlimit="10" stroke-linecap="round" stroke-linejoin="round"/>
<path d="M129.331 244.247V202.243C129.331 192.423 121.695 184.061 111.882 183.712C101.58 183.346 93.1133 191.588 93.1133 201.809V252.667C93.1133 258.005 95.4692 263.072 99.5509 266.513L157.503 315.365C159.414 316.976 162.271 316.733 163.883 314.821L181.389 294.052C183.001 292.141 182.757 289.284 180.846 287.674L129.331 244.247Z" stroke="black" stroke-width="15" stroke-miterlimit="10" stroke-linecap="round" stroke-linejoin="round"/>
</svg>
