<svg width="512" height="512" viewBox="0 0 512 512" fill="none" xmlns="http://www.w3.org/2000/svg">
<path d="M458.496 68.5035H414.793L362.655 33.5919C359.323 31.3402 355.223 30.529 351.284 31.3419C347.399 32.1092 343.992 34.4207 341.842 37.7465L333.54 50.2637C331.332 53.5737 330.529 57.6254 331.308 61.5268C332.087 65.4282 334.385 68.8612 337.695 71.0681L338.497 71.6078V113.502C338.497 117.644 341.856 121.002 345.997 121.002C350.139 121.002 353.496 117.644 353.496 113.502V81.6808L390.996 106.866V136.003C390.996 148.429 401.07 158.503 413.496 158.503V294.881C404.538 298.048 398.536 306.5 398.496 316.001V418.81C394.551 418.366 390.815 416.805 387.726 414.31C376.353 404.903 360.382 403.416 347.466 410.56C365.583 378.474 377.097 343.087 381.329 306.483C382.318 299.209 382.933 292.631 383.398 287.178C384.408 273.819 376.456 261.405 363.898 256.736L348.223 250.894L335.233 203.127C331.76 190.388 320.352 181.428 307.153 181.069L303.26 161.569C301.127 151.072 291.907 143.523 281.196 143.502H278.496V106.003C278.496 97.7189 271.78 91.0033 263.496 91.0033H248.496C240.211 91.0033 233.495 97.7189 233.495 106.003V143.503H230.795C220.083 143.533 210.868 151.093 208.746 161.593L204.846 181.093C191.657 181.45 180.257 190.4 176.781 203.128L163.746 250.857L148.071 256.699C135.504 261.368 127.548 273.796 128.571 287.164C129.029 292.593 129.643 299.163 130.634 306.439C134.858 342.998 146.346 378.345 164.421 410.403C151.523 403.413 135.671 404.962 124.371 414.317C121.262 416.851 117.484 418.43 113.497 418.862V316.001C113.457 306.5 107.454 298.048 98.4967 294.881V158.503C110.923 158.503 120.996 148.429 120.996 136.003V106.866L158.496 81.6808V113.503C158.496 117.645 161.855 121.003 165.996 121.003C170.138 121.003 173.496 117.644 173.496 113.503V71.6086L174.245 71.1138C177.571 68.9192 179.887 65.4915 180.682 61.5866C181.478 57.6816 180.686 53.622 178.483 50.3015L170.188 37.7544C168.043 34.4154 164.636 32.089 160.746 31.3041C156.818 30.4982 152.73 31.3094 149.407 33.5541L97.2021 68.5035H53.4998C41.0739 68.5035 31 78.5774 31 91.0033V136.003C31 148.429 41.0739 158.503 53.4998 158.503V293.501H46.0001C37.7157 293.501 31 300.217 31 308.501V466C31 474.284 37.7157 481 46.0001 481H465.996C474.281 481 480.996 474.284 480.996 466V308.501C480.996 300.217 474.281 293.501 465.996 293.501H458.497V158.503C470.923 158.503 480.996 148.429 480.996 136.003V91.0033C480.996 78.5774 470.922 68.5035 458.496 68.5035ZM354.247 46.0037L397.604 75.0363C393.903 78.7629 391.627 83.6706 391.177 88.9036L345.997 58.5737L354.247 46.0037ZM188.566 418.42C162.991 386.867 151.531 343.6 146.454 310.308L248.498 272.254V417.602C246.414 416.805 244.472 415.679 242.746 414.265C229.458 403.271 210.232 403.271 196.944 414.265C194.506 416.273 191.64 417.695 188.566 418.42ZM263.498 272.254L365.543 310.308C360.472 343.578 349.043 386.808 323.468 418.367C320.446 417.632 317.628 416.231 315.218 414.264C301.925 403.278 282.702 403.278 269.408 414.264C267.636 415.729 265.63 416.884 263.475 417.684L263.498 272.254ZM368.452 285.889C368.22 288.649 367.927 291.747 367.582 295.061L268.103 257.967C266.598 257.454 265.059 257.048 263.498 256.752V235.265L358.672 270.755C364.937 273.061 368.923 279.23 368.452 285.889ZM248.498 106.003H263.498V143.503H248.498V106.003ZM230.798 158.503H281.198C284.765 158.498 287.841 161.007 288.555 164.503L291.847 181.002H220.148L223.44 164.503C224.154 161.007 227.231 158.498 230.798 158.503ZM191.243 207.027C193.013 200.517 198.927 196 205.673 196.003H306.322C313.077 196.002 318.994 200.53 320.759 207.05L330.937 244.4L266.625 220.4C259.787 217.872 252.269 217.872 245.431 220.4L181.059 244.4L191.243 207.027ZM153.324 270.776L248.498 235.265V256.752C246.927 257.066 245.378 257.484 243.863 258.004L144.414 295.091C144.068 291.784 143.784 288.687 143.552 285.941C143.055 279.265 147.043 273.068 153.324 270.754V270.776ZM134.057 425.808C141.809 419.421 153.004 419.439 160.734 425.853C174.024 436.841 193.246 436.841 206.536 425.853C214.283 419.453 225.482 419.453 233.228 425.853C246.522 436.839 265.744 436.839 279.038 425.853C286.78 419.448 297.981 419.448 305.723 425.853C318.948 436.782 338.056 436.832 351.338 425.973L351.51 425.831C359.244 419.437 370.43 419.437 378.165 425.831C383.927 430.598 391.037 433.441 398.497 433.961V466H113.499V433.908C121.033 433.438 128.227 430.603 134.057 425.808ZM157.644 46.0037L165.939 58.6484L120.789 88.9704C120.338 83.7304 118.057 78.8156 114.347 75.0882L157.644 46.0037ZM46.0001 136.003V91.0033C46.0001 86.861 49.3584 83.5036 53.4998 83.5036H98.4993C102.642 83.5036 105.999 86.861 105.999 91.0033V136.003C105.999 140.145 102.641 143.502 98.4993 143.502H53.4998C49.3575 143.503 46.0001 140.145 46.0001 136.003ZM68.4999 158.503H83.5001V293.501H68.4999V158.503ZM46.0001 308.501H90.9997C95.1419 308.501 98.4993 311.859 98.4993 316.001V466H46.0001V308.501ZM465.996 466H413.497V316.001C413.497 311.859 416.854 308.501 420.997 308.501H465.996V466ZM443.496 293.501H428.496V158.503H443.496V293.501ZM465.996 136.003C465.996 140.145 462.639 143.502 458.497 143.502H413.497C409.355 143.502 405.997 140.144 405.997 136.003V91.0033C405.997 86.861 409.355 83.5036 413.497 83.5036H458.497C462.639 83.5036 465.996 86.861 465.996 91.0033V136.003Z" fill="black"/>
</svg>
