<svg id="Layer_3" height="512" viewBox="0 0 64 64" width="512" xmlns="http://www.w3.org/2000/svg" data-name="Layer 3"><path d="m55 1h-38a5.006 5.006 0 0 0 -5 5v14.142a3.939 3.939 0 0 0 -1-.142 4 4 0 0 0 -4 4v23.262a6.995 6.995 0 0 0 5.371 12.6 4.965 4.965 0 0 0 4.629 3.138h38a5.006 5.006 0 0 0 5-5v-52a5.006 5.006 0 0 0 -5-5zm-38 2h38a3 3 0 0 1 3 3v7h-44v-7a3 3 0 0 1 3-3zm-11 50a5.019 5.019 0 0 1 2.5-4.326 1 1 0 0 0 .5-.865v-13.8h2v-2h-2v-2.009h2v-2h-2v-2h2v-2h-2a2 2 0 0 1 4 0v23.809a1 1 0 0 0 .5.865 5 5 0 1 1 -7.5 4.326zm49 8h-38a2.976 2.976 0 0 1 -2.744-1.808 6.99 6.99 0 0 0 .744-11.93v-23.262a3.966 3.966 0 0 0 -1-2.618v-6.382h44v43a3 3 0 0 1 -3 3z"/><path d="m16 5h2v6h-2z"/><path d="m36 19a19 19 0 1 0 19 19 19.021 19.021 0 0 0 -19-19zm0 36a17 17 0 1 1 17-17 17.019 17.019 0 0 1 -17 17z"/><path d="m20 5h2v6h-2z"/><path d="m24 5h2v6h-2z"/><path d="m52 12a4 4 0 1 0 -4-4 4 4 0 0 0 4 4zm0-2a1.96 1.96 0 0 1 -.511-.075l2.436-2.436a1.96 1.96 0 0 1 .075.511 2 2 0 0 1 -2 2zm0-4a1.96 1.96 0 0 1 .511.075l-2.436 2.436a1.96 1.96 0 0 1 -.075-.511 2 2 0 0 1 2-2z"/><path d="m43 11a3 3 0 1 0 -3-3 3 3 0 0 0 3 3zm0-4a1 1 0 1 1 -1 1 1 1 0 0 1 1-1z"/><path d="m35 11a3 3 0 1 0 -3-3 3 3 0 0 0 3 3zm0-4a1 1 0 1 1 -1 1 1 1 0 0 1 1-1z"/><path d="m34.293 33.707 1.293 1.293a1.415 1.415 0 0 1 0 2l-.586.586a3.414 3.414 0 0 0 0 4.828l1.293 1.293 1.414-1.414-1.293-1.293a1.415 1.415 0 0 1 0-2l.586-.586a3.414 3.414 0 0 0 0-4.828l-1.293-1.293z"/><path d="m32 38.414a3.414 3.414 0 0 0 0-4.828l-1.293-1.293-1.414 1.414 1.293 1.293a1.415 1.415 0 0 1 0 2l-.586.586a3.414 3.414 0 0 0 0 4.828l1.293 1.293 1.414-1.414-1.293-1.293a1.415 1.415 0 0 1 0-2z"/><path d="m40 37.586a3.414 3.414 0 0 0 0 4.828l1.293 1.293 1.414-1.414-1.293-1.293a1.415 1.415 0 0 1 0-2l.586-.586a3.414 3.414 0 0 0 0-4.828l-1.293-1.293-1.414 1.414 1.293 1.293a1.415 1.415 0 0 1 0 2z"/><path d="m36 23a15 15 0 0 0 0 30 14.862 14.862 0 0 0 10.715-4.511 1 1 0 0 0 .285-.7v-19.579a1 1 0 0 0 -.285-.7 14.862 14.862 0 0 0 -10.715-4.51zm9 24.374a12.87 12.87 0 0 1 -9 3.626 13 13 0 0 1 0-26 12.87 12.87 0 0 1 9 3.626z"/><path d="m11 50a3 3 0 1 0 3 3 3 3 0 0 0 -3-3zm0 4a1 1 0 1 1 1-1 1 1 0 0 1 -1 1z"/></svg>