<svg width="512" height="512" viewBox="0 0 512 512" fill="none" xmlns="http://www.w3.org/2000/svg">
<path d="M504 272C504 195.904 454.016 132.184 387.104 121.68C379.504 109.544 368.392 99.984 355.256 94.184C358.2 90.2 360 85.328 360 80C360 69.584 353.288 60.784 344 57.472V48C344 25.944 326.056 8 304 8H263.064C245.824 8 230.568 18.992 225.112 35.352L218.232 56H176C162.768 56 152 66.768 152 80C152 85.328 153.8 90.208 156.744 94.192C133.704 104.36 116.936 126.208 114.272 152.84L113.136 164.224C102.872 158.792 96 148.072 96 136V112C96 81.12 70.872 56 40 56H8V78.248L14.064 79.76C29.336 83.584 40 97.24 40 112.984V160C40 200.136 66.952 234.744 105.064 244.96L88.192 413.688C88.064 414.96 88 416.24 88 417.52C88 429.208 93.352 439.576 101.608 446.64C84.008 456.088 72 474.664 72 496V504H440V496C440 474.664 427.992 456.088 410.392 446.632C418.648 439.576 424 429.208 424 417.52C424 416.24 423.936 414.96 423.816 413.688L423.504 410.56C472.56 386.08 504 332.432 504 272ZM399.976 175.328C433.464 190.712 456 228.632 456 272C456 306.432 441.768 337.952 418.168 357.28L399.976 175.328ZM240.288 40.408C243.568 30.592 252.72 24 263.064 24H304C317.232 24 328 34.768 328 48V56H235.096L240.288 40.408ZM176 88C171.584 88 168 84.408 168 80C168 75.592 171.584 72 176 72H336C340.416 72 344 75.592 344 80C344 84.408 340.416 88 336 88H326.08H185.92H176ZM185.92 104H326.08C354.968 104 378.928 125.68 381.808 154.432L400.76 344H111.24L130.2 154.432C133.072 125.68 157.032 104 185.92 104ZM56 160V112.984C56 96.304 47.832 81.208 34.848 72H40C62.056 72 80 89.944 80 112V136C80 156.296 92.888 174.144 111.456 180.984L106.68 228.736C76.872 219.552 56 191.936 56 160ZM423.192 488H88.808C92.528 469.768 108.68 456 128 456H384C403.32 456 419.48 469.768 423.192 488ZM128 440H126.48C114.088 440 104 429.912 104 417.52C104 416.776 104.032 416.032 104.112 415.288L109.64 360H402.36L407.888 415.288C407.968 416.032 408 416.776 408 417.52C408 429.912 397.912 440 385.52 440H384H128ZM421.784 393.408L420.016 375.72C452.184 354.24 472 315.04 472 272C472 218.856 441.888 172.648 398.184 157.376L397.728 152.832C397.272 148.288 396.4 143.88 395.168 139.648C448.96 153.68 488 207.912 488 272C488 324.072 462.328 370.448 421.784 393.408Z" fill="black"/>
<path d="M304 376H208C199.176 376 192 383.176 192 392V408C192 416.824 199.176 424 208 424H304C312.824 424 320 416.824 320 408V392C320 383.176 312.824 376 304 376ZM208 408V392H304L304.008 408H208Z" fill="black"/>
<path d="M132.222 295.301L144.282 175.304L160.202 176.904L148.142 296.901L132.222 295.301Z" fill="black"/>
<path d="M349.96 157.616L359.88 256.792L375.8 255.2L365.88 156.024C363.832 135.488 346.72 120 326.08 120H312V136H326.08C338.464 136 348.736 145.296 349.96 157.616Z" fill="black"/>
</svg>
