<svg width="512" height="512" viewBox="0 0 512 512" fill="none" xmlns="http://www.w3.org/2000/svg">
<g clip-path="url(#clip0_7393_38254)">
<path d="M401.067 204.8H281.6C277.837 204.8 274.116 204.997 270.447 205.364L272.444 179.2H273.067C277.593 179.2 281.934 177.402 285.135 174.202C288.335 171.001 290.133 166.66 290.133 162.134V136.534C290.133 132.007 288.335 127.666 285.135 124.466C281.934 121.265 277.593 119.467 273.067 119.467H269.807L259.814 99.482C257.701 95.2206 254.435 91.6365 250.389 89.1359C246.342 86.6353 241.676 85.3182 236.919 85.3338H170.667V39.2538C170.648 33.6958 168.83 28.2932 165.484 23.8552C162.139 19.4171 157.445 16.1822 152.107 14.6351L103.629 0.77697C98.4634 -0.682555 92.9302 -0.0378705 88.2388 2.57011C83.5473 5.17809 80.079 9.53727 78.592 14.6948L75.6565 24.9775C74.1909 30.1465 74.836 35.6858 77.4501 40.3797C80.0642 45.0736 84.4339 48.5387 89.6 50.0143L119.467 58.5476V85.3338H53.2139C48.4571 85.3182 43.791 86.6353 39.7444 89.1359C35.6979 91.6365 32.4327 95.2206 30.3189 99.482L20.3264 119.467H17.0667C12.5403 119.467 8.19933 121.265 4.99871 124.466C1.79809 127.666 0 132.007 0 136.534L0 162.134C0 166.66 1.79809 171.001 4.99871 174.202C8.19933 177.402 12.5403 179.2 17.0667 179.2H17.6981L40.9003 480.495C41.5968 489.053 45.4786 497.038 51.7782 502.871C58.0779 508.705 66.3369 511.963 74.9227 512H215.211C218.442 511.962 221.65 511.453 224.734 510.49C229.401 511.493 234.16 511.999 238.933 512H443.733C461.833 511.98 479.185 504.781 491.983 491.983C504.781 479.185 511.98 461.833 512 443.734V435.2C511.987 431.472 511.155 427.792 509.563 424.421C507.97 421.05 505.656 418.071 502.784 415.693C508.706 409.433 512.005 401.143 512.005 392.525C512.005 383.908 508.706 375.618 502.784 369.357C503.313 368.905 503.902 368.504 504.388 368.017C507.078 365.392 509.148 362.2 510.449 358.673C511.749 355.147 512.247 351.375 511.906 347.631C511.389 342.128 509.035 336.958 505.225 332.954C509.566 328.269 511.984 322.121 512 315.734C511.966 286.323 500.268 258.126 479.471 237.329C458.674 216.533 430.478 204.834 401.067 204.8ZM494.933 349.082C495.05 350.339 494.881 351.607 494.437 352.789C493.994 353.972 493.288 355.038 492.373 355.909C491.599 356.708 490.671 357.342 489.643 357.77C488.616 358.199 487.513 358.413 486.4 358.4H451.567C444.56 358.411 437.762 360.793 432.282 365.159L409.66 383.215C409.038 383.712 408.266 383.982 407.471 383.982C406.676 383.982 405.904 383.712 405.282 383.215L382.652 365.15C377.17 360.788 370.373 358.408 363.366 358.4H197.222C194.968 358.492 192.758 357.756 191.01 356.33C189.262 354.904 188.096 352.887 187.733 350.661C187.609 349.395 187.775 348.118 188.219 346.926C188.662 345.734 189.372 344.659 190.293 343.783C191.073 342.993 192.004 342.369 193.03 341.949C194.056 341.528 195.157 341.319 196.267 341.334H485.444C487.698 341.244 489.907 341.981 491.655 343.406C493.402 344.832 494.569 346.856 494.933 349.082ZM187.733 392.534C187.733 388.007 189.531 383.666 192.732 380.466C195.933 377.265 200.274 375.467 204.8 375.467H363.366C366.503 375.472 369.546 376.537 372.002 378.488L394.641 396.57C398.278 399.493 402.805 401.087 407.471 401.087C412.137 401.087 416.664 399.493 420.301 396.57L442.931 378.496C445.386 376.542 448.429 375.475 451.567 375.467H477.867C482.393 375.467 486.734 377.265 489.935 380.466C493.135 383.666 494.933 388.007 494.933 392.534C494.933 397.06 493.135 401.401 489.935 404.602C486.734 407.802 482.393 409.6 477.867 409.6H204.8C200.274 409.6 195.933 407.802 192.732 404.602C189.531 401.401 187.733 397.06 187.733 392.534ZM401.067 221.867C425.953 221.896 449.811 231.795 467.408 249.392C485.005 266.99 494.904 290.848 494.933 315.734C494.933 317.997 494.034 320.167 492.434 321.768C490.834 323.368 488.663 324.267 486.4 324.267H196.267C194.003 324.267 191.833 323.368 190.233 321.768C188.632 320.167 187.733 317.997 187.733 315.734C187.763 290.848 197.662 266.99 215.259 249.392C232.856 231.795 256.714 221.896 281.6 221.867H401.067ZM130.347 43.913L94.2592 33.6047C93.4471 33.3704 92.7607 32.8243 92.3498 32.0857C91.9389 31.3471 91.8369 30.4759 92.0661 29.6623L95.0016 19.4223C95.2454 18.6168 95.7935 17.9381 96.5296 17.5302C97.2657 17.1223 98.1318 17.0174 98.944 17.2378L147.413 31.0874C149.19 31.5954 150.753 32.6662 151.869 34.1388C152.984 35.6114 153.592 37.4063 153.6 39.2538V85.3338H136.533V52.1135C136.533 50.2602 135.928 48.4575 134.812 46.978C133.696 45.4985 132.129 44.4226 130.347 43.913ZM45.5851 107.119C46.2885 105.698 47.3762 104.503 48.7246 103.669C50.0731 102.835 51.6283 102.395 53.2139 102.4H236.919C238.505 102.395 240.06 102.835 241.409 103.669C242.757 104.503 243.845 105.698 244.548 107.119L250.726 119.467H39.4069L45.5851 107.119ZM17.0667 136.534H273.067V162.134H17.0667V136.534ZM74.9227 494.934C70.6292 494.914 66.4996 493.283 63.3504 490.365C60.2013 487.446 58.2619 483.452 57.9157 479.173L34.816 179.2H255.326L253.073 208.658C229.471 214.953 208.603 228.857 193.705 248.216C178.807 267.574 170.709 291.306 170.667 315.734C170.687 322.071 173.073 328.173 177.357 332.843C174.983 335.421 173.17 338.464 172.035 341.78C170.899 345.095 170.465 348.611 170.761 352.103C171.075 355.431 172.054 358.663 173.64 361.606C175.226 364.55 177.386 367.145 179.994 369.238C174.026 375.492 170.687 383.799 170.667 392.443C170.646 401.088 173.945 409.41 179.883 415.693C177.011 418.071 174.697 421.05 173.104 424.421C171.512 427.792 170.679 431.472 170.667 435.2V443.734C170.672 453.433 172.75 463.018 176.762 471.849C180.774 480.679 186.627 488.55 193.929 494.934H74.9227ZM494.933 443.734C494.92 457.309 489.521 470.324 479.922 479.923C470.323 489.522 457.308 494.92 443.733 494.934H238.933C225.358 494.92 212.343 489.522 202.744 479.923C193.146 470.324 187.747 457.309 187.733 443.734V435.2C187.733 432.937 188.632 430.767 190.233 429.166C191.833 427.566 194.003 426.667 196.267 426.667H486.4C488.663 426.667 490.834 427.566 492.434 429.166C494.034 430.767 494.933 432.937 494.933 435.2V443.734Z" fill="black"/>
<path d="M298.667 256H307.2C309.463 256 311.634 255.101 313.234 253.501C314.834 251.901 315.733 249.73 315.733 247.467C315.733 245.204 314.834 243.033 313.234 241.433C311.634 239.833 309.463 238.934 307.2 238.934H298.667C296.403 238.934 294.233 239.833 292.633 241.433C291.032 243.033 290.133 245.204 290.133 247.467C290.133 249.73 291.032 251.901 292.633 253.501C294.233 255.101 296.403 256 298.667 256Z" fill="black"/>
<path d="M273.067 290.133H281.6C283.863 290.133 286.034 289.234 287.634 287.634C289.234 286.033 290.133 283.863 290.133 281.6C290.133 279.337 289.234 277.166 287.634 275.566C286.034 273.965 283.863 273.066 281.6 273.066H273.067C270.803 273.066 268.633 273.965 267.033 275.566C265.432 277.166 264.533 279.337 264.533 281.6C264.533 283.863 265.432 286.033 267.033 287.634C268.633 289.234 270.803 290.133 273.067 290.133Z" fill="black"/>
<path d="M349.867 281.6H358.4C360.663 281.6 362.834 280.701 364.434 279.101C366.034 277.5 366.933 275.33 366.933 273.067C366.933 270.803 366.034 268.633 364.434 267.033C362.834 265.432 360.663 264.533 358.4 264.533H349.867C347.603 264.533 345.433 265.432 343.833 267.033C342.232 268.633 341.333 270.803 341.333 273.067C341.333 275.33 342.232 277.5 343.833 279.101C345.433 280.701 347.603 281.6 349.867 281.6Z" fill="black"/>
</g>
<defs>
<clipPath id="clip0_7393_38254">
<rect width="512" height="512" fill="white"/>
</clipPath>
</defs>
</svg>
