<?xml version="1.0" encoding="UTF-8"?>
<svg xmlns="http://www.w3.org/2000/svg" viewBox="0 0 64 64" width="512" height="512"><g id="_36-Fridge" data-name="36-Fridge"><path d="M57,2H53a.99974.99974,0,0,0-1,1v.84814A5.96529,5.96529,0,0,0,49.3587,5H7a5.00588,5.00588,0,0,0-5,5V54a5.00588,5.00588,0,0,0,5,5H41.78027A2.98179,2.98179,0,0,0,44,60h8v1a.99974.99974,0,0,0,1,1h4a5.00588,5.00588,0,0,0,5-5V7A5.00588,5.00588,0,0,0,57,2ZM41,35V53H38V43a6.0882,6.0882,0,0,0-3-5.62891V34a.99974.99974,0,0,0-1-1H30a.99974.99974,0,0,0-1,1v3.37109A6.0882,6.0882,0,0,0,26,43V53H23V43a6.0882,6.0882,0,0,0-3-5.62891V34a.99974.99974,0,0,0-1-1H15a.99974.99974,0,0,0-1,1v3.37109A6.0882,6.0882,0,0,0,11,43V53H8V31H41.74127A11.22645,11.22645,0,0,0,41,35Zm-8,2H31V35h2Zm-2.8064,2h3.61383A3.87546,3.87546,0,0,1,35.916,42H28.08826A3.9051,3.9051,0,0,1,30.1936,39ZM28,44h8v4H28Zm0,6h8v3H28ZM18,37H16V35h2Zm-2.8064,2h3.61383A3.87546,3.87546,0,0,1,20.916,42H13.08826A3.9051,3.9051,0,0,1,15.1936,39ZM13,44h8v4H13Zm0,6h8v3H13Zm0-31h8v6H13Zm7.21924-4,.5,2H13.28076l.5-2ZM13.28076,27h7.43848l-.5,2H13.78076ZM28,19h8v6H28Zm7.21924-4,.5,2H28.28076l.5-2ZM28.28076,27h7.43848l-.5,2H28.78076Zm14.46149,2H37.28076l.68945-2.75781A1.00857,1.00857,0,0,0,38,26V18a1.00857,1.00857,0,0,0-.02979-.24219L37.26727,14.946A.98643.98643,0,0,0,38,14a.99974.99974,0,0,0-1-1H27a.99974.99974,0,0,0-1,1,.98643.98643,0,0,0,.73273.946l-.70294,2.81177A1.00857,1.00857,0,0,0,26,18v8a1.00857,1.00857,0,0,0,.02979.24219L26.71924,29H22.28076l.68945-2.75781A1.00857,1.00857,0,0,0,23,26V18a1.00857,1.00857,0,0,0-.02979-.24219L22.26727,14.946A.98643.98643,0,0,0,23,14a.99974.99974,0,0,0-1-1H12a.99974.99974,0,0,0-1,1,.98643.98643,0,0,0,.73273.946l-.70294,2.81177A1.00857,1.00857,0,0,0,11,18v8a1.00857,1.00857,0,0,0,.02979.24219L11.71924,29H8V11H47v9.51465a9.18462,9.18462,0,0,1-2.707,6.53613A11.3146,11.3146,0,0,0,42.74225,29ZM7,57a3.00328,3.00328,0,0,1-3-3V10A3.00328,3.00328,0,0,1,7,7H47.67706a5.94818,5.94818,0,0,0-.62384,2H7a.99974.99974,0,0,0-1,1V54a.99974.99974,0,0,0,1,1H41v2Zm37,1a1.001,1.001,0,0,1-1-1V35a9.1824,9.1824,0,0,1,2.707-6.53516A11.16922,11.16922,0,0,0,49,20.51465V9.75781a3.99577,3.99577,0,0,1,3-3.858V58Zm16-1a3.00328,3.00328,0,0,1-3,3H54V4h3a3.00328,3.00328,0,0,1,3,3Z"/></g></svg>
