<svg width="488" height="488" viewBox="0 0 488 488" fill="none" xmlns="http://www.w3.org/2000/svg">
<g clip-path="url(#clip0_6507_12228)">
<path d="M480.852 263.505C484.8 263.505 488 260.304 488 256.356V182.4C488 163.787 476.832 147.287 459.544 140.363L424.007 126.153C419.457 124.33 416.517 119.988 416.517 115.09V107.446C425.992 98.7152 431.941 86.213 431.941 72.3431V30.9766C431.941 13.8966 418.045 0 400.964 0H367.427C350.346 0 336.45 13.8966 336.45 30.9766V72.3431C336.45 86.213 342.4 98.7161 351.876 107.447V115.09C351.876 119.988 348.936 124.33 344.39 126.152L308.844 140.365C291.559 147.287 280.39 163.787 280.39 182.4V228.37H236.251V206.114C236.251 187.607 223.13 171.295 205.056 167.327L165.053 158.528C163.368 158.16 162.145 156.639 162.145 154.912V144.369C172.802 135.715 179.628 122.519 179.628 107.754V55.3403C179.628 41.8641 168.664 30.9003 155.188 30.9003H109.752C96.2761 30.9003 85.3123 41.8641 85.3123 55.3403V107.754C85.3123 122.518 92.1376 135.713 102.793 144.367V154.912C102.79 156.644 101.588 158.155 99.8751 158.529L59.8848 167.326C41.8098 171.294 28.6891 187.606 28.6891 206.113V228.369H21.4453C9.62084 228.369 0 237.989 0 249.814V278.77C0 288.089 5.97705 296.035 14.2969 298.986V480.852C14.2969 484.799 17.4965 488 21.4453 488C25.3941 488 28.5938 484.799 28.5938 480.852V300.215H242.094C246.043 300.215 249.242 297.015 249.242 293.067C249.242 289.119 246.043 285.918 242.094 285.918H21.4453C17.5032 285.918 14.2969 282.712 14.2969 278.77V249.814C14.2969 245.872 17.5032 242.666 21.4453 242.666H280.39C280.39 242.685 280.387 285.897 280.39 285.918H238.093C234.145 285.918 230.945 289.119 230.945 293.067C230.945 297.015 234.145 300.215 238.093 300.215H280.752C282.695 311.963 293.361 321.003 305.41 321.003C309.402 321.003 313.174 320.058 316.525 318.39L328.825 449.722C321.187 454.747 316.131 463.391 316.131 473.199C316.131 481.361 322.771 488 330.932 488H376.541C379.343 488 381.957 487.203 384.193 485.844C386.43 487.203 389.044 488 391.846 488H437.456C445.617 488 452.257 481.361 452.257 473.199C452.257 463.392 447.201 454.748 439.563 449.722L451.862 318.406C454.224 319.579 456.765 320.362 459.405 320.74V480.852C459.405 484.799 462.605 488 466.554 488C470.503 488 473.702 484.799 473.702 480.852V318.584C482.147 314.561 487.999 305.944 487.999 295.983V251.625C487.999 247.677 484.799 244.477 480.851 244.477C476.902 244.477 473.702 247.677 473.702 251.625V278.111H452.257V213.775C452.257 209.828 449.057 206.627 445.108 206.627C441.16 206.627 437.96 209.828 437.96 213.775V292.409H330.429L330.428 213.775C330.428 209.828 327.229 206.627 323.28 206.627C319.331 206.627 316.132 209.828 316.132 213.775V278.111H294.687V182.4C294.687 169.664 302.33 158.373 314.155 153.638L347.629 140.254C360.305 143.161 373.292 144.569 386.281 144.403C397.869 144.255 409.455 142.851 420.767 140.255L454.233 153.637C466.06 158.374 473.703 169.664 473.703 182.4V256.356C473.703 260.304 476.903 263.505 480.852 263.505ZM168.447 173.911L149.887 192.471L142.581 185.165L157.122 170.625C158.624 171.466 160.254 172.111 161.993 172.491L168.447 173.911ZM148.375 159.152L132.471 175.056L116.565 159.15C116.902 157.781 117.091 156.364 117.091 154.911V152.322C121.916 153.991 127.087 154.91 132.472 154.91C137.856 154.91 143.026 153.992 147.85 152.323V154.911C147.849 156.364 148.038 157.782 148.375 159.152ZM99.6111 55.3403C99.6111 49.7474 104.16 45.1972 109.754 45.1972H155.19C160.783 45.1972 165.333 49.7474 165.333 55.3403V73.3716L155.898 69.2741C149.045 66.2975 141.259 65.5893 133.98 67.2821L99.612 75.2692L99.6111 55.3403ZM99.6111 107.753V89.9464L137.215 81.2072C141.525 80.2055 146.14 80.6239 150.202 82.3881L165.332 88.958V107.753C165.332 125.872 150.591 140.614 132.471 140.614C114.351 140.614 99.6111 125.873 99.6111 107.753ZM102.936 172.495C104.681 172.114 106.314 171.467 107.82 170.624L122.362 185.166L115.056 192.472L96.4953 173.912L102.936 172.495ZM221.954 228.369H42.9859V206.113C42.9859 194.269 51.3839 183.829 62.9558 181.289L79.9224 177.557L105.647 203.282C108.161 205.795 111.502 207.179 115.056 207.179C118.611 207.179 121.951 205.795 124.465 203.282L132.471 195.275L140.477 203.282C142.991 205.795 146.332 207.179 149.886 207.179C153.44 207.179 156.781 205.795 159.295 203.282L185.02 177.558L201.987 181.29C213.557 183.83 221.953 194.27 221.953 206.113L221.954 228.369ZM452.258 292.408H473.703C474.552 299.297 470.732 306.706 462.98 306.706C455.184 306.706 451.546 299.339 452.258 292.408ZM437.457 473.703H391.847C391.569 473.703 391.343 473.477 391.343 473.199C391.343 465.594 397.529 459.406 405.135 459.406H424.169C431.774 459.406 437.962 465.594 437.962 473.199C437.961 473.477 437.735 473.703 437.457 473.703ZM330.429 306.706H437.961V313.521L425.632 445.148C424.353 445.066 406.521 445.109 405.134 445.109C400.124 445.109 395.419 446.434 391.342 448.744V347.722C391.342 343.774 388.142 340.573 384.193 340.573C380.244 340.573 377.045 343.774 377.045 347.722V448.744C372.967 446.435 368.263 445.109 363.252 445.109C360.867 445.109 344.619 445.056 342.756 445.148L330.427 313.521V306.706H330.429ZM344.22 459.406H363.253C370.858 459.406 377.046 465.594 377.046 473.199C377.046 473.477 376.82 473.703 376.542 473.703H330.933C330.654 473.703 330.428 473.477 330.428 473.199C330.428 465.594 336.615 459.406 344.22 459.406ZM316.132 292.408C316.984 299.295 313.16 306.706 305.41 306.706C297.602 306.706 293.986 299.337 294.687 292.408H316.132ZM350.746 30.9766C350.746 21.7799 358.229 14.2969 367.426 14.2969H400.963C410.16 14.2969 417.643 21.7799 417.643 30.9766V47.1711L412.702 58.9413C409.868 65.6922 403.305 70.0556 395.982 70.0556H372.406C365.084 70.0556 358.522 65.6932 355.687 58.9413L350.746 47.1711V30.9766ZM386.098 130.106C378.204 130.211 370.297 129.677 362.472 128.525C364.599 124.95 365.885 120.856 366.117 116.523C371.697 118.815 377.798 120.088 384.194 120.088C390.591 120.088 396.693 118.815 402.273 116.523C402.506 120.852 403.789 124.942 405.912 128.515C399.347 129.481 392.723 130.022 386.098 130.106ZM384.194 105.792C367.081 105.792 352.937 92.8715 350.985 76.2738C356.782 81.3778 364.333 84.3516 372.406 84.3516H395.982C404.056 84.3516 411.608 81.3778 417.404 76.2738C415.451 92.8706 401.308 105.792 384.194 105.792ZM259.605 376.595H242.653V350.238C242.653 341.041 235.17 333.558 225.974 333.558H183.284C174.087 333.558 166.604 341.041 166.604 350.238V376.595H149.653C137.536 376.595 127.678 386.453 127.678 398.57V466.026C127.678 478.143 137.536 488.001 149.653 488.001H259.605C271.722 488.001 281.579 478.143 281.579 466.026V398.57C281.579 386.452 271.722 376.595 259.605 376.595ZM180.901 350.237C180.901 348.924 181.97 347.854 183.284 347.854H225.974C227.288 347.854 228.356 348.924 228.356 350.237V376.594H180.901V350.237ZM267.282 466.025C267.282 470.259 263.838 473.703 259.605 473.703H149.653C145.419 473.703 141.975 470.259 141.975 466.025V398.569C141.975 394.335 145.418 390.891 149.653 390.891H259.605C263.837 390.891 267.282 394.335 267.282 398.569V466.025Z" fill="black"/>
</g>
<defs>
<clipPath id="clip0_6507_12228">
<rect width="488" height="488" fill="white"/>
</clipPath>
</defs>
</svg>
