<svg width="15" height="15" viewBox="0 0 15 15" fill="none" xmlns="http://www.w3.org/2000/svg">
<g clip-path="url(#clip0_1806_24042)">
<path d="M13.6816 0.966797H3.22266C2.49571 0.966797 1.9043 1.55821 1.9043 2.28516V2.8418H1.31836C0.591416 2.8418 0 3.43321 0 4.16016V12.7148C0 13.4418 0.591416 14.0332 1.31836 14.0332H11.7773C12.5043 14.0332 13.0957 13.4418 13.0957 12.7148V12.1582H13.6816C14.4086 12.1582 15 11.5668 15 10.8398V2.28516C15 1.55821 14.4086 0.966797 13.6816 0.966797ZM3.22266 1.8457H13.6816C13.924 1.8457 14.1211 2.04284 14.1211 2.28516V6.41607L11.5039 4.56319C11.3381 4.44586 11.1135 4.45734 10.9606 4.59114L7.5 7.61918L5.91439 6.23177C5.75531 6.09261 5.51971 6.08634 5.35348 6.21694L2.7832 8.23646V2.28516C2.7832 2.04284 2.98034 1.8457 3.22266 1.8457ZM12.2168 12.7148C12.2168 12.9572 12.0197 13.1543 11.7773 13.1543H1.31836C1.07604 13.1543 0.878906 12.9572 0.878906 12.7148V4.16016C0.878906 3.91784 1.07604 3.7207 1.31836 3.7207H1.9043V10.8398C1.9043 11.5668 2.49571 12.1582 3.22266 12.1582H12.2168V12.7148ZM13.6816 11.2793H3.22266C2.98034 11.2793 2.7832 11.0822 2.7832 10.8398V9.35423L5.60991 7.13323L7.21061 8.53386C7.37631 8.67882 7.62369 8.67882 7.78939 8.53386L11.2788 5.48068L14.1211 7.49294V10.8398C14.1211 11.0822 13.924 11.2793 13.6816 11.2793Z" fill="black"/>
<path d="M7.5 5.5957C8.25926 5.5957 8.87695 4.97801 8.87695 4.21875C8.87695 3.45949 8.25926 2.8418 7.5 2.8418C6.74074 2.8418 6.12305 3.45949 6.12305 4.21875C6.12305 4.97801 6.74074 5.5957 7.5 5.5957ZM7.5 3.7207C7.77463 3.7207 7.99805 3.94412 7.99805 4.21875C7.99805 4.49338 7.77463 4.7168 7.5 4.7168C7.22537 4.7168 7.00195 4.49338 7.00195 4.21875C7.00195 3.94412 7.22537 3.7207 7.5 3.7207Z" fill="black"/>
</g>
<defs>
<clipPath id="clip0_1806_24042">
<rect width="15" height="15" fill="white"/>
</clipPath>
</defs>
</svg>
