<svg width="512" height="512" viewBox="0 0 512 512" fill="none" xmlns="http://www.w3.org/2000/svg">
<path d="M83.0242 119.397H156.085C160.228 119.397 163.585 116.039 163.585 111.897C163.585 107.755 160.228 104.397 156.085 104.397H83.0242C70.7722 104.397 60.4232 94.696 59.9532 82.773C59.9382 82.398 59.9312 82.026 59.9312 81.655C59.9312 66.911 71.9262 54.916 86.6702 54.916C94.7862 54.916 102.373 58.547 107.483 64.878C109.647 67.559 113.357 68.42 116.484 66.966C119.366 65.625 122.445 64.945 125.635 64.945C133.335 64.945 140.533 69.089 144.418 75.76C145.423 77.486 147.076 78.74 149.01 79.243C150.944 79.746 152.998 79.457 154.717 78.44C157.186 76.98 160.012 76.208 162.891 76.208C170.692 76.208 177.35 81.772 178.724 89.437C179.366 93.012 182.475 95.614 186.107 95.614H210.377C212.929 95.614 215.12 97.586 215.162 99.92C215.184 101.111 214.738 102.234 213.905 103.082C213.073 103.93 211.96 104.397 210.771 104.397H146.083C141.94 104.397 138.583 107.755 138.583 111.897C138.583 116.039 141.94 119.397 146.083 119.397H210.771C216.018 119.397 220.932 117.335 224.608 113.591C228.284 109.847 230.255 104.895 230.16 99.646C229.969 89.151 221.095 80.614 210.377 80.614H191.711C187.05 69.071 175.775 61.208 162.891 61.208C159.666 61.208 156.473 61.71 153.429 62.683C146.518 54.701 136.366 49.945 125.635 49.945C122.136 49.945 118.714 50.43 115.41 51.39C107.694 44.042 97.4842 39.916 86.6702 39.916C63.6552 39.916 44.9312 58.64 44.9312 81.655C44.9312 82.22 44.9432 82.789 44.9652 83.362C45.7602 103.569 62.4782 119.397 83.0242 119.397Z" fill="black"/>
<path d="M504.5 457.084H499.618C507.374 447.926 511.037 433.694 511.037 413.116C511.037 387.42 505.466 355.169 496.497 328.95C488.694 306.138 475.209 278.945 455.274 278.945C445.251 278.945 435.953 285.758 427.557 299.215C420.281 287.588 411.093 278.945 399.855 278.945C387.77 278.945 376.768 288.805 367.116 308.265C365.146 307.56 363.035 307.156 360.826 307.156H286.078C281.935 307.156 278.578 310.514 278.578 314.656C278.578 318.798 281.935 322.156 286.078 322.156H360.826C362.891 322.156 364.571 323.836 364.571 325.901V334.382C364.571 336.447 362.891 338.127 360.826 338.127H151.174C149.109 338.127 147.429 336.447 147.429 334.382V325.901C147.429 323.836 149.109 322.156 151.174 322.156H296.078C300.221 322.156 303.578 318.798 303.578 314.656C303.578 310.514 300.221 307.156 296.078 307.156H193.887C199.626 294.343 202.644 280.325 202.644 266.193C202.644 211.001 157.742 166.099 102.55 166.099C47.358 166.099 2.455 211.001 2.455 266.193C2.455 318.509 42.801 361.572 94.011 365.92V408.637C92.431 408.425 90.829 408.313 89.213 408.313C86.366 408.313 83.567 408.643 80.842 409.297C72.111 397.497 57.839 390.549 42.948 391.243C20.165 392.3 1.577 410.98 0.634 433.775C0.293 442.031 2.299 450.129 6.219 457.202C2.688 457.811 0 460.88 0 464.584C0 468.726 3.357 472.084 7.5 472.084H22.07H504.5C508.643 472.084 512 468.726 512 464.584C512 460.442 508.643 457.084 504.5 457.084ZM151.526 446.145C151.376 443.959 150.978 441.793 150.374 439.684H174.324V457.084H150.397C151.391 453.586 151.784 449.899 151.526 446.145ZM314.313 384.1V395.15H200.988V384.1H314.313ZM346.092 384.1C345.615 387.846 345.218 391.539 344.91 395.15H329.312V384.1H346.092ZM377.485 410.15C378.436 410.15 379.21 410.924 379.21 411.875V422.958C379.21 423.91 378.436 424.683 377.485 424.683H134.515C133.564 424.683 132.789 423.909 132.789 422.958V411.875C132.789 410.924 133.563 410.15 134.515 410.15H377.485ZM189.324 439.684H325.976V457.084H189.324V439.684ZM340.977 439.684H346.98C348.956 447.144 351.907 452.809 355.542 457.084H340.976L340.977 439.684ZM436.06 314.757C442.557 301.726 449.74 293.945 455.275 293.945C461.455 293.945 472.242 304.384 482.305 333.805C490.647 358.193 496.037 389.325 496.037 413.116C496.037 455.4 480.694 455.4 455.274 455.4C452.149 455.4 448.863 455.395 445.618 455.268C452.396 446.083 455.618 432.388 455.618 413.116C455.618 387.42 450.047 355.169 441.078 328.95C439.542 324.461 437.783 319.803 435.802 315.215C435.89 315.065 435.98 314.916 436.06 314.757ZM399.855 293.946C406.035 293.946 416.822 304.385 426.885 333.806C435.227 358.194 440.617 389.326 440.617 413.117C440.617 455.401 425.274 455.401 399.854 455.401C379.688 455.401 368.173 454.637 362.67 439.685H377.484C386.707 439.685 394.209 432.182 394.209 422.96V411.877C394.209 402.655 386.706 395.152 377.484 395.152H359.971C360.299 391.537 360.716 387.84 361.222 384.082C371.373 383.868 379.57 375.559 379.57 365.357V356.876C379.57 352.655 378.15 348.768 375.787 345.631C378.151 342.494 379.57 338.607 379.57 334.386V325.905C379.57 323.602 379.132 321.403 378.369 319.363C378.56 319.066 378.739 318.758 378.89 318.428C385.903 303.096 393.74 293.946 399.855 293.946ZM360.826 353.128C362.891 353.128 364.571 354.808 364.571 356.873V365.354C364.571 367.419 362.891 369.099 360.826 369.099H151.174C149.109 369.099 147.429 367.419 147.429 365.354V356.873C147.429 354.808 149.109 353.128 151.174 353.128H360.826ZM17.456 266.193C17.456 219.272 55.63 181.099 102.551 181.099C149.472 181.099 187.645 219.272 187.645 266.193C187.645 280.277 184.135 294.228 177.495 306.536C177.385 306.74 177.289 306.947 177.2 307.156H151.175C140.839 307.156 132.43 315.565 132.43 325.901V334.382C132.43 338.201 133.584 341.753 135.553 344.719C135.272 344.797 134.992 344.887 134.715 345C126.494 348.359 117.871 350.361 109.013 351.022V291.933L134.925 266.02C137.854 263.091 137.854 258.342 134.925 255.414C131.995 252.485 127.247 252.485 124.318 255.414L109.013 270.719V251.144C109.013 247.002 105.656 243.644 101.513 243.644C97.37 243.644 94.013 247.002 94.013 251.144V296.235L79.585 281.81C76.655 278.881 71.907 278.88 68.978 281.81C66.049 284.739 66.049 289.488 68.978 292.417L94.012 317.452V350.86C51.085 346.562 17.456 310.233 17.456 266.193ZM109.012 366.077C117.004 365.57 124.837 364.12 132.429 361.745V365.354C132.429 375.69 140.838 384.099 151.174 384.099H185.988V395.149H134.514C125.291 395.149 117.788 402.652 117.788 411.874V416.705C116.188 416.808 114.602 417.019 113.039 417.365C111.766 416.234 110.418 415.203 109.011 414.271L109.012 366.077ZM24.853 457.084C18.602 451.218 15.262 443.079 15.621 434.395C16.247 419.299 28.556 406.927 43.644 406.229C55.165 405.701 65.638 411.665 71.052 421.802C72.906 425.273 77.125 426.722 80.721 425.119C83.409 423.921 86.266 423.314 89.215 423.314C95.361 423.314 101.172 426.01 105.158 430.71C107.243 433.17 110.667 434.021 113.661 432.824C115.77 431.982 117.98 431.59 120.248 431.643C123.127 436.355 128.258 439.535 134.142 439.665C135.543 441.944 136.382 444.538 136.562 447.172C136.805 450.715 135.961 454.143 134.16 457.084H24.853Z" fill="black"/>
<path d="M279.023 213.327H394.037C398.18 213.327 401.537 209.969 401.537 205.827C401.537 201.685 398.18 198.327 394.037 198.327H279.023C274.061 198.327 269.998 194.422 269.965 189.622C269.965 189.6 269.964 189.511 269.964 189.489C269.964 179.163 278.37 170.588 288.704 170.375C292.315 170.3 295.36 167.662 295.949 164.097C299.006 145.569 314.874 132.121 333.681 132.121C352.581 132.121 368.464 145.644 371.445 164.276C372.086 168.276 375.792 171.041 379.803 170.53C380.776 170.406 381.558 170.347 382.266 170.347C389.033 170.347 395.365 173.984 398.793 179.838C400.139 182.136 402.602 183.548 405.265 183.548H425.829C429.903 183.548 433.218 186.863 433.218 190.937C433.218 195.012 429.904 198.327 425.829 198.327H384.035C379.892 198.327 376.535 201.685 376.535 205.827C376.535 209.969 379.892 213.327 384.035 213.327H425.829C438.174 213.327 448.218 203.283 448.218 190.937C448.218 178.592 438.174 168.548 425.829 168.548H409.221C403.322 160.979 394.421 156.172 384.816 155.444C378.312 132.887 357.754 117.12 333.681 117.12C309.437 117.12 288.7 133.177 282.382 156.042C266.808 159.203 254.963 173.111 254.963 189.488L254.964 189.724C255.055 202.739 265.848 213.327 279.023 213.327Z" fill="black"/>
</svg>
