<svg width="64" height="64" viewBox="0 0 64 64" fill="none" xmlns="http://www.w3.org/2000/svg">
<path d="M57 5.00989H13.8281C13.5629 5.00989 13.3086 5.11524 13.121 5.30278C12.9335 5.49032 12.8281 5.74467 12.8281 6.00989C12.8281 6.2751 12.9335 6.52946 13.121 6.71699C13.3086 6.90453 13.5629 7.00989 13.8281 7.00989H57C57.2651 7.01015 57.5193 7.11559 57.7068 7.30307C57.8943 7.49055 57.9997 7.74475 58 8.00989V14.0099H6V8.00989C6.00026 7.74475 6.10571 7.49055 6.29319 7.30307C6.48066 7.11559 6.73486 7.01015 7 7.00989H15.8281C16.0933 7.00989 16.3477 6.90453 16.5352 6.71699C16.7228 6.52946 16.8281 6.2751 16.8281 6.00989C16.8281 5.74467 16.7228 5.49032 16.5352 5.30278C16.3477 5.11524 16.0933 5.00989 15.8281 5.00989H7C6.20462 5.01076 5.44206 5.32711 4.87964 5.88953C4.31722 6.45195 4.00087 7.2145 4 8.00989V17.0099C4.00087 17.8053 4.31722 18.5678 4.87964 19.1302C5.44206 19.6927 6.20462 20.009 7 20.0099H7.22986L9.61816 28.797C9.79206 29.4319 10.1695 29.9922 10.6925 30.392C11.2156 30.7917 11.8554 31.0088 12.5137 31.0099H40C40.2652 31.0099 40.5196 30.9045 40.7071 30.717C40.8946 30.5294 41 30.2751 41 30.0099C41 29.7447 40.7071 29.3028 40.7071 29.3028C40.5196 29.1152 40 29.0099 40 29.0099H12.5137C12.2941 29.0095 12.0808 28.9371 11.9064 28.8038C11.7319 28.6706 11.606 28.4838 11.5478 28.2721L9.30206 20.0099H55.0059C55.2711 20.0099 55.5254 19.9045 55.713 19.717C55.9005 19.5295 56.0059 19.2751 56.0059 19.0099C56.0059 18.7447 55.9005 18.4903 55.713 18.3028C55.5254 18.1152 55.2711 18.0099 55.0059 18.0099H7C6.73486 18.0096 6.48066 17.9042 6.29319 17.7167C6.10571 17.5292 6.00026 17.275 6 17.0099V16.0099H58V17.0099C57.9997 17.275 57.8943 17.5292 57.7068 17.7167C57.5193 17.9042 57.2651 18.0096 57 18.0099H53.0059C52.7406 18.0099 52.4863 18.1152 52.2988 18.3028C52.1112 18.4903 52.0059 18.7447 52.0059 19.0099C52.0059 19.2751 52.1112 19.5295 52.2988 19.717C52.4863 19.9045 52.7406 20.0099 53.0059 20.0099H54.6979L52.4521 28.2716C52.3941 28.4834 52.2683 28.6703 52.0938 28.8037C51.9193 28.937 51.7059 29.0095 51.4863 29.0099H34C33.7348 29.0099 33.4804 29.1152 33.2929 29.3028C33.1054 29.4903 33 29.7447 33 30.0099C33 30.2751 33.1054 30.5295 33.2929 30.717C33.4804 30.9045 33.7348 31.0099 34 31.0099H51.4863C52.1447 31.0088 52.7845 30.7917 53.3076 30.3918C53.8307 29.992 54.2081 29.4315 54.3818 28.7965L56.7701 20.0099H57C57.7954 20.009 58.5579 19.6927 59.1204 19.1302C59.6828 18.5678 59.9991 17.8053 60 17.0099V8.00989C59.9991 7.2145 59.6828 6.45195 59.1204 5.88953C58.5579 5.32711 57.7954 5.01076 57 5.00989Z" fill="black"/>
<path d="M33.9999 35.0099C33.9947 34.7482 33.887 34.4989 33.7 34.3157C33.5131 34.1324 33.2617 34.0298 32.9999 34.0298C32.7381 34.0298 32.4867 34.1325 32.2998 34.3157C32.1128 34.499 32.0051 34.7483 31.9999 35.01C32.0317 36.1945 31.7241 37.3633 31.1132 38.3786C30.3962 39.6969 30.0207 41.1737 30.0207 42.6743C30.0207 44.1749 30.3964 45.6517 31.1134 46.9699C31.6946 47.9987 32 49.1602 31.9999 50.3418C31.9999 51.5234 31.6944 52.6849 31.1132 53.7136C30.3529 55.0156 29.9676 56.5025 29.9999 58.0099C30.0052 58.2717 30.1128 58.5209 30.2998 58.7042C30.4868 58.8875 30.7382 58.9901 31 58.9901C31.2618 58.9901 31.5131 58.8874 31.7001 58.7042C31.887 58.5209 31.9947 58.2716 31.9999 58.0099C31.9681 56.8245 32.2758 55.6547 32.8866 54.6383C33.6036 53.3197 33.9792 51.8426 33.9792 50.3417C33.9791 48.8407 33.6035 47.3637 32.8865 46.0451C32.3053 45.0169 31.9999 43.8558 31.9999 42.6747C32 41.4936 32.3054 40.3326 32.8866 39.3044C33.6469 38.0031 34.0323 36.5167 33.9999 35.0099Z" fill="black"/>
<path d="M23.9999 35.01C23.9418 38.6569 21.9569 38.6897 22 42.6701C21.9671 44.1797 22.3527 45.669 23.1142 46.9729C23.7244 47.9879 24.0317 49.1562 23.9999 50.34C24.0226 51.1287 23.8919 51.9142 23.6152 52.653C23.5679 52.7758 23.5453 52.9068 23.5487 53.0383C23.5521 53.1699 23.5814 53.2995 23.635 53.4197C23.6886 53.5399 23.7653 53.6484 23.8609 53.7389C23.9564 53.8293 24.0689 53.9001 24.1918 53.947C24.3148 53.994 24.4458 54.0162 24.5773 54.0125C24.7089 54.0087 24.8384 53.9791 24.9585 53.9252C25.0785 53.8713 25.1868 53.7942 25.277 53.6984C25.3672 53.6026 25.4377 53.49 25.4843 53.3669C25.8441 52.3991 26.019 51.3724 25.9999 50.34C26.0423 46.3558 24.0562 46.3261 23.9999 42.6701C24.058 39.0218 26.043 38.9913 25.9999 35.0099C25.9947 34.7482 25.887 34.4989 25.7 34.3157C25.5131 34.1324 25.2617 34.0298 24.9999 34.0298C24.7381 34.0298 24.4867 34.1325 24.2998 34.3157C24.1128 34.499 24.0052 34.7483 23.9999 35.01Z" fill="black"/>
<path d="M17.9999 35.0099C17.9947 34.7482 17.887 34.4989 17.7 34.3157C17.5131 34.1324 17.2617 34.0298 16.9999 34.0298C16.7381 34.0298 16.4867 34.1325 16.2998 34.3157C16.1128 34.499 16.0051 34.7483 15.9999 35.01C16.0317 36.1945 15.7241 37.3633 15.1132 38.3786C14.3962 39.6969 14.0207 41.1737 14.0207 42.6743C14.0207 44.1749 14.3964 45.6517 15.1134 46.9699C15.6946 47.9987 16 49.1602 15.9999 50.3418C15.9999 51.5234 15.6944 52.6849 15.1132 53.7136C14.3529 55.0156 13.9676 56.5025 13.9999 58.0099C14.0052 58.2717 14.1128 58.5209 14.2998 58.7042C14.4868 58.8875 14.7382 58.9901 15 58.9901C15.2618 58.9901 15.5131 58.8874 15.7001 58.7042C15.8871 58.5209 15.9947 58.2716 15.9999 58.0099C15.9681 56.8245 16.2758 55.6547 16.8866 54.6383C17.6036 53.3197 17.9792 51.8426 17.9792 50.3417C17.9791 48.8407 17.6035 47.3637 16.8865 46.0451C16.3053 45.0169 15.9999 43.8558 15.9999 42.6747C16 41.4936 16.3054 40.3326 16.8866 39.3044C17.6469 38.0031 18.0323 36.5167 17.9999 35.0099Z" fill="black"/>
<path d="M39.9999 35.01C39.9418 38.6569 37.9569 38.6897 38 42.6701C37.9671 44.1797 38.3527 45.669 39.1142 46.9729C39.7244 47.9879 40.0317 49.1562 39.9999 50.34C40.0226 51.1287 39.8919 51.9142 39.6152 52.653C39.5679 52.7758 39.5453 52.9068 39.5487 53.0383C39.5521 53.1699 39.5814 53.2995 39.635 53.4197C39.6886 53.5399 39.7653 53.6484 39.8609 53.7389C39.9564 53.8293 40.0689 53.9001 40.1918 53.947C40.3148 53.994 40.4458 54.0162 40.5773 54.0125C40.7089 54.0087 40.8384 53.9791 40.9585 53.9252C41.0785 53.8713 41.1868 53.7942 41.277 53.6984C41.3672 53.6026 41.4377 53.49 41.4843 53.3669C41.8441 52.3991 42.019 51.3724 41.9999 50.34C42.0423 46.3558 40.0562 46.3261 39.9999 42.6701C40.058 39.0218 42.043 38.9913 41.9999 35.0099C41.9947 34.7482 41.887 34.4989 41.7 34.3157C41.5131 34.1324 41.2617 34.0298 40.9999 34.0298C40.7381 34.0298 40.4867 34.1325 40.2998 34.3157C40.1128 34.499 40.0051 34.7483 39.9999 35.01Z" fill="black"/>
<path d="M49.9999 35.0099C49.9947 34.7482 49.887 34.4989 49.7 34.3157C49.5131 34.1324 49.2617 34.0298 48.9999 34.0298C48.7381 34.0298 48.4867 34.1325 48.2998 34.3157C48.1128 34.499 48.0051 34.7483 47.9999 35.01C48.0317 36.1945 47.7241 37.3633 47.1132 38.3786C46.3962 39.6969 46.0207 41.1737 46.0207 42.6743C46.0207 44.1749 46.3964 45.6517 47.1134 46.9699C47.6946 47.9987 48 49.1602 47.9999 50.3418C47.9999 51.5234 47.6944 52.6849 47.1132 53.7136C46.3529 55.0156 45.9676 56.5025 45.9999 58.0099C46.0052 58.2717 46.1128 58.5209 46.2998 58.7042C46.4868 58.8875 46.7382 58.9901 47 58.9901C47.2618 58.9901 47.5131 58.8874 47.7001 58.7042C47.887 58.5209 47.9947 58.2716 47.9999 58.0099C47.9681 56.8245 48.2758 55.6547 48.8866 54.6383C49.6036 53.3197 49.9792 51.8426 49.9792 50.3417C49.9791 48.8407 49.6035 47.3637 48.8865 46.0451C48.3053 45.0169 47.9999 43.8558 47.9999 42.6747C48 41.4936 48.3054 40.3326 48.8866 39.3044C49.6469 38.0031 50.0323 36.5167 49.9999 35.0099Z" fill="black"/>
<path d="M15 23.0099V26.0099C15 26.2751 15.1054 26.5295 15.2929 26.717C15.4804 26.9045 15.7348 27.0099 16 27.0099C16.2652 27.0099 16.5196 26.9045 16.7071 26.717C16.8946 26.5295 17 26.2751 17 26.0099V23.0099C17 22.7447 16.8946 22.4903 16.7071 22.3028C16.5196 22.1152 16.2652 22.0099 16 22.0099C15.7348 22.0099 15.4804 22.1152 15.2929 22.3028C15.1054 22.4903 15 22.7447 15 23.0099Z" fill="black"/>
<path d="M20.3301 23.0099V26.0099C20.3301 26.2751 20.4354 26.5295 20.623 26.717C20.8105 26.9045 21.0649 27.0099 21.3301 27.0099C21.5953 27.0099 21.8496 26.9045 22.0372 26.717C22.2247 26.5295 22.3301 26.2751 22.3301 26.0099V23.0099C22.3301 22.7447 22.2247 22.4903 22.0372 22.3028C21.8496 22.1152 21.5953 22.0099 21.3301 22.0099C21.0649 22.0099 20.8105 22.1152 20.623 22.3028C20.4354 22.4903 20.3301 22.7447 20.3301 23.0099Z" fill="black"/>
<path d="M25.6699 23.0099V26.0099C25.6699 26.2751 25.7753 26.5295 25.9628 26.717C26.1504 26.9045 26.4047 27.0099 26.6699 27.0099C26.9351 27.0099 27.1895 26.9045 27.377 26.717C27.5646 26.5295 27.6699 26.2751 27.6699 26.0099V23.0099C27.6699 22.7447 27.5646 22.4903 27.377 22.3028C27.1895 22.1152 26.9351 22.0099 26.6699 22.0099C26.4047 22.0099 26.1504 22.1152 25.9628 22.3028C25.7753 22.4903 25.6699 22.7447 25.6699 23.0099Z" fill="black"/>
<path d="M32 27.0099C32.1313 27.0099 32.2614 26.9841 32.3827 26.9338C32.5041 26.8836 32.6143 26.8099 32.7072 26.7171C32.8 26.6242 32.8737 26.514 32.924 26.3926C32.9742 26.2713 33 26.1412 33 26.0099V23.0099C33 22.7447 32.8946 22.4903 32.7071 22.3028C32.5196 22.1152 32.2652 22.0099 32 22.0099C31.7348 22.0099 31.4804 22.1152 31.2929 22.3028C31.1054 22.4903 31 22.7447 31 23.0099V26.0099C31 26.1412 31.0258 26.2713 31.0761 26.3926C31.1263 26.514 31.2 26.6242 31.2928 26.7171C31.3857 26.8099 31.4959 26.8836 31.6173 26.9338C31.7386 26.9841 31.8687 27.0099 32 27.0099Z" fill="black"/>
<path d="M38.3301 26.0099V23.0099C38.3301 22.7447 38.2247 22.4903 38.0372 22.3028C37.8496 22.1152 37.5953 22.0099 37.3301 22.0099C37.0649 22.0099 36.8105 22.1152 36.623 22.3028C36.4354 22.4903 36.3301 22.7447 36.3301 23.0099V26.0099C36.3301 26.2751 36.4354 26.5295 36.623 26.717C36.8105 26.9045 37.0649 27.0099 37.3301 27.0099C37.5953 27.0099 37.8496 26.9045 38.0372 26.717C38.2247 26.5295 38.3301 26.2751 38.3301 26.0099Z" fill="black"/>
<path d="M43.6699 26.0099V23.0099C43.6699 22.7447 43.5646 22.4903 43.377 22.3028C43.1895 22.1152 42.9351 22.0099 42.6699 22.0099C42.4047 22.0099 42.1504 22.1152 41.9628 22.3028C41.7753 22.4903 41.6699 22.7447 41.6699 23.0099V26.0099C41.6699 26.2751 41.7753 26.5295 41.9628 26.717C42.1504 26.9045 42.4047 27.0099 42.6699 27.0099C42.9351 27.0099 43.1895 26.9045 43.377 26.717C43.5646 26.5295 43.6699 26.2751 43.6699 26.0099Z" fill="black"/>
<path d="M49 26.0099V23.0099C49 22.7447 48.8946 22.4903 48.7071 22.3028C48.5196 22.1152 48.2652 22.0099 48 22.0099C47.7348 22.0099 47.4804 22.1152 47.2929 22.3028C47.1054 22.4903 47 22.7447 47 23.0099V26.0099C47 26.2751 47.1054 26.5295 47.2929 26.717C47.4804 26.9045 47.7348 27.0099 48 27.0099C48.2652 27.0099 48.5196 26.9045 48.7071 26.717C48.8946 26.5295 49 26.2751 49 26.0099Z" fill="black"/>
</svg>
