<svg id="Layer_1" enable-background="new 0 0 66 66" viewBox="0 0 66 66" xmlns="http://www.w3.org/2000/svg"><g><g><path d="m46.2 14.8c-2-.6-4-1.1-6-1.5v-1.5c0-1.9-1.3-3.4-3.1-3.7v-2.1h10.6c.6 0 1-.4 1-1s-.4-1-1-1h-11.5c-.6 0-1 .4-1 1v3h-3.9v-6c0-.6-.4-1-1-1s-1 .4-1 1v6c-2 .1-3.6 1.8-3.6 3.8v1.3c-2.1.4-4.2.9-6.1 1.6-1.4.5-2.4 1.9-2.4 3.4v37.5c0 1 .4 2 1.1 2.8.7.7 1.7 1.1 2.8 1.1h1.3v4.5c0 .6.4 1 1 1h4.5c.6 0 1-.4 1-1v-4.4h8.2v4.4c0 .6.4 1 1 1h4.5c.6 0 1-.4 1-1v-4.4h1.3c2.2 0 3.9-1.8 3.9-3.9v-37.5c0-1.5-1-2.9-2.6-3.4zm-18.5-3c0-1 .8-1.8 1.8-1.8h7c1 0 1.8.8 1.8 1.8v1.2c-3.6-.5-7.2-.5-10.6-.1zm-7.4 4.8c3.7-1.4 7.8-2.1 12.1-2.1 4.4 0 8.9.7 13.3 2.1.7.2 1.2.9 1.2 1.6v25.4h-27.7v-25.5c0-.6.4-1.3 1.1-1.5zm6.6 46.4h-2.5v-3.4h2.5zm14.7 0h-2.5v-3.4h2.5zm3.3-5.4h-23.8c-.5 0-1-.2-1.4-.6s-.6-.8-.6-1.4v-10h27.6v10c.1 1.1-.8 2-1.8 2z"/></g><g><path d="m33 30.2c2.1 0 3.8-1.7 3.8-3.9 0-1.8-2.5-5.9-3-6.7-.2-.3-.5-.5-.9-.5-.3 0-.7.2-.9.5-.5.8-3 5-3 6.7.2 2.2 1.9 3.9 4 3.9zm0-8.1c1 1.8 1.8 3.6 1.8 4.2 0 1-.8 1.9-1.8 1.9s-1.8-.8-1.8-1.9c0-.6.8-2.4 1.8-4.2z"/></g><g><path d="m32.7 47.9c-2 0-3.6 1.6-3.6 3.7 0 2 1.6 3.7 3.6 3.7s3.6-1.6 3.6-3.7c.1-2.1-1.6-3.7-3.6-3.7zm0 5.3c-.9 0-1.6-.8-1.6-1.7s.7-1.7 1.6-1.7 1.6.8 1.6 1.7c.1 1-.7 1.7-1.6 1.7z"/></g><g><path d="m41.3 50.6h-1.3c-.6 0-1 .4-1 1s.4 1 1 1h1.3c.6 0 1-.4 1-1s-.5-1-1-1z"/></g><g><path d="m25.4 50.6h-1.3c-.6 0-1 .4-1 1s.4 1 1 1h1.3c.6 0 1-.4 1-1s-.4-1-1-1z"/></g></g></svg>