<svg width="512" height="512" viewBox="0 0 512 512" fill="none" xmlns="http://www.w3.org/2000/svg">
<path d="M106 368.5H91V398.5H106V368.5Z" fill="black"/>
<path d="M481 128.5V68.5C481 66.5109 480.21 64.6032 478.803 63.1967C477.397 61.7902 475.489 61 473.5 61V46C473.488 42.0254 471.904 38.217 469.093 35.4065C466.283 32.596 462.475 31.0119 458.5 31H53.5C49.5254 31.0119 45.717 32.596 42.9065 35.4065C40.096 38.217 38.5119 42.0254 38.5 46V61C36.5109 61 34.6032 61.7902 33.1967 63.1967C31.7902 64.6032 31 66.5109 31 68.5V128.5C31 130.489 31.7902 132.397 33.1967 133.803C34.6032 135.21 36.5109 136 38.5 136V466H31V481H481V466H473.5V136C475.489 136 477.397 135.21 478.803 133.803C480.21 132.397 481 130.489 481 128.5ZM53.5 46H458.5V61H53.5V46ZM158.5 466H83.5V316H158.5V466ZM158.5 301H83.5V293.5H158.5V301ZM158.5 278.5H83.5V271H158.5V278.5ZM458.5 466H173.5V263.5C173.5 261.511 172.71 259.603 171.303 258.197C169.897 256.79 167.989 256 166 256H76C74.0109 256 72.1032 256.79 70.6967 258.197C69.2902 259.603 68.5 261.511 68.5 263.5V466H53.5V203.275C59.9426 208.261 67.8532 210.977 76 211C81.8414 210.977 87.5965 209.589 92.8056 206.945C98.0146 204.302 102.533 200.476 106 195.775C109.451 200.493 113.966 204.33 119.179 206.975C124.392 209.621 130.155 210.999 136 210.999C141.845 210.999 147.608 209.621 152.821 206.975C158.034 204.33 162.549 200.493 166 195.775C169.451 200.493 173.966 204.33 179.179 206.975C184.392 209.621 190.155 210.999 196 210.999C201.845 210.999 207.608 209.621 212.821 206.975C218.034 204.33 222.549 200.493 226 195.775C229.451 200.493 233.966 204.33 239.179 206.975C244.392 209.621 250.155 210.999 256 210.999C261.845 210.999 267.608 209.621 272.821 206.975C278.034 204.33 282.549 200.493 286 195.775C289.451 200.493 293.966 204.33 299.179 206.975C304.392 209.621 310.155 210.999 316 210.999C321.845 210.999 327.608 209.621 332.821 206.975C338.034 204.33 342.549 200.493 346 195.775C349.451 200.493 353.966 204.33 359.179 206.975C364.392 209.621 370.155 210.999 376 210.999C381.845 210.999 387.608 209.621 392.821 206.975C398.034 204.33 402.549 200.493 406 195.775C409.467 200.476 413.985 204.302 419.194 206.945C424.403 209.589 430.159 210.977 436 211C444.147 210.977 452.057 208.261 458.5 203.275V466ZM53.5 173.5V136H98.5V173.5C98.5 179.467 96.1295 185.19 91.9099 189.41C87.6903 193.629 81.9674 196 76 196C70.0326 196 64.3097 193.629 60.0901 189.41C55.8705 185.19 53.5 179.467 53.5 173.5ZM113.5 173.5V136H158.5V173.5C158.5 179.467 156.129 185.19 151.91 189.41C147.69 193.629 141.967 196 136 196C130.033 196 124.31 193.629 120.09 189.41C115.871 185.19 113.5 179.467 113.5 173.5ZM173.5 173.5V136H218.5V173.5C218.5 179.467 216.129 185.19 211.91 189.41C207.69 193.629 201.967 196 196 196C190.033 196 184.31 193.629 180.09 189.41C175.871 185.19 173.5 179.467 173.5 173.5ZM233.5 173.5V136H278.5V173.5C278.5 179.467 276.129 185.19 271.91 189.41C267.69 193.629 261.967 196 256 196C250.033 196 244.31 193.629 240.09 189.41C235.871 185.19 233.5 179.467 233.5 173.5ZM293.5 173.5V136H338.5V173.5C338.5 179.467 336.129 185.19 331.91 189.41C327.69 193.629 321.967 196 316 196C310.033 196 304.31 193.629 300.09 189.41C295.871 185.19 293.5 179.467 293.5 173.5ZM353.5 173.5V136H398.5V173.5C398.5 179.467 396.129 185.19 391.91 189.41C387.69 193.629 381.967 196 376 196C370.033 196 364.31 193.629 360.09 189.41C355.871 185.19 353.5 179.467 353.5 173.5ZM458.5 173.5C458.5 179.467 456.129 185.19 451.91 189.41C447.69 193.629 441.967 196 436 196C430.033 196 424.31 193.629 420.09 189.41C415.871 185.19 413.5 179.467 413.5 173.5V136H458.5V173.5ZM466 121H46V76H466V121Z" fill="black"/>
<path d="M436 226H196C194.011 226 192.103 226.79 190.697 228.197C189.29 229.603 188.5 231.511 188.5 233.5V443.5C188.5 445.489 189.29 447.397 190.697 448.803C192.103 450.21 194.011 451 196 451H436C437.989 451 439.897 450.21 441.303 448.803C442.71 447.397 443.5 445.489 443.5 443.5V233.5C443.5 231.511 442.71 229.603 441.303 228.197C439.897 226.79 437.989 226 436 226ZM428.5 436H203.5V241H428.5V436Z" fill="black"/>
<path d="M406 278.5H361V256C361 254.011 360.21 252.103 358.803 250.697C357.397 249.29 355.489 248.5 353.5 248.5H346C340.159 248.523 334.403 249.911 329.194 252.555C323.985 255.198 319.467 259.024 316 263.725C312.533 259.024 308.015 255.198 302.806 252.555C297.597 249.911 291.841 248.523 286 248.5H278.5C276.511 248.5 274.603 249.29 273.197 250.697C271.79 252.103 271 254.011 271 256V278.5H226C224.011 278.5 222.103 279.29 220.697 280.697C219.29 282.103 218.5 284.011 218.5 286V316C218.5 317.989 219.29 319.897 220.697 321.303C222.103 322.71 224.011 323.5 226 323.5H233.5V421C233.5 422.989 234.29 424.897 235.697 426.303C237.103 427.71 239.011 428.5 241 428.5H391C392.989 428.5 394.897 427.71 396.303 426.303C397.71 424.897 398.5 422.989 398.5 421V323.5H406C407.989 323.5 409.897 322.71 411.303 321.303C412.71 319.897 413.5 317.989 413.5 316V286C413.5 284.011 412.71 282.103 411.303 280.697C409.897 279.29 407.989 278.5 406 278.5ZM293.5 413.5H248.5V323.5H293.5V413.5ZM293.5 308.5H233.5V293.5H293.5V308.5ZM286 278.5V263.5C290.651 263.513 295.185 264.96 298.984 267.645C302.782 270.329 305.66 274.12 307.225 278.5H286ZM323.5 413.5H308.5V323.5H323.5V413.5ZM323.5 308.5H308.5V293.5H323.5V308.5ZM324.775 278.5C326.34 274.12 329.218 270.329 333.016 267.645C336.815 264.96 341.349 263.513 346 263.5V278.5H324.775ZM383.5 413.5H338.5V323.5H383.5V413.5ZM398.5 308.5H338.5V293.5H398.5V308.5Z" fill="black"/>
</svg>
