<svg width="512" height="512" viewBox="0 0 512 512" fill="none" xmlns="http://www.w3.org/2000/svg">
<path d="M253 28C208.499 28 164.998 41.196 127.997 65.9193C90.9957 90.6426 62.1569 125.783 45.1272 166.896C28.0975 208.01 23.6417 253.25 32.3234 296.895C41.0051 340.541 62.4343 380.632 93.9011 412.099C125.368 443.566 165.459 464.995 209.105 473.677C252.75 482.358 297.99 477.903 339.104 460.873C380.217 443.843 415.357 415.004 440.081 378.003C464.804 341.002 478 297.501 478 253C478 193.326 454.295 136.097 412.099 93.901C369.903 51.7053 312.674 28 253 28ZM253 49.375C303.291 49.3869 351.773 68.138 388.984 101.969L302.5 188.312L298.984 189.437C304.745 176.802 306.485 162.702 303.97 149.045C301.455 135.388 294.806 122.833 284.922 113.078L260.594 88.3281C259.6 87.3247 258.417 86.5282 257.114 85.9846C255.81 85.441 254.412 85.1611 253 85.1611C251.588 85.1611 250.19 85.441 248.886 85.9846C247.583 86.5282 246.4 87.3247 245.406 88.3281L220.516 113.219C210.749 123.054 204.231 135.647 201.843 149.3C199.454 162.954 201.308 177.011 207.156 189.578C198.917 186.732 190.278 185.213 181.563 185.078H160.609C157.762 185.115 155.044 186.272 153.044 188.299C151.043 190.326 149.922 193.059 149.922 195.906V216.719C149.819 235.812 156.44 254.332 168.625 269.031H160.047C157.212 269.031 154.494 270.157 152.49 272.161C150.485 274.166 149.359 276.884 149.359 279.719V300.672C149.374 312.117 151.819 323.429 156.531 333.859L101.969 388.984C75.5407 359.803 58.1585 323.574 51.9351 284.699C45.7117 245.824 50.9152 205.979 66.913 170.006C82.9108 134.034 109.014 103.483 142.05 82.0672C175.085 60.6519 213.63 49.2943 253 49.375ZM270.297 193.937L253 210.812L235.703 193.937C231.387 189.627 227.964 184.509 225.628 178.875C223.292 173.24 222.089 167.201 222.089 161.102C222.089 155.002 223.292 148.963 225.628 143.328C227.964 137.694 231.387 132.576 235.703 128.266L253 110.969L270.297 128.266C274.613 132.576 278.036 137.694 280.372 143.328C282.708 148.963 283.911 155.002 283.911 161.102C283.911 167.201 282.708 173.24 280.372 178.875C278.036 184.509 274.613 189.627 270.297 193.937ZM224.875 224.875C235.989 236.111 242.25 251.259 242.313 267.062V277.187H232.047C215.935 277.187 200.483 270.787 189.09 259.394C177.697 248.001 171.297 232.549 171.297 216.437V206.594H181.563C189.637 206.595 197.629 208.213 205.068 211.353C212.507 214.493 219.242 219.09 224.875 224.875ZM171.719 291.109H181.984C197.988 290.926 213.412 297.096 224.875 308.266C236.164 319.786 242.433 335.308 242.313 351.437V361.703H232.047C215.935 361.703 200.483 355.303 189.09 343.91C177.697 332.517 171.297 317.065 171.297 300.953L171.719 291.109ZM174.391 359.312C181.985 366.982 191.034 373.059 201.007 377.188C210.979 381.318 221.675 383.415 232.469 383.359H242.734V456.625C196.221 454.239 151.959 435.858 117.438 404.594L168.625 352.422C170.285 354.631 172.069 356.743 173.969 358.75L174.391 359.312ZM263.688 351.437C263.725 335.35 270.142 319.934 281.53 308.572C292.919 297.209 308.35 290.828 324.438 290.828H334.703V300.953C334.703 317.065 328.303 332.517 316.91 343.91C305.517 355.303 290.065 361.703 273.953 361.703H263.688V351.437ZM334 217C334 233.112 327.6 248.564 316.207 259.957C304.814 271.35 289.362 277.75 273.25 277.75H262.984V267.062C262.984 250.951 269.385 235.499 280.778 224.106C292.17 212.713 307.623 206.312 323.734 206.312H334V217ZM263.688 456.062V382.797H273.953C295.734 382.797 316.623 374.144 332.024 358.743C347.426 343.342 356.078 322.453 356.078 300.672V279.719C356.078 278.315 355.802 276.925 355.265 275.629C354.728 274.332 353.94 273.154 352.948 272.161C351.955 271.169 350.777 270.382 349.481 269.845C348.184 269.308 346.794 269.031 345.391 269.031H337.375C349.763 254.41 356.586 235.882 356.641 216.719V195.906C356.641 193.059 355.519 190.326 353.519 188.299C351.519 186.272 348.801 185.115 345.953 185.078H335.969L404.031 117.016C429.884 145.509 447.104 180.765 453.683 218.672C460.261 256.579 455.928 295.575 441.188 331.114C426.448 366.652 401.909 397.267 370.432 419.39C338.954 441.513 301.837 454.231 263.406 456.062H263.688Z" fill="black"/>
</svg>
