<svg id="Icons" height="512" viewBox="0 0 60 60" width="512" xmlns="http://www.w3.org/2000/svg"><path d="m10 60h2c15.47 0 27.653-6.058 31.657-8.048a10.827 10.827 0 0 0 5.482-6.421.143.143 0 0 0 .007-.028l8.27-29.293a3.1 3.1 0 0 0 -.535-2.745l3.042-10.344a2 2 0 0 0 -1.358-2.472l-1.931-.572a2.018 2.018 0 0 0 -2.472 1.36l-3.079 10.45c-.039.018-.079.027-.117.047a3.086 3.086 0 0 0 -1.545 1.876l-6.877 23.209a.836.836 0 0 1 -1.009.57c-10.579-2.689-22.122-4.757-29.942-6.021a10 10 0 0 0 -11.593 9.873v8.559a10.011 10.011 0 0 0 10 10zm46.077-58 1.923.566-2.87 9.758-1.744-.582c-.055-.018-.112-.022-.167-.038zm-11.615 35.586 6.877-23.208a1.111 1.111 0 0 1 1.416-.739l2.017.673a1.111 1.111 0 0 1 .719 1.355l-8.264 29.278a8.82 8.82 0 0 1 -4.46 5.216l-.8.4-2.567-11.444q.825.2 1.645.409a2.826 2.826 0 0 0 3.417-1.94zm-33.188-4.043c6.848 1.106 16.562 2.834 25.957 5.051l2.879 12.849a68.3 68.3 0 0 1 -26.846 6.527l-4.584-24.418a7.881 7.881 0 0 1 1.313-.113 8.028 8.028 0 0 1 1.281.104zm-9.274 7.898a7.974 7.974 0 0 1 4.755-7.309l4.481 23.868h-1.236a8.009 8.009 0 0 1 -8-8z"/><path d="m12.479 38.52a.985.985 0 0 0 .234-.028l1.84-.439a1 1 0 0 0 -.465-1.946l-1.84.44a1 1 0 0 0 .231 1.973z"/><path d="m12.537 43.271a1 1 0 0 0 .972.769 1.027 1.027 0 0 0 .232-.027l14.4-3.43a1 1 0 1 0 -.463-1.945l-14.4 3.429a1 1 0 0 0 -.741 1.204z"/><path d="m13.577 48.781a1 1 0 0 0 .972.769.975.975 0 0 0 .232-.028l20.731-4.929a1 1 0 0 0 -.463-1.946l-20.731 4.93a1 1 0 0 0 -.741 1.204z"/><path d="m14.607 54.3a1 1 0 0 0 .972.768.987.987 0 0 0 .233-.027l20.929-4.98a1 1 0 0 0 -.463-1.946l-20.929 4.985a1 1 0 0 0 -.742 1.2z"/></svg>