<svg width="512" height="512" viewBox="0 0 512 512" fill="none" xmlns="http://www.w3.org/2000/svg">
<path d="M480.56 206.698H472.707V185.343C472.707 160.718 452.673 140.685 428.048 140.685H416.909C412.182 123.137 396.138 110.182 377.117 110.182C354.393 110.182 335.906 128.668 335.906 151.392V219.589H176.093V151.392C176.093 128.668 157.606 110.182 134.883 110.182C115.863 110.182 99.819 123.137 95.092 140.685H83.952C59.327 140.685 39.293 160.718 39.293 185.343V206.698H31.44C14.104 206.698 0 220.803 0 238.138V273.747C0 291.083 14.104 305.186 31.44 305.186H39.294V326.655C39.294 351.28 59.328 371.313 83.953 371.313H95.093C99.82 388.861 115.864 401.816 134.884 401.816C157.608 401.816 176.094 383.33 176.094 360.606V292.409H343.093C347.236 292.409 350.593 289.052 350.593 284.909C350.593 280.766 347.236 277.409 343.093 277.409H176.093V234.588H335.906V360.607C335.906 383.331 354.393 401.817 377.117 401.817C396.138 401.817 412.182 388.862 416.909 371.314H428.048C452.673 371.314 472.707 351.281 472.707 326.656V305.187H480.56C497.896 305.187 512 291.084 512 273.748V238.139C512 220.802 497.896 206.698 480.56 206.698ZM39.294 290.188H31.44C22.375 290.188 15 282.812 15 273.748V238.139C15 229.074 22.375 221.699 31.44 221.699H39.294V290.188ZM161.093 360.607C161.093 375.059 149.335 386.817 134.883 386.817C120.43 386.817 108.673 375.059 108.673 360.607V159.283C108.673 155.14 105.315 151.783 101.173 151.783C97.031 151.783 93.673 155.14 93.673 159.283V356.315H83.953C67.599 356.315 54.294 343.01 54.294 326.657V185.342C54.294 168.988 67.599 155.684 83.953 155.684H93.673V176.056C93.673 180.199 97.031 183.556 101.173 183.556C105.315 183.556 108.673 180.199 108.673 176.056V151.391C108.673 136.939 120.431 125.181 134.883 125.181C149.336 125.181 161.093 136.939 161.093 151.391V360.607ZM403.328 360.607C403.328 375.059 391.57 386.817 377.117 386.817C362.664 386.817 350.906 375.059 350.906 360.607V151.391C350.906 136.939 362.664 125.181 377.117 125.181C391.57 125.181 403.328 136.939 403.328 151.391V360.607ZM457.707 326.656C457.707 343.009 444.402 356.314 428.048 356.314H418.328V155.684H428.048C444.402 155.684 457.707 168.989 457.707 185.342V326.656ZM497 273.748C497 282.812 489.625 290.187 480.56 290.187H472.707V221.698H480.56C489.625 221.698 497 229.073 497 238.138V273.748Z" fill="black"/>
</svg>
