<svg width="512" height="512" viewBox="0 0 512 512" fill="none" xmlns="http://www.w3.org/2000/svg">
<path d="M33.3419 341.386L83.318 469.181C88.4611 482.355 101.262 490.959 115.181 490.959C116.25 490.959 117.335 490.911 118.411 490.798L147.14 488.067C149.43 491.047 152.364 493.497 155.916 495.056C158.865 496.349 161.975 497 165.093 497C167.897 497 170.702 496.478 173.378 495.417L200.789 484.653C212.361 480.098 218.155 466.955 213.687 455.299L138.622 263.286C134.009 251.59 120.806 245.798 109.162 250.401L91.4987 257.317C88.7262 243.645 87.2476 229.739 87.2476 215.833C87.2476 128.816 159.797 63.2 256.004 63.2C352.212 63.2 424.761 128.816 424.761 215.833C424.761 229.739 423.282 243.645 420.51 257.317L402.847 250.401C391.235 245.83 377.983 251.59 373.371 263.302L298.298 455.347C293.846 466.955 299.64 480.098 311.22 484.653L338.615 495.417C341.299 496.478 344.111 497 346.916 497C350.026 497 353.136 496.349 356.085 495.056C359.637 493.489 362.578 491.039 364.86 488.067L393.581 490.798C394.666 490.911 395.751 490.959 396.82 490.959C410.73 490.959 423.54 482.355 428.683 469.189L478.659 341.386C484.212 327.32 479.647 311.044 467.513 301.758L459.991 296.046C466.323 277.553 472.969 250.047 472.969 215.825C472.977 101.342 379.703 15 256.004 15C132.306 15 39.0314 101.342 39.0314 215.833C39.0314 250.055 45.6853 277.561 52.0096 296.054L44.4638 301.782C32.3535 311.036 27.789 327.32 33.3419 341.386ZM115.044 265.351C115.832 265.046 116.635 264.893 117.439 264.893C120.099 264.893 122.63 266.516 123.659 269.151L198.699 461.107C200.025 464.569 198.362 468.345 194.906 469.703L167.495 480.467C165.848 481.102 164.032 481.062 162.385 480.355C160.761 479.632 159.524 478.347 158.873 476.668L83.8162 284.743C83.8162 284.743 83.7921 284.687 83.776 284.655C83.1332 283.064 83.1653 281.289 83.8644 279.666C84.5877 278.011 85.8815 276.758 87.5449 276.107L115.036 265.343L115.044 265.351ZM349.616 480.363C347.977 481.086 346.169 481.126 344.497 480.475L317.102 469.711C313.639 468.353 311.975 464.569 313.285 461.163L388.334 269.183C389.378 266.54 391.902 264.909 394.57 264.909C395.373 264.909 396.177 265.062 396.964 265.367L424.48 276.148C426.111 276.782 427.405 278.035 428.128 279.69C428.827 281.313 428.859 283.088 428.216 284.679C428.2 284.711 428.192 284.735 428.176 284.767L353.12 476.692L353.104 476.74C352.477 478.371 351.239 479.656 349.608 480.379L349.616 480.363ZM463.712 335.498C463.712 335.498 463.712 335.522 463.696 335.53L413.711 463.348C410.786 470.868 403.224 475.607 395.116 474.82L371.972 472.619L439.274 300.521L457.773 314.555C464.202 319.471 466.645 328.091 463.704 335.506L463.712 335.498ZM55.1035 215.833C55.1035 110.5 141.475 31.0667 256.004 31.0667C370.534 31.0667 456.905 110.5 456.905 215.833C456.905 244.906 451.794 268.701 446.442 285.764L444.562 284.334C444.907 280.614 444.417 276.838 442.882 273.296C441.259 269.536 438.663 266.443 435.481 264.098C438.969 248.224 440.833 232.029 440.833 215.833C440.833 119.658 361.373 47.1333 256.004 47.1333C150.636 47.1333 71.1755 119.658 71.1755 215.833C71.1755 232.037 73.0479 248.224 76.5275 264.098C73.3372 266.443 70.7496 269.536 69.1264 273.296C67.5915 276.847 67.1013 280.614 67.4468 284.334L65.5664 285.764C60.2144 268.693 55.1035 244.906 55.1035 215.833ZM54.2035 314.563L72.7265 300.505L123.908 431.384L140.028 472.611L116.876 474.812C108.784 475.535 101.214 470.86 98.2891 463.332L48.305 335.522C48.305 335.522 48.305 335.506 48.2889 335.49C45.3558 328.067 47.7987 319.455 54.2035 314.563Z" fill="black"/>
</svg>
