<?xml version="1.0" encoding="UTF-8"?>
<svg xmlns="http://www.w3.org/2000/svg" viewBox="0 0 64 64" width="512" height="512"><g id="_38-Iron" data-name="38-Iron"><path d="M61.874,10.51367a.99959.99959,0,0,0-1.36035-.38769,29.38753,29.38753,0,0,0-8.89789,7.61273,2.98964,2.98964,0,0,0-3.3609,1.27691c-.23449.36872-.43719.70984-.6261,1.037A6.1317,6.1317,0,0,0,47,20c-10.36743,0-18.3277,2.4538-24.42438,5.91882l-.85785-1.21374a3.00578,3.00578,0,0,0-4.18554-.7207l-1.47657,1.04687a2.95794,2.95794,0,0,0-1.22461,1.93848,2.98773,2.98773,0,0,0,.502,2.23632l.85,1.20563A40.80024,40.80024,0,0,0,4.22131,48.11542,2.99593,2.99593,0,0,0,2,51v2a.99943.99943,0,0,0,1,1H53a.99943.99943,0,0,0,1-1V51a2.99841,2.99841,0,0,0-1.92-2.79089A4.99543,4.99543,0,0,1,57,44a.99929.99929,0,0,0,.96484-1.2627L53.01758,24.59668A6.18149,6.18149,0,0,0,52.593,23.5c.23083-.42.46087-.84137.72436-1.25488a3.001,3.001,0,0,0-.06726-3.34961A27.38093,27.38093,0,0,1,61.48633,11.874,1.00055,1.00055,0,0,0,61.874,10.51367ZM49.94238,20.08984a1.01815,1.01815,0,0,1,1.37012-.332.98131.98131,0,0,1,.45312.62207,1.01948,1.01948,0,0,1-.13574.791c-.12036.18915-.217.38324-.3316.57446a6.25184,6.25184,0,0,0-1.66992-1.142C49.73047,20.43439,49.82831,20.26923,49.94238,20.08984ZM16.96875,28.05566a1.00388,1.00388,0,0,1-.167-.748A.97882.97882,0,0,1,17.208,26.665l1.47754-1.04785a.994.994,0,0,1,1.39843.24023l.77185,1.09247c-1.10455.70245-2.14916,1.43323-3.12188,2.1908ZM52,52H4V51a1.00067,1.00067,0,0,1,1-1H51a1.00067,1.00067,0,0,1,1,1Zm3.72266-9.88281A7.01208,7.01208,0,0,0,50.07806,48H6.34589C8.14,42.62762,16.9837,22,47,22a4.24668,4.24668,0,0,1,4.08789,3.12207Zm-8.33985-15.377a1.001,1.001,0,0,0-.96484-.7373H46.4082a43.63636,43.63636,0,0,0-19.957,4.59375,4.87472,4.87472,0,0,0-2.49707,5.56738A4.95319,4.95319,0,0,0,28.82422,40H49.69043a.99929.99929,0,0,0,.96484-1.2627ZM41,38H35V37a1.00067,1.00067,0,0,1,1-1h4a1.00067,1.00067,0,0,1,1,1Zm2,0V37a3.00328,3.00328,0,0,0-3-3H36a3.00328,3.00328,0,0,0-3,3v1H28.82422a2.95417,2.95417,0,0,1-2.92774-2.31348,2.8421,2.8421,0,0,1,1.48243-3.31836A41.25194,41.25194,0,0,1,45.6582,28.01562L48.38086,38Z"/></g></svg>
