<svg id="Layer_1" enable-background="new 0 0 512 512" viewBox="0 0 512 512" xmlns="http://www.w3.org/2000/svg"><path clip-rule="evenodd" d="m88.892 168.875c44.078 0 79.938-35.86 79.938-79.937s-35.86-79.938-79.938-79.938-79.938 35.86-79.938 79.938 35.86 79.937 79.938 79.937zm0-145.875c36.358 0 65.938 29.58 65.938 65.938s-29.58 65.937-65.938 65.937-65.938-29.58-65.938-65.937 29.58-65.938 65.938-65.938zm0 121.554c30.667 0 55.616-24.949 55.616-55.616s-24.949-55.616-55.616-55.616-55.616 24.949-55.616 55.616 24.949 55.616 55.616 55.616zm0-97.232c22.947 0 41.616 18.668 41.616 41.616s-18.669 41.616-41.616 41.616-41.616-18.669-41.616-41.616 18.668-41.616 41.616-41.616zm-23.865 55.394c-1.933-3.348-.786-7.629 2.562-9.562l11.633-6.716c.462-1.78 1.395-3.372 2.67-4.625v-21.473c0-3.866 3.134-7 7-7s7 3.134 7 7v21.472c1.848 1.816 3 4.339 3 7.125 0 5.508-4.492 10-10 10-.926 0-1.82-.137-2.672-.375l-11.631 6.715c-1.102.637-2.306.939-3.494.939-2.419.001-4.772-1.255-6.068-3.5zm119.828 22.121 53.332 43.491c.042.034.084.068.127.102 7.34 5.706 22.848 9.155 78.073-15.025 18.108-7.929 35.408-16.67 46.002-22.202l-1.595 100.433c-.04 2.521 1.278 4.868 3.451 6.146 1.095.644 2.321.966 3.548.966 1.208 0 2.417-.312 3.5-.938l25.515-14.731c1.57-.907 2.728-2.387 3.228-4.13l37.342-130.049 38.546-22.254c31.672-18.286 28.895-34.018 24.421-41.768-9.475-16.41-42.793-21.199-63.662-9.152l-53.473 30.874-96.555-24.038c-1.758-.438-3.62-.176-5.191.73l-25.515 14.731c-2.183 1.26-3.52 3.597-3.5 6.118s1.394 4.835 3.596 6.061l61.582 34.262-57.412 33.147-49.092-17.693c-2.084-.75-4.397-.472-6.242.751l-19.469 12.908c-1.854 1.229-3.014 3.267-3.123 5.489-.111 2.223.842 4.365 2.566 5.771zm88.788-80.864 12.372-7.143 79.735 19.85-33.993 19.626zm-63.958 70.309 48.841 17.603c1.94.698 4.088.507 5.874-.523l179.285-103.51c15.701-9.066 39.92-3.968 44.537 4.028 3.072 5.321-4.322 13.998-19.296 22.644l-40.996 23.665c-1.57.907-2.728 2.387-3.228 4.13l-37.34 130.047-12.372 7.144 1.587-99.957c.04-2.496-1.252-4.824-3.392-6.11-1.108-.667-2.357-1.001-3.607-1.001-1.163 0-2.326.29-3.379.87-.265.146-26.803 14.736-55.426 27.269-52.497 22.986-62.681 17.663-63.828 16.826l-45.877-37.412zm274.731 278.173v-71.44c0-3.866-3.134-7-7-7h-22.096v-46.285c0-3.866-3.134-7-7-7h-106.571c-3.866 0-7 3.134-7 7v46.286h-16.001v-46.286c0-3.866-3.134-7-7-7h-106.57c-3.866 0-7 3.134-7 7v46.286h-16.001v-46.286c0-3.866-3.134-7-7-7h-106.572c-3.866 0-7 3.134-7 7v46.286h-22.096c-3.866 0-7 3.134-7 7v70.541c-13.158 1.017-23.555 12.04-23.555 25.454 0 14.082 11.457 25.539 25.539 25.539h50.049v46.45h-15.937c-3.866 0-7 3.134-7 7s3.134 7 7 7h45.873c3.866 0 7-3.134 7-7s-3.134-7-7-7h-15.936v-46.451h319.842v46.451h-15.936c-3.866 0-7 3.134-7 7s3.134 7 7 7h45.873c3.866 0 7-3.134 7-7s-3.134-7-7-7h-15.937v-46.451h45.032c14.082 0 25.539-11.457 25.539-25.539-.001-11.654-7.851-21.503-18.539-24.555zm-135.667-117.725h92.571v92.57h-92.571zm-136.572 0h92.57v92.57h-92.57zm-136.572 0h92.57v92.57h-92.57zm-14 53.285v46.285c0 3.866 3.134 7 7 7h106.57c3.866 0 7-3.134 7-7v-46.285h16.001v46.285c0 3.866 3.134 7 7 7h106.57c3.866 0 7-3.134 7-7v-46.285h16.001v46.285c0 3.866 3.134 7 7 7h106.573c3.866 0 7-3.134 7-7v-46.285h15.096v63.457h-423.907v-63.457zm415.811 100.534h-442.923c-6.362 0-11.539-5.176-11.539-11.539s5.176-11.539 11.539-11.539h442.923c6.362 0 11.539 5.176 11.539 11.539s-5.177 11.539-11.539 11.539z" fill-rule="evenodd"/></svg>