<svg id="Icons" viewBox="0 0 60 60" xmlns="http://www.w3.org/2000/svg"><path d="m55 0h-50c-2.757 0-5 2.243-5 5v46c0 2.534 1.902 4.611 4.349 4.934l1.204 2.408c.512 1.022 1.54 1.658 2.684 1.658h3.527c1.144 0 2.172-.636 2.684-1.658l1.171-2.342h28.764l1.171 2.342c.512 1.022 1.54 1.658 2.684 1.658h3.527c1.144 0 2.172-.636 2.684-1.658l1.204-2.408c2.447-.323 4.349-2.4 4.349-4.934v-46c-.002-2.757-2.245-5-5.002-5zm-42.342 57.447c-.17.341-.513.553-.895.553h-3.527c-.382 0-.725-.212-.895-.553l-.724-1.447h6.764l-.724 1.447zm39.105.553h-3.527c-.382 0-.725-.212-.895-.553l-.724-1.447h6.764l-.724 1.447c-.17.341-.513.553-.895.553zm6.236-7c0 1.654-1.346 3-3 3h-49.999c-1.654 0-3-1.346-3-3v-46c0-1.654 1.346-3 3-3h50c1.654 0 3 1.346 3 3v46z"/><path d="m54 13v-5c0-1.103-.897-2-2-2h-44c-1.103 0-2 .897-2 2v40c0 1.103.897 2 2 2h44c1.103 0 2-.897 2-2v-5c1.103 0 2-.897 2-2v-6c0-1.103-.897-2-2-2v-10c1.103 0 2-.897 2-2v-6c0-1.103-.897-2-2-2zm.002 28h-2.002v-6h2zm-2.002-8c-1.103 0-2 .897-2 2v6c0 1.103.897 2 2 2v5h-44v-40h44v5c-1.103 0-2 .897-2 2v6c0 1.103.897 2 2 2zm0-12v-6h2l.002 6z"/><path d="m30 13c-8.271 0-15 6.729-15 15s6.729 15 15 15 15-6.729 15-15-6.729-15-15-15zm0 23c-4.411 0-8-3.589-8-8s3.589-8 8-8 8 3.589 8 8-3.589 8-8 8zm6.324-15.738c-1.482-1.213-3.316-2.011-5.324-2.211v-3c2.833.217 5.411 1.341 7.447 3.088zm-7.324-2.211c-2.008.2-3.842.998-5.324 2.211l-2.123-2.123c2.036-1.747 4.615-2.871 7.447-3.088zm-6.738 3.625c-1.213 1.482-2.011 3.316-2.211 5.324h-3c.217-2.833 1.341-5.411 3.088-7.447zm-2.211 7.324c.2 2.008.998 3.842 2.211 5.324l-2.123 2.123c-1.747-2.036-2.871-4.615-3.088-7.447zm3.625 6.738c1.482 1.213 3.316 2.011 5.324 2.211v3c-2.833-.217-5.411-1.341-7.447-3.088zm7.324 2.211c2.008-.2 3.842-.998 5.324-2.211l2.123 2.123c-2.036 1.747-4.615 2.871-7.447 3.088zm6.738-3.625c1.213-1.482 2.011-3.316 2.211-5.324h3c-.217 2.833-1.341 5.411-3.088 7.447zm2.211-7.324c-.2-2.008-.998-3.842-2.211-5.324l2.123-2.123c1.747 2.036 2.871 4.615 3.088 7.447z"/></svg>