<svg id="Layer_1" enable-background="new 0 0 512 512" height="512" viewBox="0 0 512 512" width="512" xmlns="http://www.w3.org/2000/svg"><g><circle cx="333" cy="78" r="12"/><path d="m503.953125 73.3666992c-4.5322266-4.5234375-10.5507812-7.012207-16.9521484-7.012207-.0166016 0-.0341797 0-.0507812 0l-84.8349609.1748047-18.0117188-23.0810547c-21.0927735-27.0297852-52.8310548-42.5170899-87.1103516-42.5170899-.0732422 0-2.4628906.0043945-2.4628906.0043945-11.8759766.0222168-23.331543 1.862915-34.1203613 5.2313843-.5332031-.0164795-1.0654297-.0390015-1.6013184-.0390015-13.5273438 0-26.2451172 5.2680664-35.8105469 14.8334961l-115.0195313 115.0195313c-18.6259766 18.6259766-22.3466797 47.5146484-9.046875 70.2524414 2.0393066 3.4869385 4.4272461 6.7113647 7.0949707 9.6574707-8.6444092 10.1378174-16.982666 20.5588989-24.9436035 31.291748-30.8710938 41.6186523-57.6044922 89.0449219-79.4560547 140.9619141-1.7148438 4.0722656.1972656 8.7626953 4.2695312 10.4770508 1.0136719.4267578 2.0654298.628418 3.0996095.628418 3.1230469 0 6.0898438-1.8398438 7.3769531-4.8984375 21.3564453-50.737793 47.4511719-97.0458984 77.5605469-137.6367188 7.7775879-10.4852295 15.9234619-20.6652222 24.3701172-30.5661621 4.1187744 2.5654907 8.5693359 4.6357422 13.2832031 6.1169434 8.359375 2.6274414 16.9082031 3.8964844 25.3652344 3.8964844 26.0019531 0 51.1328125-11.9960938 67.2138672-33.3828125 20.3974609-27.1269531 35.5585938-55.4311523 45.0634766-84.1264648 1.3896484-4.1943359-.8837891-8.7207031-5.078125-10.1098633-4.1953125-1.3891602-8.7207031.8847656-10.109375 5.0786133-8.9580078 27.0439453-23.3125 53.8056641-42.6650391 79.5419922-17.2441406 22.9360352-47.3789062 32.5170898-74.9931641 23.8383789-9.9697266-3.1333008-18.3652344-9.8261719-23.6416016-18.8466797-9.6279297-16.4614258-6.9345703-37.3759766 6.5507812-50.8608398l115.0195313-115.0195314c6.5429688-6.543457 15.2431641-10.1469727 24.4960938-10.1469727 9.2539062 0 17.9541016 3.6035156 24.4970703 10.1469727 3.1240234 3.125 8.1884766 3.125 11.3144531 0 3.1240234-3.1240234 3.1240234-8.1894531 0-11.3134766-1.4050293-1.4050903-2.8857422-2.7055664-4.4194336-3.9221191 1.4455566-.0658569 2.8989258-.1010132 4.3598633-.1037598 0 0 2.3681641-.0043945 2.4326172-.0043945 29.3134766 0 56.4589844 13.2460938 74.4970703 36.3608398l20.4199219 26.1674805c1.515625 1.9428711 3.8427734 3.078125 6.3066406 3.078125h.0166016l38.1308594-.0786743v8.6450806c0 8.7954102 5.640625 16.4667969 14.0351562 19.0898438l44.6005859 13.9368286v9.4328003c0 11.9233398-8.5527344 21.8984375-20.3369141 23.71875l-129.8847656 20.0625c-.7077637.109375-1.3818359.336792-2.0273438.624939-18.1137695-.3158569-33.9963379-7.4790649-49.8652344-22.5131226-3.2070312-3.0371094-8.2695312-2.902832-11.3095703.3056641-3.0390625 3.2075195-2.9013672 8.2709961.3056641 11.3095703 14.9121094 14.1278687 30.5559082 22.5689087 47.46875 25.6140747-6.71875 8.8331299-13.1542969 18.9144897-19.371582 30.3480835l.3608398-8.1174316c.2333984-5.2573242-2.6708984-10.1479492-7.3994141-12.4594727-4.7275391-2.3110352-10.3710938-1.5986328-14.3779297 1.8144531l-19.3261719 16.4711914c-35.3017578 30.0874023-63.3691406 68.6323242-81.1660156 111.4667969s-25.3076172 89.9199219-21.7197266 136.1665039l.4638672 5.9765625c.7050781 9.0952148.1650391 18.2070312-1.6054688 27.0825195-.8642578 4.3330078 1.9482422 8.5458984 6.2802734 9.4101562 4.3369141.8642578 8.546875-1.9462891 9.4111328-6.2802734 2.0566406-10.3125 2.6845703-20.894043 1.8652344-31.4501953l-.4638672-5.9765625c-3.3925781-43.7407227 3.7109375-88.2753906 20.5439453-128.7895508 16.8330078-40.5146484 43.3789062-76.9707031 76.7695312-105.4282227l14.4560547-12.3208008-1.9482422 43.8183594c-.0302734.6774292-.0097656 1.3457031.0375977 2.0078735-.0063477.0324097-.0168457.0630493-.0229492.0956421-1.0708008 5.6951294-2.762207 10.4801025-5.0942383 14.4351807l-9.9587402 9.9585571c-3.6870117 2.1040039-8.0290527 3.4671631-13.0788574 4.1199341-4.3818359.5664062-7.4746094 4.5776367-6.9082031 8.9594727.5214844 4.0341797 3.9619141 6.9755859 7.9238281 6.9755859.3417969 0 .6875-.0219727 1.0351562-.0668945 18.5849609-2.4024048 31.6225586-12.3606567 38.2712402-29.0323486 1.3234863.4257202 2.7077637.7163696 4.1496582.8111572 9.1943359.6035156 23.9814453 1.5917969 38.7236328 2.5810547 23.6328125 1.5854492 43.0078125 19.7827148 46.0712891 43.2685547l2.3710938 18.1816406c1.1005859 8.4248047 8.0576172 14.8374023 16.5429688 15.2470703l20.1044922.9726562c5.3779297.2597656 10.2509766 2.9267578 13.3691406 7.3164062s4.0322266 9.8696289 2.5068359 15.0341797l-9.0458984 30.6220703c-3.4648438 11.7260742-13.5585938 20.1411133-25.7158203 21.4375l-63.6347656 6.7875977c-9.0625.9667969-16.9775391 6.3764648-21.1748047 14.4707031-4.1835938 8.0703125-4.0458984 17.6254883.3720703 25.5629883.5810547 1.0424805 1.1523438 2.0859375 1.7167969 3.1313477 3.2880859 6.0917969 6.3691406 12.4448242 9.1582031 18.8837891 1.3076172 3.0185547 4.2519531 4.8222656 7.3447266 4.8222656 1.0615234 0 2.140625-.2124023 3.1757812-.6611328 4.0546875-1.7558594 5.9169922-6.4663086 4.1611328-10.5205078-2.9707031-6.8588867-6.2548828-13.6293945-9.7597656-20.1235352-.5976562-1.1083984-1.2041016-2.215332-1.8183594-3.3173828-1.8242188-3.277832-1.8769531-7.0732422-.1455078-10.4135742 1.7441406-3.3637695 4.9033203-5.5234375 8.6669922-5.9248047l63.6347656-6.7875977c18.6083984-1.9848633 34.0595703-14.8652344 39.3623047-32.8139648l9.0458984-30.6235352c2.9257812-9.9042969 1.1738281-20.4130859-4.8066406-28.8325195-5.9804688-8.418457-15.3261719-13.5332031-25.6396484-14.0317383l-20.1054688-.9726562c-.7441406-.0356445-1.3535156-.5981445-1.4501953-1.3359375l-2.3710938-18.1806641c-4.0458984-31.027832-29.6435547-55.0683594-60.8652344-57.1630859-14.7509766-.9902344-29.5458984-1.9785156-38.7460938-2.5830078-.8330078-.0546875-1.4560547-.7514648-1.4189453-1.5869141l.1416016-3.1847534c.8310547-.7459717 1.5231934-1.6723022 1.9960938-2.7639771 12.4316406-28.6938477 25.4570312-50.46875 39.7626953-66.4541016l127.0986328-19.6318359c19.6386721-3.0336913 33.8935549-19.6591796 33.8935549-39.5312499v-43.2089844c0-6.4199219-2.5029297-12.453125-7.046875-16.987793zm-48.7822266 21.5556641c-1.6787109-.5249023-2.8066406-2.059082-2.8066406-3.8183594v-8.6781006l34.6191406-.0714111h.0166016c2.1337891 0 4.140625.8295898 5.6513672 2.3374023 1.5146484 1.5117188 2.3486328 3.522461 2.3486328 5.6625977v17.0137329z"/><circle cx="343" cy="339" r="12"/></g></svg>