<svg id="Layer_2" height="512" viewBox="0 0 78 78" width="512" xmlns="http://www.w3.org/2000/svg"><path d="m34 53v-35c0-.55-.45-1-1-1h-6v-2c0-.55-.45-1-1-1h-4c-.55 0-1 .45-1 1v2h-6c-.55 0-1 .45-1 1v35c0 .55.45 1 1 1h18c.55 0 1-.45 1-1zm-11-37h2v1h-2zm9 36h-16v-33h16z"/><path d="m25.11 23.55-7 14c-.16.31-.14.68.04.97s.5.47.85.47h3.75l-1.73 7.78c-.11.49.16.98.63 1.15.11.04.23.06.35.06.36 0 .7-.19.88-.53l7-13c.17-.31.16-.68-.02-.99s-.51-.49-.86-.49h-3.78l1.76-8.8c.1-.49-.18-.98-.66-1.14-.47-.16-.99.05-1.22.5zm2.22 11.45-2.78 5.17.43-1.95c.07-.3 0-.61-.2-.84-.19-.24-.48-.37-.78-.37h-3.38l2.94-5.87-.54 2.68c-.06.29.02.6.21.83s.47.37.77.37h3.33z"/><path d="m69 26h-1v-3c0-.55-.45-1-1-1h-4c-.55 0-1 .45-1 1v3h-1c-.55 0-1 .45-1 1v8c0 2.41 1.72 4.43 4 4.9v24.1c0 2.21-1.79 4-4 4s-4-1.79-4-4v-20c0-3.31-2.69-6-6-6s-6 2.69-6 6v22c0 1.1-.9 2-2 2h-15c-.74 0-1.37-.41-1.72-1h.72c.22 0 .43-.07.6-.2l4-3c.25-.19.4-.48.4-.8v-3h4c2.76 0 5-2.24 5-5v-42c0-2.76-2.24-5-5-5h-22c-2.76 0-5 2.24-5 5v42c0 2.76 2.24 5 5 5h4v3c0 .31.15.61.4.8l4 3c.17.13.38.2.6.2h1.14c.45 1.72 2 3 3.86 3h15c2.21 0 4-1.79 4-4v-22c0-2.21 1.79-4 4-4s4 1.79 4 4v20c0 3.31 2.69 6 6 6s6-2.69 6-6v-24.1c2.28-.46 4-2.48 4-4.9v-8c0-.55-.45-1-1-1zm-59 29v-42c0-1.65 1.35-3 3-3h22c1.65 0 3 1.35 3 3v42c0 1.65-1.35 3-3 3h-22c-1.65 0-3-1.35-3-3zm9 7.5v-2.5h10v2.5l-3.33 2.5h-3.33l-3.33-2.5zm45-38.5h2v2h-2zm4 11c0 1.65-1.35 3-3 3s-3-1.35-3-3v-7h6z"/></svg>