<svg width="512" height="512" viewBox="0 0 512 512" fill="none" xmlns="http://www.w3.org/2000/svg">
<path d="M97.1941 481H280C291.186 480.987 301.911 476.538 309.82 468.627C317.729 460.717 322.178 449.992 322.189 438.806V144.687C322.177 133.502 317.728 122.778 309.818 114.869C301.909 106.96 291.185 102.511 280 102.498H257.031V58.3716C257.031 57.2986 257.242 56.2362 257.653 55.2449C258.063 54.2535 258.665 53.3528 259.424 52.5941C260.183 51.8354 261.083 51.2336 262.075 50.8229C263.066 50.4123 264.129 50.201 265.202 50.201H381.032C383.199 50.201 385.277 51.0618 386.81 52.5941C388.342 54.1264 389.203 56.2046 389.203 58.3716V275.345H386.598C374.453 275.36 362.809 280.192 354.222 288.781C345.634 297.369 340.803 309.013 340.789 321.158V381.794C340.789 384.343 341.802 386.788 343.605 388.591C345.408 390.394 347.853 391.407 350.402 391.407H355.718V421.614C355.718 424.163 356.73 426.608 358.533 428.411C360.336 430.214 362.781 431.226 365.33 431.226H432.262C434.812 431.226 437.256 430.214 439.059 428.411C440.862 426.608 441.875 424.163 441.875 421.614V391.407H447.195C449.745 391.407 452.19 390.394 453.992 388.591C455.795 386.788 456.808 384.343 456.808 381.794V321.158C456.794 309.012 451.962 297.368 443.374 288.779C434.785 280.19 423.141 275.359 410.994 275.345H408.389V58.3716C408.383 51.11 405.494 44.148 400.357 39.0155C395.22 33.883 388.255 31 380.994 31H265.163C257.897 31 250.929 33.8863 245.791 39.024C240.654 44.1617 237.767 51.1299 237.767 58.3956V102.522H97.1941C86.012 102.533 75.2908 106.978 67.3812 114.883C59.4716 122.787 55.0191 133.505 55 144.687V438.806C55.0127 449.993 59.4622 460.717 67.3724 468.628C75.2826 476.538 86.0074 480.987 97.1941 481ZM422.65 412.001H374.904V391.407H422.65V412.001ZM437.583 321.163V372.182H359.976V321.158C359.984 314.11 362.787 307.352 367.77 302.368C372.754 297.383 379.511 294.579 386.559 294.57H410.994C418.043 294.579 424.801 297.383 429.785 302.368C434.77 307.352 437.574 314.114 437.583 321.163ZM280 461.775H97.1941C91.1047 461.767 85.2668 459.345 80.9609 455.039C76.655 450.733 74.2326 444.895 74.225 438.806V208.418H302.964V438.806C302.958 444.895 300.537 450.733 296.231 455.039C291.926 459.345 286.089 461.767 280 461.775ZM97.1941 121.723H280C286.089 121.729 291.926 124.151 296.231 128.456C300.536 132.761 302.958 138.599 302.964 144.687V189.193H74.225V144.687C74.2327 138.598 76.6552 132.761 80.9612 128.456C85.2673 124.151 91.1051 121.729 97.1941 121.723Z" fill="black"/>
<path d="M217.553 308.831H175.858L197.227 264.714C197.777 263.578 198.098 262.345 198.172 261.084C198.246 259.824 198.071 258.562 197.657 257.369C197.242 256.177 196.597 255.078 195.758 254.134C194.919 253.191 193.903 252.422 192.767 251.872C191.631 251.321 190.397 251 189.137 250.927C187.877 250.853 186.614 251.028 185.422 251.442C184.229 251.856 183.13 252.501 182.187 253.34C181.244 254.179 180.475 255.196 179.924 256.332L151.889 314.252C151.18 315.718 150.853 317.34 150.942 318.965C151.03 320.591 151.53 322.168 152.395 323.548C153.26 324.928 154.461 326.065 155.886 326.854C157.311 327.642 158.912 328.056 160.541 328.056H202.293L179.9 374.936C179.356 376.075 179.042 377.311 178.975 378.571C178.909 379.832 179.091 381.094 179.512 382.284C179.933 383.474 180.584 384.57 181.428 385.508C182.272 386.447 183.293 387.21 184.433 387.754C185.572 388.298 186.807 388.613 188.068 388.679C189.329 388.746 190.59 388.564 191.78 388.143C192.971 387.722 194.066 387.071 195.005 386.227C195.944 385.382 196.707 384.361 197.251 383.222L226.228 322.586C226.927 321.123 227.244 319.506 227.15 317.887C227.056 316.268 226.554 314.699 225.691 313.326C224.827 311.953 223.631 310.821 222.212 310.035C220.793 309.249 219.198 308.835 217.577 308.831H217.553Z" fill="black"/>
<path d="M112.512 166.987C114.411 166.989 116.268 166.428 117.849 165.375C119.43 164.321 120.663 162.824 121.393 161.07C122.123 159.317 122.318 157.386 121.952 155.522C121.586 153.659 120.676 151.945 119.336 150.598C117.498 148.862 115.065 147.895 112.536 147.895C110.007 147.895 107.574 148.862 105.735 150.598C104.399 151.942 103.49 153.651 103.122 155.511C102.754 157.37 102.945 159.297 103.669 161.048C104.393 162.8 105.619 164.298 107.192 165.355C108.766 166.411 110.616 166.979 112.512 166.987Z" fill="black"/>
<path d="M136.158 161.03C136.398 161.614 136.687 162.177 137.023 162.712C137.37 163.234 137.773 163.718 138.224 164.154C139.107 165.055 140.162 165.77 141.326 166.257C142.49 166.744 143.739 166.993 145.001 166.989C145.631 166.997 146.26 166.932 146.876 166.797C147.498 166.672 148.109 166.495 148.702 166.268C149.272 166.011 149.819 165.706 150.336 165.355C150.865 164.996 151.363 164.594 151.826 164.154C152.262 163.717 152.649 163.233 152.98 162.712C153.349 162.189 153.655 161.624 153.893 161.03C154.141 160.461 154.319 159.863 154.421 159.251C154.557 158.636 154.621 158.007 154.614 157.377C154.616 154.838 153.614 152.402 151.826 150.6C151.376 150.145 150.876 149.742 150.336 149.398C149.83 149.03 149.281 148.723 148.702 148.485C148.116 148.237 147.503 148.059 146.876 147.957C145.483 147.688 144.049 147.729 142.674 148.077C141.299 148.425 140.018 149.072 138.921 149.971C137.825 150.87 136.94 152 136.329 153.28C135.719 154.56 135.398 155.959 135.389 157.377C135.405 158.006 135.469 158.632 135.581 159.251C135.722 159.859 135.915 160.454 136.158 161.03Z" fill="black"/>
</svg>
