<?xml version="1.0"?>
<svg xmlns="http://www.w3.org/2000/svg" viewBox="0 0 64 64"><g id="islamic_rosary" data-name="islamic rosary"><path d="M29.78,29.62A15.89,15.89,0,0,0,34,19a1,1,0,0,0-2,0,13.31,13.31,0,0,1-2.9,8.28l-.88,1.1A1,1,0,0,0,29.78,29.62Z"/><path d="M62.57,28.51a4,4,0,0,0-1.46-3.06,4,4,0,0,0,.27-5.59,4,4,0,0,0-1.26-7.15A4,4,0,0,0,55,7.49,4,4,0,0,0,51,4.42a1.33,1.33,0,0,0-.26-1.13.91.91,0,0,0-.13-.08A1,1,0,0,0,50,3H29.76A9,9,0,0,0,26,3.83l-8.8,4.06a9,9,0,0,0-4.34,4.27L1.1,36.57a1,1,0,0,0,1.8.86l1.25-2.6,4.28,3a1,1,0,0,0,1.39-.25,1,1,0,0,0-.25-1.39L5,33l.67-1.4c.4.22,1.82,1.46,2.3,1.39a1,1,0,0,0,.57-1.82l-2-1.39L14.65,13A7.07,7.07,0,0,1,18,9.7l8.79-4.06A7.11,7.11,0,0,1,29.76,5H41.7a7.13,7.13,0,0,0,5.75,3,.1.1,0,0,0,0,.05A5.94,5.94,0,0,1,43,10H36.85a9.37,9.37,0,0,0-8.79,6.16A7.38,7.38,0,0,1,21.15,21H19a1,1,0,0,0,0,2h2.15a9.37,9.37,0,0,0,8.79-6.16A7.38,7.38,0,0,1,36.85,12h2.7a4,4,0,0,0,.13,4.22,4,4,0,0,0-2,6,4,4,0,0,0-2,6A4,4,0,0,0,33.54,34H28.81a7,7,0,0,0-5,2.11L18.6,32.2a1,1,0,1,0-1.2,1.6l5.11,3.83-.9,1.08-2-1.51a1,1,0,1,0-1.2,1.6l1.93,1.45-5.1,6.11A1,1,0,0,0,16,48a1,1,0,0,0,.77-.36l5.79-7v0L25,37.8A5,5,0,0,1,28.81,36h7.36a4,4,0,0,0,2,4.59,4,4,0,0,0,5.14,5.84A4,4,0,0,0,46,48.86v2.31a3.25,3.25,0,0,0-2.24,2.69l-.75,6a1,1,0,0,0,.24.78A1,1,0,0,0,44,61h6a1,1,0,0,0,.75-.34,1,1,0,0,0,.24-.78l-.75-6A3.25,3.25,0,0,0,48,51.17V48.86a4,4,0,0,0,2.2-1.47,4,4,0,0,0,6.61-3c3.66.64,6-4.11,3.42-6.68a4,4,0,0,0,.61-5.89A4,4,0,0,0,62.57,28.51ZM53.34,40.43A3.89,3.89,0,0,0,49.61,42a4,4,0,0,0-4.52-.49,4,4,0,0,0-1.85-2.08,3.92,3.92,0,0,0,.58-3.5,4,4,0,0,0,2.49-6.15,4,4,0,0,0,2-6,4,4,0,0,0,2-6,4,4,0,0,0,2.57-4.69,4,4,0,0,0,2.52,2,4,4,0,0,0,.75,4.15,4,4,0,0,0-.28,6.34,4,4,0,0,0-.26,5.6,4,4,0,0,0-.63,6A4,4,0,0,0,53.34,40.43ZM37.84,34H37a2,2,0,0,1-1.41-3.41c.69-.86,2.46-.53,3.41-.59h4a2,2,0,0,1,0,4H37.84ZM37,26a2,2,0,0,1,2-2h6a2,2,0,0,1,1.41,3.41c-.69.86-2.46.53-3.41.59H39A2,2,0,0,1,37,26Zm2.51-4.67A2,2,0,0,1,41,18c1.27,0,4.69,0,6,0a2,2,0,0,1,1.41,3.41c-.69.86-2.46.53-3.41.59H41A2,2,0,0,1,39.51,21.33ZM57.59,36.44a2,2,0,1,1,.29,0Zm1-5.93a2,2,0,0,1-.12-4h.13A2,2,0,0,1,58.57,30.51Zm-.22-6a2,2,0,1,1,.27-4h.06a2,2,0,0,1-.11,4Zm2.77-7.95a2,2,0,0,1-2.14,2l-.18,0a2,2,0,0,1-.75-3.67,1.35,1.35,0,0,0,.34-.17A2,2,0,0,1,61.12,16.57Zm-2.71-5.34a2,2,0,0,1-.94,1.7,3,3,0,0,1-.31.15,2,2,0,0,1-2.52-2.79.6.6,0,0,0,.09-.15A2,2,0,0,1,58.41,11.23ZM53.13,8.4a1.85,1.85,0,0,1-.19.84h0a1.5,1.5,0,0,0-.09.18,2,2,0,0,1-2.4.85A2,2,0,0,1,49.23,9a8.29,8.29,0,0,0,1-1.54,1.39,1.39,0,0,0,.06-.13,9.29,9.29,0,0,0,.35-.87A2,2,0,0,1,53.13,8.4ZM47.49,6a5.1,5.1,0,0,1-3-1h4.46c0,.16-.07.32-.11.48a4.48,4.48,0,0,1-.16.52ZM49,12a2.3,2.3,0,0,1,.57.08l.25.1A2,2,0,0,1,49,16H43a2,2,0,0,1,0-4ZM38.32,36h3.39a2,2,0,1,1-3.39,0Zm3,8.93a2,2,0,1,1,1.92-1.44c0,.08-.07.18-.1.29A2,2,0,0,1,41.37,44.93ZM48.87,59H45.13l.61-4.9a1.27,1.27,0,0,1,2.52,0ZM47,47a2,2,0,0,1-1.91-2.58,1,1,0,0,0,.06-.19v0A2,2,0,1,1,47,47Zm5.81-.63A2,2,0,0,1,51,45.19,3.91,3.91,0,0,0,50.85,44a2,2,0,1,1,2,2.41Zm4.53-3.94a2,2,0,0,1,0-4h.13A2,2,0,0,1,57.34,42.43Z"/></g></svg>
