<svg width="512" height="512" viewBox="0 0 512 512" fill="none" xmlns="http://www.w3.org/2000/svg">
<g clip-path="url(#clip0_7638_25200)">
<path d="M358.171 367.108C362.314 367.108 365.671 363.751 365.671 359.608V334.068C365.671 329.925 362.314 326.568 358.171 326.568C354.028 326.568 350.671 329.925 350.671 334.068V359.608C350.671 363.751 354.028 367.108 358.171 367.108Z" fill="black"/>
<path d="M511.787 168.276V146.214C511.787 145.078 511.515 143.892 510.989 142.849L471.035 63.2821C464.39 50.0511 451.064 41.8301 436.259 41.8301H359.647C355.504 41.8301 352.147 45.1871 352.147 49.3301C352.147 53.4731 355.504 56.8301 359.647 56.8301H436.259C445.358 56.8301 453.547 61.8821 457.631 70.0141L492.129 138.715H19.8709L54.3689 70.0141C58.4529 61.8821 66.6419 56.8301 75.7409 56.8301H152.353C156.496 56.8301 159.853 53.4731 159.853 49.3301C159.853 45.1871 156.496 41.8301 152.353 41.8301H75.7409C60.9349 41.8301 47.6089 50.0511 40.9649 63.2831L1.01089 142.85C0.514891 143.835 0.212891 145.02 0.212891 146.215V168.277C0.212891 187.926 11.8739 204.894 28.6329 212.652V446.418H20.8889C9.48889 446.418 0.212891 455.693 0.212891 467.094V491.324C0.212891 502.724 9.48789 512 20.8889 512H491.112C502.512 512 511.788 502.725 511.788 491.324V467.094C511.788 455.694 502.513 446.418 491.112 446.418H470.406V216.581C493.811 212.962 511.787 192.68 511.787 168.276ZM496.787 153.715V168.277C496.787 186.959 481.588 202.158 462.905 202.158C444.223 202.158 429.024 186.959 429.024 168.277V153.715H496.787ZM97.9759 153.715H165.738V168.277C165.738 186.959 150.539 202.158 131.857 202.158C113.175 202.158 97.9759 186.959 97.9759 168.277V153.715ZM180.737 153.715H248.5V168.277C248.5 186.959 233.301 202.158 214.619 202.158C195.936 202.158 180.737 186.959 180.737 168.277V153.715ZM263.5 153.715H331.263V168.277C331.263 186.959 316.064 202.158 297.381 202.158C278.699 202.158 263.5 186.959 263.5 168.277V153.715ZM346.263 153.715H414.025V168.277C414.025 186.959 398.826 202.158 380.144 202.158C361.462 202.158 346.263 186.959 346.263 168.277V153.715ZM15.2129 168.276V153.714H82.9759V168.276C82.9759 186.958 67.7769 202.157 49.0949 202.157C30.4119 202.157 15.2129 186.958 15.2129 168.276ZM496.787 467.094V491.324C496.787 494.454 494.241 497 491.111 497H20.8889C17.7589 497 15.2129 494.454 15.2129 491.324V467.094C15.2129 463.964 17.7589 461.418 20.8889 461.418H491.112C494.241 461.418 496.787 463.964 496.787 467.094ZM75.5909 405.914H167.383C171.526 405.914 174.883 402.557 174.883 398.414C174.883 394.271 171.526 390.914 167.383 390.914H75.5909V249.986H126.172V269.664L103.176 304.034C98.2549 311.387 103.536 321.272 112.381 321.272H154.963C163.81 321.272 169.086 311.387 164.17 304.036L164.169 304.035L141.172 269.664V249.986H219.116V269.664L196.117 304.036C191.199 311.389 196.481 321.272 205.324 321.272H247.907C256.754 321.272 262.03 311.387 257.114 304.036L257.113 304.035L234.116 269.664V249.986H284.696V390.914H152.504C148.361 390.914 145.004 394.271 145.004 398.414C145.004 402.557 148.361 405.914 152.504 405.914H284.696V446.418H75.5909V405.914ZM133.672 285.43L147.618 306.273H119.725L133.672 285.43ZM226.616 285.429L240.562 306.273H212.67L226.616 285.429ZM420.535 446.418H333.2V249.986H420.535V446.418ZM435.535 446.418V248.28C435.535 240.95 429.572 234.986 422.242 234.986H331.493C324.163 234.986 318.2 240.95 318.2 248.28V446.418H299.696V248.28C299.696 240.95 293.733 234.986 286.403 234.986H73.8849C66.5549 234.986 60.5909 240.95 60.5909 248.28V446.418H43.6329V216.844C45.4269 217.045 47.2479 217.157 49.0949 217.157C66.5089 217.157 81.8159 207.996 90.4759 194.248C99.1359 207.997 114.442 217.157 131.857 217.157C149.272 217.157 164.578 207.996 173.238 194.247C181.898 207.996 197.205 217.157 214.62 217.157C232.034 217.157 247.341 207.996 256.001 194.248C264.661 207.997 279.967 217.157 297.382 217.157C314.797 217.157 330.103 207.996 338.764 194.247C347.424 207.996 362.73 217.157 380.145 217.157C397.559 217.157 412.866 207.996 421.526 194.248C428.918 205.984 441.15 214.377 455.407 216.581V446.418H435.535Z" fill="black"/>
<path d="M172.435 98.661H339.566C352.502 98.661 363.026 88.137 363.026 75.201V23.46C363.026 10.524 352.502 0 339.566 0H172.435C159.499 0 148.975 10.524 148.975 23.46V75.201C148.975 88.137 159.499 98.661 172.435 98.661ZM163.975 23.46C163.975 18.795 167.77 15 172.435 15H339.566C344.231 15 348.026 18.795 348.026 23.46V75.201C348.026 79.866 344.231 83.661 339.566 83.661H172.435C167.77 83.661 163.975 79.866 163.975 75.201V23.46Z" fill="black"/>
</g>
<defs>
<clipPath id="clip0_7638_25200">
<rect width="512" height="512" fill="white"/>
</clipPath>
</defs>
</svg>
