<svg width="512" height="512" viewBox="0 0 512 512" fill="none" xmlns="http://www.w3.org/2000/svg">
<path d="M475.125 36.8632C475.103 36.8421 475.08 36.8236 475.059 36.8025C471.336 33.1138 466.207 31 460.972 31H460.945C456.42 31 451.99 32.5557 448.474 35.3761C400.619 73.5997 352.586 113.054 305.706 152.64C294.307 162.265 282.898 171.965 271.499 181.719L141.353 51.5743C128.501 38.7247 107.592 38.7265 94.7416 51.5743L32.9307 113.386C30.3564 115.961 30.3564 120.134 32.9307 122.709C35.5051 125.282 39.679 125.282 42.2524 122.709L85.4199 79.542L94.8532 88.9753L51.6866 132.142C49.1123 134.717 49.1123 138.89 51.6866 141.465C52.9733 142.751 54.6608 143.395 56.3475 143.395C58.0341 143.395 59.7216 142.751 61.0083 141.465L104.176 98.2979L113.609 107.731L70.4416 150.898C67.8673 153.473 67.8673 157.646 70.4416 160.22C71.7283 161.507 73.4158 162.15 75.1024 162.15C76.7891 162.15 78.4766 161.507 79.7633 160.22L122.931 117.053L132.364 126.486L89.1975 169.653C86.6232 172.228 86.6232 176.401 89.1975 178.975C90.4842 180.262 92.1717 180.905 93.8583 180.905C95.5449 180.905 97.2324 180.262 98.5192 178.975L141.686 135.809L151.119 145.242L107.952 188.409C105.378 190.984 105.378 195.157 107.952 197.731C109.239 199.018 110.927 199.661 112.613 199.661C114.3 199.661 115.987 199.018 117.274 197.731L160.441 154.565L169.874 163.998L126.707 207.165C124.133 209.74 124.133 213.913 126.707 216.487C127.994 217.774 129.682 218.417 131.368 218.417C133.055 218.417 134.742 217.774 136.029 216.487L179.196 173.32L188.629 182.754L145.462 225.92C142.888 228.496 142.888 232.669 145.462 235.243C146.749 236.53 148.437 237.173 150.123 237.173C151.81 237.173 153.497 236.53 154.784 235.243L197.951 192.076L207.385 201.511L164.218 244.677C161.644 247.252 161.644 251.425 164.218 254C165.505 255.286 167.193 255.93 168.879 255.93C170.566 255.93 172.253 255.286 173.54 254L216.708 210.832L226.473 220.598C206.233 238.224 186.097 255.955 166.188 273.708C166.179 273.708 166.179 273.708 166.179 273.718C160.265 278.978 153.814 285.037 147.45 290.777C143.551 293.597 144.294 298.555 146.228 300.49C146.228 300.49 146.228 300.498 146.237 300.498C152.582 308.18 156.089 317.989 156.089 328.13C156.089 339.987 151.528 351.079 143.241 359.358C143.157 359.441 123.446 379.153 123.36 379.239C94.6942 408.572 44.2124 388.555 44.1834 347.011C44.201 321.789 64.5714 300.957 90.3075 300.939C104.325 300.947 117.412 307.188 126.21 318.042C128.596 320.983 132.978 321.301 135.755 318.78C135.79 318.754 135.816 318.728 135.852 318.693L135.913 318.639C139.001 315.863 138.783 310.862 135.333 308.391C124.065 295.278 107.674 287.755 90.3515 287.755H90.2636C57.3063 287.755 30.962 314.592 31.0007 347.011C30.9717 371.439 45.8999 393.016 67.9842 401.987C81.0975 407.297 95.4623 407.663 108.438 403.503C96.0705 441.978 124.856 481 164.863 481H164.934C197.626 481 224.269 454.535 224.233 421.709C224.25 406.109 218.239 391.387 207.331 380.242C207.337 380.234 220.791 364.941 220.791 364.941C244.539 338.515 268.03 311.968 291.235 285.357L301.167 295.289L258 338.456C255.426 341.031 255.426 345.204 258 347.778C259.288 349.065 260.975 349.708 262.662 349.708C264.349 349.708 266.036 349.065 267.324 347.778L310.49 304.612L319.924 314.045L276.757 357.212C274.183 359.787 274.183 363.96 276.757 366.534C278.045 367.821 279.732 368.464 281.419 368.464C283.105 368.464 284.793 367.821 286.081 366.534L329.247 323.367L338.68 332.8L295.513 375.967C292.939 378.542 292.939 382.715 295.513 385.289C296.801 386.576 298.488 387.219 300.175 387.219C301.861 387.219 303.549 386.576 304.836 385.289L348.003 342.122L357.435 351.555L314.269 394.722C311.694 397.298 311.694 401.471 314.269 404.045C315.556 405.332 317.244 405.975 318.931 405.975C320.617 405.975 322.305 405.332 323.592 404.045L366.759 360.877L376.192 370.311L333.026 413.477C330.451 416.053 330.451 420.226 333.026 422.8C334.313 424.087 336.001 424.73 337.687 424.73C339.374 424.73 341.061 424.087 342.349 422.8L385.516 379.633L394.948 389.066L351.781 432.232C349.207 434.808 349.207 438.981 351.781 441.555C353.069 442.842 354.757 443.485 356.443 443.485C358.13 443.485 359.817 442.842 361.105 441.555L404.272 398.388L413.704 407.821L370.537 450.987C367.963 453.563 367.963 457.736 370.537 460.31C371.825 461.597 373.512 462.24 375.199 462.24C376.886 462.24 378.573 461.597 379.861 460.31L423.027 417.143L432.46 426.576L389.293 469.742C386.719 472.318 386.719 476.491 389.293 479.065C390.581 480.352 392.268 480.995 393.955 480.995C395.642 480.995 397.329 480.352 398.617 479.065L446.438 431.243C446.44 431.241 446.442 431.238 446.445 431.237C446.448 431.235 446.449 431.232 446.451 431.23L460.427 417.253C466.653 411.028 470.081 402.751 470.081 393.947C470.081 385.143 466.653 376.867 460.428 370.641L330.137 240.36C380.678 181.401 429.674 122.264 476.619 63.5108C482.989 55.5382 482.346 44.0825 475.125 36.8632ZM94.7425 70.2195L104.064 60.8978C111.774 53.188 124.32 53.188 132.031 60.8978L261.466 190.333C253.115 197.507 244.772 204.7 236.445 211.924L94.7425 70.2195ZM451.103 379.97C454.839 383.704 456.896 388.67 456.896 393.952C456.896 399.235 454.839 404.201 451.103 407.935L441.781 417.257C437.426 412.903 309.264 284.74 299.912 275.389C307.145 267.063 314.354 258.732 321.528 250.395L451.103 379.97ZM214.653 352.033C211.458 349.587 202.939 345.352 201.523 333.325C201.127 330.004 198.323 327.507 194.992 327.507C191.01 327.507 187.975 330.966 188.427 334.873C188.436 334.873 188.436 334.873 188.436 334.873C189.693 345.621 195.529 355.123 204.441 360.932C204.906 361.24 205.372 361.556 205.856 361.908C201.284 367.124 197.51 371.516 193.182 376.295C191.978 377.631 191.362 379.432 191.503 381.225C191.635 383.018 192.523 384.705 193.92 385.839C204.983 394.87 211.039 407.867 211.05 421.708C211.032 447.112 190.566 467.798 164.908 467.816C139.548 467.782 118.767 447.343 118.767 421.708C118.796 400.846 131.991 389.673 133.005 388.24L152.561 368.684C163.334 357.91 169.276 343.334 169.276 328.13C169.285 317.021 166.104 306.289 160.093 297.115C165.254 292.395 169.742 288.207 174.955 283.561L174.981 283.526C317.904 156.091 455.02 46.547 457.597 45.0713C455.829 46.8388 198.64 303.917 197.453 305.254C195.036 307.979 195.291 312.153 198.007 314.562C200.737 316.993 204.918 316.708 207.315 314.008C208.103 313.11 465.036 56.2712 466.919 54.3877C466.38 55.3361 360.222 189.8 214.653 352.033Z" fill="black"/>
<path d="M113.641 323.742C92.8484 302.951 57.3713 317.933 57.373 347.043C57.373 355.842 60.8034 364.117 67.0322 370.345C73.4579 376.769 81.8954 379.98 90.3364 379.98C98.7748 379.98 107.216 376.768 113.641 370.345C126.505 357.483 126.507 336.605 113.641 323.742ZM104.32 361.021C96.6092 368.728 84.0637 368.73 76.353 361.021C64.0044 348.673 72.6511 327.283 90.3364 327.283C108.073 327.283 116.612 348.731 104.32 361.021Z" fill="black"/>
<path d="M164.911 388.76C151.357 388.76 139.714 396.542 134.525 409.07C129.311 421.659 132.025 435.432 141.607 445.013C147.972 451.377 156.172 454.713 164.639 454.713C168.917 454.713 173.264 453.86 177.474 452.117C190.054 446.905 197.869 435.254 197.869 421.711C197.868 403.542 183.084 388.76 164.911 388.76ZM172.427 439.938C166.53 442.379 157.785 442.547 150.927 435.691C144.066 428.83 144.248 420.047 146.704 414.114C149.141 408.23 155.204 401.942 164.91 401.942C175.814 401.942 184.684 410.811 184.684 421.711C184.684 431.405 178.353 437.483 172.427 439.938Z" fill="black"/>
</svg>
