<svg width="512" height="512" viewBox="0 0 512 512" fill="none" xmlns="http://www.w3.org/2000/svg">
<path d="M478.152 259.098L425.687 154.085C420.613 144.006 413.544 135.066 404.91 127.807C396.275 120.548 386.255 115.123 375.46 111.862C375.849 109.814 376.068 107.737 376.113 105.653V68.0681C376.113 60.0935 372.948 52.4456 367.313 46.8067C361.679 41.1679 354.037 38 346.069 38H331.046C323.078 38 315.436 41.1679 309.802 46.8067C304.167 52.4456 301.002 60.0935 301.002 68.0681V89.9652L289.225 86.4923C281.634 84.253 273.763 83.1114 265.85 83.1021H171.06C166.602 83.0942 162.242 84.4098 158.531 86.8825C154.82 89.3552 151.926 92.8738 150.214 96.9933C148.502 101.113 148.049 105.648 148.914 110.025C149.778 114.402 151.92 118.424 155.069 121.582L197.882 164.429L57.5743 304.892L46.9611 294.27L36.3404 304.899L46.9536 315.521L31 331.487L41.6207 342.116L57.5743 326.15L68.2026 336.794L78.8233 326.158L68.195 315.521L208.555 175.058C212.796 179.15 218.473 181.412 224.364 181.356C230.255 181.299 235.887 178.93 240.049 174.757C244.274 170.528 246.647 164.793 246.647 158.814C246.647 152.834 244.274 147.099 240.049 142.87L225.403 128.204H255.935C257.927 128.204 259.838 128.996 261.247 130.406C262.655 131.816 263.446 133.728 263.446 135.721V215.657L234.153 250.318L61.9683 422.676C56.4375 428.336 53.36 435.95 53.4035 443.866C53.4471 451.782 56.6083 459.362 62.201 464.96C67.7938 470.558 75.3668 473.723 83.2768 473.768C91.1867 473.813 98.7952 470.734 104.451 465.2L118.016 451.624C119.353 456.73 122.012 461.392 125.727 465.138C129.441 468.885 134.078 471.583 139.169 472.961C144.259 474.339 149.624 474.346 154.718 472.984C159.813 471.621 164.458 468.936 168.183 465.2L327.516 305.741C329.958 303.261 331.948 300.374 333.397 297.21C339.792 292.21 344.971 285.825 348.545 278.533C352.119 271.242 353.994 263.235 354.031 255.114C354.031 253.34 353.835 251.566 353.67 249.792L384.15 176.614L435.226 281.935L435.346 282.13L292.304 425.164L281.691 414.543L271.07 425.172L281.683 435.793L265.7 451.76L276.321 462.389L292.282 446.423L302.917 457.067L313.538 446.43L302.902 435.793L446.034 292.639C449.394 294.41 453.128 295.353 456.925 295.39C461.44 295.376 465.862 294.103 469.694 291.715C474.89 288.292 478.632 283.061 480.195 277.035C481.757 271.009 481.029 264.618 478.152 259.098ZM331.046 53.034H346.069C350.053 53.034 353.874 54.618 356.691 57.4374C359.508 60.2569 361.091 64.0808 361.091 68.0681H316.024C316.024 64.0808 317.607 60.2569 320.424 57.4374C323.241 54.618 327.062 53.034 331.046 53.034ZM316.024 83.1021H361.091V89.7171C361.09 91.3838 360.596 93.013 359.67 94.3985C358.745 95.784 357.429 96.8637 355.89 97.5009C354.352 98.1382 352.658 98.3045 351.025 97.9787C349.392 97.6529 347.892 96.8497 346.715 95.6706L343.868 92.8217C342.459 91.4124 340.549 90.6208 338.558 90.6208C336.566 90.6208 334.656 91.4124 333.247 92.8217L330.393 95.6706C329.614 96.457 328.685 97.08 327.663 97.5034C326.64 97.9267 325.543 98.1418 324.437 98.1362C322.206 98.1342 320.068 97.2466 318.49 95.6681C316.913 94.0897 316.026 91.9494 316.024 89.7171V83.1021ZM360.122 111.847C358.802 116.554 355.98 120.7 352.087 123.653C348.194 126.606 343.443 128.204 338.558 128.204C333.673 128.204 328.922 126.606 325.028 123.653C321.135 120.7 318.314 116.554 316.993 111.847C320.585 113.131 324.441 113.492 328.208 112.899C331.975 112.305 335.534 110.775 338.558 108.45C341.583 110.772 345.141 112.3 348.908 112.893C352.675 113.487 356.53 113.127 360.122 111.847ZM229.429 153.492C230.837 154.901 231.628 156.813 231.628 158.806C231.628 160.799 230.837 162.711 229.429 164.121C227.999 165.489 226.097 166.253 224.118 166.253C222.14 166.253 220.238 165.489 218.808 164.121L165.689 110.968C164.992 110.269 164.439 109.44 164.062 108.528C163.684 107.616 163.49 106.638 163.491 105.651C163.491 104.663 163.686 103.686 164.064 102.774C164.442 101.861 164.995 101.033 165.693 100.335C166.391 99.637 167.219 99.0835 168.131 98.706C169.043 98.3285 170.02 98.1343 171.006 98.1347C171.993 98.135 172.97 98.3298 173.881 98.708C174.792 99.0862 175.62 99.6403 176.318 100.339L229.429 153.492ZM247.853 257.896C250.671 255.076 254.493 253.491 258.478 253.491C262.463 253.491 266.285 255.076 269.102 257.896C271.92 260.716 273.503 264.54 273.503 268.528C273.503 272.516 271.92 276.341 269.102 279.161L205.611 342.725L203.5 344.837L191.835 356.511C190.547 351.375 187.89 346.684 184.148 342.94C180.406 339.195 175.719 336.536 170.587 335.246L247.853 257.896ZM152.282 353.572C155.1 350.753 158.921 349.17 162.905 349.171C166.89 349.171 170.71 350.756 173.527 353.576C176.344 356.396 177.926 360.22 177.925 364.208C177.925 368.195 176.341 372.019 173.523 374.838L168.213 380.152L146.972 358.887L152.282 353.572ZM93.8305 454.571C90.9681 457.302 87.1648 458.826 83.2098 458.826C79.2547 458.826 75.4514 457.302 72.589 454.571C71.1935 453.175 70.0864 451.517 69.3311 449.693C68.5757 447.868 68.187 445.913 68.187 443.938C68.187 441.963 68.5757 440.008 69.3311 438.183C70.0864 436.359 71.1935 434.701 72.589 433.305L136.321 369.501L157.54 390.781L93.8305 454.571ZM157.562 454.571C154.7 457.302 150.897 458.826 146.942 458.826C142.986 458.826 139.183 457.302 136.321 454.571C134.925 453.175 133.818 451.517 133.063 449.693C132.308 447.868 131.919 445.913 131.919 443.938C131.919 441.963 132.308 440.008 133.063 438.183C133.818 436.359 134.925 434.701 136.321 433.305L200.06 369.501L221.302 390.759L157.562 454.571ZM237.45 374.62L231.922 380.152L210.681 358.887L216.224 353.339C219.044 350.522 222.866 348.942 226.851 348.945C230.835 348.949 234.654 350.536 237.469 353.358C240.284 356.18 241.863 360.005 241.86 363.993C241.856 367.98 240.27 371.803 237.45 374.62ZM316.896 295.082L255.733 356.293C254.463 351.149 251.814 346.449 248.07 342.701C244.327 338.953 239.631 336.3 234.491 335.028L295.654 273.817C298.515 271.082 302.319 269.555 306.275 269.555C310.231 269.555 314.035 271.082 316.896 273.817C318.291 275.213 319.398 276.87 320.154 278.695C320.909 280.519 321.298 282.475 321.298 284.449C321.298 286.424 320.909 288.38 320.154 290.204C319.398 292.029 318.291 293.686 316.896 295.082ZM334.216 273.493C332.521 269.086 329.803 265.145 326.287 261.995C322.77 258.845 318.557 256.577 313.993 255.376C309.428 254.176 304.645 254.079 300.035 255.092C295.426 256.105 291.124 258.199 287.482 261.203C286.132 255.527 283.126 250.381 278.846 246.419C274.566 242.457 269.206 239.858 263.446 238.953L273.211 227.429L339.001 253.739C339.001 254.19 339.001 254.641 339.001 255.092C338.98 261.541 337.335 267.88 334.216 273.523V273.493ZM278.469 213.32V192.099L349.148 221.573L341.99 238.75L278.469 213.32ZM461.845 278.921C460.04 280.044 457.902 280.507 455.794 280.233C453.686 279.959 451.737 278.964 450.278 277.417C449.623 276.791 449.077 276.059 448.663 275.252L397.663 170.014C396.392 167.405 394.397 165.217 391.917 163.712C389.437 162.207 386.576 161.449 383.677 161.527C380.79 161.598 377.986 162.513 375.612 164.158C373.238 165.804 371.397 168.108 370.315 170.788L354.932 207.697L278.469 175.81V135.721C278.469 129.74 276.095 124.004 271.869 119.775C267.643 115.546 261.912 113.17 255.935 113.17H210.38L195.358 98.1362H265.85C272.329 98.1467 278.773 99.0807 284.988 100.91L301.002 105.653C300.973 113.783 303.584 121.702 308.441 128.219C313.298 134.736 320.138 139.497 327.933 141.786C335.728 144.076 344.055 143.769 351.66 140.913C359.266 138.057 365.739 132.805 370.104 125.949L370.915 126.19C379.809 128.834 388.069 133.271 395.186 139.228C402.303 145.185 408.128 152.535 412.302 160.828L464.744 265.818C465.931 267.983 466.291 270.505 465.758 272.915C465.224 275.326 463.834 277.46 461.845 278.921Z" fill="black"/>
<path d="M339.146 164.088L332.848 178.787L348.849 185.643L355.147 170.944L339.146 164.088Z" fill="black"/>
</svg>
