<svg id="Outline" height="512" viewBox="0 0 64 64" width="512" xmlns="http://www.w3.org/2000/svg"><path d="m59 51h-3.17c.22-.17.43-.35.63-.55 2.77-2.77 2.55-7.32 2.54-7.51-.03-.51-.43-.92-.94-.94-.14 0-2.49-.11-4.83.82-.7-2.58-2.48-4.58-3.22-5.33v-16.37c0-.57-.24-1.11-.67-1.49-.42-.38-.99-.56-1.55-.5l-6.78.75v-2.98c2.44-.47 4.29-2.61 4.29-5.18 0-4.08-4.41-8.27-4.6-8.44-.38-.36-.98-.36-1.37 0-.19.18-4.6 4.36-4.6 8.44 0 2.57 1.85 4.72 4.29 5.18v3.21l-7.22.8c-1.01.11-1.78.97-1.78 1.99v8.1h-19.02c-3.31 0-6 2.69-6 6 0 2.09 1.07 3.92 2.69 5-1.62 1.08-2.69 2.91-2.69 5 0 1.54.59 2.94 1.54 4h-1.54c-1.1 0-2 .9-2 2v2c0 1.1.9 2 2 2h2v3c0 .55.45 1 1 1h4c.55 0 1-.45 1-1v-3h38v3c0 .55.45 1 1 1h4c.55 0 1-.45 1-1v-3h2c1.1 0 2-.9 2-2v-2c0-1.1-.9-2-2-2zm-22.29-39.29c0-2.38 2.15-5.04 3.29-6.28 1.3 1.42 3.28 4.06 3.28 6.28 0 1.81-1.47 3.29-3.29 3.29s-3.29-1.47-3.29-3.29zm9.33 34.24c1.47 1.47 1.84 3.74 1.93 5.02-1.28-.09-3.54-.46-5.02-1.94-1.47-1.47-1.84-3.74-1.93-5.02 1.28.09 3.54.46 5.02 1.94zm8.99 3.08c-1.47 1.47-3.74 1.84-5.02 1.93.09-1.28.46-3.54 1.94-5.02s3.74-1.84 5.02-1.93c-.09 1.28-.46 3.54-1.94 5.02zm-4.5-4.5c-.68.68-1.17 1.46-1.54 2.26-.37-.8-.86-1.59-1.54-2.26-.27-.27-.56-.5-.86-.72.38-1.92 1.62-3.58 2.4-4.47.78.89 2.02 2.54 2.39 4.47-.3.22-.58.45-.85.72zm-2.54-23.42v16.38c-.74.75-2.51 2.75-3.21 5.34-2.34-.94-4.7-.84-4.84-.83-.51.03-.92.43-.94.94-.01.19-.23 4.74 2.54 7.51.2.2.41.38.63.55h-6.71c.95-1.06 1.54-2.46 1.54-4 0-2.09-1.07-3.92-2.69-5 1.62-1.08 2.69-2.91 2.69-5 0-2.97-2.17-5.43-5-5.91v-8.2l16-1.78zm-40.99 15.89c0-1.97 1.44-3.61 3.32-3.93-.2.44-.32.92-.32 1.43 0 1.93 1.57 3.5 3.5 3.5h16.5c.55 0 1-.45 1-1s-.45-1-1-1h-16.5c-.83 0-1.5-.67-1.5-1.5s.67-1.5 1.5-1.5h17.5c2.21 0 4 1.79 4 4s-1.79 4-4 4h-20c-2.21 0-4-1.79-4-4zm0 10c0-1.98 1.44-3.61 3.33-3.93-.2.44-.33.92-.33 1.43 0 1.93 1.57 3.5 3.5 3.5h16.5c.55 0 1-.45 1-1s-.45-1-1-1h-16.5c-.83 0-1.5-.67-1.5-1.5s.67-1.5 1.5-1.5h17.5c2.21 0 4 1.79 4 4s-1.79 4-4 4h-20c-2.21 0-4-1.79-4-4zm4 12h-2v-2h2zm44 0h-2v-2h2zm-50-4v-2h54v2z"/></svg>