<svg width="500" height="500" viewBox="0 0 500 500" fill="none" xmlns="http://www.w3.org/2000/svg">
<path fill-rule="evenodd" clip-rule="evenodd" d="M178.359 334.502L198.366 322.943C209.048 312.731 215.352 304.596 219.693 295.634C224.161 286.409 226.774 275.842 230.014 261.05C237.4 227.327 260.466 198.066 291.184 180.32C319.544 163.936 351.016 159.081 378.974 164.475C407.29 169.939 432.056 185.885 446.556 211.017C461.04 236.119 462.45 265.537 453.021 292.805C432.04 353.483 362.071 391.829 299.692 375.013C269.769 366.946 248.81 366.013 230.749 370.096C212.859 374.141 197.234 383.246 178.358 395.273V438.464C181.136 441.424 183.46 445.143 185.266 448.921C188.818 456.349 190.001 462.015 189.892 467.288C189.781 472.724 187.418 475 183.119 475C180.345 475 178.697 474.572 177.72 473.84H125.659C124.864 474.064 124.61 474.774 120.888 474.807C114.732 474.937 114.137 470.551 114.137 465.598C114.137 462.199 115.535 456.021 118.014 450.263C119.527 446.75 121.494 443.239 123.874 440.354V428.863L102.362 441.291C101.195 445.211 99.1412 449.094 96.7805 452.539C92.9121 458.186 87.884 463.037 84.6362 464.914L82.3671 466.081C81.0611 466.284 76.3458 469.452 73.1176 463.692L73.1093 463.698C71.9105 461.598 71.5081 460.04 71.6408 458.812L47.9357 417.702L47.9244 417.709L45.2055 412.997C44.7805 412.585 43.4839 412.243 41.9948 409.357C40.6425 406.853 40.5613 404.745 42.4218 402.595C43.8019 400.774 44.8155 400.404 46.7893 399.264C49.7521 397.552 55.8031 395.665 62.0003 394.938C65.8152 394.491 69.8492 394.44 73.5344 395.065L123.875 365.982V295.908C120.39 281.636 116.507 272.142 110.937 263.922C105.209 255.469 97.3589 247.913 86.1551 237.691C37.0953 192.924 33.8701 110.21 77.0683 60.3326C117.872 13.2225 184.361 13.2225 225.164 60.3326C267.214 108.884 265.356 188.657 219.607 234.312C204.956 248.933 195.312 260.728 188.995 271.863C182.949 282.523 179.915 292.702 178.357 304.381V334.502H178.359ZM178.359 379.227C195.3 368.721 210.29 360.783 227.768 356.831C248.002 352.257 270.983 353.168 303.206 361.855C358.827 376.849 421.606 342.136 440.192 288.383C448.374 264.724 447.219 239.32 434.792 217.78C422.382 196.271 400.982 182.584 376.418 177.845C351.494 173.036 323.366 177.405 297.943 192.091C270.558 207.911 249.907 233.854 243.321 263.926C236.335 295.824 231.524 310.211 207.187 333.319L207.179 333.31C206.796 333.676 206.362 334.001 205.883 334.277L178.359 350.179V379.227ZM137.373 293.879H166.366C171.918 266.994 187.406 247.238 210.026 224.665C250.764 184.012 252.164 112.259 214.891 69.2224C179.573 28.4432 122.662 28.4432 87.3427 69.2224C49.0019 113.49 51.7701 187.885 95.312 227.617C107.179 238.447 115.561 246.548 122.169 256.298C128.733 265.985 133.218 276.865 137.134 292.991C137.233 293.28 137.313 293.576 137.373 293.879ZM123.875 413.183V381.655L78.4483 407.899C73.204 411.063 72.0041 406.27 58.7618 409.279L59.69 410.888L59.6787 410.895L81.9513 449.47C85.1302 445.922 89.0325 440.249 89.722 435.841L89.7251 435.842C90.0307 433.876 91.1915 432.062 93.049 430.994L123.875 413.183ZM164.73 307.516H137.503V442.986H137.485C137.485 444.796 136.768 446.602 135.346 447.94C132.498 450.628 130.093 456.121 128.84 460.201H175.192C173.844 456.018 170.761 449.434 167.572 446.918C165.85 445.68 164.728 443.66 164.728 441.377V307.516H164.73ZM161.864 272.799L166.73 264.34C169.349 259.79 166.004 254.162 160.848 254.168V254.139H141.384C136.405 254.139 132.448 259.639 135.828 264.905L140.379 272.792L140.368 272.799L145.233 281.232C147.845 285.751 154.418 285.773 157.043 281.152L161.864 272.799ZM151.117 50.1298C129.271 50.1298 110.055 61.2501 96.4162 78.31C92.0024 83.8305 88.1361 90.0234 84.9285 96.7507C82.4134 101.399 79.7799 109.646 78.2332 115.004C76.0093 122.155 74.1601 136.837 74.4389 144.951C74.4894 154.546 75.7099 163.809 77.9348 172.53C78.9217 177.178 82.9372 188.319 85.1024 192.288C88.2771 198.875 92.0827 204.947 96.4172 210.368C126.465 247.951 175.771 247.952 205.819 210.368C235.054 173.801 235.191 115.048 205.819 78.31C192.113 61.1677 173.044 50.1298 151.117 50.1298ZM195.224 86.7786C190.764 81.2005 185.654 76.4574 180.054 72.7524L180.022 93.4761H200.013C198.514 91.1314 196.916 88.8958 195.224 86.7786ZM166.212 66.1002C156.274 62.9708 145.804 62.9873 135.877 66.1465L135.835 93.4761H166.213V66.1002H166.212ZM122.025 72.8564C114.123 78.1205 107.465 85.2649 102.222 93.4761H122.025V72.8564ZM95.1813 107.113C94.6493 108.415 91.6978 116.415 91.6958 117.323L91.599 137.693H122.025V107.114L95.1813 107.113ZM91.4652 170.526C92.5252 174.468 93.8188 178.27 95.3233 181.908H122.024V151.329H91.5342L91.4652 170.526ZM102.443 195.545C107.655 203.617 114.237 210.634 122.025 215.822V195.545H102.443ZM135.652 222.461C145.643 225.689 156.197 225.731 166.212 222.577V195.544H135.675L135.652 222.461ZM179.841 216.064C187.784 210.856 194.498 203.744 199.792 195.545H179.863L179.841 216.064ZM206.91 181.908C208.244 178.681 209.412 175.324 210.399 171.856V151.329H179.931L179.884 181.908H206.91ZM210.399 116.822C209.449 113.476 208.328 110.234 207.052 107.113H179.999L179.952 137.692H210.399V116.822ZM135.697 181.908H166.212V151.329H135.744L135.697 181.908ZM135.765 137.692H166.212V107.113H135.813L135.765 137.692ZM237.495 344.219H247.227C252.207 344.219 256.164 338.718 252.784 333.452L248.232 325.565L248.243 325.557L243.378 317.125C240.766 312.605 234.193 312.584 231.568 317.204L221.882 334.018C219.264 338.565 222.604 344.195 227.764 344.19V344.219H237.495ZM268.957 237.158C264.75 243.284 261.333 249.708 258.773 256.266C241.295 301.031 266.015 343.869 313.5 351.107C359.744 358.154 410.788 328.645 427.809 285.051C445.277 240.314 420.563 197.447 373.082 190.211C358.81 188.036 346.14 189.302 332.111 192.873C324.755 194.617 311.626 200.103 304.688 204.369C294.22 210.805 290.694 213.561 282.159 221.498C278.635 224.771 271.224 233.4 268.957 237.158ZM282.87 241.11L296.225 264.254L322.719 248.948L307.468 222.517L290.8 232.042C287.916 234.94 285.269 237.973 282.87 241.11ZM337.014 205.635L319.274 215.771L334.491 242.145L360.985 226.839L347.565 203.579C344.067 204.051 340.542 204.735 337.014 205.635ZM362.86 202.883L372.759 220.039L390.612 209.725C382.103 205.518 372.588 203.327 362.86 202.883ZM403.346 218.351L379.654 231.989L394.853 258.331L418.568 244.63C416.322 234.436 411.062 225.375 403.346 218.351ZM419.722 259.672L401.651 270.112L411.739 287.598C416.292 278.802 419.169 269.302 419.722 259.672ZM403.487 300.501L389.877 276.914L363.383 292.219L378.678 318.73L396.74 308.296C399.166 305.787 401.418 303.183 403.487 300.501ZM349.163 335.783L366.906 325.533L351.609 299.022L325.115 314.328L338.649 337.785C342.134 337.331 345.646 336.664 349.163 335.783ZM323.314 338.415L313.341 321.13L295.574 331.395C304.06 335.667 313.567 337.92 323.314 338.415ZM283.135 322.873L306.543 309.349L291.266 282.869L267.937 296.305C270.128 306.599 275.374 315.772 283.135 322.873ZM266.888 281.203L284.451 271.057L274.657 254.082C270.28 262.64 267.491 271.863 266.888 281.203ZM303.051 276.085L318.318 302.547L344.812 287.24L329.568 260.82L303.051 276.085ZM341.352 254.037L356.586 280.439L383.08 265.133L367.87 238.772L341.352 254.037Z" fill="black"/>
</svg>
