<svg width="512" height="512" viewBox="0 0 512 512" fill="none" xmlns="http://www.w3.org/2000/svg">
<mask id="path-1-outside-1_5685_14650" maskUnits="userSpaceOnUse" x="28" y="53" width="455" height="406" fill="black">
<rect fill="white" x="28" y="53" width="455" height="406"/>
<path d="M470.889 248.541C469.778 245.652 466.538 244.204 463.653 245.316C460.769 246.428 459.321 249.672 460.432 252.56C466.66 268.816 469.825 285.959 469.825 303.532C469.825 381.977 406.087 445.792 327.748 445.792C249.409 445.792 185.671 381.977 185.671 303.532C185.671 276.125 193.457 243.923 208.853 207.561C210.402 208.739 211.989 209.851 213.633 210.889C219.3 214.46 226.395 216.815 234.359 218.012C213.147 241.259 201.178 271.788 201.178 303.532C201.178 373.405 257.951 430.257 327.738 430.257C397.526 430.257 454.299 373.405 454.299 303.532C454.299 275.35 445.252 248.672 428.148 226.387C411.586 204.804 388.134 188.876 362.105 181.538C353.851 179.21 345.346 177.761 336.757 177.154C345.972 164.385 350.659 149.569 350.313 133.51C350.145 125.901 349.585 119.592 349.09 114.039C347.652 97.8587 346.784 88.0812 357.903 67.0306C358.79 65.348 358.772 63.3196 357.838 61.6558C356.904 59.9919 355.187 58.9169 353.291 58.8048C348.418 58.515 343.414 58.1691 338.587 57.8326C297.835 55.0097 255.692 52.0932 223.436 76.7427C194.802 98.6346 179.724 126.042 180.984 153.935C181.759 170.984 188.78 187.333 200.077 199.569C195.81 209.421 192.076 218.993 188.864 228.275C181.787 220.975 173.543 215.32 164.235 211.356C164.786 209.786 165.29 208.178 165.738 206.533C169.604 192.428 169.566 177.191 165.626 163.637C158.326 138.502 139.504 124.013 113.979 123.882C113.746 123.882 113.512 123.892 113.288 123.92C104.559 124.967 95.1855 127.481 86.1295 129.911C69.1098 134.473 51.5019 139.203 38.6741 134.09C36.6015 133.258 34.2301 133.753 32.643 135.333C31.0652 136.913 30.5704 139.287 31.392 141.362C33.3992 146.447 35.3692 151.766 37.2737 156.907C46.6098 182.089 56.2633 208.131 76.2239 225.396C94.6067 241.287 109.862 246.148 121.653 246.148C131.176 246.148 138.44 242.97 143.257 239.885C149.839 235.66 155.441 229.378 159.698 221.611C169.51 225.77 177.941 232.136 184.849 240.614C177.931 263.516 174.44 284.547 174.44 303.523C174.44 388.146 243.2 457 327.72 457C412.239 457 481 388.155 481 303.523C481.028 284.585 477.62 266.086 470.889 248.541ZM137.235 230.463C122.97 239.633 104.419 234.95 83.5808 216.928C65.7955 201.541 56.6461 176.873 47.8048 153.028C47.0953 151.112 46.3764 149.177 45.6482 147.232C59.2976 148.747 74.366 144.699 89.0424 140.764C97.9864 138.362 106.445 136.099 114.287 135.118C141.689 135.417 151.482 155.066 154.89 166.787C158.83 180.36 158.102 195.241 153.77 207.627C108.9 192.979 93.8878 185.193 78.9687 169.321C76.8494 167.058 73.3017 166.956 71.0517 169.078C68.8017 171.199 68.6897 174.751 70.809 177.004C87.1378 194.381 102.944 202.757 149.008 217.862C145.853 223.116 141.885 227.472 137.235 230.463ZM249.212 218.947C267.978 218.638 289.115 213.17 307.05 203C312.427 199.952 317.329 196.597 321.745 192.979C330.166 211.936 329.195 223.508 326.674 230.042C323.789 237.529 318.449 239.745 317.842 239.969C315.947 240.689 311.475 240.521 307.152 240.362C291.972 239.792 266.55 238.847 261.723 271.564C260.995 276.481 261.116 281.229 261.237 285.828C261.461 294.633 261.639 301.588 256.261 307.243C249.838 314.002 235.909 318.657 213.763 321.433C212.858 315.6 212.382 309.627 212.382 303.542C212.391 271.47 225.788 240.764 249.212 218.947ZM327.748 419.04C303.791 419.04 281.515 411.683 263.049 399.111C272.114 391.857 285.511 388.772 298.544 385.791C302.802 384.818 306.826 383.893 310.691 382.837C330.24 377.453 341.491 370.638 346.093 361.394C351.396 350.756 347.036 339.717 342.424 328.042C340.286 322.629 338.073 317.03 336.766 311.3C334.022 299.27 338.531 291.633 350.547 287.969C354.44 286.782 361.488 287.137 367.772 290.726C371.002 292.568 373.747 295.54 376.669 298.681C378.956 301.139 381.309 303.682 384.007 305.738C394.902 314.048 405.433 310.393 414.732 307.178C420.577 305.149 426.113 303.243 432.051 303.71C436.999 304.093 440.528 306.056 443.021 307.963C440.687 369.61 389.88 419.04 327.748 419.04ZM442.768 294.905C439.669 293.587 436.401 292.792 432.919 292.521C424.647 291.876 417.44 294.372 411.072 296.578C401.764 299.803 396.639 301.27 390.794 296.821C388.862 295.344 386.92 293.259 384.875 291.044C381.673 287.595 378.041 283.678 373.336 280.986C365.232 276.35 355.009 274.882 347.288 277.238C329.606 282.641 321.791 295.961 325.853 313.796C327.346 320.367 329.718 326.368 332.014 332.173C335.842 341.867 339.147 350.233 336.076 356.393C333.079 362.412 323.537 367.675 307.722 372.031C304.09 373.031 300.188 373.919 296.052 374.873C281.45 378.21 265.121 381.949 253.89 392.194C235.656 376.938 222.175 356.159 216.051 332.454C240.689 329.275 256.121 323.686 264.393 314.983C272.973 305.953 272.693 295.11 272.45 285.548C272.338 281.238 272.235 277.172 272.823 273.209C275.942 252.074 288.854 250.906 306.76 251.579C312.689 251.803 317.823 251.99 321.838 250.466C324.312 249.532 332.724 245.578 337.149 234.09C341.855 221.891 340.053 206.449 331.846 188.128C341.089 188.455 350.248 189.857 359.089 192.344C405.779 205.505 439.165 246.97 442.768 294.905ZM192.188 153.439C191.413 136.389 197.397 110.786 230.242 85.6696C249.567 70.9005 273.048 67.1895 298.591 67.1895C311.251 67.1895 324.415 68.1056 337.821 69.031C339.941 69.1805 342.088 69.3301 344.245 69.4703C335.599 88.5953 336.608 99.9619 337.952 115.03C338.428 120.414 338.97 126.518 339.128 133.753C339.847 166.544 315.882 185.09 301.532 193.232C284.895 202.673 264.906 207.73 247.784 207.814C247.233 207.739 246.682 207.73 246.132 207.814C235.591 207.664 226.255 205.58 219.608 201.392C217.479 200.046 215.444 198.56 213.521 196.933C215.696 192.138 217.993 187.277 220.42 182.351C236.422 149.85 258.819 123.807 283.485 109.01C286.137 107.421 287.005 103.972 285.409 101.317C283.821 98.6626 280.376 97.7933 277.725 99.3917C251.238 115.283 227.31 142.979 210.374 177.397C208.572 181.061 206.836 184.688 205.165 188.287C197.481 178.49 192.766 166.198 192.188 153.439Z"/>
</mask>
<path d="M470.889 248.541C469.778 245.652 466.538 244.204 463.653 245.316C460.769 246.428 459.321 249.672 460.432 252.56C466.66 268.816 469.825 285.959 469.825 303.532C469.825 381.977 406.087 445.792 327.748 445.792C249.409 445.792 185.671 381.977 185.671 303.532C185.671 276.125 193.457 243.923 208.853 207.561C210.402 208.739 211.989 209.851 213.633 210.889C219.3 214.46 226.395 216.815 234.359 218.012C213.147 241.259 201.178 271.788 201.178 303.532C201.178 373.405 257.951 430.257 327.738 430.257C397.526 430.257 454.299 373.405 454.299 303.532C454.299 275.35 445.252 248.672 428.148 226.387C411.586 204.804 388.134 188.876 362.105 181.538C353.851 179.21 345.346 177.761 336.757 177.154C345.972 164.385 350.659 149.569 350.313 133.51C350.145 125.901 349.585 119.592 349.09 114.039C347.652 97.8587 346.784 88.0812 357.903 67.0306C358.79 65.348 358.772 63.3196 357.838 61.6558C356.904 59.9919 355.187 58.9169 353.291 58.8048C348.418 58.515 343.414 58.1691 338.587 57.8326C297.835 55.0097 255.692 52.0932 223.436 76.7427C194.802 98.6346 179.724 126.042 180.984 153.935C181.759 170.984 188.78 187.333 200.077 199.569C195.81 209.421 192.076 218.993 188.864 228.275C181.787 220.975 173.543 215.32 164.235 211.356C164.786 209.786 165.29 208.178 165.738 206.533C169.604 192.428 169.566 177.191 165.626 163.637C158.326 138.502 139.504 124.013 113.979 123.882C113.746 123.882 113.512 123.892 113.288 123.92C104.559 124.967 95.1855 127.481 86.1295 129.911C69.1098 134.473 51.5019 139.203 38.6741 134.09C36.6015 133.258 34.2301 133.753 32.643 135.333C31.0652 136.913 30.5704 139.287 31.392 141.362C33.3992 146.447 35.3692 151.766 37.2737 156.907C46.6098 182.089 56.2633 208.131 76.2239 225.396C94.6067 241.287 109.862 246.148 121.653 246.148C131.176 246.148 138.44 242.97 143.257 239.885C149.839 235.66 155.441 229.378 159.698 221.611C169.51 225.77 177.941 232.136 184.849 240.614C177.931 263.516 174.44 284.547 174.44 303.523C174.44 388.146 243.2 457 327.72 457C412.239 457 481 388.155 481 303.523C481.028 284.585 477.62 266.086 470.889 248.541ZM137.235 230.463C122.97 239.633 104.419 234.95 83.5808 216.928C65.7955 201.541 56.6461 176.873 47.8048 153.028C47.0953 151.112 46.3764 149.177 45.6482 147.232C59.2976 148.747 74.366 144.699 89.0424 140.764C97.9864 138.362 106.445 136.099 114.287 135.118C141.689 135.417 151.482 155.066 154.89 166.787C158.83 180.36 158.102 195.241 153.77 207.627C108.9 192.979 93.8878 185.193 78.9687 169.321C76.8494 167.058 73.3017 166.956 71.0517 169.078C68.8017 171.199 68.6897 174.751 70.809 177.004C87.1378 194.381 102.944 202.757 149.008 217.862C145.853 223.116 141.885 227.472 137.235 230.463ZM249.212 218.947C267.978 218.638 289.115 213.17 307.05 203C312.427 199.952 317.329 196.597 321.745 192.979C330.166 211.936 329.195 223.508 326.674 230.042C323.789 237.529 318.449 239.745 317.842 239.969C315.947 240.689 311.475 240.521 307.152 240.362C291.972 239.792 266.55 238.847 261.723 271.564C260.995 276.481 261.116 281.229 261.237 285.828C261.461 294.633 261.639 301.588 256.261 307.243C249.838 314.002 235.909 318.657 213.763 321.433C212.858 315.6 212.382 309.627 212.382 303.542C212.391 271.47 225.788 240.764 249.212 218.947ZM327.748 419.04C303.791 419.04 281.515 411.683 263.049 399.111C272.114 391.857 285.511 388.772 298.544 385.791C302.802 384.818 306.826 383.893 310.691 382.837C330.24 377.453 341.491 370.638 346.093 361.394C351.396 350.756 347.036 339.717 342.424 328.042C340.286 322.629 338.073 317.03 336.766 311.3C334.022 299.27 338.531 291.633 350.547 287.969C354.44 286.782 361.488 287.137 367.772 290.726C371.002 292.568 373.747 295.54 376.669 298.681C378.956 301.139 381.309 303.682 384.007 305.738C394.902 314.048 405.433 310.393 414.732 307.178C420.577 305.149 426.113 303.243 432.051 303.71C436.999 304.093 440.528 306.056 443.021 307.963C440.687 369.61 389.88 419.04 327.748 419.04ZM442.768 294.905C439.669 293.587 436.401 292.792 432.919 292.521C424.647 291.876 417.44 294.372 411.072 296.578C401.764 299.803 396.639 301.27 390.794 296.821C388.862 295.344 386.92 293.259 384.875 291.044C381.673 287.595 378.041 283.678 373.336 280.986C365.232 276.35 355.009 274.882 347.288 277.238C329.606 282.641 321.791 295.961 325.853 313.796C327.346 320.367 329.718 326.368 332.014 332.173C335.842 341.867 339.147 350.233 336.076 356.393C333.079 362.412 323.537 367.675 307.722 372.031C304.09 373.031 300.188 373.919 296.052 374.873C281.45 378.21 265.121 381.949 253.89 392.194C235.656 376.938 222.175 356.159 216.051 332.454C240.689 329.275 256.121 323.686 264.393 314.983C272.973 305.953 272.693 295.11 272.45 285.548C272.338 281.238 272.235 277.172 272.823 273.209C275.942 252.074 288.854 250.906 306.76 251.579C312.689 251.803 317.823 251.99 321.838 250.466C324.312 249.532 332.724 245.578 337.149 234.09C341.855 221.891 340.053 206.449 331.846 188.128C341.089 188.455 350.248 189.857 359.089 192.344C405.779 205.505 439.165 246.97 442.768 294.905ZM192.188 153.439C191.413 136.389 197.397 110.786 230.242 85.6696C249.567 70.9005 273.048 67.1895 298.591 67.1895C311.251 67.1895 324.415 68.1056 337.821 69.031C339.941 69.1805 342.088 69.3301 344.245 69.4703C335.599 88.5953 336.608 99.9619 337.952 115.03C338.428 120.414 338.97 126.518 339.128 133.753C339.847 166.544 315.882 185.09 301.532 193.232C284.895 202.673 264.906 207.73 247.784 207.814C247.233 207.739 246.682 207.73 246.132 207.814C235.591 207.664 226.255 205.58 219.608 201.392C217.479 200.046 215.444 198.56 213.521 196.933C215.696 192.138 217.993 187.277 220.42 182.351C236.422 149.85 258.819 123.807 283.485 109.01C286.137 107.421 287.005 103.972 285.409 101.317C283.821 98.6626 280.376 97.7933 277.725 99.3917C251.238 115.283 227.31 142.979 210.374 177.397C208.572 181.061 206.836 184.688 205.165 188.287C197.481 178.49 192.766 166.198 192.188 153.439Z" fill="black"/>
<path d="M470.889 248.541C469.778 245.652 466.538 244.204 463.653 245.316C460.769 246.428 459.321 249.672 460.432 252.56C466.66 268.816 469.825 285.959 469.825 303.532C469.825 381.977 406.087 445.792 327.748 445.792C249.409 445.792 185.671 381.977 185.671 303.532C185.671 276.125 193.457 243.923 208.853 207.561C210.402 208.739 211.989 209.851 213.633 210.889C219.3 214.46 226.395 216.815 234.359 218.012C213.147 241.259 201.178 271.788 201.178 303.532C201.178 373.405 257.951 430.257 327.738 430.257C397.526 430.257 454.299 373.405 454.299 303.532C454.299 275.35 445.252 248.672 428.148 226.387C411.586 204.804 388.134 188.876 362.105 181.538C353.851 179.21 345.346 177.761 336.757 177.154C345.972 164.385 350.659 149.569 350.313 133.51C350.145 125.901 349.585 119.592 349.09 114.039C347.652 97.8587 346.784 88.0812 357.903 67.0306C358.79 65.348 358.772 63.3196 357.838 61.6558C356.904 59.9919 355.187 58.9169 353.291 58.8048C348.418 58.515 343.414 58.1691 338.587 57.8326C297.835 55.0097 255.692 52.0932 223.436 76.7427C194.802 98.6346 179.724 126.042 180.984 153.935C181.759 170.984 188.78 187.333 200.077 199.569C195.81 209.421 192.076 218.993 188.864 228.275C181.787 220.975 173.543 215.32 164.235 211.356C164.786 209.786 165.29 208.178 165.738 206.533C169.604 192.428 169.566 177.191 165.626 163.637C158.326 138.502 139.504 124.013 113.979 123.882C113.746 123.882 113.512 123.892 113.288 123.92C104.559 124.967 95.1855 127.481 86.1295 129.911C69.1098 134.473 51.5019 139.203 38.6741 134.09C36.6015 133.258 34.2301 133.753 32.643 135.333C31.0652 136.913 30.5704 139.287 31.392 141.362C33.3992 146.447 35.3692 151.766 37.2737 156.907C46.6098 182.089 56.2633 208.131 76.2239 225.396C94.6067 241.287 109.862 246.148 121.653 246.148C131.176 246.148 138.44 242.97 143.257 239.885C149.839 235.66 155.441 229.378 159.698 221.611C169.51 225.77 177.941 232.136 184.849 240.614C177.931 263.516 174.44 284.547 174.44 303.523C174.44 388.146 243.2 457 327.72 457C412.239 457 481 388.155 481 303.523C481.028 284.585 477.62 266.086 470.889 248.541ZM137.235 230.463C122.97 239.633 104.419 234.95 83.5808 216.928C65.7955 201.541 56.6461 176.873 47.8048 153.028C47.0953 151.112 46.3764 149.177 45.6482 147.232C59.2976 148.747 74.366 144.699 89.0424 140.764C97.9864 138.362 106.445 136.099 114.287 135.118C141.689 135.417 151.482 155.066 154.89 166.787C158.83 180.36 158.102 195.241 153.77 207.627C108.9 192.979 93.8878 185.193 78.9687 169.321C76.8494 167.058 73.3017 166.956 71.0517 169.078C68.8017 171.199 68.6897 174.751 70.809 177.004C87.1378 194.381 102.944 202.757 149.008 217.862C145.853 223.116 141.885 227.472 137.235 230.463ZM249.212 218.947C267.978 218.638 289.115 213.17 307.05 203C312.427 199.952 317.329 196.597 321.745 192.979C330.166 211.936 329.195 223.508 326.674 230.042C323.789 237.529 318.449 239.745 317.842 239.969C315.947 240.689 311.475 240.521 307.152 240.362C291.972 239.792 266.55 238.847 261.723 271.564C260.995 276.481 261.116 281.229 261.237 285.828C261.461 294.633 261.639 301.588 256.261 307.243C249.838 314.002 235.909 318.657 213.763 321.433C212.858 315.6 212.382 309.627 212.382 303.542C212.391 271.47 225.788 240.764 249.212 218.947ZM327.748 419.04C303.791 419.04 281.515 411.683 263.049 399.111C272.114 391.857 285.511 388.772 298.544 385.791C302.802 384.818 306.826 383.893 310.691 382.837C330.24 377.453 341.491 370.638 346.093 361.394C351.396 350.756 347.036 339.717 342.424 328.042C340.286 322.629 338.073 317.03 336.766 311.3C334.022 299.27 338.531 291.633 350.547 287.969C354.44 286.782 361.488 287.137 367.772 290.726C371.002 292.568 373.747 295.54 376.669 298.681C378.956 301.139 381.309 303.682 384.007 305.738C394.902 314.048 405.433 310.393 414.732 307.178C420.577 305.149 426.113 303.243 432.051 303.71C436.999 304.093 440.528 306.056 443.021 307.963C440.687 369.61 389.88 419.04 327.748 419.04ZM442.768 294.905C439.669 293.587 436.401 292.792 432.919 292.521C424.647 291.876 417.44 294.372 411.072 296.578C401.764 299.803 396.639 301.27 390.794 296.821C388.862 295.344 386.92 293.259 384.875 291.044C381.673 287.595 378.041 283.678 373.336 280.986C365.232 276.35 355.009 274.882 347.288 277.238C329.606 282.641 321.791 295.961 325.853 313.796C327.346 320.367 329.718 326.368 332.014 332.173C335.842 341.867 339.147 350.233 336.076 356.393C333.079 362.412 323.537 367.675 307.722 372.031C304.09 373.031 300.188 373.919 296.052 374.873C281.45 378.21 265.121 381.949 253.89 392.194C235.656 376.938 222.175 356.159 216.051 332.454C240.689 329.275 256.121 323.686 264.393 314.983C272.973 305.953 272.693 295.11 272.45 285.548C272.338 281.238 272.235 277.172 272.823 273.209C275.942 252.074 288.854 250.906 306.76 251.579C312.689 251.803 317.823 251.99 321.838 250.466C324.312 249.532 332.724 245.578 337.149 234.09C341.855 221.891 340.053 206.449 331.846 188.128C341.089 188.455 350.248 189.857 359.089 192.344C405.779 205.505 439.165 246.97 442.768 294.905ZM192.188 153.439C191.413 136.389 197.397 110.786 230.242 85.6696C249.567 70.9005 273.048 67.1895 298.591 67.1895C311.251 67.1895 324.415 68.1056 337.821 69.031C339.941 69.1805 342.088 69.3301 344.245 69.4703C335.599 88.5953 336.608 99.9619 337.952 115.03C338.428 120.414 338.97 126.518 339.128 133.753C339.847 166.544 315.882 185.09 301.532 193.232C284.895 202.673 264.906 207.73 247.784 207.814C247.233 207.739 246.682 207.73 246.132 207.814C235.591 207.664 226.255 205.58 219.608 201.392C217.479 200.046 215.444 198.56 213.521 196.933C215.696 192.138 217.993 187.277 220.42 182.351C236.422 149.85 258.819 123.807 283.485 109.01C286.137 107.421 287.005 103.972 285.409 101.317C283.821 98.6626 280.376 97.7933 277.725 99.3917C251.238 115.283 227.31 142.979 210.374 177.397C208.572 181.061 206.836 184.688 205.165 188.287C197.481 178.49 192.766 166.198 192.188 153.439Z" stroke="black" stroke-width="4" mask="url(#path-1-outside-1_5685_14650)"/>
</svg>
