<?xml version="1.0" encoding="UTF-8"?>
<svg xmlns="http://www.w3.org/2000/svg" id="Line" viewBox="0 0 64 64" width="512" height="512"><path d="M58.88,42.54a7.81,7.81,0,0,1-3.46-.32,6.63,6.63,0,0,1-2.52-1.54,4.86,4.86,0,0,0-2.59-1.4,1.79,1.79,0,0,0-.23,0l-.92-1.39a7.61,7.61,0,0,0,1.6.18,7.43,7.43,0,1,0-7.19-8.62l-5.18-7.84a.42.42,0,0,1,0-.46.38.38,0,0,1,.34-.22h8.68a4.44,4.44,0,0,0,0-8.88H30.2a3.79,3.79,0,0,0-3.13,1.66,3.9,3.9,0,0,0-.39,3.64l4.8,12.06a1.87,1.87,0,0,1-.61,2.21l-10.63,8a4.66,4.66,0,0,0-.91,0,4.75,4.75,0,0,0-2.07.78,13.64,13.64,0,0,1-1.94,1,17,17,0,0,1-5.11,1.21,1,1,0,0,0-.91,1.08,1,1,0,0,0,1.08.92,19.31,19.31,0,0,0,5.7-1.36,15.54,15.54,0,0,0,2.19-1.09,2.87,2.87,0,0,1,1.3-.52c1.19-.15,1.92.42,2.93,1.2a7.6,7.6,0,0,0,3.87,1.86A6,6,0,0,0,31,43a5.78,5.78,0,0,1,3.58-1.56,6.11,6.11,0,0,1,4,1.56,7.06,7.06,0,0,0,4.2,1.71,5.48,5.48,0,0,0,.88-.07,7.35,7.35,0,0,0,4-2.2c.94-.86,1.47-1.3,2.32-1.17a3.06,3.06,0,0,1,1.57.94,8.74,8.74,0,0,0,3.21,1.93,9.91,9.91,0,0,0,4.33.41A1,1,0,0,0,60,43.42,1,1,0,0,0,58.88,42.54ZM50.76,25.2a5.43,5.43,0,1,1-5.29,5.43A5.36,5.36,0,0,1,50.76,25.2ZM46.34,41a5.39,5.39,0,0,1-2.92,1.69c-1.48.23-2.43-.44-3.63-1.29a8,8,0,0,0-5.24-1.93,7.75,7.75,0,0,0-4.74,2c-1.06.82-1.83,1.42-3.2,1.25a5.72,5.72,0,0,1-2.89-1.45,13.17,13.17,0,0,0-1.18-.85l9.53-7.14a3.89,3.89,0,0,0,1.27-4.55l-4.8-12.06a1.86,1.86,0,0,1,.19-1.77A1.73,1.73,0,0,1,30.2,14H47.39a2.44,2.44,0,0,1,0,4.88H38.71a2.4,2.4,0,0,0-2.11,1.27,2.46,2.46,0,0,0,.12,2.51L48,39.69A8.53,8.53,0,0,0,46.34,41Z"/><path d="M54.57,49.83a8.1,8.1,0,0,1-3.46-.32A6.76,6.76,0,0,1,48.59,48,4.87,4.87,0,0,0,46,46.56c-1.83-.28-3,.76-4,1.67a5.49,5.49,0,0,1-2.93,1.7c-1.48.22-2.42-.45-3.62-1.29a8.09,8.09,0,0,0-5.24-1.94,7.69,7.69,0,0,0-4.74,2c-1.06.82-1.84,1.41-3.2,1.24a5.72,5.72,0,0,1-2.89-1.45A5.65,5.65,0,0,0,15,46.86a4.75,4.75,0,0,0-2.07.78,12.64,12.64,0,0,1-1.94,1A17,17,0,0,1,5.9,49.82a1,1,0,0,0,.16,2,19.14,19.14,0,0,0,5.71-1.36A15.57,15.57,0,0,0,14,49.37a2.84,2.84,0,0,1,1.29-.52c1.2-.15,1.93.42,2.94,1.2a7.48,7.48,0,0,0,3.87,1.86,5.91,5.91,0,0,0,4.66-1.65A5.8,5.8,0,0,1,30.3,48.7a6.08,6.08,0,0,1,4,1.57A7.12,7.12,0,0,0,38.53,52a5.48,5.48,0,0,0,.88-.07,7.34,7.34,0,0,0,4-2.19c.94-.86,1.46-1.31,2.32-1.17a3,3,0,0,1,1.57.93,8.74,8.74,0,0,0,3.21,1.94,10,10,0,0,0,4.32.4,1,1,0,1,0-.23-2Z"/><path d="M12.83,21.22h7.88a1,1,0,0,0,0-2H12.83a1,1,0,1,0,0,2Z"/><path d="M8.93,25.15h7.84a1,1,0,1,0,0-2H8.93a1,1,0,0,0,0,2Z"/><path d="M19.71,24.15a1,1,0,0,0,1,1h3.21a1,1,0,0,0,0-2H20.71A1,1,0,0,0,19.71,24.15Z"/><path d="M18.86,29.07a1,1,0,0,0,0-2H5a1,1,0,0,0,0,2Z"/></svg>
