<svg id="Line_copy" height="512" viewBox="0 0 256 256" width="512" xmlns="http://www.w3.org/2000/svg" data-name="Line copy"><path d="m219.2918 37.15c-13.6475-13.6475-32.7261-20.0479-53.7324-18.0361-20.2632 1.9453-39.9854 11.58-55.5342 27.13s-25.1846 35.2705-27.13 55.5332a78.3773 78.3773 0 0 0 -.3452 9.0352c-6.626 32.8623-15.3433 56.6241-24.6972 67.4648l-39.6128 39.6119a8.4993 8.4993 0 0 0 0 12.0205l8.292 8.292a8.51 8.51 0 0 0 12.0205 0l39.6155-39.6155c10.8427-9.3527 34.6021-18.0688 67.4612-24.6941a79.33 79.33 0 0 0 9.0347-.3457c20.2612-1.9443 39.9839-11.5791 55.5342-27.13 15.55-15.5488 25.1846-35.2705 27.13-55.5332 2.0159-21.0037-4.3894-40.0867-18.0363-53.733zm-184.981 196.81a2.5038 2.5038 0 0 1 -3.5361 0l-8.2915-8.292a2.5009 2.5009 0 0 1 0-3.5361l35.89-35.89 11.8268 11.8276zm197.0449-143.651c-1.8125 18.88-10.833 37.2988-25.3994 51.8652s-32.9873 23.5879-51.8652 25.3994a72.3131 72.3131 0 0 1 -8.6528.3125 2.8347 2.8347 0 0 0 -.665.0576c-24.1793 4.8563-55.3922 13.2207-70.3077 25.9053l-4.978-4.9785a3 3 0 0 0 2.7744-.48c9.8477-7.6455 26.0356-14.5439 48.1138-20.5039a3 3 0 0 0 .4912-5.6133 55.4143 55.4143 0 0 1 -26.6982-26.6982 3 3 0 0 0 -5.6128.4912c-5.961 22.0776-12.8595 38.2661-20.5035 48.1137a2.9988 2.9988 0 0 0 -.481 2.7754l-4.979-4.9795c12.6851-14.915 21.0493-46.1279 25.9058-70.3076a3.0118 3.0118 0 0 0 .0576-.665 72.0937 72.0937 0 0 1 .312-8.6523c1.8125-18.88 10.833-37.2988 25.4-51.8652s32.9854-23.5869 51.8647-25.3994c19.1851-1.8477 36.5581 3.9482 48.917 16.3057 12.3569 12.3573 18.1479 29.7294 16.3061 48.9169zm-151.3349 86.1123c4.4448-8.4346 8.5645-19.0283 12.3188-31.6885a61.4522 61.4522 0 0 0 19.37 19.3691c-12.661 3.7549-23.2548 7.8741-31.6888 12.3194z"/><path d="m120.3255 56.5433c-26.9526 26.9521-31.0317 66.7285-9.0937 88.666 9.2368 9.2373 21.8179 14.1445 35.9487 14.1445a63.6683 63.6683 0 0 0 6.8257-.3721c16.6416-1.792 32.94-9.9131 45.8926-22.8652 26.9521-26.9521 31.0313-66.7285 9.0928-88.666s-61.714-17.8583-88.6661 9.0928zm70.6845-13.8762a41.1344 41.1344 0 0 1 11.53 6.9926l-7.9032 7.9033-9.2611-9.2611zm-46.1463 46.1461 9.2615-9.2615 9.2614 9.2613-9.2615 9.2615zm5.0192 13.5035-9.2615 9.2615-9.2614-9.2614 9.2615-9.2615zm17.7461-9.2613 9.2612 9.2613-9.2615 9.2615-9.2612-9.2612zm4.2422-4.2422 9.2616-9.2618 9.2614 9.2614-9.2617 9.2617zm9.2612-17.7465-9.2611-9.2612 9.2616-9.2616 9.2612 9.2612zm-4.2424 4.2424-9.2616 9.2618-9.2611-9.2609 9.2617-9.2617zm-22.7651-4.2417-9.2616-9.2615 9.2617-9.2617 9.2616 9.2615zm-4.242 4.2426-9.2615 9.2615-9.2614-9.2621 9.2615-9.2614zm-13.5036 13.5032-9.2615 9.2615-9.2616-9.2617 9.2615-9.2615zm0 27.0073-9.2616 9.2618-9.2615-9.2615 9.2617-9.2617zm4.2424 4.2424 9.2612 9.2612-9.2617 9.2617-9.2611-9.2611zm4.2422-4.2422 9.2615-9.2615 9.2612 9.2612-9.2615 9.2615zm22.7649 4.2419 9.2615 9.2617-9.2615 9.2615-9.2615-9.2617zm4.2422-4.2421 9.2615-9.2615 9.2617 9.2615-9.2617 9.2616zm13.5037-13.5037 9.2617-9.2617 9.2617 9.2615-9.2617 9.2617zm0-27.0075 9.2617-9.2616 9.2615 9.2615-9.2617 9.2616zm-.8069-34.6846-3.4351 3.435-4.6367-4.6368a49.3438 49.3438 0 0 1 8.0719 1.2018zm-17.51-1.0137c.3525-.0368.7026-.0571 1.0542-.0873l8.7781 8.7781-9.2616 9.2616-9.2616-9.2615zm-10.5423 2.059-2.39 2.39-1.2406-1.2407c1.208-.4193 2.4181-.8053 3.6306-1.1493zm-9.6887 3.5762 3.0563 3.0563-9.2617 9.2617-5.57-5.57a74.0765 74.0765 0 0 1 11.7754-6.7485zm-22.2592 15.54q2.74-2.74 5.6577-5.1334l6.1538 6.1537-9.2615 9.2614-6.2739-6.274c1.1878-1.3639 2.4206-2.705 3.7239-4.0084zm-7.51 8.7064 5.8174 5.8174-9.2615 9.2615-3.6135-3.6146a75.0386 75.0386 0 0 1 7.0581-11.465zm-9.644 17.3632 1.9578 1.9579-3.9229 3.9228q.8384-2.95 1.9656-5.8813zm6.2 6.2 9.2616 9.2617-9.2617 9.2617-9.2616-9.2617zm-10.5212 16.4866 6.2789 6.279-4.9662 4.9661a50.3846 50.3846 0 0 1 -1.3123-11.2457zm8.8289 27.3519a41.376 41.376 0 0 1 -5.4683-9.67l7.1605-7.1606 9.2616 9.2615-9.2615 9.2615zm7.6123 7.6122-1.6775-1.6775 9.2615-9.2615 9.261 9.261-7.1664 7.1663a41.33 41.33 0 0 1 -9.6783-5.4889zm16.1261 7.5252 4.9611-4.9609 6.2651 6.2653a50.2065 50.2065 0 0 1 -11.2259-1.305zm18.4647.0585-9.2615-9.2617 9.2617-9.2617 9.2615 9.2617zm9.5886-1.1041 3.9153-3.9154 1.96 1.96q-2.9083 1.1193-5.8749 1.9548zm11.7751-4.54-3.6177-3.6176 9.2615-9.2615 5.8218 5.8217a74.6348 74.6348 0 0 1 -11.4652 7.0569zm20.1675-14.5712c-1.2986 1.2986-2.6393 2.5341-4.0056 3.7258l-6.2759-6.2759 9.2617-9.2616 6.1467 6.1467c-1.5993 1.9407-3.2991 3.8371-5.1265 5.6645zm8.7942-10.482-5.5718-5.5719 9.2617-9.2617 3.062 3.0621a74.1034 74.1034 0 0 1 -6.7517 11.771zm9.1876-17.82-1.2555-1.2556 2.3922-2.3923c-.3454 1.217-.7152 2.4338-1.1363 3.6471zm3.1906-14.186-8.688 8.6875-9.2617-9.2615 9.2617-9.2615 8.7827 8.7828c-.03.3505-.0577.7005-.0943 1.0519zm.1887-9.4422-4.6348-4.6348 3.4358-3.4358a49.3547 49.3547 0 0 1 1.1994 8.0698zm-8.877-8.877-9.2616-9.2615 7.9057-7.9062a41.13 41.13 0 0 1 6.9867 11.5366z"/><path d="m179.634 177.726a33.66 33.66 0 1 0 47.6021 0 33.6971 33.6971 0 0 0 -47.6021 0zm4.2422 4.2422a27.5642 27.5642 0 0 1 19.3215-8.0822 27.5975 27.5975 0 0 1 -27.4041 27.4026 27.5671 27.5671 0 0 1 8.0826-19.3205zm39.1177 39.1172a27.5941 27.5941 0 0 1 -20.8455 8.0582 27.6162 27.6162 0 0 1 27.617-28.9336q.6432 0 1.286.0306a27.595 27.595 0 0 1 -8.0575 20.8447zm-17.03-17.0293a33.5534 33.5534 0 0 0 -9.8354 24.135 27.5635 27.5635 0 0 1 -19.7347-20.9186 33.5705 33.5705 0 0 0 32.7867-32.7865 27.5609 27.5609 0 0 1 20.9184 19.734 33.553 33.553 0 0 0 -24.1348 9.836z"/></svg>