<svg width="512" height="512" viewBox="0 0 512 512" fill="none" xmlns="http://www.w3.org/2000/svg">
<path d="M143.194 218.977L189.945 162.733C192.593 159.547 192.157 154.819 188.971 152.171C185.787 149.524 181.057 149.96 178.409 153.145L138.335 201.356L129.576 187.128C127.405 183.601 122.786 182.5 119.257 184.673C115.73 186.845 114.631 191.465 116.802 194.991L131.038 218.114C133.73 222.484 139.916 222.921 143.194 218.977Z" fill="black"/>
<path d="M116.804 293.991L131.04 317.114C133.73 321.484 139.916 321.921 143.194 317.976L189.945 261.732C192.593 258.546 192.157 253.818 188.971 251.17C185.787 248.523 181.057 248.958 178.409 252.144L138.335 300.355L129.576 286.127C127.405 282.6 122.786 281.499 119.257 283.672C115.731 285.845 114.632 290.465 116.804 293.991Z" fill="black"/>
<path d="M116.804 393.659L131.04 416.782C133.73 421.152 139.916 421.589 143.194 417.644L189.945 361.4C192.593 358.214 192.157 353.486 188.971 350.838C185.787 348.191 181.057 348.626 178.409 351.812L138.335 400.023L129.576 385.795C127.405 382.268 122.786 381.168 119.257 383.34C115.731 385.513 114.632 390.133 116.804 393.659Z" fill="black"/>
<path d="M448.5 383.405C444.358 383.405 441 386.762 441 390.905V485.5C441 491.841 435.841 497 429.5 497H82.5C76.159 497 71 491.841 71 485.5V116.809C71 112.666 67.642 109.309 63.5 109.309C59.358 109.309 56 112.666 56 116.809V485.5C56 500.112 67.888 512 82.5 512H429.5C444.112 512 456 500.112 456 485.5V390.905C456 386.763 452.642 383.405 448.5 383.405Z" fill="black"/>
<path d="M429.5 57.791H392.812V26.8C392.812 12.023 380.79 0 366.012 0C351.234 0 339.212 12.022 339.212 26.8V57.791H282.8V26.8C282.8 12.022 270.777 0 256 0C241.223 0 229.2 12.022 229.2 26.8V57.791H172.787V26.8C172.787 12.023 160.765 0 145.987 0C131.21 0 119.187 12.022 119.187 26.8V57.791H82.5C67.888 57.791 56 69.679 56 84.291V121.809C56 125.952 59.358 129.309 63.5 129.309C67.642 129.309 71 125.952 71 121.809V84.291C71 77.95 76.159 72.791 82.5 72.791H119.187V84.7C119.187 99.477 131.209 111.5 145.987 111.5C160.765 111.5 172.787 99.478 172.787 84.7V72.791H229.2V84.7C229.2 99.477 241.222 111.5 256 111.5C270.778 111.5 282.8 99.478 282.8 84.7V72.791H339.213V84.7C339.213 99.477 351.235 111.5 366.013 111.5C380.79 111.5 392.813 99.478 392.813 84.7V72.791H429.5C435.841 72.791 441 77.95 441 84.291V395.905C441 400.048 444.358 403.405 448.5 403.405C452.642 403.405 456 400.048 456 395.905V84.291C456 69.679 444.112 57.791 429.5 57.791ZM157.788 84.7C157.788 91.207 152.495 96.5 145.988 96.5C139.482 96.5 134.188 91.207 134.188 84.7C134.188 68.713 134.188 31.804 134.188 26.8C134.188 20.293 139.481 15 145.988 15C152.495 15 157.788 20.293 157.788 26.8V84.7ZM267.8 84.7C267.8 91.207 262.507 96.5 256 96.5C249.493 96.5 244.2 91.207 244.2 84.7C244.2 68.713 244.2 31.804 244.2 26.8C244.2 20.293 249.493 15 256 15C262.507 15 267.8 20.293 267.8 26.8V84.7ZM377.813 84.7C377.813 91.207 372.52 96.5 366.013 96.5C359.506 96.5 354.213 91.207 354.213 84.7C354.213 68.713 354.213 31.804 354.213 26.8C354.213 20.293 359.506 15 366.013 15C372.519 15 377.813 20.293 377.813 26.8V84.7Z" fill="black"/>
<path d="M221.739 225.184H379.739C392.697 225.184 403.239 214.642 403.239 201.684C403.239 188.726 392.697 178.184 379.739 178.184H221.739C208.781 178.184 198.239 188.726 198.239 201.684C198.239 214.642 208.781 225.184 221.739 225.184ZM221.739 193.184H379.739C384.426 193.184 388.239 196.997 388.239 201.684C388.239 206.371 384.426 210.184 379.739 210.184H221.739C217.052 210.184 213.239 206.371 213.239 201.684C213.239 196.997 217.052 193.184 221.739 193.184Z" fill="black"/>
<path d="M221.739 324.396H379.739C392.697 324.396 403.239 313.854 403.239 300.896C403.239 287.938 392.697 277.396 379.739 277.396H221.739C208.781 277.396 198.239 287.938 198.239 300.896C198.239 313.854 208.781 324.396 221.739 324.396ZM221.739 292.396H379.739C384.426 292.396 388.239 296.209 388.239 300.896C388.239 305.583 384.426 309.396 379.739 309.396H221.739C217.052 309.396 213.239 305.583 213.239 300.896C213.239 296.209 217.052 292.396 221.739 292.396Z" fill="black"/>
<path d="M221.739 423.607H379.739C392.697 423.607 403.239 413.065 403.239 400.107C403.239 387.149 392.697 376.607 379.739 376.607H221.739C208.781 376.607 198.239 387.149 198.239 400.107C198.239 413.065 208.781 423.607 221.739 423.607ZM221.739 391.607H379.739C384.426 391.607 388.239 395.42 388.239 400.107C388.239 404.794 384.426 408.607 379.739 408.607H221.739C217.052 408.607 213.239 404.794 213.239 400.107C213.239 395.42 217.052 391.607 221.739 391.607Z" fill="black"/>
</svg>
