<?xml version="1.0" encoding="UTF-8"?>
<svg xmlns="http://www.w3.org/2000/svg" viewBox="0 0 64 64" width="512" height="512"><g id="_26-Toiletries" data-name="26-Toiletries"><path d="M61.832,30.16016A1.001,1.001,0,0,0,62,29.60547V14a2.99257,2.99257,0,0,0-5.81573-1H51a.99974.99974,0,0,0-1,1V26a.99974.99974,0,0,0,1,1h5v1.0918l-1.832,2.748a1.001,1.001,0,0,0-.168.55469V34H48.92609l-.929-12.07715a.99486.99486,0,0,0-.19727-.52246l-2.85351-3.80566-.96-5.75879A.99985.99985,0,0,0,43,11H39a.99985.99985,0,0,0-.98633.83594l-.96,5.75879L34.2002,21.40039a.99486.99486,0,0,0-.19727.52246L33.07391,34H32a.99989.99989,0,0,0-.98828,1.15234L32.06537,42H29V25a7.00818,7.00818,0,0,0-7-7V15a3.00328,3.00328,0,0,0-3-3V8h2.46484l2.207,2.207A3.12121,3.12121,0,0,0,28.08594,5.793L25.75732,3.46484A4.96815,4.96815,0,0,0,22.22168,2H10a3,3,0,0,0,0,6h2v4a3.00328,3.00328,0,0,0-3,3v3a7.00818,7.00818,0,0,0-7,7V59a3.00328,3.00328,0,0,0,3,3H55.26562a2.9729,2.9729,0,0,0,2.96778-2.44238l3.75488-24.40528A.99989.99989,0,0,0,61,34H60V32.9082ZM56,21H52V19h4Zm0-6v2H52V15ZM52,25V23h4v2ZM42.15283,13l.66681,4H39.18036l.66681-4Zm-3.65326,6h5.00086l1.49975,2H36.99982ZM35.926,23H46.074l.84606,11H35.0799ZM9,5a1.001,1.001,0,0,1,1-1H22.22168a2.98263,2.98263,0,0,1,2.12158.87891L26.67188,7.207A1.12143,1.12143,0,0,1,25.08594,8.793l-2.5-2.5a1.00014,1.00014,0,0,0-.707-.293H10A1.001,1.001,0,0,1,9,5Zm5,3h3v4H14Zm-3,7a1.001,1.001,0,0,1,1-1h7a1.001,1.001,0,0,1,1,1v3H11ZM4,59V25a5.00588,5.00588,0,0,1,5-5H22a5.00588,5.00588,0,0,1,5,5V42H24V29a3.00328,3.00328,0,0,0-3-3H10a3.00328,3.00328,0,0,0-3,3V51a3.00328,3.00328,0,0,0,3,3h7v3a4.95129,4.95129,0,0,0,1.02557,3H5A1.001,1.001,0,0,1,4,59ZM17,47v5H10a1.001,1.001,0,0,1-1-1V29a1.001,1.001,0,0,1,1-1H21a1.001,1.001,0,0,1,1,1V42A5.00588,5.00588,0,0,0,17,47Zm5,13a3.00328,3.00328,0,0,1-3-3V47a3.00328,3.00328,0,0,1,3-3H40a3.00328,3.00328,0,0,1,3,3V57a3.00328,3.00328,0,0,1-3,3Zm34.25684-.74707A.96486.96486,0,0,1,55.26562,60H43.97443A4.95129,4.95129,0,0,0,45,57V47a5.00588,5.00588,0,0,0-5-5H34.08881l-.92328-6H59.83447ZM56,34V31.69727l1.832-2.748A1.00091,1.00091,0,0,0,58,28.39453V14a1,1,0,0,1,2,0V29.30273l-1.832,2.74805a1.00091,1.00091,0,0,0-.168.55469V34ZM39,47H23a.99974.99974,0,0,0-1,1v8a.99974.99974,0,0,0,1,1H39a.99974.99974,0,0,0,1-1V48A.99974.99974,0,0,0,39,47Zm-1,8H24V49H38Z"/></g></svg>
