<svg width="512" height="512" viewBox="0 0 512 512" fill="none" xmlns="http://www.w3.org/2000/svg">
<path d="M334.404 411.095H302.618C298.448 411.095 295.068 407.715 295.068 403.545V221.916C295.068 209.796 304.893 199.971 317.013 199.971H320.01C332.13 199.971 341.955 209.796 341.955 221.916V403.544C341.954 407.714 338.574 411.095 334.404 411.095Z" stroke="black" stroke-width="15" stroke-miterlimit="10" stroke-linecap="round" stroke-linejoin="round"/>
<path d="M318.511 199.971V164.209" stroke="black" stroke-width="15" stroke-miterlimit="10" stroke-linecap="round" stroke-linejoin="round"/>
<path d="M381.111 411.095H349.325C345.155 411.095 341.775 407.715 341.775 403.545V221.916C341.775 209.796 351.6 199.971 363.72 199.971H366.717C378.837 199.971 388.662 209.796 388.662 221.916V403.544C388.661 407.714 385.281 411.095 381.111 411.095Z" stroke="black" stroke-width="15" stroke-miterlimit="10" stroke-linecap="round" stroke-linejoin="round"/>
<path d="M365.218 199.971V164.209" stroke="black" stroke-width="15" stroke-miterlimit="10" stroke-linecap="round" stroke-linejoin="round"/>
<path d="M86.123 221.252V19.551C86.123 12.895 91.518 7.5 98.174 7.5H256.032V472.792H95.661C90.393 472.792 86.123 468.522 86.123 463.254V216.252" stroke="black" stroke-width="15" stroke-miterlimit="10" stroke-linecap="round" stroke-linejoin="round"/>
<path d="M425.876 307.11V463.254C425.876 468.522 421.606 472.792 416.338 472.792H255.967V7.5H413.825C420.481 7.5 425.876 12.895 425.876 19.551V322.11" stroke="black" stroke-width="15" stroke-miterlimit="10" stroke-linecap="round" stroke-linejoin="round"/>
<path d="M131.417 504.5H114.115C107.699 504.5 102.498 499.299 102.498 492.883V472.793H143.035V492.883C143.035 499.299 137.833 504.5 131.417 504.5Z" stroke="black" stroke-width="15" stroke-miterlimit="10" stroke-linecap="round" stroke-linejoin="round"/>
<path d="M397.885 504.5H380.583C374.167 504.5 368.966 499.299 368.966 492.883V472.793H409.503V492.883C409.502 499.299 404.301 504.5 397.885 504.5Z" stroke="black" stroke-width="15" stroke-miterlimit="10" stroke-linecap="round" stroke-linejoin="round"/>
<path d="M210.913 193.98V318.02" stroke="black" stroke-width="15" stroke-miterlimit="10" stroke-linecap="round" stroke-linejoin="round"/>
<path d="M425.876 129.595H255.967V164.21H425.876V129.595Z" stroke="black" stroke-width="15" stroke-miterlimit="10" stroke-linecap="round" stroke-linejoin="round"/>
<path d="M373.693 129.595H308.151C298.596 129.595 290.851 121.849 290.851 112.295C290.851 102.74 298.597 94.995 308.151 94.995H373.693C383.248 94.995 390.993 102.741 390.993 112.295C390.993 121.849 383.247 129.595 373.693 129.595Z" stroke="black" stroke-width="15" stroke-miterlimit="10" stroke-linecap="round" stroke-linejoin="round"/>
<path d="M373.693 94.994H308.151C298.596 94.994 290.851 87.248 290.851 77.694C290.851 68.139 298.597 60.394 308.151 60.394H373.693C383.248 60.394 390.993 68.139 390.993 77.694C390.993 87.249 383.247 94.994 373.693 94.994Z" stroke="black" stroke-width="15" stroke-miterlimit="10" stroke-linecap="round" stroke-linejoin="round"/>
</svg>
