<svg width="512" height="512" viewBox="0 0 512 512" fill="none" xmlns="http://www.w3.org/2000/svg">
<g clip-path="url(#clip0_7638_25175)">
<path d="M504.412 497.004C494.685 497.004 485.54 493.216 478.662 486.337C458.618 466.293 426.002 466.292 405.956 486.337C391.907 500.386 368.505 500.386 354.456 486.337C334.622 466.502 301.584 466.504 281.75 486.337C267.552 500.535 244.449 500.534 230.25 486.336C210.205 466.291 177.589 466.291 157.544 486.337C143.346 500.535 120.243 500.534 106.044 486.336C86.0001 466.292 53.3841 466.291 33.3381 486.336C26.4601 493.214 17.3151 497.002 7.58806 497.002C3.44706 497.002 0.0910645 500.359 0.0910645 504.499C0.0910645 508.64 3.44806 511.996 7.58806 511.996C21.3201 511.996 34.2311 506.648 43.9411 496.937C58.1391 482.739 81.2421 482.74 95.4411 496.938C115.486 516.983 148.102 516.983 168.147 496.937C182.345 482.739 205.448 482.74 219.647 496.938C239.692 516.983 272.307 516.982 292.353 496.937C306.552 482.739 329.654 482.739 343.853 496.937C363.686 516.771 396.725 516.771 416.559 496.937C430.757 482.739 453.86 482.739 468.059 496.937C477.769 506.647 490.68 511.995 504.412 511.995C508.553 511.995 511.909 508.638 511.909 504.498C511.909 500.361 508.552 497.004 504.412 497.004Z" fill="black"/>
<path d="M7.58806 459.975C21.3201 459.975 34.2311 454.627 43.9411 444.917C57.9901 430.868 81.3921 430.869 95.4411 444.917C115.486 464.962 148.102 464.961 168.147 444.917C182.345 430.719 205.447 430.718 219.647 444.917C239.482 464.752 272.519 464.75 292.353 444.916C306.552 430.718 329.654 430.718 343.853 444.916C363.598 464.66 396.749 464.726 416.559 444.916C430.757 430.718 453.86 430.718 468.059 444.916C477.769 454.626 490.68 459.974 504.412 459.974C508.553 459.974 511.909 456.617 511.909 452.477C511.909 448.337 508.552 444.98 504.412 444.98C495.689 444.98 487.434 441.933 480.862 436.343V92.512C480.862 88.371 477.505 85.015 473.365 85.015C469.224 85.015 465.868 88.372 465.868 92.512V155.184H449.807V116.177C449.807 94.921 432.514 77.628 411.258 77.628C390.002 77.628 372.709 94.921 372.709 116.177V155.184H356.656V61.747H465.868V99.844C465.868 103.985 469.225 107.341 473.365 107.341C477.506 107.341 480.862 103.984 480.862 99.844V54.249C480.862 52.142 479.993 50.239 478.594 48.877L432.157 2.209C430.75 0.795 428.837 0 426.842 0H395.731C393.738 0 391.827 0.794 390.42 2.206L343.842 48.955C342.36 50.442 341.6 52.446 341.659 54.468V78.945C327.662 64.299 305.949 58.144 285.495 64.971L232.447 82.663V54.079C232.447 49.938 229.09 46.582 224.95 46.582H193.901C189.76 46.582 186.404 49.939 186.404 54.079V98.018L169.077 103.797C165.149 105.107 163.027 109.353 164.337 113.281C165.647 117.209 169.892 119.332 173.821 118.021L290.241 79.194C310.631 72.392 332.758 83.447 339.565 103.843C346.292 124.024 335.088 146.435 314.906 153.16L128.701 215.265C108.714 221.903 86.0011 210.471 79.3761 190.618C72.5731 170.227 83.6321 148.1 104.025 141.293L175.822 117.358C179.75 116.048 181.873 111.802 180.563 107.874C179.254 103.946 175.008 101.822 171.079 103.133L99.2801 127.07C71.0431 136.494 55.7331 167.131 65.1521 195.365C69.3251 207.871 77.7361 218.052 88.4711 224.531L178.852 282.902C155.401 290.722 123.046 300.395 97.0201 310.247C71.7181 319.825 57.6491 346.937 63.8131 373.023C45.3341 375.884 31.1431 391.9 31.1431 411.167C31.1431 415.308 34.5001 418.664 38.6401 418.664C42.7801 418.664 46.1371 415.307 46.1371 411.167C46.1371 398.213 56.6261 387.663 69.5571 387.564C82.2001 409.604 109.372 419.899 133.435 411.861L186.404 394.196V419.826C175.836 421.37 165.66 426.199 157.544 434.315C143.346 448.513 120.243 448.513 106.044 434.315C86.0001 414.271 53.3841 414.269 33.3381 434.315C26.4601 441.193 17.3151 444.981 7.58806 444.981C3.44706 444.981 0.0910645 448.338 0.0910645 452.478C0.0910645 456.618 3.44806 459.975 7.58806 459.975ZM387.703 116.177C387.703 103.189 398.27 92.623 411.257 92.623C424.244 92.623 434.811 103.189 434.811 116.177V155.181H387.703V116.177ZM201.399 61.577H217.453V87.664L201.399 93.018V61.577ZM281.75 434.314C268.493 447.57 246.687 448.454 232.448 436.341V378.838L305.319 354.875C309.247 353.565 311.369 349.319 310.059 345.391C308.749 341.463 304.501 339.338 300.575 340.651L163.714 385.955C177.953 359.535 166.468 324.701 139.736 311.752L290.242 261.562C310.632 254.76 332.759 265.815 339.566 286.211C350.361 318.593 320.498 335.842 294.584 342.305C290.656 343.615 288.534 347.861 289.844 351.789C291.154 355.717 295.4 357.839 299.328 356.529C314.044 352.411 330.956 347.104 341.72 335.755V424.973C319.478 409.855 291.46 424.604 281.75 434.314ZM217.453 270.028L201.399 275.382V206.825L217.453 201.47V270.028ZM232.448 206.844L292.357 245.535C290.063 245.979 287.772 246.578 285.497 247.337L232.448 265.028V206.844ZM465.867 424.967C460.782 422.35 455.348 420.636 449.806 419.825V201.228H465.867V424.967ZM434.811 310.514H387.703V278.932H434.811V310.514ZM387.703 325.509H434.811V357.091H387.703V325.509ZM434.811 263.937H387.703V232.355H434.811V263.937ZM387.703 372.086H434.811V403.643H387.703V372.086ZM434.811 217.36H387.703V201.227H434.811V217.36ZM372.708 444.211C366.826 442.986 361.353 440.321 356.715 436.393V201.228H372.708V444.211ZM405.956 434.314C401.356 439.824 394.571 442.782 387.704 444.212V418.639H434.812C434.812 418.639 415.944 422.351 405.956 434.314ZM465.867 170.179V186.233H356.715V170.179H465.867ZM398.845 14.995H423.725L455.322 46.75H367.206L398.845 14.995ZM319.648 167.385C328.152 164.552 335.652 159.765 341.66 153.451L341.72 261.375C338.653 258.365 240.081 193.924 240.081 193.924L319.648 167.385ZM133.436 229.493L186.404 211.826V269.928L126.579 231.291C128.887 230.843 131.176 230.243 133.436 229.493ZM88.1321 387.561H116.268C120.409 387.561 123.765 384.204 123.765 380.064C123.765 375.924 120.408 372.567 116.268 372.567H79.2391C72.7251 352.292 83.7711 330.42 104.025 323.661C124.052 317.662 146.179 326.939 153.207 348.01C160.008 368.403 148.95 390.527 128.556 397.328C114.37 402.059 98.7561 398.72 88.1321 387.561ZM217.453 383.839V424.966C212.37 422.35 206.938 420.637 201.399 419.826V389.193L217.453 383.839Z" fill="black"/>
<path d="M38.8361 371.974C42.9771 371.974 46.3331 368.617 46.3331 364.477C46.3331 359.077 50.0551 356.56 52.5711 356.56C56.7121 356.56 60.0681 353.203 60.0681 349.063C60.0681 344.922 56.7111 341.566 52.5711 341.566C40.8641 341.566 31.3391 351.844 31.3391 364.477C31.3381 368.617 34.6951 371.974 38.8361 371.974Z" fill="black"/>
</g>
<defs>
<clipPath id="clip0_7638_25175">
<rect width="512" height="512" fill="white"/>
</clipPath>
</defs>
</svg>
