<?xml version="1.0" encoding="UTF-8"?>
<svg xmlns="http://www.w3.org/2000/svg" viewBox="0 0 64 64" width="512" height="512"><g id="wheel_chair" data-name="wheel chair"><path d="M22,30A14,14,0,1,0,36,44,14.01572,14.01572,0,0,0,22,30Zm9.1546,21.74054-4.26947-4.26947A5.96075,5.96075,0,0,0,27.90967,45h6.03967A11.93826,11.93826,0,0,1,31.1546,51.74054ZM10.05066,45h6.03967a5.96075,5.96075,0,0,0,1.02454,2.47107L12.8454,51.74054A11.93826,11.93826,0,0,1,10.05066,45Zm2.79474-8.74054,4.26947,4.26941A5.961,5.961,0,0,0,16.09033,43H10.05066A11.93826,11.93826,0,0,1,12.8454,36.25946Zm12.62567,2.85541A5.96075,5.96075,0,0,0,23,38.09033V32.05066a11.93826,11.93826,0,0,1,6.74054,2.79474ZM26,44a4,4,0,1,1-4-4A4.00458,4.00458,0,0,1,26,44Zm-5-5.90967a5.96075,5.96075,0,0,0-2.47107,1.02454L14.25946,34.8454A11.93826,11.93826,0,0,1,21,32.05066Zm-2.47107,10.7948A5.96075,5.96075,0,0,0,21,49.90967v6.03967a11.93826,11.93826,0,0,1-6.74054-2.79474ZM23,49.90967a5.96075,5.96075,0,0,0,2.47107-1.02454l4.26947,4.26947A11.93826,11.93826,0,0,1,23,55.94934ZM27.90967,43a5.961,5.961,0,0,0-1.02454-2.47113l4.26947-4.26941A11.93826,11.93826,0,0,1,33.94934,43Z"/><path d="M51,58a3,3,0,1,1,3-3A3.00328,3.00328,0,0,1,51,58Zm0-4a1,1,0,1,0,1,1A1.0013,1.0013,0,0,0,51,54Z"/><path d="M59,41H54a7.00476,7.00476,0,0,0-6-6.92017V33a5.00588,5.00588,0,0,0-5-5H42V21a4,4,0,0,0,0-8H16V9A7.00787,7.00787,0,0,0,9,2H5A3,3,0,0,0,5,8H9a1.0013,1.0013,0,0,1,1,1V30.62164A18.00988,18.00988,0,1,0,39.5365,40H47a1.0013,1.0013,0,0,1,1,1v7.685a7,7,0,1,0,6,0V47h5a3,3,0,0,0,0-6ZM43,30a3.00328,3.00328,0,0,1,3,3v1H42V30ZM16,15H42a2,2,0,0,1,0,4H16ZM33.28888,30H36v2.71112A18.1358,18.1358,0,0,0,33.28888,30ZM40,21V34H38V21Zm-4,0v7H30.20868A17.77018,17.77018,0,0,0,16,27.05017V21ZM9,6H5A1,1,0,0,1,5,4H9a5.00588,5.00588,0,0,1,5,5V27.89935a18.01326,18.01326,0,0,0-2,1.14429V9A3.00328,3.00328,0,0,0,9,6ZM22,60A16,16,0,1,1,38,44,16.01833,16.01833,0,0,1,22,60ZM47,38H38.94983a17.86789,17.86789,0,0,0-.84918-2H47a5.00588,5.00588,0,0,1,5,5v7.07983a6.30322,6.30322,0,0,0-2,0V41A3.00328,3.00328,0,0,0,47,38Zm9,17a5,5,0,1,1-5-5A5.00588,5.00588,0,0,1,56,55Zm3-10H54V43h5a1,1,0,0,1,0,2Z"/></g></svg>
