<svg width="22" height="22" viewBox="0 0 22 22" fill="none" xmlns="http://www.w3.org/2000/svg">
<path d="M16.5 2.0625H5.5C3.60456 2.0625 2.0625 3.60456 2.0625 5.5V16.5C2.0625 18.3954 3.60456 19.9375 5.5 19.9375H16.5C18.3954 19.9375 19.9375 18.3954 19.9375 16.5V5.5C19.9375 3.60456 18.3954 2.0625 16.5 2.0625ZM18.5625 16.5C18.5625 17.6375 17.6375 18.5625 16.5 18.5625H5.5C4.36253 18.5625 3.4375 17.6375 3.4375 16.5V5.5C3.4375 4.36253 4.36253 3.4375 5.5 3.4375H16.5C17.6375 3.4375 18.5625 4.36253 18.5625 5.5V16.5Z" fill="black"/>
<path d="M15.125 6.1875H12.9449C12.5654 6.1875 12.2574 6.4955 12.2574 6.875C12.2574 7.2545 12.5654 7.5625 12.9449 7.5625H13.4351L7.5625 13.4956V12.9449C7.5625 12.5654 7.2545 12.2574 6.875 12.2574C6.4955 12.2574 6.1875 12.5654 6.1875 12.9449V15.125C6.1875 15.5045 6.4955 15.8125 6.875 15.8125H9.05575C9.43525 15.8125 9.74325 15.5045 9.74325 15.125C9.74325 14.7455 9.43525 14.4375 9.05575 14.4375H8.56488L14.4375 8.50472V8.9375C14.4375 9.317 14.7455 9.625 15.125 9.625C15.5045 9.625 15.8125 9.317 15.8125 8.9375V6.875C15.8125 6.4955 15.5045 6.1875 15.125 6.1875Z" fill="black"/>
</svg>
