<svg width="22" height="23" viewBox="0 0 22 23" fill="none" xmlns="http://www.w3.org/2000/svg">
<g clip-path="url(#clip0_3268_279)">
<path d="M1.01719 4.1952V4.19531V11.5C1.01719 11.5949 1.05489 11.6859 1.12199 11.753L1.12199 11.753C1.18909 11.8201 1.2801 11.8578 1.375 11.8578H20.625C20.7199 11.8578 20.8109 11.8201 20.878 11.753C20.9451 11.6859 20.9828 11.5949 20.9828 11.5V4.19531V4.1952C20.9824 3.87252 20.8541 3.56317 20.6259 3.33501C20.3978 3.10684 20.0884 2.9785 19.7657 2.97812H19.7656L2.23438 2.97812L2.23426 2.97813C1.91159 2.9785 1.60224 3.10684 1.37407 3.33501C1.14591 3.56317 1.01756 3.87252 1.01719 4.1952ZM20.2672 11.1422H1.73281L1.73281 4.19542C1.73281 4.1954 1.73281 4.19538 1.73281 4.19537C1.73297 4.06238 1.78587 3.93488 1.87991 3.84084C1.97396 3.74679 2.10147 3.69389 2.23448 3.69375H19.7655C19.7655 3.69375 19.7656 3.69375 19.7656 3.69375C19.8986 3.69391 20.0261 3.7468 20.1201 3.84084C20.2141 3.93489 20.267 4.06241 20.2672 4.19542V11.1422Z" fill="black"/>
<path d="M1.01719 4.1952V4.19531V11.5C1.01719 11.5949 1.05489 11.6859 1.12199 11.753L1.12199 11.753C1.18909 11.8201 1.2801 11.8578 1.375 11.8578H20.625C20.7199 11.8578 20.8109 11.8201 20.878 11.753C20.9451 11.6859 20.9828 11.5949 20.9828 11.5V4.19531V4.1952C20.9824 3.87252 20.8541 3.56317 20.6259 3.33501C20.3978 3.10684 20.0884 2.9785 19.7657 2.97812H19.7656L2.23438 2.97812L2.23426 2.97813C1.91159 2.9785 1.60224 3.10684 1.37407 3.33501C1.14591 3.56317 1.01756 3.87252 1.01719 4.1952ZM20.2672 11.1422H1.73281L1.73281 4.19542C1.73281 4.1954 1.73281 4.19538 1.73281 4.19537C1.73297 4.06238 1.78587 3.93488 1.87991 3.84084C1.97396 3.74679 2.10147 3.69389 2.23448 3.69375H19.7655C19.7655 3.69375 19.7656 3.69375 19.7656 3.69375C19.8986 3.69391 20.0261 3.7468 20.1201 3.84084C20.2141 3.93489 20.267 4.06241 20.2672 4.19542V11.1422Z" stroke="black" stroke-width="0.2"/>
<path d="M1.01719 4.1952V4.19531V11.5C1.01719 11.5949 1.05489 11.6859 1.12199 11.753L1.12199 11.753C1.18909 11.8201 1.2801 11.8578 1.375 11.8578H20.625C20.7199 11.8578 20.8109 11.8201 20.878 11.753C20.9451 11.6859 20.9828 11.5949 20.9828 11.5V4.19531V4.1952C20.9824 3.87252 20.8541 3.56317 20.6259 3.33501C20.3978 3.10684 20.0884 2.9785 19.7657 2.97812H19.7656L2.23438 2.97812L2.23426 2.97813C1.91159 2.9785 1.60224 3.10684 1.37407 3.33501C1.14591 3.56317 1.01756 3.87252 1.01719 4.1952ZM20.2672 11.1422H1.73281L1.73281 4.19542C1.73281 4.1954 1.73281 4.19538 1.73281 4.19537C1.73297 4.06238 1.78587 3.93488 1.87991 3.84084C1.97396 3.74679 2.10147 3.69389 2.23448 3.69375H19.7655C19.7655 3.69375 19.7656 3.69375 19.7656 3.69375C19.8986 3.69391 20.0261 3.7468 20.1201 3.84084C20.2141 3.93489 20.267 4.06241 20.2672 4.19542V11.1422Z" stroke="black" stroke-opacity="0.2" stroke-width="0.2"/>
<path d="M21.3125 17.8734H21.3126C21.5214 17.8732 21.7215 17.7902 21.8691 17.6425C22.0167 17.4949 22.0998 17.2948 22.1 17.0861V17.0859V12.3594V12.3593C22.0996 12.0366 21.9713 11.7272 21.7431 11.4991C21.515 11.2709 21.2056 11.1426 20.8829 11.1422H20.8828L1.11719 11.1422L1.11707 11.1422C0.794399 11.1426 0.485048 11.2709 0.256883 11.4991C0.028718 11.7272 -0.0996283 12.0366 -0.1 12.3593V12.3594L-0.1 17.0859L-0.0999999 17.0861C-0.0997525 17.2948 -0.016717 17.4949 0.130892 17.6425C0.278501 17.7902 0.478631 17.8732 0.687382 17.8734H0.6875H21.3125ZM0.762718 12.0049C0.856768 11.9109 0.984287 11.858 1.11729 11.8578H20.8827C20.8827 11.8578 20.8827 11.8578 20.8828 11.8578C21.0157 11.858 21.1432 11.9109 21.2373 12.0049C21.3313 12.099 21.3842 12.2265 21.3844 12.3595V17.0859C21.3844 17.105 21.3768 17.1233 21.3633 17.1368C21.3498 17.1502 21.3316 17.1578 21.3125 17.1578H0.6875C0.668437 17.1578 0.650155 17.1502 0.636677 17.1368C0.623197 17.1233 0.615625 17.105 0.615625 17.0859L0.615625 12.3595C0.615625 12.3595 0.615625 12.3594 0.615625 12.3594C0.615781 12.2264 0.66868 12.0989 0.762718 12.0049Z" fill="black"/>
<path d="M21.3125 17.8734H21.3126C21.5214 17.8732 21.7215 17.7902 21.8691 17.6425C22.0167 17.4949 22.0998 17.2948 22.1 17.0861V17.0859V12.3594V12.3593C22.0996 12.0366 21.9713 11.7272 21.7431 11.4991C21.515 11.2709 21.2056 11.1426 20.8829 11.1422H20.8828L1.11719 11.1422L1.11707 11.1422C0.794399 11.1426 0.485048 11.2709 0.256883 11.4991C0.028718 11.7272 -0.0996283 12.0366 -0.1 12.3593V12.3594L-0.1 17.0859L-0.0999999 17.0861C-0.0997525 17.2948 -0.016717 17.4949 0.130892 17.6425C0.278501 17.7902 0.478631 17.8732 0.687382 17.8734H0.6875H21.3125ZM0.762718 12.0049C0.856768 11.9109 0.984287 11.858 1.11729 11.8578H20.8827C20.8827 11.8578 20.8827 11.8578 20.8828 11.8578C21.0157 11.858 21.1432 11.9109 21.2373 12.0049C21.3313 12.099 21.3842 12.2265 21.3844 12.3595V17.0859C21.3844 17.105 21.3768 17.1233 21.3633 17.1368C21.3498 17.1502 21.3316 17.1578 21.3125 17.1578H0.6875C0.668437 17.1578 0.650155 17.1502 0.636677 17.1368C0.623197 17.1233 0.615625 17.105 0.615625 17.0859L0.615625 12.3595C0.615625 12.3595 0.615625 12.3594 0.615625 12.3594C0.615781 12.2264 0.66868 12.0989 0.762718 12.0049Z" stroke="black" stroke-width="0.2"/>
<path d="M21.3125 17.8734H21.3126C21.5214 17.8732 21.7215 17.7902 21.8691 17.6425C22.0167 17.4949 22.0998 17.2948 22.1 17.0861V17.0859V12.3594V12.3593C22.0996 12.0366 21.9713 11.7272 21.7431 11.4991C21.515 11.2709 21.2056 11.1426 20.8829 11.1422H20.8828L1.11719 11.1422L1.11707 11.1422C0.794399 11.1426 0.485048 11.2709 0.256883 11.4991C0.028718 11.7272 -0.0996283 12.0366 -0.1 12.3593V12.3594L-0.1 17.0859L-0.0999999 17.0861C-0.0997525 17.2948 -0.016717 17.4949 0.130892 17.6425C0.278501 17.7902 0.478631 17.8732 0.687382 17.8734H0.6875H21.3125ZM0.762718 12.0049C0.856768 11.9109 0.984287 11.858 1.11729 11.8578H20.8827C20.8827 11.8578 20.8827 11.8578 20.8828 11.8578C21.0157 11.858 21.1432 11.9109 21.2373 12.0049C21.3313 12.099 21.3842 12.2265 21.3844 12.3595V17.0859C21.3844 17.105 21.3768 17.1233 21.3633 17.1368C21.3498 17.1502 21.3316 17.1578 21.3125 17.1578H0.6875C0.668437 17.1578 0.650155 17.1502 0.636677 17.1368C0.623197 17.1233 0.615625 17.105 0.615625 17.0859L0.615625 12.3595C0.615625 12.3595 0.615625 12.3594 0.615625 12.3594C0.615781 12.2264 0.66868 12.0989 0.762718 12.0049Z" stroke="black" stroke-opacity="0.2" stroke-width="0.2"/>
<path d="M3.91016 20.0219L3.91027 20.0219C4.11903 20.0216 4.31915 19.9386 4.46676 19.791C4.61437 19.6434 4.69741 19.4432 4.69766 19.2345V19.2344V17.5156C4.69766 17.4207 4.65996 17.3297 4.59286 17.2626C4.52575 17.1955 4.43474 17.1578 4.33984 17.1578H2.19141C2.09651 17.1578 2.0055 17.1955 1.93839 17.2626C1.87129 17.3297 1.83359 17.4207 1.83359 17.5156L1.83359 19.2344L1.83359 19.2345C1.83384 19.4432 1.91688 19.6434 2.06449 19.791C2.21209 19.9386 2.41222 20.0216 2.62098 20.0219H2.62109L3.91016 20.0219ZM2.54922 19.2344V17.8734H3.98203V19.2344C3.98203 19.2534 3.97446 19.2717 3.96098 19.2852C3.9475 19.2987 3.92922 19.3063 3.91016 19.3063H2.62109C2.60203 19.3063 2.58375 19.2987 2.57027 19.2852C2.55679 19.2717 2.54922 19.2534 2.54922 19.2344Z" fill="black"/>
<path d="M3.91016 20.0219L3.91027 20.0219C4.11903 20.0216 4.31915 19.9386 4.46676 19.791C4.61437 19.6434 4.69741 19.4432 4.69766 19.2345V19.2344V17.5156C4.69766 17.4207 4.65996 17.3297 4.59286 17.2626C4.52575 17.1955 4.43474 17.1578 4.33984 17.1578H2.19141C2.09651 17.1578 2.0055 17.1955 1.93839 17.2626C1.87129 17.3297 1.83359 17.4207 1.83359 17.5156L1.83359 19.2344L1.83359 19.2345C1.83384 19.4432 1.91688 19.6434 2.06449 19.791C2.21209 19.9386 2.41222 20.0216 2.62098 20.0219H2.62109L3.91016 20.0219ZM2.54922 19.2344V17.8734H3.98203V19.2344C3.98203 19.2534 3.97446 19.2717 3.96098 19.2852C3.9475 19.2987 3.92922 19.3063 3.91016 19.3063H2.62109C2.60203 19.3063 2.58375 19.2987 2.57027 19.2852C2.55679 19.2717 2.54922 19.2534 2.54922 19.2344Z" stroke="black" stroke-width="0.2"/>
<path d="M3.91016 20.0219L3.91027 20.0219C4.11903 20.0216 4.31915 19.9386 4.46676 19.791C4.61437 19.6434 4.69741 19.4432 4.69766 19.2345V19.2344V17.5156C4.69766 17.4207 4.65996 17.3297 4.59286 17.2626C4.52575 17.1955 4.43474 17.1578 4.33984 17.1578H2.19141C2.09651 17.1578 2.0055 17.1955 1.93839 17.2626C1.87129 17.3297 1.83359 17.4207 1.83359 17.5156L1.83359 19.2344L1.83359 19.2345C1.83384 19.4432 1.91688 19.6434 2.06449 19.791C2.21209 19.9386 2.41222 20.0216 2.62098 20.0219H2.62109L3.91016 20.0219ZM2.54922 19.2344V17.8734H3.98203V19.2344C3.98203 19.2534 3.97446 19.2717 3.96098 19.2852C3.9475 19.2987 3.92922 19.3063 3.91016 19.3063H2.62109C2.60203 19.3063 2.58375 19.2987 2.57027 19.2852C2.55679 19.2717 2.54922 19.2534 2.54922 19.2344Z" stroke="black" stroke-opacity="0.2" stroke-width="0.2"/>
<path d="M19.3789 20.0219L19.379 20.0219C19.5878 20.0216 19.7879 19.9386 19.9355 19.791C20.0831 19.6434 20.1662 19.4432 20.1664 19.2345V19.2344V17.5156C20.1664 17.4207 20.1287 17.3297 20.0616 17.2626C19.9945 17.1955 19.9035 17.1578 19.8086 17.1578H17.6602C17.5653 17.1578 17.4742 17.1955 17.4071 17.2626C17.34 17.3297 17.3023 17.4207 17.3023 17.5156L17.3023 19.2344L17.3023 19.2345C17.3026 19.4432 17.3856 19.6434 17.5332 19.791C17.6808 19.9386 17.881 20.0216 18.0897 20.0219H18.0898L19.3789 20.0219ZM18.018 19.2344V17.8734H19.4508V19.2344C19.4508 19.2534 19.4432 19.2717 19.4297 19.2852C19.4163 19.2987 19.398 19.3063 19.3789 19.3063H18.0898C18.0708 19.3063 18.0525 19.2987 18.039 19.2852C18.0255 19.2717 18.018 19.2534 18.018 19.2344Z" fill="black"/>
<path d="M19.3789 20.0219L19.379 20.0219C19.5878 20.0216 19.7879 19.9386 19.9355 19.791C20.0831 19.6434 20.1662 19.4432 20.1664 19.2345V19.2344V17.5156C20.1664 17.4207 20.1287 17.3297 20.0616 17.2626C19.9945 17.1955 19.9035 17.1578 19.8086 17.1578H17.6602C17.5653 17.1578 17.4742 17.1955 17.4071 17.2626C17.34 17.3297 17.3023 17.4207 17.3023 17.5156L17.3023 19.2344L17.3023 19.2345C17.3026 19.4432 17.3856 19.6434 17.5332 19.791C17.6808 19.9386 17.881 20.0216 18.0897 20.0219H18.0898L19.3789 20.0219ZM18.018 19.2344V17.8734H19.4508V19.2344C19.4508 19.2534 19.4432 19.2717 19.4297 19.2852C19.4163 19.2987 19.398 19.3063 19.3789 19.3063H18.0898C18.0708 19.3063 18.0525 19.2987 18.039 19.2852C18.0255 19.2717 18.018 19.2534 18.018 19.2344Z" stroke="black" stroke-width="0.2"/>
<path d="M19.3789 20.0219L19.379 20.0219C19.5878 20.0216 19.7879 19.9386 19.9355 19.791C20.0831 19.6434 20.1662 19.4432 20.1664 19.2345V19.2344V17.5156C20.1664 17.4207 20.1287 17.3297 20.0616 17.2626C19.9945 17.1955 19.9035 17.1578 19.8086 17.1578H17.6602C17.5653 17.1578 17.4742 17.1955 17.4071 17.2626C17.34 17.3297 17.3023 17.4207 17.3023 17.5156L17.3023 19.2344L17.3023 19.2345C17.3026 19.4432 17.3856 19.6434 17.5332 19.791C17.6808 19.9386 17.881 20.0216 18.0897 20.0219H18.0898L19.3789 20.0219ZM18.018 19.2344V17.8734H19.4508V19.2344C19.4508 19.2534 19.4432 19.2717 19.4297 19.2852C19.4163 19.2987 19.398 19.3063 19.3789 19.3063H18.0898C18.0708 19.3063 18.0525 19.2987 18.039 19.2852C18.0255 19.2717 18.018 19.2534 18.018 19.2344Z" stroke="black" stroke-opacity="0.2" stroke-width="0.2"/>
<path d="M2.04844 10.2108V10.2109V11.5C2.04844 11.5949 2.08614 11.6859 2.15324 11.753C2.22034 11.8201 2.31135 11.8578 2.40625 11.8578H19.5938C19.6886 11.8578 19.7797 11.8201 19.8468 11.753C19.9139 11.6859 19.9516 11.5949 19.9516 11.5V10.2109V10.2108C19.9512 9.88815 19.8228 9.5788 19.5947 9.35063C19.3665 9.12247 19.0572 8.99412 18.7345 8.99375H18.7344L3.26562 8.99375L3.26551 8.99375C2.94284 8.99412 2.63349 9.12247 2.40532 9.35063C2.17716 9.5788 2.04881 9.88815 2.04844 10.2108ZM19.2359 10.211V11.1422H2.76406L2.76406 10.211C2.76406 10.211 2.76406 10.211 2.76406 10.211C2.76422 10.078 2.81712 9.95051 2.91116 9.85647C3.00521 9.76242 3.13272 9.70952 3.26573 9.70937H18.7343C18.7343 9.70937 18.7343 9.70938 18.7343 9.70938C18.8673 9.70953 18.9948 9.76243 19.0888 9.85647C19.1829 9.95052 19.2358 10.078 19.2359 10.211Z" fill="black"/>
<path d="M2.04844 10.2108V10.2109V11.5C2.04844 11.5949 2.08614 11.6859 2.15324 11.753C2.22034 11.8201 2.31135 11.8578 2.40625 11.8578H19.5938C19.6886 11.8578 19.7797 11.8201 19.8468 11.753C19.9139 11.6859 19.9516 11.5949 19.9516 11.5V10.2109V10.2108C19.9512 9.88815 19.8228 9.5788 19.5947 9.35063C19.3665 9.12247 19.0572 8.99412 18.7345 8.99375H18.7344L3.26562 8.99375L3.26551 8.99375C2.94284 8.99412 2.63349 9.12247 2.40532 9.35063C2.17716 9.5788 2.04881 9.88815 2.04844 10.2108ZM19.2359 10.211V11.1422H2.76406L2.76406 10.211C2.76406 10.211 2.76406 10.211 2.76406 10.211C2.76422 10.078 2.81712 9.95051 2.91116 9.85647C3.00521 9.76242 3.13272 9.70952 3.26573 9.70937H18.7343C18.7343 9.70937 18.7343 9.70938 18.7343 9.70938C18.8673 9.70953 18.9948 9.76243 19.0888 9.85647C19.1829 9.95052 19.2358 10.078 19.2359 10.211Z" stroke="black" stroke-width="0.2"/>
<path d="M2.04844 10.2108V10.2109V11.5C2.04844 11.5949 2.08614 11.6859 2.15324 11.753C2.22034 11.8201 2.31135 11.8578 2.40625 11.8578H19.5938C19.6886 11.8578 19.7797 11.8201 19.8468 11.753C19.9139 11.6859 19.9516 11.5949 19.9516 11.5V10.2109V10.2108C19.9512 9.88815 19.8228 9.5788 19.5947 9.35063C19.3665 9.12247 19.0572 8.99412 18.7345 8.99375H18.7344L3.26562 8.99375L3.26551 8.99375C2.94284 8.99412 2.63349 9.12247 2.40532 9.35063C2.17716 9.5788 2.04881 9.88815 2.04844 10.2108ZM19.2359 10.211V11.1422H2.76406L2.76406 10.211C2.76406 10.211 2.76406 10.211 2.76406 10.211C2.76422 10.078 2.81712 9.95051 2.91116 9.85647C3.00521 9.76242 3.13272 9.70952 3.26573 9.70937H18.7343C18.7343 9.70937 18.7343 9.70938 18.7343 9.70938C18.8673 9.70953 18.9948 9.76243 19.0888 9.85647C19.1829 9.95052 19.2358 10.078 19.2359 10.211Z" stroke="black" stroke-opacity="0.2" stroke-width="0.2"/>
<path d="M9.88252 9.70937H9.88237C9.79829 9.70923 9.71695 9.67949 9.65261 9.62537L9.88252 9.70937ZM9.88252 9.70937C9.90331 9.70937 9.92406 9.70758 9.94454 9.70403L9.94472 9.70399C9.99101 9.69587 10.0352 9.6787 10.0749 9.65348C10.1145 9.62826 10.1488 9.59548 10.1758 9.557L10.0939 9.49959L10.1758 9.557C10.2028 9.51852 10.2219 9.47511 10.2321 9.42924C10.2423 9.38336 10.2434 9.33593 10.2353 9.28965C10.0174 8.04909 10.0035 6.7054 10.1945 5.18023L9.88252 9.70937ZM3.5909 4.48938L3.59104 4.48939C5.64165 4.6939 7.63602 4.69467 9.51879 4.49192L9.51883 4.49192C9.61109 4.48202 9.70439 4.49313 9.79175 4.52442C9.8791 4.5557 9.95825 4.60635 10.0232 4.67256L9.95188 4.74262L10.0232 4.67256C10.0882 4.73878 10.1374 4.81884 10.1671 4.90676L3.5909 4.48938ZM3.5909 4.48938C3.49785 4.48023 3.40393 4.4924 3.31629 4.52497C3.22864 4.55753 3.14956 4.60963 3.08505 4.67731C3.02054 4.745 2.9723 4.82649 2.94398 4.9156C2.91567 5.00468 2.90802 5.09905 2.9216 5.19153M3.5909 4.48938L2.9216 5.19153M9.46932 5.21616C9.28595 6.75806 9.30561 8.1327 9.53052 9.4134L9.46932 5.21616ZM9.46932 5.21616C7.61332 5.40736 5.65546 5.40634 3.64678 5.21375M9.46932 5.21616L3.64678 5.21375M3.64678 5.21375C3.81872 6.48628 3.79504 7.8581 3.5771 9.4015C3.57067 9.44803 3.55514 9.49284 3.53139 9.53338C3.50758 9.57402 3.47597 9.60957 3.43838 9.63798C3.4008 9.66638 3.35797 9.68708 3.31237 9.69889C3.26676 9.7107 3.21927 9.71339 3.17262 9.70681C3.12597 9.70022 3.08109 9.68448 3.04053 9.6605C2.99998 9.63652 2.96456 9.60477 2.93631 9.56707M3.64678 5.21375L2.93631 9.56707C2.93631 9.56707 2.93631 9.56707 2.93631 9.56707M2.93631 9.56707C2.90806 9.52937 2.88754 9.48646 2.87591 9.44081C2.8643 9.39522 2.8618 9.34779 2.86854 9.30123M2.93631 9.56707L2.86857 9.30103C2.86856 9.3011 2.86855 9.30117 2.86854 9.30123M2.86854 9.30123C3.08464 7.7706 3.10144 6.42672 2.9216 5.19153M2.86854 9.30123L2.9216 5.19153" fill="black"/>
<path d="M9.88252 9.70937H9.88237C9.79829 9.70923 9.71695 9.67949 9.65261 9.62537L9.88252 9.70937ZM9.88252 9.70937C9.90331 9.70937 9.92406 9.70758 9.94454 9.70403L9.94472 9.70399C9.99101 9.69587 10.0352 9.6787 10.0749 9.65348C10.1145 9.62826 10.1488 9.59548 10.1758 9.557L10.0939 9.49959L10.1758 9.557C10.2028 9.51852 10.2219 9.47511 10.2321 9.42924C10.2423 9.38336 10.2434 9.33593 10.2353 9.28965C10.0174 8.04909 10.0035 6.7054 10.1945 5.18023L9.88252 9.70937ZM3.5909 4.48938L3.59104 4.48939C5.64165 4.6939 7.63602 4.69467 9.51879 4.49192L9.51883 4.49192C9.61109 4.48202 9.70439 4.49313 9.79175 4.52442C9.8791 4.5557 9.95825 4.60635 10.0232 4.67256L9.95188 4.74262L10.0232 4.67256C10.0882 4.73878 10.1374 4.81884 10.1671 4.90676L3.5909 4.48938ZM3.5909 4.48938C3.49785 4.48023 3.40393 4.4924 3.31629 4.52497C3.22864 4.55753 3.14956 4.60963 3.08505 4.67731C3.02054 4.745 2.9723 4.82649 2.94398 4.9156C2.91567 5.00468 2.90802 5.09905 2.9216 5.19153M3.5909 4.48938L2.9216 5.19153M9.46932 5.21616C9.28595 6.75806 9.30561 8.1327 9.53052 9.4134L9.46932 5.21616ZM9.46932 5.21616C7.61332 5.40736 5.65546 5.40634 3.64678 5.21375M9.46932 5.21616L3.64678 5.21375M3.64678 5.21375C3.81872 6.48628 3.79504 7.8581 3.5771 9.4015C3.57067 9.44803 3.55514 9.49284 3.53139 9.53338C3.50758 9.57402 3.47597 9.60957 3.43838 9.63798C3.4008 9.66638 3.35797 9.68708 3.31237 9.69889C3.26676 9.7107 3.21927 9.71339 3.17262 9.70681C3.12597 9.70022 3.08109 9.68448 3.04053 9.6605C2.99998 9.63652 2.96456 9.60477 2.93631 9.56707M3.64678 5.21375L2.93631 9.56707C2.93631 9.56707 2.93631 9.56707 2.93631 9.56707M2.93631 9.56707C2.90806 9.52937 2.88754 9.48646 2.87591 9.44081C2.8643 9.39522 2.8618 9.34779 2.86854 9.30123M2.93631 9.56707L2.86857 9.30103C2.86856 9.3011 2.86855 9.30117 2.86854 9.30123M2.86854 9.30123C3.08464 7.7706 3.10144 6.42672 2.9216 5.19153M2.86854 9.30123L2.9216 5.19153" stroke="black" stroke-width="0.2"/>
<path d="M9.88252 9.70937H9.88237C9.79829 9.70923 9.71695 9.67949 9.65261 9.62537L9.88252 9.70937ZM9.88252 9.70937C9.90331 9.70937 9.92406 9.70758 9.94454 9.70403L9.94472 9.70399C9.99101 9.69587 10.0352 9.6787 10.0749 9.65348C10.1145 9.62826 10.1488 9.59548 10.1758 9.557L10.0939 9.49959L10.1758 9.557C10.2028 9.51852 10.2219 9.47511 10.2321 9.42924C10.2423 9.38336 10.2434 9.33593 10.2353 9.28965C10.0174 8.04909 10.0035 6.7054 10.1945 5.18023L9.88252 9.70937ZM3.5909 4.48938L3.59104 4.48939C5.64165 4.6939 7.63602 4.69467 9.51879 4.49192L9.51883 4.49192C9.61109 4.48202 9.70439 4.49313 9.79175 4.52442C9.8791 4.5557 9.95825 4.60635 10.0232 4.67256L9.95188 4.74262L10.0232 4.67256C10.0882 4.73878 10.1374 4.81884 10.1671 4.90676L3.5909 4.48938ZM3.5909 4.48938C3.49785 4.48023 3.40393 4.4924 3.31629 4.52497C3.22864 4.55753 3.14956 4.60963 3.08505 4.67731C3.02054 4.745 2.9723 4.82649 2.94398 4.9156C2.91567 5.00468 2.90802 5.09905 2.9216 5.19153M3.5909 4.48938L2.9216 5.19153M9.46932 5.21616C9.28595 6.75806 9.30561 8.1327 9.53052 9.4134L9.46932 5.21616ZM9.46932 5.21616C7.61332 5.40736 5.65546 5.40634 3.64678 5.21375M9.46932 5.21616L3.64678 5.21375M3.64678 5.21375C3.81872 6.48628 3.79504 7.8581 3.5771 9.4015C3.57067 9.44803 3.55514 9.49284 3.53139 9.53338C3.50758 9.57402 3.47597 9.60957 3.43838 9.63798C3.4008 9.66638 3.35797 9.68708 3.31237 9.69889C3.26676 9.7107 3.21927 9.71339 3.17262 9.70681C3.12597 9.70022 3.08109 9.68448 3.04053 9.6605C2.99998 9.63652 2.96456 9.60477 2.93631 9.56707M3.64678 5.21375L2.93631 9.56707C2.93631 9.56707 2.93631 9.56707 2.93631 9.56707M2.93631 9.56707C2.90806 9.52937 2.88754 9.48646 2.87591 9.44081C2.8643 9.39522 2.8618 9.34779 2.86854 9.30123M2.93631 9.56707L2.86857 9.30103C2.86856 9.3011 2.86855 9.30117 2.86854 9.30123M2.86854 9.30123C3.08464 7.7706 3.10144 6.42672 2.9216 5.19153M2.86854 9.30123L2.9216 5.19153" stroke="black" stroke-opacity="0.2" stroke-width="0.2"/>
<path d="M18.7772 9.70934L18.7769 9.70935C18.6928 9.70921 18.6115 9.67947 18.5471 9.62535L18.7772 9.70934ZM18.7772 9.70934C18.798 9.70932 18.8188 9.70749 18.8394 9.70389L18.8221 9.60539M18.7772 9.70934L18.8221 9.60539M12.1818 9.60206L12.2069 9.69887C12.1613 9.71068 12.1138 9.71337 12.0672 9.70678C12.0205 9.7002 11.9756 9.68446 11.9351 9.66048C11.8945 9.6365 11.8591 9.60475 11.8308 9.56705M12.1818 9.60206L11.9108 9.50715L11.8308 9.56705M12.1818 9.60206L12.2069 9.69887C12.2525 9.68706 12.2953 9.66636 12.3329 9.63795L12.2726 9.55817L12.3329 9.63795C12.3705 9.60955 12.4021 9.574 12.4259 9.53335C12.4497 9.49282 12.4652 9.44801 12.4716 9.40148C12.6896 7.85808 12.7132 6.48626 12.5413 5.21373M12.1818 9.60206L12.5413 5.21373M11.8308 9.56705L11.8308 9.56705M11.8308 9.56705L11.8308 9.56705M18.8221 9.60539L18.8394 9.70389C18.8857 9.69576 18.9299 9.6786 18.9696 9.65337C19.0092 9.62815 19.0435 9.59537 19.0705 9.55689C19.0975 9.51841 19.1166 9.475 19.1268 9.42913C19.137 9.38326 19.1381 9.33582 19.1299 9.28954C18.912 8.04899 18.8982 6.70529 19.0892 5.18012L18.8221 9.60539ZM18.3638 5.21614C18.1805 6.75804 18.2001 8.13267 18.425 9.41337L18.3638 5.21614ZM18.3638 5.21614C16.5079 5.40734 14.55 5.40632 12.5413 5.21373M18.3638 5.21614L12.5413 5.21373M11.8308 9.56705C11.8026 9.52935 11.7821 9.48644 11.7704 9.44079C11.7588 9.3952 11.7563 9.34777 11.7631 9.30121M11.8308 9.56705L11.8161 5.19144C11.8161 5.19147 11.8161 5.19149 11.8161 5.19151C11.996 6.4267 11.9792 7.77058 11.7631 9.30121M11.7631 9.30121C11.7631 9.30114 11.7631 9.30108 11.7631 9.30101L11.8621 9.3154L11.763 9.30141C11.763 9.30135 11.7631 9.30128 11.7631 9.30121ZM12.4857 4.48928L12.4856 4.48927L19.0617 4.90666C19.0321 4.81874 18.9829 4.73867 18.9179 4.67246L18.8469 4.74217L18.9179 4.67246C18.8529 4.60624 18.7738 4.55559 18.6864 4.52431C18.5991 4.49303 18.5058 4.48191 18.4135 4.49181L18.4135 4.49181C16.5307 4.69456 14.5363 4.69379 12.4857 4.48928Z" fill="black"/>
<path d="M18.7772 9.70934L18.7769 9.70935C18.6928 9.70921 18.6115 9.67947 18.5471 9.62535L18.7772 9.70934ZM18.7772 9.70934C18.798 9.70932 18.8188 9.70749 18.8394 9.70389L18.8221 9.60539M18.7772 9.70934L18.8221 9.60539M12.1818 9.60206L12.2069 9.69887C12.1613 9.71068 12.1138 9.71337 12.0672 9.70678C12.0205 9.7002 11.9756 9.68446 11.9351 9.66048C11.8945 9.6365 11.8591 9.60475 11.8308 9.56705M12.1818 9.60206L11.9108 9.50715L11.8308 9.56705M12.1818 9.60206L12.2069 9.69887C12.2525 9.68706 12.2953 9.66636 12.3329 9.63795L12.2726 9.55817L12.3329 9.63795C12.3705 9.60955 12.4021 9.574 12.4259 9.53335C12.4497 9.49282 12.4652 9.44801 12.4716 9.40148C12.6896 7.85808 12.7132 6.48626 12.5413 5.21373M12.1818 9.60206L12.5413 5.21373M11.8308 9.56705L11.8308 9.56705M11.8308 9.56705L11.8308 9.56705M18.8221 9.60539L18.8394 9.70389C18.8857 9.69576 18.9299 9.6786 18.9696 9.65337C19.0092 9.62815 19.0435 9.59537 19.0705 9.55689C19.0975 9.51841 19.1166 9.475 19.1268 9.42913C19.137 9.38326 19.1381 9.33582 19.1299 9.28954C18.912 8.04899 18.8982 6.70529 19.0892 5.18012L18.8221 9.60539ZM18.3638 5.21614C18.1805 6.75804 18.2001 8.13267 18.425 9.41337L18.3638 5.21614ZM18.3638 5.21614C16.5079 5.40734 14.55 5.40632 12.5413 5.21373M18.3638 5.21614L12.5413 5.21373M11.8308 9.56705C11.8026 9.52935 11.7821 9.48644 11.7704 9.44079C11.7588 9.3952 11.7563 9.34777 11.7631 9.30121M11.8308 9.56705L11.8161 5.19144C11.8161 5.19147 11.8161 5.19149 11.8161 5.19151C11.996 6.4267 11.9792 7.77058 11.7631 9.30121M11.7631 9.30121C11.7631 9.30114 11.7631 9.30108 11.7631 9.30101L11.8621 9.3154L11.763 9.30141C11.763 9.30135 11.7631 9.30128 11.7631 9.30121ZM12.4857 4.48928L12.4856 4.48927L19.0617 4.90666C19.0321 4.81874 18.9829 4.73867 18.9179 4.67246L18.8469 4.74217L18.9179 4.67246C18.8529 4.60624 18.7738 4.55559 18.6864 4.52431C18.5991 4.49303 18.5058 4.48191 18.4135 4.49181L18.4135 4.49181C16.5307 4.69456 14.5363 4.69379 12.4857 4.48928Z" stroke="black" stroke-width="0.2"/>
<path d="M18.7772 9.70934L18.7769 9.70935C18.6928 9.70921 18.6115 9.67947 18.5471 9.62535L18.7772 9.70934ZM18.7772 9.70934C18.798 9.70932 18.8188 9.70749 18.8394 9.70389L18.8221 9.60539M18.7772 9.70934L18.8221 9.60539M12.1818 9.60206L12.2069 9.69887C12.1613 9.71068 12.1138 9.71337 12.0672 9.70678C12.0205 9.7002 11.9756 9.68446 11.9351 9.66048C11.8945 9.6365 11.8591 9.60475 11.8308 9.56705M12.1818 9.60206L11.9108 9.50715L11.8308 9.56705M12.1818 9.60206L12.2069 9.69887C12.2525 9.68706 12.2953 9.66636 12.3329 9.63795L12.2726 9.55817L12.3329 9.63795C12.3705 9.60955 12.4021 9.574 12.4259 9.53335C12.4497 9.49282 12.4652 9.44801 12.4716 9.40148C12.6896 7.85808 12.7132 6.48626 12.5413 5.21373M12.1818 9.60206L12.5413 5.21373M11.8308 9.56705L11.8308 9.56705M11.8308 9.56705L11.8308 9.56705M18.8221 9.60539L18.8394 9.70389C18.8857 9.69576 18.9299 9.6786 18.9696 9.65337C19.0092 9.62815 19.0435 9.59537 19.0705 9.55689C19.0975 9.51841 19.1166 9.475 19.1268 9.42913C19.137 9.38326 19.1381 9.33582 19.1299 9.28954C18.912 8.04899 18.8982 6.70529 19.0892 5.18012L18.8221 9.60539ZM18.3638 5.21614C18.1805 6.75804 18.2001 8.13267 18.425 9.41337L18.3638 5.21614ZM18.3638 5.21614C16.5079 5.40734 14.55 5.40632 12.5413 5.21373M18.3638 5.21614L12.5413 5.21373M11.8308 9.56705C11.8026 9.52935 11.7821 9.48644 11.7704 9.44079C11.7588 9.3952 11.7563 9.34777 11.7631 9.30121M11.8308 9.56705L11.8161 5.19144C11.8161 5.19147 11.8161 5.19149 11.8161 5.19151C11.996 6.4267 11.9792 7.77058 11.7631 9.30121M11.7631 9.30121C11.7631 9.30114 11.7631 9.30108 11.7631 9.30101L11.8621 9.3154L11.763 9.30141C11.763 9.30135 11.7631 9.30128 11.7631 9.30121ZM12.4857 4.48928L12.4856 4.48927L19.0617 4.90666C19.0321 4.81874 18.9829 4.73867 18.9179 4.67246L18.8469 4.74217L18.9179 4.67246C18.8529 4.60624 18.7738 4.55559 18.6864 4.52431C18.5991 4.49303 18.5058 4.48191 18.4135 4.49181L18.4135 4.49181C16.5307 4.69456 14.5363 4.69379 12.4857 4.48928Z" stroke="black" stroke-opacity="0.2" stroke-width="0.2"/>
</g>
<defs>
<clipPath id="clip0_3268_279">
<rect width="22" height="22" fill="white" transform="translate(0 0.5)"/>
</clipPath>
</defs>
</svg>
