<svg width="22" height="23" viewBox="0 0 22 23" fill="none" xmlns="http://www.w3.org/2000/svg">
<path fill-rule="evenodd" clip-rule="evenodd" d="M8.24984 3.9375C6.60449 3.9375 5.27067 5.27131 5.27067 6.91667C5.27067 8.56202 6.60449 9.89583 8.24984 9.89583C9.89516 9.89583 11.229 8.56202 11.229 6.91667C11.229 5.27131 9.89516 3.9375 8.24984 3.9375ZM3.89567 6.91667C3.89567 4.51193 5.8451 2.5625 8.24984 2.5625C10.6546 2.5625 12.604 4.51193 12.604 6.91667C12.604 9.3214 10.6546 11.2708 8.24984 11.2708C5.8451 11.2708 3.89567 9.3214 3.89567 6.91667ZM14.0007 3.19414C14.0953 2.82643 14.4702 2.60506 14.8378 2.69971C16.7157 3.18303 18.104 4.88685 18.104 6.91666C18.104 8.94647 16.7157 10.6503 14.8378 11.1336C14.4702 11.2282 14.0953 11.0069 14.0007 10.6392C13.906 10.2715 14.1274 9.89666 14.4952 9.80197C15.7803 9.47125 16.729 8.30389 16.729 6.91666C16.729 5.52943 15.7803 4.36206 14.4952 4.0313C14.1274 3.93667 13.906 3.56185 14.0007 3.19414ZM0.229004 17.9167C0.229004 15.5119 2.17843 13.5625 4.58317 13.5625H11.9165C14.3213 13.5625 16.2707 15.5119 16.2707 17.9167V19.75C16.2707 20.1297 15.9629 20.4375 15.5832 20.4375H0.916504C0.536808 20.4375 0.229004 20.1297 0.229004 19.75V17.9167ZM4.58317 14.9375C2.93782 14.9375 1.604 16.2713 1.604 17.9167V19.0625H14.8957V17.9167C14.8957 16.2713 13.5618 14.9375 11.9165 14.9375H4.58317ZM16.729 14.25C16.729 13.8703 17.0368 13.5625 17.4165 13.5625C19.8213 13.5625 21.7707 15.5119 21.7707 17.9167V19.75C21.7707 20.1297 21.4629 20.4375 21.0832 20.4375H19.2498C18.8702 20.4375 18.5623 20.1297 18.5623 19.75C18.5623 19.3703 18.8702 19.0625 19.2498 19.0625H20.3957V17.9167C20.3957 16.2713 19.0618 14.9375 17.4165 14.9375C17.0368 14.9375 16.729 14.6297 16.729 14.25Z" fill="black"/>
</svg>
