<svg width="20" height="21" viewBox="0 0 20 21" fill="none" xmlns="http://www.w3.org/2000/svg">
<g clip-path="url(#clip0_3268_292)">
<path d="M18.1419 0.5896H4.04309C3.00773 0.5896 2.16547 1.4319 2.16547 2.46726V2.55601H1.8582C0.822812 2.55601 -0.0195312 3.39835 -0.0195312 4.43374V18.5326C-0.0195312 19.568 0.822812 20.4104 1.8582 20.4104H15.9571C16.9925 20.4104 17.8348 19.568 17.8348 18.5326V18.4437H18.1418C19.1772 18.4437 20.0195 17.6014 20.0195 16.566V2.46726C20.0195 1.4319 19.1772 0.5896 18.1419 0.5896ZM1.8582 3.33726H15.9571C16.5617 3.33726 17.0536 3.82913 17.0536 4.43374V15.7194L15.5346 14.2005C15.1799 13.8458 14.7084 13.6505 14.2068 13.6505C13.7052 13.6505 13.2337 13.8458 12.8791 14.2004L11.2568 15.8227L7.0302 11.5961C6.67555 11.2415 6.20398 11.0462 5.70242 11.0462C5.20086 11.0462 4.72934 11.2415 4.37469 11.5961L0.761719 15.2091V4.43374C0.761719 3.82913 1.25363 3.33726 1.8582 3.33726ZM15.9571 19.6291H1.8582C1.25359 19.6291 0.761719 19.1373 0.761719 18.5326V16.3139L4.92711 12.1485C5.13418 11.9415 5.40953 11.8274 5.70242 11.8274C5.99531 11.8274 6.27066 11.9414 6.47777 12.1485L10.9805 16.6513C11.1331 16.8039 11.3804 16.8039 11.533 16.6513L13.4316 14.7528C13.6386 14.5457 13.914 14.4317 14.2069 14.4317C14.4998 14.4317 14.7751 14.5457 14.9822 14.7528L17.0244 16.795L17.0537 16.7658V18.5326C17.0536 19.1373 16.5617 19.6291 15.9571 19.6291ZM19.2383 16.566C19.2383 17.1706 18.7464 17.6624 18.1419 17.6624H17.8349V4.43374C17.8349 3.39835 16.9925 2.55601 15.9571 2.55601H2.94672V2.46726C2.94672 1.86269 3.43855 1.37085 4.04309 1.37085H18.1419C18.7464 1.37085 19.2383 1.86269 19.2383 2.46726V16.566Z" fill="black"/>
<path d="M11.5691 11.323C13.0883 11.323 14.3242 10.087 14.3242 8.56786C14.3242 7.04868 13.0882 5.81274 11.5691 5.81274C10.0499 5.81274 8.81396 7.04868 8.81396 8.56786C8.81396 10.087 10.0499 11.323 11.5691 11.323ZM11.5691 6.59399C12.6575 6.59399 13.5429 7.47946 13.5429 8.56786C13.5429 9.65626 12.6575 10.5417 11.5691 10.5417C10.4807 10.5417 9.59521 9.65626 9.59521 8.56786C9.59521 7.47946 10.4807 6.59399 11.5691 6.59399Z" fill="black"/>
</g>
<defs>
<clipPath id="clip0_3268_292">
<rect width="20" height="20" fill="white" transform="translate(0 0.5)"/>
</clipPath>
</defs>
</svg>
