<svg width="39" height="37" viewBox="0 0 39 37" fill="none" xmlns="http://www.w3.org/2000/svg">
<g filter="url(#filter0_d_3180_69664)">
<path d="M22.6624 9.43667C23.0752 7.40256 24.8387 5.9757 26.8214 5.91753L26.8419 5.81622L27.9215 6.02381L27.9206 6.02863C30.168 6.54932 31.5988 8.76915 31.1326 11.067C30.6664 13.3648 28.4761 14.8884 26.194 14.5381L26.193 14.5429L25.1134 14.3354L25.134 14.2341C23.3229 13.4464 22.2491 11.474 22.6618 9.43989L22.6624 9.43667Z" fill="url(#paint0_linear_3180_69664)" stroke="url(#paint1_linear_3180_69664)" stroke-opacity="0.2" stroke-width="0.0764716"/>
<path d="M25.1148 14.3303C27.4539 14.78 29.7368 13.2383 30.214 10.8866C30.6911 8.53504 29.1817 6.26409 26.8427 5.81434C24.5036 5.36459 22.2206 6.90635 21.7435 9.25796C21.2664 11.6096 22.7757 13.8805 25.1148 14.3303Z" fill="url(#paint2_linear_3180_69664)"/>
<g filter="url(#filter1_f_3180_69664)">
<path d="M26.8272 5.88894C29.1243 6.33061 30.6074 8.56142 30.1385 10.8722C29.6697 13.1829 27.4267 14.6972 25.1296 14.2556C22.8328 13.8138 21.3495 11.583 21.8183 9.27235C22.2871 6.96171 24.5302 5.44745 26.8272 5.88894Z" stroke="url(#paint3_linear_3180_69664)" stroke-width="0.152943"/>
</g>
<g filter="url(#filter2_i_3180_69664)">
<path d="M25.255 13.6656C23.2845 13.2867 22.0075 11.3654 22.4095 9.38439C22.8114 7.40334 24.7429 6.09898 26.7134 6.47786C28.6838 6.85674 29.9608 8.77801 29.5588 10.7591C29.1569 12.7401 27.2255 14.0445 25.255 13.6656ZM26.6644 6.71906C24.8251 6.3654 23.0246 7.58133 22.6494 9.43052C22.2742 11.2797 23.4646 13.0707 25.3039 13.4244C27.1432 13.778 28.9437 12.5621 29.3189 10.7129C29.6941 8.86374 28.5037 7.07272 26.6644 6.71906Z" fill="url(#paint4_linear_3180_69664)"/>
</g>
<path d="M26.7214 6.44062C28.7126 6.82374 30.0022 8.76485 29.5962 10.7661C29.1902 12.7675 27.2392 14.0854 25.2479 13.7028C23.2564 13.3199 21.966 11.3786 22.3721 9.3771C22.7782 7.37567 24.7299 6.05771 26.7214 6.44062ZM26.6573 6.75645C24.839 6.40684 23.0577 7.60888 22.6867 9.43758C22.3156 11.2663 23.4937 13.0374 25.312 13.387C27.1301 13.7363 28.9107 12.5343 29.2817 10.7057C29.6526 8.87709 28.4753 7.10628 26.6573 6.75645Z" stroke="url(#paint5_linear_3180_69664)" stroke-opacity="0.6" stroke-width="0.0764716"/>
</g>
<path d="M3.17632 9.35404L20.5206 9.35318C22.275 9.3531 23.6973 10.7376 23.6974 12.4455L23.6984 33.9066C23.6985 35.6145 22.2763 36.9992 20.5219 36.9992L3.17761 37.0001C1.42317 37.0002 0.000845706 35.6157 0.000765772 33.9078L-0.000238644 12.4467C-0.000318578 10.7388 1.42188 9.35413 3.17632 9.35404Z" fill="url(#paint6_linear_3180_69664)"/>
<path d="M7.06743 9.35404L24.4117 9.35318C26.1661 9.3531 27.5884 10.7376 27.5885 12.4455L27.5895 33.9066C27.5896 35.6145 26.1674 36.9992 24.413 36.9992L7.06872 37.0001C5.31428 37.0002 3.89196 35.6157 3.89188 33.9078L3.89087 12.4467C3.89079 10.7388 5.31299 9.35413 7.06743 9.35404Z" fill="url(#paint7_linear_3180_69664)"/>
<path opacity="0.5" d="M7.63215 11.9552L23.8605 11.9546C24.4453 11.9546 24.9195 12.4161 24.9195 12.9854L24.9198 19.2323C24.9199 19.8015 24.4458 20.2631 23.861 20.2631L7.63261 20.2636C7.04778 20.2637 6.57366 19.8022 6.57362 19.2329L6.57328 12.986C6.57325 12.4167 7.04732 11.9552 7.63215 11.9552Z" fill="white"/>
<path d="M21.3664 23.8229L23.8605 23.8228C24.4453 23.8228 24.9195 24.2843 24.9195 24.8536L24.9196 27.2816C24.9196 27.8509 24.4456 28.3124 23.8608 28.3125L21.3666 28.3126C20.7818 28.3126 20.3077 27.8511 20.3076 27.2818L20.3075 24.8538C20.3075 24.2845 20.7815 23.8229 21.3664 23.8229Z" fill="white" fill-opacity="0.4"/>
<path d="M15.1129 23.8244L17.6071 23.8243C18.1919 23.8242 18.666 24.2857 18.6661 24.855L18.6662 27.2831C18.6662 27.8524 18.1921 28.3139 17.6073 28.3139L15.1132 28.314C14.5283 28.3141 14.0542 27.8526 14.0542 27.2833L14.0541 24.8553C14.0541 24.2859 14.5281 23.8244 15.1129 23.8244Z" fill="white" fill-opacity="0.4"/>
<path d="M21.3693 29.902L23.8635 29.9019C24.4483 29.9019 24.9224 30.3634 24.9224 30.9327L24.9225 33.3607C24.9226 33.93 24.4485 34.3915 23.8637 34.3916L21.3695 34.3917C20.7847 34.3917 20.3106 33.9302 20.3106 33.3609L20.3104 30.9329C20.3104 30.3636 20.7845 29.9021 21.3693 29.902Z" fill="white" fill-opacity="0.4"/>
<path d="M15.1164 29.903L17.6105 29.9029C18.1953 29.9029 18.6695 30.3643 18.6695 30.9337L18.6696 33.3617C18.6696 33.931 18.1956 34.3925 17.6108 34.3925L15.1166 34.3927C14.5318 34.3927 14.0577 33.9312 14.0576 33.3619L14.0575 30.9339C14.0575 30.3646 14.5315 29.903 15.1164 29.903Z" fill="white" fill-opacity="0.4"/>
<path d="M7.71191 23.8225L11.3542 23.8223C11.939 23.8223 12.4131 24.2838 12.4131 24.8531L12.4135 33.3606C12.4135 33.93 11.9394 34.3915 11.3546 34.3915L7.71231 34.3917C7.12751 34.3918 6.65341 33.9303 6.65339 33.3609L6.65306 24.8534C6.65304 24.2841 7.1271 23.8225 7.71191 23.8225Z" fill="#192B4D"/>
<path d="M21.7395 25.7508L22.2881 25.7507L22.2881 25.2167C22.2881 25.1049 22.3838 25.0118 22.4986 25.0118L22.7091 25.0118C22.8239 25.0118 22.9196 25.1049 22.9196 25.2167L22.9197 25.7507L23.4682 25.7507C23.5831 25.7507 23.6788 25.8438 23.6788 25.9556L23.6788 26.1605C23.6788 26.2723 23.5831 26.3655 23.4683 26.3655L22.9197 26.3655L22.9197 26.8995C22.9197 27.0113 22.824 27.1045 22.7092 27.1045L22.4987 27.1045C22.3839 27.1045 22.2882 27.0113 22.2882 26.8996L22.2882 26.3655L21.7396 26.3655C21.6248 26.3655 21.5291 26.2724 21.5291 26.1606L21.5291 25.9557C21.529 25.8439 21.6247 25.7508 21.7395 25.7508Z" fill="white"/>
<path d="M15.5234 25.3934L15.6701 25.2506C15.753 25.1698 15.887 25.1698 15.9699 25.2505L16.359 25.6293L16.7481 25.2505C16.831 25.1698 16.965 25.1698 17.0479 25.2505L17.1947 25.3933C17.2776 25.474 17.2776 25.6044 17.1947 25.6852L16.8056 26.064L17.1947 26.4428C17.2776 26.5235 17.2776 26.6539 17.1947 26.7346L17.048 26.8775C16.9651 26.9582 16.8311 26.9582 16.7482 26.8775L16.3591 26.4987L15.97 26.8775C15.887 26.9582 15.7531 26.9582 15.6702 26.8775L15.5234 26.7347C15.4405 26.654 15.4405 26.5236 15.5234 26.4428L15.9125 26.064L15.5234 25.6853C15.4405 25.6045 15.4404 25.4741 15.5234 25.3934Z" fill="white"/>
<path d="M21.7423 31.8379L23.4838 31.8379C23.6001 31.8379 23.6943 31.9296 23.6943 32.0428L23.6944 32.2539C23.6944 32.3671 23.6001 32.4588 23.4839 32.4588L21.7424 32.4589C21.6261 32.4589 21.5318 32.3672 21.5318 32.254L21.5318 32.0429C21.5318 31.9297 21.6261 31.8379 21.7423 31.8379Z" fill="white"/>
<path d="M8.6813 28.1778L10.4228 28.1777C10.5391 28.1777 10.6333 28.2695 10.6333 28.3826L10.6333 28.5937C10.6334 28.7069 10.5391 28.7987 10.4229 28.7987L8.68137 28.7987C8.5651 28.7987 8.47085 28.707 8.47084 28.5938L8.47081 28.3827C8.4708 28.2696 8.56504 28.1778 8.6813 28.1778Z" fill="#F34EE3"/>
<path d="M8.6813 29.419L10.4228 29.419C10.5391 29.4189 10.6333 29.5107 10.6333 29.6238L10.6333 29.835C10.6334 29.9481 10.5391 30.0399 10.4229 30.0399L8.68137 30.04C8.5651 30.04 8.47085 29.9482 8.47084 29.8351L8.47081 29.6239C8.4708 29.5108 8.56504 29.419 8.6813 29.419Z" fill="#F34EE3"/>
<path d="M15.4831 31.838L17.2245 31.8379C17.3408 31.8379 17.4351 31.9296 17.4351 32.0428L17.4351 32.2539C17.4351 32.3671 17.3409 32.4588 17.2246 32.4588L15.4831 32.4589C15.3669 32.4589 15.2726 32.3672 15.2726 32.254L15.2726 32.0429C15.2726 31.9297 15.3668 31.838 15.4831 31.838Z" fill="white"/>
<path d="M16.3598 31.5773C16.1812 31.5773 16.0345 31.4345 16.0345 31.2606C16.0344 31.0867 16.1811 30.9439 16.3597 30.9439C16.5383 30.9439 16.6851 31.0867 16.6851 31.2605C16.6851 31.4344 16.5384 31.5772 16.3598 31.5773Z" fill="white"/>
<path d="M16.3597 32.7134C16.5383 32.7134 16.6851 32.8562 16.6851 33.0301C16.6851 33.2039 16.5384 33.3468 16.3598 33.3468C16.1812 33.3468 16.0345 33.204 16.0345 33.0301C16.0344 32.8563 16.1811 32.7134 16.3597 32.7134Z" fill="white"/>
<defs>
<filter id="filter0_d_3180_69664" x="15.279" y="0.128899" width="23.4704" height="22.757" filterUnits="userSpaceOnUse" color-interpolation-filters="sRGB">
<feFlood flood-opacity="0" result="BackgroundImageFix"/>
<feColorMatrix in="SourceAlpha" type="matrix" values="0 0 0 0 0 0 0 0 0 0 0 0 0 0 0 0 0 0 127 0" result="hardAlpha"/>
<feOffset dx="0.55715" dy="1.32602"/>
<feGaussianBlur stdDeviation="3.46673"/>
<feComposite in2="hardAlpha" operator="out"/>
<feColorMatrix type="matrix" values="0 0 0 0 0.18922 0 0 0 0 0.185703 0 0 0 0 0.361589 0 0 0 0.23 0"/>
<feBlend mode="normal" in2="BackgroundImageFix" result="effect1_dropShadow_3180_69664"/>
<feBlend mode="normal" in="SourceGraphic" in2="effect1_dropShadow_3180_69664" result="shape"/>
</filter>
<filter id="filter1_f_3180_69664" x="21.4259" y="5.50691" width="9.1058" height="9.1307" filterUnits="userSpaceOnUse" color-interpolation-filters="sRGB">
<feFlood flood-opacity="0" result="BackgroundImageFix"/>
<feBlend mode="normal" in="SourceGraphic" in2="BackgroundImageFix" result="shape"/>
<feGaussianBlur stdDeviation="0.114707" result="effect1_foregroundBlur_3180_69664"/>
</filter>
<filter id="filter2_i_3180_69664" x="22.2588" y="6.33594" width="7.45068" height="7.70109" filterUnits="userSpaceOnUse" color-interpolation-filters="sRGB">
<feFlood flood-opacity="0" result="BackgroundImageFix"/>
<feBlend mode="normal" in="SourceGraphic" in2="BackgroundImageFix" result="shape"/>
<feColorMatrix in="SourceAlpha" type="matrix" values="0 0 0 0 0 0 0 0 0 0 0 0 0 0 0 0 0 0 127 0" result="hardAlpha"/>
<feOffset dy="0.305886"/>
<feGaussianBlur stdDeviation="0.114707"/>
<feComposite in2="hardAlpha" operator="arithmetic" k2="-1" k3="1"/>
<feColorMatrix type="matrix" values="0 0 0 0 1 0 0 0 0 1 0 0 0 0 1 0 0 0 0.34 0"/>
<feBlend mode="normal" in2="shape" result="effect1_innerShadow_3180_69664"/>
</filter>
<linearGradient id="paint0_linear_3180_69664" x1="27.7616" y1="5.99305" x2="26.1203" y2="14.529" gradientUnits="userSpaceOnUse">
<stop stop-color="#FFDE8A"/>
<stop offset="0.5" stop-color="#F9932E"/>
<stop offset="1" stop-color="#F2731F"/>
</linearGradient>
<linearGradient id="paint1_linear_3180_69664" x1="27.7616" y1="5.99305" x2="26.1203" y2="14.529" gradientUnits="userSpaceOnUse">
<stop stop-color="white" stop-opacity="0"/>
<stop offset="1" stop-color="white"/>
</linearGradient>
<linearGradient id="paint2_linear_3180_69664" x1="26.8427" y1="5.81434" x2="25.202" y2="14.347" gradientUnits="userSpaceOnUse">
<stop stop-color="#FFCC4D"/>
<stop offset="1" stop-color="#F8BD58"/>
</linearGradient>
<linearGradient id="paint3_linear_3180_69664" x1="26.8427" y1="5.81434" x2="25.202" y2="14.347" gradientUnits="userSpaceOnUse">
<stop stop-color="white"/>
<stop offset="0.51" stop-color="white" stop-opacity="0"/>
<stop offset="1" stop-color="white"/>
</linearGradient>
<linearGradient id="paint4_linear_3180_69664" x1="26.7134" y1="6.47786" x2="25.3286" y2="13.6797" gradientUnits="userSpaceOnUse">
<stop offset="0.345" stop-color="#FF9D00"/>
<stop offset="1" stop-color="#ED5A00"/>
</linearGradient>
<linearGradient id="paint5_linear_3180_69664" x1="26.7134" y1="6.47786" x2="25.3286" y2="13.6797" gradientUnits="userSpaceOnUse">
<stop stop-color="#F15904"/>
<stop offset="1" stop-color="white" stop-opacity="0"/>
</linearGradient>
<linearGradient id="paint6_linear_3180_69664" x1="12.7684" y1="36.9996" x2="14.7067" y2="9.62104" gradientUnits="userSpaceOnUse">
<stop stop-color="#7D1037"/>
<stop offset="1" stop-color="#D52C40"/>
</linearGradient>
<linearGradient id="paint7_linear_3180_69664" x1="15.7396" y1="9.35361" x2="16.2209" y2="35.7108" gradientUnits="userSpaceOnUse">
<stop stop-color="#FF7E62"/>
<stop offset="1" stop-color="#FF3131"/>
</linearGradient>
</defs>
</svg>
