<svg width="30" height="30" viewBox="0 0 30 30" fill="none" xmlns="http://www.w3.org/2000/svg">
<g clip-path="url(#clip0_3326_5400)">
<path d="M15 30C10.9934 30 7.22654 28.4397 4.39336 25.6066C1.56029 22.7735 0 19.0066 0 15C0 10.9934 1.56029 7.22654 4.39336 4.39336C7.22654 1.56029 10.9934 0 15 0C19.0066 0 22.7735 1.56029 25.6066 4.39336C28.4397 7.22654 30 10.9934 30 15C30 19.0066 28.4397 22.7735 25.6066 25.6066C22.7735 28.4397 19.0066 30 15 30ZM15 2.34375C11.6194 2.34375 8.44113 3.66023 6.05068 6.05068C3.66023 8.44113 2.34375 11.6194 2.34375 15C2.34375 18.3806 3.66023 21.5589 6.05068 23.9493C8.44113 26.3398 11.6194 27.6562 15 27.6562C18.3806 27.6562 21.5589 26.3398 23.9493 23.9493C26.3398 21.5589 27.6562 18.3806 27.6562 15C27.6562 11.6194 26.3398 8.44113 23.9493 6.05068C21.5589 3.66023 18.3806 2.34375 15 2.34375ZM19.9719 21.6291L15 16.6573L10.0281 21.6291L8.37088 19.9719L13.3427 15L8.37088 10.0281L10.0281 8.37088L15 13.3427L19.9719 8.37088L21.6292 10.0281L16.6573 15L21.6292 19.9719L19.9719 21.6291Z" fill="black"/>
</g>
<defs>
<clipPath id="clip0_3326_5400">
<rect width="30" height="30" fill="white"/>
</clipPath>
</defs>
</svg>
