<svg width="14" height="14" viewBox="0 0 14 14" fill="none" xmlns="http://www.w3.org/2000/svg">
<g clip-path="url(#clip0_1400_33148)">
<path d="M7 0.0224609C3.134 0.0224609 0 3.15647 0 7.02246C0.343164 16.2978 13.6582 16.2953 14 7.02238C14 3.15646 10.866 0.0224609 7 0.0224609ZM7 13.2021C3.58706 13.2021 0.820312 10.4354 0.820312 7.02246C1.12325 -1.16595 12.878 -1.16374 13.1797 7.02254C13.1797 10.4354 10.4129 13.2021 7 13.2021ZM9.99693 9.43932C10.3671 9.83799 9.81512 10.3894 9.41689 10.0194L7 7.6025L4.58314 10.0194C4.18447 10.3895 3.63311 9.83755 4.0031 9.43932L6.41996 7.02246L4.0031 4.6056C3.63297 4.20693 4.18491 3.65557 4.58314 4.02556L7 6.44239L9.41686 4.02553C9.81553 3.65541 10.3669 4.20734 9.9969 4.60557L7.58004 7.02243L9.99693 9.43932Z" fill="#E70000"/>
</g>
<defs>
<clipPath id="clip0_1400_33148">
<rect width="14" height="14" fill="white"/>
</clipPath>
</defs>
</svg>
