<svg width="20" height="20" viewBox="0 0 20 20" fill="none" xmlns="http://www.w3.org/2000/svg">
<g clip-path="url(#clip0_1823_77969)">
<path d="M17.0711 2.92891C15.1823 1.04016 12.6711 0 10 0C7.32895 0 4.8177 1.04016 2.92895 2.92895C1.0402 4.8177 0 7.32891 0 10C0 12.6711 1.04016 15.1824 2.92891 17.0711C4.81766 18.9598 7.32887 20 9.99996 20C12.6711 20 15.1823 18.9598 17.0711 17.0711C18.9598 15.1823 20 12.6711 20 10C20 7.32891 18.9598 4.8177 17.0711 2.92891ZM16.2424 16.2425C14.575 17.9098 12.358 18.8281 9.99996 18.8281C7.64187 18.8281 5.42492 17.9098 3.75754 16.2425C2.09012 14.575 1.17188 12.3581 1.17188 10C1.17188 7.64195 2.0902 5.425 3.75758 3.75758C5.425 2.09016 7.64191 1.17188 10 1.17188C12.3581 1.17188 14.575 2.09016 16.2425 3.75754C19.6845 7.19965 19.6845 12.8004 16.2424 16.2425Z" fill="white"/>
<path d="M14.4084 13.5796L10.8287 9.9999L14.4084 6.42018C14.6372 6.19135 14.6372 5.82037 14.4083 5.59158C14.1796 5.36275 13.8085 5.36275 13.5797 5.59158L10 9.17127L6.4203 5.59154C6.19151 5.36271 5.82049 5.36271 5.59167 5.59154C5.36284 5.82037 5.36284 6.19135 5.59167 6.42018L9.17139 9.9999L5.59167 13.5796C5.36284 13.8085 5.36284 14.1794 5.59167 14.4083C5.70608 14.5227 5.85604 14.5799 6.00596 14.5799C6.15592 14.5799 6.30588 14.5227 6.4203 14.4083L10 10.8285L13.5798 14.4083C13.6942 14.5227 13.8441 14.5799 13.9941 14.5799C14.144 14.5799 14.294 14.5227 14.4084 14.4083C14.6372 14.1794 14.6372 13.8085 14.4084 13.5796Z" fill="white"/>
</g>
<defs>
<clipPath id="clip0_1823_77969">
<rect width="20" height="20" fill="white"/>
</clipPath>
</defs>
</svg>
