<svg width="19" height="19" viewBox="0 0 19 19" fill="none" xmlns="http://www.w3.org/2000/svg">
<path d="M2.36701 18.4422C2.0589 18.4414 1.75609 18.362 1.4872 18.2115C1.21831 18.0611 0.992236 17.8446 0.830338 17.5824C0.668439 17.3203 0.576069 17.0212 0.56196 16.7134C0.54785 16.4056 0.612467 16.0993 0.749702 15.8234L7.88396 1.56496C8.03402 1.26463 8.26476 1.01204 8.55032 0.83549C8.83589 0.658944 9.16498 0.56543 9.50071 0.56543C9.83644 0.56543 10.1655 0.658944 10.4511 0.83549C10.7367 1.01204 10.9674 1.26463 11.1175 1.56496L18.2506 15.8279C18.3871 16.1035 18.4512 16.4094 18.4367 16.7167C18.4222 17.024 18.3297 17.3225 18.1679 17.5841C18.006 17.8457 17.7802 18.0618 17.5117 18.2119C17.2432 18.362 16.9409 18.4413 16.6333 18.4422H2.36701Z" fill="#E31E24"/>
<path d="M16.6335 19.001H2.36717C1.96392 19.0001 1.56756 18.8963 1.21559 18.6995C0.863623 18.5027 0.567676 18.2193 0.355743 17.8762C0.14381 17.5332 0.0228967 17.1417 0.00443825 16.7389C-0.0140202 16.336 0.0705867 15.9351 0.250257 15.5741L7.3834 1.31007C7.5798 0.916747 7.8819 0.585917 8.25582 0.354688C8.62974 0.12346 9.06068 0.000976563 9.50031 0.000976562C9.93995 0.000976563 10.3709 0.12346 10.7448 0.354688C11.1187 0.585917 11.4208 0.916747 11.6172 1.31007L18.7504 15.5752C18.9301 15.9362 19.0148 16.337 18.9963 16.7398C18.9779 17.1426 18.857 17.534 18.645 17.8771C18.433 18.2201 18.137 18.5033 17.785 18.7C17.433 18.8967 17.0367 19.0003 16.6335 19.001ZM8.38262 1.80857L1.24948 16.0748C1.15487 16.2654 1.1104 16.477 1.12027 16.6895C1.13014 16.9021 1.19402 17.1086 1.30588 17.2896C1.41775 17.4706 1.5739 17.6201 1.7596 17.724C1.94529 17.8278 2.1544 17.8827 2.36717 17.8833H16.6335C16.8465 17.8831 17.056 17.8285 17.242 17.7246C17.428 17.6207 17.5844 17.4711 17.6963 17.2898C17.8083 17.1086 17.8721 16.9017 17.8817 16.6889C17.8913 16.4761 17.8463 16.2643 17.7512 16.0737L10.618 1.80968C10.5143 1.60205 10.3549 1.42739 10.1575 1.30528C9.96019 1.18316 9.73274 1.11842 9.50066 1.1183C9.26858 1.11819 9.04106 1.1827 8.84359 1.30462C8.64612 1.42654 8.4865 1.60104 8.38262 1.80857Z" fill="#E31E24"/>
<path d="M9.50025 12.2946C9.35204 12.2946 9.20989 12.2357 9.10509 12.1309C9.00028 12.0261 8.94141 11.8839 8.94141 11.7357V6.14723C8.94141 5.99901 9.00028 5.85687 9.10509 5.75206C9.20989 5.64726 9.35204 5.58838 9.50025 5.58838C9.64847 5.58838 9.79062 5.64726 9.89542 5.75206C10.0002 5.85687 10.0591 5.99901 10.0591 6.14723V11.7357C10.0591 11.8839 10.0002 12.0261 9.89542 12.1309C9.79062 12.2357 9.64847 12.2946 9.50025 12.2946Z" fill="white"/>
<path d="M9.50025 15.648C9.35204 15.648 9.20989 15.5891 9.10509 15.4843C9.00028 15.3795 8.94141 15.2374 8.94141 15.0891V13.9714C8.94141 13.8232 9.00028 13.6811 9.10509 13.5763C9.20989 13.4715 9.35204 13.4126 9.50025 13.4126C9.64847 13.4126 9.79062 13.4715 9.89542 13.5763C10.0002 13.6811 10.0591 13.8232 10.0591 13.9714V15.0891C10.0591 15.2374 10.0002 15.3795 9.89542 15.4843C9.79062 15.5891 9.64847 15.648 9.50025 15.648Z" fill="white"/>
</svg>
