<svg width="19" height="19" viewBox="0 0 19 19" fill="none" xmlns="http://www.w3.org/2000/svg">
<g clip-path="url(#clip0_1400_32858)">
<path d="M11.6973 12.5843L15.8591 16.7457H13.1862C12.84 16.7457 12.5593 17.0263 12.5593 17.3726C12.5593 17.7189 12.84 17.9995 13.1862 17.9995H17.3726C17.7188 17.9995 17.9995 17.7189 17.9995 17.3726V13.1864C17.9995 12.8402 17.7188 12.5595 17.3726 12.5595C17.0264 12.5595 16.7457 12.8401 16.7457 13.1864V15.8592L12.5838 11.6977C12.339 11.4529 11.942 11.4529 11.6972 11.6978C11.4525 11.9425 11.4525 12.3394 11.6973 12.5843Z" fill="black"/>
<path d="M0 0.626843L0 4.81327C0 5.15957 0.280678 5.44016 0.626886 5.44016C0.973095 5.44016 1.25377 5.15957 1.25377 4.81327L1.25377 2.14032L5.29101 6.1773C5.53583 6.42212 5.93277 6.42212 6.17759 6.17721C6.29996 6.05484 6.36114 5.89436 6.36114 5.73396C6.36114 5.57356 6.29987 5.41308 6.17751 5.29063L2.14027 1.25365H4.81332C5.15953 1.25365 5.4402 0.973053 5.4402 0.626761C5.4402 0.280468 5.15953 -0.000125408 4.81332 -0.000125408H0.626886C0.280594 -4.19617e-05 0 0.280635 0 0.626843Z" fill="black"/>
</g>
<defs>
<clipPath id="clip0_1400_32858">
<rect width="19" height="19" fill="white" transform="matrix(0 -1 1 0 0 19)"/>
</clipPath>
</defs>
</svg>
