<?xml version="1.0" encoding="UTF-8"?><svg xmlns="http://www.w3.org/2000/svg" viewBox="0 0 37 27.92"><defs><style>.d{fill-rule:evenodd;}</style></defs><g id="a"/><g id="b"><g id="c"><g><path class="d" d="M0,0H21.6s3.6,3.3,1.6,5.3H3.5c-1-.5-1.9-1.2-2.5-2.1C.4,2.2,0,1.1,0,0Z"/><path class="d" d="M15.5,12.8l7.2-7.5S24.5,3.6,21.5,0C21.5,0,27.2-.2,28.3,4.4c0,0,1.2,2.7-5.4,8,0,0-.4,.4,.3,1.1,.8,.6,13.8,13.4,13.8,13.4,0,0-3.6,2-6,.4-2.5-1.6-15.5-14.5-15.5-14.5Z"/><path class="d" d="M1,7.9v12.6c1.1,1,2.4,1.6,3.9,1.8,.4,.1,.9-.1,1.2-.3V11.2c0-.1-2.2-3.3-5.1-3.3Z"/><path class="d" d="M13.4,14.6l3.6,3.6-8.8,8.4s-2.6,2-4.9,.4c-2.4-1.7-2.3-3.8-2.3-6.5,0,0,3.8,2.8,5.4,1.1s7-7,7-7Z"/></g></g></g></svg>