<svg width="18" height="19" viewBox="0 0 18 19" fill="none" xmlns="http://www.w3.org/2000/svg">
<path fill-rule="evenodd" clip-rule="evenodd" d="M9.00002 1.69189C4.74282 1.69189 1.29169 5.14303 1.29169 9.40023C1.29169 13.6574 4.74282 17.1086 9.00002 17.1086C13.2572 17.1086 16.7084 13.6574 16.7084 9.40023C16.7084 5.14303 13.2572 1.69189 9.00002 1.69189ZM0.041687 9.40023C0.041687 4.45268 4.05247 0.441895 9.00002 0.441895C13.9476 0.441895 17.9584 4.45268 17.9584 9.40023C17.9584 14.3478 13.9476 18.3586 9.00002 18.3586C4.05247 18.3586 0.041687 14.3478 0.041687 9.40023Z" fill="#1d85fe"/>
<path fill-rule="evenodd" clip-rule="evenodd" d="M7.5087 6.01593C7.75312 5.7722 8.14885 5.77276 8.39258 6.01718L11.3259 8.95885C11.5692 9.20278 11.5692 9.59754 11.3259 9.84148L8.39258 12.7831C8.14885 13.0276 7.75312 13.0281 7.5087 12.7844C7.26427 12.5407 7.26371 12.1449 7.50744 11.9005L10.0007 9.40016L7.50744 6.89981C7.26371 6.65539 7.26427 6.25966 7.5087 6.01593Z" fill="#1d85fe"/>
</svg>
