<svg width="19" height="19" viewBox="0 0 19 19" fill="none" xmlns="http://www.w3.org/2000/svg">
<g clip-path="url(#clip0_5059_7170)">
<path d="M17.8164 16.9296L13.6546 12.7682H16.3275C16.6737 12.7682 16.9544 12.4876 16.9544 12.1413C16.9544 11.795 16.6737 11.5144 16.3275 11.5144H12.141C11.7948 11.5144 11.5142 11.795 11.5142 12.1413V16.3276C11.5142 16.6738 11.7948 16.9544 12.141 16.9544C12.4873 16.9544 12.7679 16.6738 12.7679 16.3276V13.6547L16.9299 17.8162C17.1747 18.061 17.5716 18.061 17.8165 17.8161C18.0612 17.5715 18.0612 17.1745 17.8164 16.9296Z" fill="black"/>
<path d="M6.36133 5.73333L6.36133 1.54689C6.36133 1.2006 6.08065 0.920007 5.73444 0.920007C5.38823 0.920007 5.10756 1.2006 5.10756 1.54689V4.21985L1.07032 0.182872C0.825502 -0.0619475 0.428557 -0.0619482 0.183737 0.182955C0.0613689 0.305324 0.000185013 0.465806 0.000185013 0.626205C0.000185013 0.786605 0.0614533 0.947088 0.183822 1.06954L4.22105 5.10652L1.54801 5.10652C1.2018 5.10652 0.921124 5.38712 0.921124 5.73341C0.921124 6.0797 1.2018 6.36029 1.54801 6.36029L5.73444 6.36029C6.08073 6.36021 6.36133 6.07953 6.36133 5.73333Z" fill="black"/>
</g>
<defs>
<clipPath id="clip0_5059_7170">
<rect width="19" height="19" fill="white" transform="matrix(0 -1 1 0 0 19)"/>
</clipPath>
</defs>
</svg>
