<svg width="24" height="25" viewBox="0 0 24 25" fill="none" xmlns="http://www.w3.org/2000/svg">
<path d="M9.88352 1.84081C10.641 -0.0797466 13.359 -0.0797483 14.1165 1.8408L16.142 6.97662C16.3733 7.56297 16.8374 8.02712 17.4238 8.25837L22.5596 10.2839C24.4801 11.0414 24.4801 13.7594 22.5596 14.5169L17.4238 16.5424C16.8374 16.7737 16.3733 17.2378 16.142 17.8242L14.1165 22.96C13.359 24.8805 10.641 24.8805 9.88352 22.96L7.85798 17.8242C7.62672 17.2378 7.16258 16.7737 6.57622 16.5424L1.44042 14.5169C-0.480136 13.7594 -0.480141 11.0414 1.44041 10.2839L6.57622 8.25837C7.16258 8.02712 7.62672 7.56297 7.85798 6.97662L9.88352 1.84081Z" fill="url(#paint0_linear_3180_44512)"/>
<defs>
<linearGradient id="paint0_linear_3180_44512" x1="12" y1="24.4004" x2="12" y2="0.400391" gradientUnits="userSpaceOnUse">
<stop stop-color="#FFAB2D"/>
<stop offset="1" stop-color="#DA8662"/>
</linearGradient>
</defs>
</svg>
