<svg width="16" height="17" viewBox="0 0 16 17" fill="none" xmlns="http://www.w3.org/2000/svg">
<path d="M14.6468 12.6206C14.6468 12.8606 14.5935 13.1072 14.4802 13.3472C14.3668 13.5872 14.2202 13.8139 14.0268 14.0272C13.7002 14.3872 13.3402 14.6472 12.9335 14.8139C12.5335 14.9806 12.1002 15.0672 11.6335 15.0672C10.9535 15.0672 10.2268 14.9072 9.46016 14.5806C8.6935 14.2539 7.92683 13.8139 7.16683 13.2606C6.40016 12.7006 5.6735 12.0806 4.98016 11.3939C4.2935 10.7006 3.6735 9.97389 3.12016 9.21389C2.5735 8.45389 2.1335 7.69389 1.8135 6.94055C1.4935 6.18055 1.3335 5.45389 1.3335 4.76055C1.3335 4.30722 1.4135 3.87389 1.5735 3.47389C1.7335 3.06722 1.98683 2.69389 2.34016 2.36055C2.76683 1.94055 3.2335 1.73389 3.72683 1.73389C3.9135 1.73389 4.10016 1.77389 4.26683 1.85389C4.44016 1.93389 4.5935 2.05389 4.7135 2.22722L6.26016 4.40722C6.38016 4.57389 6.46683 4.72722 6.52683 4.87389C6.58683 5.01389 6.62016 5.15389 6.62016 5.28055C6.62016 5.44055 6.5735 5.60055 6.48016 5.75389C6.3935 5.90722 6.26683 6.06722 6.10683 6.22722L5.60016 6.75389C5.52683 6.82722 5.4935 6.91389 5.4935 7.02055C5.4935 7.07389 5.50016 7.12055 5.5135 7.17389C5.5335 7.22722 5.5535 7.26722 5.56683 7.30722C5.68683 7.52722 5.8935 7.81389 6.18683 8.16055C6.48683 8.50722 6.80683 8.86055 7.1535 9.21389C7.5135 9.56722 7.86016 9.89389 8.2135 10.1939C8.56016 10.4872 8.84683 10.6872 9.0735 10.8072C9.10683 10.8206 9.14683 10.8406 9.1935 10.8606C9.24683 10.8806 9.30016 10.8872 9.36016 10.8872C9.4735 10.8872 9.56016 10.8472 9.6335 10.7739L10.1402 10.2739C10.3068 10.1072 10.4668 9.98055 10.6202 9.90055C10.7735 9.80722 10.9268 9.76055 11.0935 9.76055C11.2202 9.76055 11.3535 9.78722 11.5002 9.84722C11.6468 9.90722 11.8002 9.99389 11.9668 10.1072L14.1735 11.6739C14.3468 11.7939 14.4668 11.9339 14.5402 12.1006C14.6068 12.2672 14.6468 12.4339 14.6468 12.6206Z" stroke="#111827" stroke-width="1.5" stroke-miterlimit="10"/>
</svg>
