<svg width="39" height="39" viewBox="0 0 39 39" fill="none" xmlns="http://www.w3.org/2000/svg">
<circle cx="19.5" cy="19.5" r="19.5" fill="#FF0000"/>
<path d="M16.1058 30.3303C14.5717 30.3303 13.2969 30.0568 12.2812 29.5099C11.2656 28.9631 10.5376 28.228 10.0973 27.3047C9.65696 26.3743 9.52557 25.3409 9.70312 24.2045C9.84517 23.3665 10.1293 22.6243 10.5554 21.978C10.9886 21.3317 11.5426 20.7386 12.2173 20.1989C12.8991 19.6591 13.6733 19.1264 14.5398 18.6009L19.6108 15.6712C20.1861 15.3445 20.6087 15 20.8786 14.6378C21.1484 14.2685 21.3153 13.9062 21.3793 13.5511C21.4574 13.1676 21.3722 12.8161 21.1236 12.4964C20.875 12.1768 20.4489 12.017 19.8452 12.017C19.4759 12.017 19.1349 12.0916 18.8224 12.2408C18.517 12.3899 18.2614 12.5959 18.0554 12.8587C17.8565 13.1214 17.7322 13.4268 17.6825 13.7749C17.6257 14.2152 17.6861 14.6626 17.8636 15.1172C18.0483 15.5717 18.3075 16.0547 18.6413 16.5661C18.9751 17.0703 19.3409 17.6314 19.7386 18.2493L28.2507 30H22.9453L15.7969 20.5078C15.3849 19.9467 14.9588 19.3253 14.5185 18.6435C14.0852 17.9545 13.7479 17.2017 13.5064 16.3849C13.272 15.5611 13.2365 14.6662 13.3999 13.7003C13.5845 12.6136 14.0036 11.63 14.657 10.7493C15.3175 9.86861 16.152 9.16903 17.1605 8.65057C18.169 8.125 19.2876 7.86221 20.5163 7.86221C21.7166 7.86221 22.7109 8.10724 23.4993 8.5973C24.2876 9.08736 24.8487 9.73722 25.1825 10.5469C25.5234 11.3565 25.6087 12.2443 25.4382 13.2102C25.2749 14.2401 24.87 15.1811 24.2237 16.0334C23.5774 16.8857 22.7358 17.642 21.6989 18.3026L16.6705 21.5092C16.152 21.8501 15.7223 22.2159 15.3814 22.6065C15.0476 22.9901 14.8381 23.4091 14.7528 23.8636C14.6889 24.3324 14.7422 24.7408 14.9126 25.0888C15.0831 25.4368 15.353 25.7102 15.7223 25.9091C16.0987 26.108 16.5639 26.2074 17.1179 26.2074C17.8636 26.2074 18.6342 26.0334 19.4297 25.6854C20.2251 25.3303 20.978 24.8331 21.6882 24.1939C22.4055 23.5476 23.0163 22.7841 23.5206 21.9034C24.032 21.0156 24.3764 20.0426 24.554 18.9844H28.7514C28.5526 20.2912 28.2223 21.5057 27.7607 22.6278C27.3061 23.7429 26.7308 24.7408 26.0348 25.6214C25.3459 26.5021 24.5433 27.2372 23.6271 27.8267C23.3501 27.9687 23.0767 28.1037 22.8068 28.2315C22.5369 28.3594 22.2635 28.4943 21.9865 28.6364C21.0632 29.2401 20.0902 29.6733 19.0675 29.9361C18.0447 30.1989 17.0575 30.3303 16.1058 30.3303Z" fill="white"/>
</svg>
