<svg width="17" height="16" viewBox="0 0 17 16" fill="none" xmlns="http://www.w3.org/2000/svg">
<path d="M3.12891 14.5C2.73108 14.5 2.34955 14.342 2.06825 14.0607C1.78694 13.7794 1.62891 13.3978 1.62891 13V3C1.62891 2.60218 1.78694 2.22064 2.06825 1.93934C2.34955 1.65804 2.73108 1.5 3.12891 1.5H11.1289C11.2615 1.5 11.3887 1.55268 11.4825 1.64645C11.5762 1.74021 11.6289 1.86739 11.6289 2C11.6289 2.13261 11.5762 2.25979 11.4825 2.35355C11.3887 2.44732 11.2615 2.5 11.1289 2.5H3.12891C2.9963 2.5 2.86912 2.55268 2.77535 2.64645C2.68158 2.74021 2.62891 2.86739 2.62891 3V13C2.62891 13.1326 2.68158 13.2598 2.77535 13.3536C2.86912 13.4473 2.9963 13.5 3.12891 13.5H13.1289C13.2615 13.5 13.3887 13.4473 13.4825 13.3536C13.5762 13.2598 13.6289 13.1326 13.6289 13V8C13.6289 7.86739 13.6816 7.74021 13.7754 7.64645C13.8691 7.55268 13.9963 7.5 14.1289 7.5C14.2615 7.5 14.3887 7.55268 14.4825 7.64645C14.5762 7.74021 14.6289 7.86739 14.6289 8V13C14.6289 13.3978 14.4709 13.7794 14.1896 14.0607C13.9083 14.342 13.5267 14.5 13.1289 14.5H3.12891Z" fill="#0F7D31"/>
<path d="M8.48354 10.3537L15.4835 3.35366C15.53 3.30717 15.5669 3.25198 15.5921 3.19124C15.6172 3.1305 15.6302 3.0654 15.6302 2.99966C15.6302 2.93391 15.6172 2.86881 15.5921 2.80807C15.5669 2.74733 15.53 2.69214 15.4835 2.64565C15.437 2.59917 15.3819 2.56229 15.3211 2.53713C15.2604 2.51197 15.1953 2.49902 15.1295 2.49902C15.0638 2.49902 14.9987 2.51197 14.938 2.53713C14.8772 2.56229 14.822 2.59917 14.7755 2.64565L8.12954 9.29265L5.48354 6.64565C5.43705 6.59917 5.38186 6.56229 5.32112 6.53713C5.26038 6.51197 5.19528 6.49902 5.12954 6.49902C5.06379 6.49902 4.99869 6.51197 4.93795 6.53713C4.87721 6.56229 4.82203 6.59917 4.77554 6.64565C4.72905 6.69214 4.69217 6.74733 4.66701 6.80807C4.64186 6.86881 4.62891 6.93391 4.62891 6.99965C4.62891 7.0654 4.64186 7.1305 4.66701 7.19124C4.69217 7.25198 4.72905 7.30717 4.77554 7.35365L7.77554 10.3537C7.82198 10.4002 7.87716 10.4372 7.9379 10.4624C7.99865 10.4876 8.06377 10.5005 8.12954 10.5005C8.19531 10.5005 8.26043 10.4876 8.32117 10.4624C8.38192 10.4372 8.43709 10.4002 8.48354 10.3537Z" fill="#0F7D31"/>
</svg>
