<svg width="31" height="24" viewBox="0 0 31 24" fill="none" xmlns="http://www.w3.org/2000/svg">
<path d="M29.0625 10.8674V17.7842C28.7562 17.6546 28.4267 17.5877 28.0938 17.5874H25.1875V15.6674C26.0589 15.2587 26.7951 14.6131 27.3105 13.8058C27.8259 12.9985 28.0992 12.0627 28.0986 11.1074H28.0938V10.3874L28.1034 10.3682L29.0625 10.8674Z" fill="#6FBD89"/>
<path d="M26.6406 17.5871V19.9871C26.6411 20.1133 26.6163 20.2383 26.5678 20.355C26.5193 20.4716 26.4479 20.5776 26.3579 20.6669C26.2678 20.7561 26.1609 20.8268 26.0431 20.8749C25.9254 20.923 25.7992 20.9475 25.6719 20.9471H20.3438C20.2164 20.9475 20.0902 20.923 19.9725 20.8749C19.8548 20.8268 19.7478 20.7561 19.6578 20.6669C19.5677 20.5776 19.4964 20.4716 19.4478 20.355C19.3993 20.2383 19.3746 20.1133 19.375 19.9871V17.5871H20.8281V15.6719C21.5105 15.988 22.2546 16.1519 23.0078 16.1519C23.7611 16.1519 24.5051 15.988 25.1875 15.6719V17.5871H26.6406Z" fill="#F2FFF6"/>
<path d="M17.917 11.1072C17.9164 12.0625 18.1897 12.9984 18.7051 13.8057C19.2205 14.613 19.9568 15.2586 20.8281 15.6672V17.5872H17.9219C17.5889 17.5875 17.2594 17.6545 16.9531 17.784V10.3872L17.9219 9.90723V11.1072H17.917Z" fill="#6FBD89"/>
<path d="M30.5156 19.9872V22.8672H15.5V19.9872C15.5005 19.5204 15.6382 19.064 15.8962 18.6735C16.1543 18.2831 16.5216 17.9757 16.9531 17.7888V17.784C17.2594 17.6544 17.5889 17.5875 17.9219 17.5872H19.375V19.9872C19.3746 20.1134 19.3993 20.2384 19.4478 20.3551C19.4964 20.4717 19.5677 20.5777 19.6578 20.667C19.7478 20.7562 19.8548 20.8269 19.9725 20.875C20.0902 20.9231 20.2164 20.9476 20.3438 20.9472H25.6719C25.7992 20.9476 25.9254 20.9231 26.0431 20.875C26.1609 20.8269 26.2678 20.7562 26.3579 20.667C26.4479 20.5777 26.5193 20.4717 26.5678 20.3551C26.6163 20.2384 26.6411 20.1134 26.6406 19.9872V17.5872H28.0938C28.4267 17.5875 28.7562 17.6544 29.0625 17.784V17.7888C29.4941 17.9757 29.8613 18.2831 30.1194 18.6735C30.3775 19.064 30.5152 19.5204 30.5156 19.9872Z" fill="#E4FFED"/>
<path d="M29.0623 8.22727V10.8673L28.1033 10.3681L22.7897 7.60807L22.7461 7.51687L27.6092 5.10727L28.0306 4.87207C28.7044 5.86351 29.0637 7.03195 29.0623 8.22727Z" fill="#B6F2CA"/>
<path d="M28.0308 4.87185L27.6094 5.10705L22.7462 7.51665L17.9219 9.90705L16.9531 10.3871V8.22705C16.9536 6.9419 17.3703 5.69083 18.142 4.65792C18.9136 3.62502 19.9994 2.86482 21.2397 2.48917C22.4799 2.11353 23.809 2.14229 25.0315 2.57121C26.2541 3.00012 27.3054 3.80656 28.0308 4.87185Z" fill="#E4FFED"/>
<path d="M28.1044 10.368L28.0947 10.3872V11.1072H28.0995C28.1001 12.0626 27.8268 12.9984 27.3115 13.8057C26.7961 14.613 26.0598 15.2586 25.1884 15.6672V15.672C24.5061 15.9882 23.762 16.152 23.0087 16.152C22.2555 16.152 21.5114 15.9882 20.8291 15.672V15.6672C19.9577 15.2586 19.2214 14.613 18.706 13.8057C18.1907 12.9984 17.9174 12.0626 17.918 11.1072H17.9228V9.90724L22.7472 7.51685L22.7908 7.60805L28.1044 10.368Z" fill="#F2FFF6"/>
<path d="M10.6562 3.18726V4.62726C11.2985 4.62749 11.9144 4.88042 12.3685 5.33046C12.8227 5.78049 13.0779 6.39081 13.0781 7.02726V9.42726L11.625 7.98726C10.514 8.60289 9.26503 8.93294 7.99219 8.94726C6.71921 8.93393 5.47002 8.60382 4.35938 7.98726L2.90625 9.42726V7.50726C2.90634 6.36155 3.36566 5.26279 4.18318 4.45266C5.0007 3.64252 6.10948 3.18735 7.26562 3.18726H10.6562Z" fill="#E4FFED"/>
<path d="M10.6562 15.408V17.5872L9.20312 18.5472L7.99219 18.0672L6.78125 18.5472L5.32812 17.5872V15.408C6.13 15.8945 7.05195 16.152 7.99219 16.152C8.93242 16.152 9.85437 15.8945 10.6562 15.408Z" fill="white"/>
<path d="M13.0791 11.1071H13.0839C13.0839 12.445 12.5476 13.7282 11.5928 14.6743C10.6381 15.6204 9.34328 16.1519 7.99312 16.1519C6.64297 16.1519 5.34811 15.6204 4.3934 14.6743C3.43869 13.7282 2.90234 12.445 2.90234 11.1071H2.90719V9.42706L4.36031 7.98706C5.47096 8.60363 6.72015 8.93374 7.99312 8.94706C9.26596 8.93274 10.5149 8.6027 11.6259 7.98706L13.0791 9.42706V11.1071Z" fill="#F2FFF6"/>
<path d="M9.20312 18.5472L10.6562 17.5872H12.5938C12.9754 17.5871 13.3534 17.6615 13.706 17.8062C14.0587 17.9509 14.3791 18.163 14.649 18.4305C14.9189 18.6979 15.133 19.0154 15.279 19.3649C15.425 19.7144 15.5001 20.0889 15.5 20.4672V22.8672H0.484375V20.4672C0.48427 20.0889 0.559371 19.7144 0.705386 19.3649C0.851402 19.0154 1.06547 18.6979 1.33536 18.4305C1.60525 18.163 1.92568 17.9509 2.27833 17.8062C2.63098 17.6615 3.00894 17.5871 3.39062 17.5872H5.32812L6.78125 18.5472L7.99219 18.0672L9.20312 18.5472Z" fill="white"/>
<path d="M15.5 20.9489C15.4364 20.9489 15.3734 20.9365 15.3146 20.9124C15.2558 20.8883 15.2024 20.853 15.1574 20.8084C15.1124 20.7638 15.0768 20.7109 15.0524 20.6526C15.0281 20.5944 15.0156 20.5319 15.0156 20.4689C15.0149 19.8326 14.7595 19.2226 14.3054 18.7727C13.8514 18.3227 13.2358 18.0696 12.5938 18.0689C12.4653 18.0689 12.3421 18.0183 12.2512 17.9283C12.1604 17.8383 12.1094 17.7162 12.1094 17.5889C12.1094 17.4616 12.1604 17.3395 12.2512 17.2495C12.3421 17.1595 12.4653 17.1089 12.5938 17.1089C13.4927 17.11 14.3545 17.4643 14.9901 18.0942C15.6257 18.7241 15.9833 19.5781 15.9844 20.4689C15.9844 20.5319 15.9719 20.5944 15.9476 20.6526C15.9232 20.7109 15.8876 20.7638 15.8426 20.8084C15.7976 20.853 15.7442 20.8883 15.6854 20.9124C15.6266 20.9365 15.5636 20.9489 15.5 20.9489Z" fill="#117F33"/>
<path d="M12.5938 18.0689L10.6562 18.0684C10.5278 18.0684 10.4046 18.0178 10.3137 17.9278C10.2229 17.8378 10.1719 17.7157 10.1719 17.5884C10.1719 17.4611 10.2229 17.339 10.3137 17.249C10.4046 17.159 10.5278 17.1084 10.6562 17.1084L12.5938 17.1089C12.7222 17.1089 12.8454 17.1594 12.9363 17.2495C13.0271 17.3395 13.0781 17.4616 13.0781 17.5889C13.0781 17.7162 13.0271 17.8383 12.9363 17.9283C12.8454 18.0183 12.7222 18.0689 12.5938 18.0689Z" fill="#117F33"/>
<path d="M10.6562 18.0685C10.5926 18.0686 10.5296 18.0562 10.4708 18.0321C10.4121 18.008 10.3587 17.9726 10.3137 17.928C10.2687 17.8834 10.233 17.8305 10.2087 17.7723C10.1843 17.714 10.1718 17.6516 10.1719 17.5885V15.406C10.1719 15.2787 10.2229 15.1566 10.3137 15.0666C10.4046 14.9766 10.5278 14.926 10.6562 14.926C10.7847 14.926 10.9079 14.9766 10.9988 15.0666C11.0896 15.1566 11.1406 15.2787 11.1406 15.406V17.5885C11.1407 17.6516 11.1282 17.714 11.1038 17.7723C11.0795 17.8305 11.0438 17.8834 10.9988 17.928C10.9538 17.9726 10.9004 18.008 10.8417 18.0321C10.7829 18.0562 10.7199 18.0686 10.6562 18.0685ZM0.484375 20.949C0.420756 20.949 0.357753 20.9366 0.298969 20.9125C0.240185 20.8884 0.186774 20.8531 0.141788 20.8085C0.0968021 20.7639 0.0611248 20.711 0.0367957 20.6527C0.0124667 20.5945 -3.68498e-05 20.532 8.1574e-08 20.469C0.00108964 19.5782 0.358665 18.7242 0.994295 18.0943C1.62992 17.4644 2.49171 17.1101 3.39062 17.109C3.51909 17.109 3.64229 17.1596 3.73313 17.2496C3.82397 17.3396 3.875 17.4617 3.875 17.589C3.875 17.7163 3.82397 17.8384 3.73313 17.9284C3.64229 18.0184 3.51909 18.069 3.39062 18.069C2.74854 18.0697 2.13296 18.3228 1.67893 18.7728C1.22491 19.2227 0.969505 19.8327 0.96875 20.469C0.968787 20.532 0.956283 20.5945 0.931954 20.6527C0.907625 20.711 0.871948 20.7639 0.826962 20.8085C0.781977 20.8531 0.728565 20.8884 0.669781 20.9125C0.610997 20.9366 0.547994 20.949 0.484375 20.949Z" fill="#117F33"/>
<path d="M3.39014 18.0689C3.26168 18.0689 3.13847 18.0183 3.04764 17.9283C2.9568 17.8383 2.90577 17.7162 2.90577 17.5889C2.90577 17.4616 2.9568 17.3395 3.04764 17.2495C3.13847 17.1594 3.26168 17.1089 3.39014 17.1089L5.32764 17.1084C5.45611 17.1084 5.57931 17.159 5.67015 17.249C5.76098 17.339 5.81202 17.4611 5.81202 17.5884C5.81202 17.7157 5.76098 17.8378 5.67015 17.9278C5.57931 18.0178 5.45611 18.0684 5.32764 18.0684L3.39014 18.0689ZM0.484375 23.3489C0.420756 23.3489 0.357753 23.3365 0.298969 23.3124C0.240185 23.2883 0.186774 23.253 0.141788 23.2084C0.0968021 23.1638 0.0611248 23.1109 0.0367957 23.0526C0.0124667 22.9944 -3.68498e-05 22.9319 8.1574e-08 22.8689V20.4689C8.1574e-08 20.3416 0.0510323 20.2195 0.14187 20.1295C0.232708 20.0394 0.355911 19.9889 0.484375 19.9889C0.612839 19.9889 0.736042 20.0394 0.82688 20.1295C0.917718 20.2195 0.96875 20.3416 0.96875 20.4689V22.8689C0.968787 22.9319 0.956284 22.9944 0.931955 23.0526C0.907626 23.1109 0.871948 23.1638 0.826962 23.2084C0.781977 23.253 0.728565 23.2883 0.669781 23.3124C0.610997 23.3365 0.547995 23.3489 0.484375 23.3489Z" fill="#117F33"/>
<path d="M5.32813 18.0685C5.26451 18.0686 5.2015 18.0562 5.14272 18.0321C5.08394 18.008 5.03053 17.9726 4.98554 17.928C4.94055 17.8835 4.90488 17.8305 4.88055 17.7723C4.85622 17.714 4.84371 17.6516 4.84375 17.5885V15.4065C4.84375 15.2792 4.89478 15.1571 4.98562 15.0671C5.07646 14.9771 5.19966 14.9265 5.32813 14.9265C5.45659 14.9265 5.57979 14.9771 5.67063 15.0671C5.76147 15.1571 5.8125 15.2792 5.8125 15.4065V17.5885C5.81254 17.6516 5.80003 17.714 5.7757 17.7723C5.75137 17.8305 5.7157 17.8835 5.67071 17.928C5.62573 17.9726 5.57231 18.008 5.51353 18.0321C5.45475 18.0562 5.39174 18.0686 5.32813 18.0685Z" fill="#117F33"/>
<path d="M7.99205 16.6327C6.51421 16.631 5.09737 16.0486 4.05238 15.013C3.00738 13.9774 2.41959 12.5734 2.41797 11.1089C2.41797 10.9816 2.469 10.8595 2.55984 10.7695C2.65068 10.6795 2.77388 10.6289 2.90234 10.6289C3.03081 10.6289 3.15401 10.6795 3.24485 10.7695C3.33569 10.8595 3.38672 10.9816 3.38672 11.1089C3.3861 11.7086 3.50476 12.3026 3.73592 12.8568C3.96709 13.4111 4.30622 13.9147 4.73392 14.339C5.16163 14.7633 5.66953 15.0999 6.22858 15.3295C6.78764 15.5591 7.38689 15.6773 7.99207 15.6773C8.59725 15.6773 9.1965 15.5591 9.75555 15.3295C10.3146 15.0999 10.8225 14.7633 11.2502 14.339C11.6779 13.9147 12.017 13.4111 12.2482 12.8568C12.4794 12.3026 12.598 11.7086 12.5974 11.1089C12.5974 10.9816 12.6484 10.8595 12.7393 10.7695C12.8301 10.6795 12.9533 10.6289 13.0818 10.6289C13.2103 10.6289 13.3335 10.6795 13.4243 10.7695C13.5151 10.8595 13.5662 10.9816 13.5662 11.1089C13.5645 12.5734 12.9767 13.9775 11.9318 15.013C10.8868 16.0486 9.4699 16.6311 7.99205 16.6327Z" fill="#117F33"/>
<path d="M2.90625 11.5888C2.84263 11.5889 2.77963 11.5765 2.72084 11.5524C2.66206 11.5283 2.60865 11.4929 2.56366 11.4483C2.51868 11.4037 2.483 11.3508 2.45867 11.2926C2.43434 11.2343 2.42184 11.1719 2.42188 11.1088V7.53133C2.42188 7.40403 2.47291 7.28194 2.56375 7.19192C2.65458 7.1019 2.77779 7.05133 2.90625 7.05133C3.03471 7.05133 3.15792 7.1019 3.24875 7.19192C3.33959 7.28194 3.39063 7.40403 3.39063 7.53133V11.1088C3.39066 11.1719 3.37816 11.2343 3.35383 11.2926C3.3295 11.3508 3.29382 11.4037 3.24884 11.4483C3.20385 11.4929 3.15044 11.5283 3.09166 11.5524C3.03287 11.5765 2.96987 11.5889 2.90625 11.5888ZM13.0781 11.5888C13.0145 11.5889 12.9515 11.5765 12.8927 11.5524C12.8339 11.5283 12.7805 11.4929 12.7355 11.4483C12.6906 11.4037 12.6549 11.3508 12.6305 11.2926C12.6062 11.2343 12.5937 11.1719 12.5938 11.1088V7.02883C12.5938 6.90152 12.6448 6.77943 12.7356 6.68942C12.8265 6.5994 12.9497 6.54883 13.0781 6.54883C13.2066 6.54883 13.3298 6.5994 13.4206 6.68942C13.5115 6.77943 13.5625 6.90152 13.5625 7.02883V11.1088C13.5625 11.1719 13.55 11.2343 13.5257 11.2926C13.5014 11.3508 13.4657 11.4037 13.4207 11.4483C13.3757 11.4929 13.3223 11.5283 13.2635 11.5524C13.2047 11.5765 13.1417 11.5889 13.0781 11.5888Z" fill="#117F33"/>
<path d="M13.0781 7.50893C13.0145 7.50896 12.9515 7.49657 12.8927 7.47246C12.8339 7.44835 12.7805 7.413 12.7355 7.36842C12.6906 7.32384 12.6549 7.27091 12.6305 7.21266C12.6062 7.1544 12.5937 7.09197 12.5938 7.02893C12.5932 6.51987 12.3889 6.0318 12.0257 5.67184C11.6625 5.31188 11.1699 5.10943 10.6562 5.10893C10.5278 5.10893 10.4046 5.05835 10.3137 4.96834C10.2229 4.87832 10.1719 4.75623 10.1719 4.62893C10.1719 4.50162 10.2229 4.37953 10.3137 4.28951C10.4046 4.1995 10.5278 4.14893 10.6562 4.14893C11.4268 4.14976 12.1655 4.45346 12.7103 4.99338C13.2552 5.5333 13.5617 6.26536 13.5625 7.02893C13.5625 7.09197 13.55 7.1544 13.5257 7.21266C13.5014 7.27091 13.4657 7.32384 13.4207 7.36842C13.3757 7.413 13.3223 7.44835 13.2635 7.47246C13.2047 7.49657 13.1417 7.50896 13.0781 7.50893Z" fill="#117F33"/>
<path d="M10.6563 5.10898C10.5926 5.10902 10.5296 5.09663 10.4708 5.07252C10.4121 5.04841 10.3586 5.01306 10.3137 4.96848C10.2687 4.9239 10.233 4.87097 10.2087 4.81272C10.1843 4.75446 10.1718 4.69203 10.1719 4.62898V3.18898C10.1719 3.06168 10.2229 2.93959 10.3137 2.84957C10.4046 2.75956 10.5278 2.70898 10.6563 2.70898C10.7847 2.70898 10.9079 2.75956 10.9988 2.84957C11.0896 2.93959 11.1406 3.06168 11.1406 3.18898V4.62898C11.1407 4.69203 11.1282 4.75446 11.1038 4.81272C11.0795 4.87097 11.0438 4.9239 10.9988 4.96848C10.9539 5.01306 10.9004 5.04841 10.8417 5.07252C10.7829 5.09663 10.7199 5.10902 10.6563 5.10898Z" fill="#117F33"/>
<path d="M10.6566 3.66898H7.27734C7.14888 3.66898 7.02568 3.61841 6.93484 3.5284C6.844 3.43838 6.79297 3.31629 6.79297 3.18898C6.79297 3.06168 6.844 2.93959 6.93484 2.84957C7.02568 2.75956 7.14888 2.70898 7.27734 2.70898H10.6566C10.7851 2.70898 10.9083 2.75956 10.9991 2.84957C11.09 2.93959 11.141 3.06168 11.141 3.18898C11.141 3.31629 11.09 3.43838 10.9991 3.5284C10.9083 3.61841 10.7851 3.66898 10.6566 3.66898Z" fill="#117F33"/>
<path d="M2.90625 7.98898C2.84263 7.98902 2.77963 7.97663 2.72084 7.95252C2.66206 7.92841 2.60865 7.89306 2.56366 7.84848C2.51868 7.8039 2.483 7.75097 2.45867 7.69271C2.43434 7.63446 2.42184 7.57203 2.42188 7.50898C2.42338 6.2364 2.93419 5.01637 3.84224 4.11652C4.7503 3.21667 5.98145 2.71048 7.26563 2.70898C7.39409 2.70898 7.51729 2.75956 7.60813 2.84957C7.69897 2.93959 7.75 3.06168 7.75 3.18898C7.75 3.31629 7.69897 3.43838 7.60813 3.52839C7.51729 3.61841 7.39409 3.66898 7.26563 3.66898C6.23827 3.67015 5.25333 4.07509 4.52688 4.79498C3.80044 5.51487 3.3918 6.49091 3.39063 7.50898C3.39066 7.57203 3.37816 7.63446 3.35383 7.69271C3.3295 7.75097 3.29382 7.8039 3.24884 7.84848C3.20385 7.89306 3.15044 7.92841 3.09166 7.95252C3.03287 7.97663 2.96987 7.98902 2.90625 7.98898ZM13.0781 9.90898C13.0145 9.90906 12.9515 9.89667 12.8927 9.87253C12.834 9.8484 12.7806 9.81299 12.7357 9.76834L11.2825 8.32834C11.237 8.2839 11.2008 8.23097 11.176 8.17259C11.1512 8.11421 11.1383 8.05155 11.138 7.98821C11.1378 7.92486 11.1502 7.8621 11.1745 7.80353C11.1989 7.74496 11.2347 7.69175 11.2799 7.64696C11.3251 7.60217 11.3788 7.56669 11.4379 7.54256C11.497 7.51843 11.5603 7.50614 11.6242 7.50639C11.6881 7.50663 11.7514 7.51941 11.8103 7.544C11.8692 7.56858 11.9226 7.60447 11.9675 7.64961L13.4206 9.08961C13.4883 9.15674 13.5344 9.24226 13.5531 9.33535C13.5718 9.42845 13.5622 9.52495 13.5255 9.61264C13.4889 9.70034 13.4268 9.7753 13.3472 9.82804C13.2675 9.88079 13.1739 9.90896 13.0781 9.90898Z" fill="#117F33"/>
<path d="M7.9916 9.4289C6.62915 9.41633 5.29217 9.06151 4.10572 8.39765C4.05152 8.36463 4.00442 8.32135 3.9671 8.27028C3.92978 8.21922 3.90298 8.16137 3.88822 8.10004C3.85841 7.97618 3.87948 7.84565 3.94678 7.73718C4.01409 7.62871 4.12212 7.55118 4.24711 7.52164C4.309 7.50702 4.37319 7.50461 4.43602 7.51457C4.49884 7.52453 4.55908 7.54665 4.61328 7.57968C5.64841 8.147 6.80882 8.45244 7.9916 8.46889C9.1751 8.4522 10.3362 8.1468 11.3723 7.57968C11.4817 7.51382 11.613 7.49359 11.7375 7.52339C11.8619 7.55319 11.9694 7.6306 12.0364 7.7387C12.1034 7.84681 12.1245 7.97681 12.0951 8.10029C12.0657 8.22377 11.9881 8.33068 11.8794 8.39765C10.6922 9.06135 9.35463 9.41614 7.9916 9.4289Z" fill="#117F33"/>
<path d="M2.90615 9.90877C2.81036 9.90875 2.71673 9.88059 2.6371 9.82785C2.55746 9.7751 2.49539 9.70014 2.45874 9.61245C2.42209 9.52475 2.4125 9.42825 2.43118 9.33516C2.44986 9.24206 2.49597 9.15654 2.56369 9.08941L4.01682 7.64941C4.06167 7.60431 4.11509 7.56845 4.17399 7.54389C4.23289 7.51934 4.29611 7.50658 4.36001 7.50635C4.42391 7.50612 4.48723 7.51842 4.54631 7.54255C4.60539 7.56667 4.65907 7.60215 4.70425 7.64693C4.74944 7.6917 4.78523 7.7449 4.80958 7.80345C4.83392 7.86199 4.84634 7.92474 4.8461 7.98806C4.84587 8.05138 4.83299 8.11404 4.80821 8.1724C4.78343 8.23077 4.74724 8.28371 4.70172 8.32815L3.2486 9.76815C3.20368 9.81279 3.1503 9.8482 3.09153 9.87233C3.03277 9.89646 2.96976 9.90885 2.90615 9.90877ZM30.5155 20.4688C30.4519 20.4688 30.3889 20.4564 30.3301 20.4323C30.2713 20.4082 30.2179 20.3728 30.1729 20.3283C30.1279 20.2837 30.0923 20.2308 30.0679 20.1725C30.0436 20.1143 30.0311 20.0518 30.0311 19.9888C30.0306 19.4797 29.8263 18.9916 29.4631 18.6317C29.0999 18.2717 28.6073 18.0693 28.0936 18.0688C27.9652 18.0688 27.842 18.0182 27.7511 17.9282C27.6603 17.8382 27.6093 17.7161 27.6093 17.5888C27.6093 17.4615 27.6603 17.3394 27.7511 17.2494C27.842 17.1593 27.9652 17.1088 28.0936 17.1088C28.8642 17.1096 29.6029 17.4133 30.1477 17.9532C30.6926 18.4932 30.9991 19.2252 30.9999 19.9888C30.9999 20.0518 30.9874 20.1143 30.9631 20.1725C30.9388 20.2308 30.9031 20.2837 30.8581 20.3283C30.8131 20.3728 30.7597 20.4082 30.7009 20.4323C30.6421 20.4564 30.5791 20.4688 30.5155 20.4688Z" fill="#117F33"/>
<path d="M28.0938 18.0689L25.1875 18.0684C25.059 18.0684 24.9358 18.0178 24.845 17.9278C24.7542 17.8378 24.7031 17.7157 24.7031 17.5884C24.7031 17.4611 24.7542 17.339 24.845 17.249C24.9358 17.159 25.059 17.1084 25.1875 17.1084L28.0938 17.1089C28.2222 17.1089 28.3454 17.1594 28.4363 17.2495C28.5271 17.3395 28.5781 17.4616 28.5781 17.5889C28.5781 17.7162 28.5271 17.8383 28.4363 17.9283C28.3454 18.0183 28.2222 18.0689 28.0938 18.0689ZM30.5151 23.3489C30.4515 23.3489 30.3885 23.3365 30.3297 23.3124C30.271 23.2883 30.2175 23.253 30.1726 23.2084C30.1276 23.1638 30.0919 23.1109 30.0676 23.0526C30.0432 22.9944 30.0307 22.9319 30.0308 22.8689V19.9889C30.0308 19.8616 30.0818 19.7395 30.1726 19.6495C30.2635 19.5594 30.3867 19.5089 30.5151 19.5089C30.6436 19.5089 30.7668 19.5594 30.8576 19.6495C30.9485 19.7395 30.9995 19.8616 30.9995 19.9889V22.8689C30.9996 22.9319 30.987 22.9944 30.9627 23.0526C30.9384 23.1109 30.9027 23.1638 30.8577 23.2084C30.8127 23.253 30.7593 23.2883 30.7005 23.3124C30.6418 23.3365 30.5788 23.3489 30.5151 23.3489Z" fill="#117F33"/>
<path d="M25.1875 18.0685C25.1239 18.0685 25.0609 18.0561 25.0021 18.032C24.9433 18.0079 24.8899 17.9726 24.8449 17.928C24.7999 17.8834 24.7643 17.8305 24.7399 17.7722C24.7156 17.714 24.7031 17.6515 24.7031 17.5885V15.669C24.7031 15.5417 24.7542 15.4196 24.845 15.3296C24.9358 15.2395 25.059 15.189 25.1875 15.189C25.316 15.189 25.4392 15.2395 25.53 15.3296C25.6208 15.4196 25.6719 15.5417 25.6719 15.669V17.5885C25.6719 17.6515 25.6594 17.714 25.6351 17.7722C25.6107 17.8305 25.5751 17.8834 25.5301 17.928C25.4851 17.9726 25.4317 18.0079 25.3729 18.032C25.3141 18.0561 25.2511 18.0685 25.1875 18.0685ZM15.5 20.469C15.4364 20.469 15.3734 20.4566 15.3146 20.4325C15.2558 20.4084 15.2024 20.373 15.1574 20.3284C15.1124 20.2839 15.0768 20.2309 15.0524 20.1727C15.0281 20.1144 15.0156 20.052 15.0156 19.989C15.0165 19.2254 15.3229 18.4933 15.8678 17.9534C16.4126 17.4135 17.1513 17.1098 17.9219 17.109C18.0503 17.109 18.1735 17.1595 18.2644 17.2495C18.3552 17.3396 18.4062 17.4616 18.4062 17.589C18.4062 17.7163 18.3552 17.8383 18.2644 17.9284C18.1735 18.0184 18.0503 18.069 17.9219 18.069C17.4082 18.0695 16.9157 18.2719 16.5524 18.6319C16.1892 18.9918 15.9849 19.4799 15.9844 19.989C15.9844 20.052 15.9719 20.1144 15.9476 20.1727C15.9233 20.2309 15.8876 20.2839 15.8426 20.3284C15.7976 20.373 15.7442 20.4084 15.6854 20.4325C15.6266 20.4566 15.5636 20.469 15.5 20.469Z" fill="#117F33"/>
<path d="M17.9214 18.0689C17.7929 18.0689 17.6697 18.0183 17.5789 17.9283C17.488 17.8383 17.437 17.7162 17.437 17.5889C17.437 17.4616 17.488 17.3395 17.5789 17.2495C17.6697 17.1594 17.7929 17.1089 17.9214 17.1089L20.8276 17.1084C20.9561 17.1084 21.0793 17.159 21.1701 17.249C21.261 17.339 21.312 17.4611 21.312 17.5884C21.312 17.7157 21.261 17.8378 21.1701 17.9278C21.0793 18.0178 20.9561 18.0684 20.8276 18.0684L17.9214 18.0689ZM15.5 23.3484C15.4364 23.3484 15.3734 23.3361 15.3146 23.3119C15.2558 23.2878 15.2024 23.2525 15.1574 23.2079C15.1124 23.1633 15.0768 23.1104 15.0524 23.0521C15.0281 22.9939 15.0156 22.9315 15.0156 22.8684V19.9884C15.0156 19.8611 15.0667 19.739 15.1575 19.649C15.2483 19.559 15.3715 19.5084 15.5 19.5084C15.6285 19.5084 15.7517 19.559 15.8425 19.649C15.9333 19.739 15.9844 19.8611 15.9844 19.9884V22.8684C15.9844 22.9315 15.9719 22.9939 15.9476 23.0521C15.9232 23.1104 15.8876 23.1633 15.8426 23.2079C15.7976 23.2525 15.7442 23.2878 15.6854 23.3119C15.6266 23.3361 15.5636 23.3484 15.5 23.3484Z" fill="#117F33"/>
<path d="M20.8284 18.0685C20.7648 18.0685 20.7018 18.0561 20.643 18.032C20.5842 18.0079 20.5308 17.9726 20.4858 17.928C20.4408 17.8834 20.4051 17.8305 20.3808 17.7722C20.3565 17.714 20.344 17.6515 20.344 17.5885V15.669C20.344 15.5417 20.395 15.4196 20.4859 15.3296C20.5767 15.2395 20.6999 15.189 20.8284 15.189C20.9569 15.189 21.0801 15.2395 21.1709 15.3296C21.2617 15.4196 21.3128 15.5417 21.3128 15.669V17.5885C21.3128 17.6515 21.3003 17.714 21.276 17.7722C21.2516 17.8305 21.216 17.8834 21.171 17.928C21.126 17.9726 21.0726 18.0079 21.0138 18.032C20.955 18.0561 20.892 18.0685 20.8284 18.0685ZM6.78152 19.029C6.66892 19.029 6.55983 18.9902 6.47299 18.9192C6.38614 18.8481 6.32697 18.7494 6.30565 18.6398C6.28432 18.5302 6.30217 18.4168 6.35612 18.3188C6.41007 18.2209 6.49677 18.1446 6.6013 18.1032L7.81175 17.6227C7.87084 17.5991 7.93404 17.5874 7.99773 17.588C8.06142 17.5887 8.12436 17.6018 8.18293 17.6266C8.24151 17.6514 8.29458 17.6874 8.3391 17.7325C8.38363 17.7776 8.41874 17.831 8.44243 17.8896C8.46612 17.9482 8.47792 18.0109 8.47715 18.074C8.47639 18.1371 8.46308 18.1994 8.43798 18.2575C8.41288 18.3155 8.37649 18.368 8.33088 18.4121C8.28527 18.4561 8.23135 18.4909 8.17219 18.5143L6.96174 18.9947C6.90442 19.0174 6.84324 19.029 6.78152 19.029Z" fill="#117F33"/>
<path d="M6.78002 19.0288C6.68454 19.0288 6.59121 19.0007 6.51182 18.9482L5.0587 17.9877C4.95275 17.9167 4.87946 17.807 4.85479 17.6827C4.83013 17.5583 4.85611 17.4293 4.92706 17.3239C4.998 17.2184 5.10816 17.145 5.23349 17.1197C5.35883 17.0945 5.48916 17.1194 5.59605 17.1889L7.04918 18.1494C7.1357 18.2066 7.20136 18.2898 7.23644 18.3869C7.27152 18.4839 7.27416 18.5895 7.24398 18.6881C7.2138 18.7867 7.15239 18.8731 7.06883 18.9345C6.98528 18.9958 6.88402 19.0289 6.78002 19.0288ZM9.20096 19.0288C9.13924 19.0289 9.07806 19.0173 9.02074 18.9946L7.81029 18.5141C7.69116 18.4666 7.59591 18.3742 7.54547 18.2572C7.49503 18.1402 7.49353 18.0081 7.54128 17.89C7.58904 17.7719 7.68215 17.6774 7.80017 17.6272C7.91819 17.5771 8.05147 17.5754 8.17073 17.6226L9.38119 18.103C9.48572 18.1445 9.57241 18.2208 9.62636 18.3187C9.68032 18.4166 9.69816 18.5301 9.67684 18.6397C9.65551 18.7492 9.59634 18.848 9.5095 18.919C9.42265 18.99 9.31356 19.0289 9.20096 19.0288Z" fill="#117F33"/>
<path d="M9.20142 19.029C9.09743 19.0291 8.99617 18.996 8.91262 18.9347C8.82906 18.8733 8.76765 18.7869 8.73747 18.6883C8.70728 18.5897 8.70993 18.4841 8.74501 18.3871C8.78009 18.2901 8.84575 18.2068 8.93227 18.1496L10.3854 17.1892C10.4383 17.1537 10.4978 17.1289 10.5604 17.1163C10.623 17.1037 10.6875 17.1035 10.7502 17.1157C10.8129 17.128 10.8725 17.1523 10.9256 17.1875C10.9788 17.2226 11.0244 17.2678 11.0598 17.3205C11.0952 17.3732 11.1198 17.4323 11.1321 17.4944C11.1444 17.5565 11.1442 17.6204 11.1314 17.6825C11.1187 17.7445 11.0937 17.8034 11.0579 17.8558C11.0221 17.9083 10.9761 17.9531 10.9228 17.9879L9.46963 18.9484C9.39023 19.0009 9.2969 19.029 9.20142 19.029ZM8.00042 20.9481C7.87195 20.9487 7.7485 20.8987 7.65722 20.8091C7.56594 20.7195 7.5143 20.5977 7.51368 20.4704C7.51305 20.3431 7.56348 20.2208 7.65388 20.1303C7.74427 20.0398 7.86722 19.9887 7.99569 19.9881H8.00042C8.12888 19.9881 8.25208 20.0386 8.34292 20.1286C8.43376 20.2187 8.48479 20.3408 8.48479 20.4681C8.48479 20.5954 8.43376 20.7175 8.34292 20.8075C8.25208 20.8975 8.12888 20.9481 8.00042 20.9481ZM8.00042 22.8681C7.87195 22.8687 7.7485 22.8187 7.65722 22.7291C7.56594 22.6395 7.5143 22.5177 7.51368 22.3904C7.51305 22.2631 7.56348 22.1408 7.65388 22.0503C7.74427 21.9598 7.86722 21.9087 7.99569 21.9081H8.00042C8.12888 21.9081 8.25208 21.9586 8.34292 22.0486C8.43376 22.1387 8.48479 22.2608 8.48479 22.3881C8.48479 22.5154 8.43376 22.6375 8.34292 22.7275C8.25208 22.8175 8.12888 22.8681 8.00042 22.8681ZM23.0066 16.6327C21.5287 16.6311 20.1119 16.0486 19.0669 15.0131C18.0219 13.9775 17.4341 12.5735 17.4325 11.109C17.4325 10.9817 17.4835 10.8596 17.5744 10.7696C17.6652 10.6796 17.7884 10.629 17.9169 10.629C18.0453 10.629 18.1685 10.6796 18.2594 10.7696C18.3502 10.8596 18.4012 10.9817 18.4012 11.109C18.4006 11.7087 18.5193 12.3027 18.7504 12.8569C18.9816 13.4111 19.3207 13.9148 19.7484 14.3391C20.1761 14.7634 20.684 15.0999 21.2431 15.3296C21.8022 15.5592 22.4014 15.6774 23.0066 15.6774C23.6118 15.6774 24.211 15.5592 24.7701 15.3296C25.3291 15.0999 25.837 14.7634 26.2647 14.3391C26.6924 13.9148 27.0316 13.4111 27.2627 12.8569C27.4939 12.3027 27.6126 11.7087 27.6119 11.109C27.6119 10.9817 27.663 10.8596 27.7538 10.7696C27.8446 10.6796 27.9678 10.629 28.0963 10.629C28.2248 10.629 28.348 10.6796 28.4388 10.7696C28.5297 10.8596 28.5807 10.9817 28.5807 11.109C28.5791 12.5735 27.9913 13.9775 26.9463 15.0131C25.9013 16.0487 24.4844 16.6311 23.0066 16.6327ZM29.0627 8.70946C28.9991 8.7095 28.9361 8.69711 28.8773 8.673C28.8185 8.64889 28.7651 8.61353 28.7201 8.56896C28.6751 8.52438 28.6395 8.47145 28.6151 8.41319C28.5908 8.35494 28.5783 8.29251 28.5783 8.22946C28.5783 6.76516 27.9913 5.36083 26.9465 4.3254C25.9016 3.28998 24.4845 2.70829 23.0068 2.70829C21.5292 2.70829 20.1121 3.28998 19.0672 4.3254C18.0223 5.36083 17.4353 6.76516 17.4353 8.22946C17.4353 8.35677 17.3843 8.47886 17.2935 8.56887C17.2026 8.65889 17.0794 8.70946 16.951 8.70946C16.8225 8.70946 16.6993 8.65889 16.6085 8.56887C16.5176 8.47886 16.4666 8.35677 16.4666 8.22946C16.4666 6.51055 17.1557 4.86204 18.3822 3.64658C19.6087 2.43113 21.2723 1.74829 23.0068 1.74829C24.7414 1.74829 26.405 2.43113 27.6315 3.64658C28.858 4.86204 29.5471 6.51055 29.5471 8.22946C29.5471 8.29251 29.5346 8.35494 29.5103 8.41319C29.486 8.47145 29.4503 8.52438 29.4053 8.56896C29.3603 8.61353 29.3069 8.64889 29.2481 8.673C29.1893 8.69711 29.1263 8.7095 29.0627 8.70946Z" fill="#117F33"/>
<path d="M17.9219 11.5889C17.8583 11.589 17.7953 11.5766 17.7365 11.5525C17.6777 11.5284 17.6243 11.493 17.5793 11.4484C17.5343 11.4039 17.4986 11.3509 17.4743 11.2927C17.45 11.2344 17.4375 11.172 17.4375 11.1089V9.90798C17.4375 9.78067 17.4885 9.65859 17.5794 9.56857C17.6702 9.47855 17.7934 9.42798 17.9219 9.42798C18.0503 9.42798 18.1735 9.47855 18.2644 9.56857C18.3552 9.65859 18.4063 9.78067 18.4063 9.90798V11.1089C18.4063 11.172 18.3938 11.2344 18.3695 11.2927C18.3451 11.3509 18.3094 11.4039 18.2645 11.4484C18.2195 11.493 18.1661 11.5284 18.1073 11.5525C18.0485 11.5766 17.9855 11.589 17.9219 11.5889ZM28.0938 11.5889C28.0301 11.589 27.9671 11.5766 27.9083 11.5525C27.8496 11.5284 27.7961 11.493 27.7512 11.4484C27.7062 11.4039 27.6705 11.3509 27.6462 11.2927C27.6218 11.2344 27.6093 11.172 27.6094 11.1089V10.388C27.6094 10.2607 27.6604 10.1386 27.7512 10.0486C27.8421 9.95855 27.9653 9.90798 28.0938 9.90798C28.2222 9.90798 28.3454 9.95855 28.4363 10.0486C28.5271 10.1386 28.5781 10.2607 28.5781 10.388V11.1089C28.5782 11.172 28.5657 11.2344 28.5413 11.2927C28.517 11.3509 28.4813 11.4039 28.4363 11.4484C28.3914 11.493 28.3379 11.5284 28.2792 11.5525C28.2204 11.5766 28.1574 11.589 28.0938 11.5889Z" fill="#117F33"/>
<path d="M16.9537 10.868C16.8446 10.8681 16.7385 10.8317 16.6529 10.7646C16.5672 10.6976 16.5069 10.6038 16.4818 10.4985C16.4566 10.3932 16.4681 10.2826 16.5144 10.1846C16.5606 10.0866 16.6389 10.007 16.7366 9.95863L27.3929 4.67959C27.4498 4.65139 27.5117 4.63458 27.5752 4.63011C27.6386 4.62564 27.7023 4.63361 27.7627 4.65354C27.823 4.67348 27.8788 4.705 27.9269 4.7463C27.975 4.78761 28.0143 4.83789 28.0428 4.89427C28.0712 4.95066 28.0882 5.01205 28.0927 5.07493C28.0972 5.13782 28.0892 5.20096 28.0691 5.26077C28.049 5.32058 28.0172 5.37587 27.9755 5.4235C27.9338 5.47112 27.8831 5.51015 27.8262 5.53834L17.1699 10.8174C17.1028 10.8506 17.0288 10.8679 16.9537 10.868Z" fill="#117F33"/>
<path d="M29.0614 11.3479C28.9833 11.3481 28.9063 11.3293 28.8372 11.2931L22.565 8.03527C22.4516 7.97599 22.3665 7.87459 22.3285 7.75328C22.2904 7.63198 22.3024 7.50067 22.3619 7.38813C22.4214 7.2756 22.5235 7.19102 22.6458 7.15294C22.768 7.11485 22.9006 7.12637 23.0143 7.18496L29.2866 10.4428C29.3826 10.4926 29.4589 10.5729 29.5034 10.6708C29.5479 10.7687 29.558 10.8786 29.5321 10.9828C29.5061 11.0871 29.4457 11.1797 29.3604 11.2459C29.275 11.3121 29.1698 11.348 29.0614 11.3479Z" fill="#117F33"/>
<path d="M29.0635 18.268C28.9998 18.2681 28.9368 18.2557 28.8781 18.2316C28.8193 18.2074 28.7659 18.1721 28.7209 18.1275C28.6759 18.0829 28.6402 18.03 28.6159 17.9717C28.5916 17.9135 28.5791 17.8511 28.5791 17.788V8.22927C28.5791 8.10196 28.6301 7.97987 28.721 7.88986C28.8118 7.79984 28.935 7.74927 29.0635 7.74927C29.1919 7.74927 29.3151 7.79984 29.406 7.88986C29.4968 7.97987 29.5478 8.10196 29.5478 8.22927V17.788C29.5479 17.8511 29.5354 17.9135 29.511 17.9717C29.4867 18.03 29.451 18.0829 29.4061 18.1275C29.3611 18.1721 29.3077 18.2074 29.2489 18.2316C29.1901 18.2557 29.1271 18.2681 29.0635 18.268ZM16.9541 18.268C16.8256 18.268 16.7024 18.2174 16.6116 18.1274C16.5208 18.0374 16.4697 17.9153 16.4697 17.788L16.4688 8.22927C16.4688 8.10196 16.5198 7.97987 16.6106 7.88986C16.7015 7.79984 16.8247 7.74927 16.9531 7.74927C17.0816 7.74927 17.2048 7.79984 17.2956 7.88986C17.3865 7.97987 17.4375 8.10196 17.4375 8.22927L17.4385 17.788C17.4385 17.9153 17.3874 18.0374 17.2966 18.1274C17.2058 18.2174 17.0826 18.268 16.9541 18.268ZM20.3447 21.4279C19.9595 21.4274 19.5901 21.2756 19.3177 21.0056C19.0452 20.7357 18.892 20.3696 18.8916 19.9879C18.8916 19.8606 18.9426 19.7385 19.0335 19.6485C19.1243 19.5584 19.2475 19.5079 19.376 19.5079C19.5044 19.5079 19.6276 19.5584 19.7185 19.6485C19.8093 19.7385 19.8603 19.8606 19.8603 19.9879C19.8604 20.1151 19.9115 20.2372 20.0023 20.3272C20.0931 20.4172 20.2163 20.4678 20.3447 20.4679C20.4732 20.4679 20.5964 20.5184 20.6872 20.6085C20.7781 20.6985 20.8291 20.8206 20.8291 20.9479C20.8291 21.0752 20.7781 21.1973 20.6872 21.2873C20.5964 21.3773 20.4732 21.4279 20.3447 21.4279Z" fill="#117F33"/>
<path d="M19.375 20.4679C19.3114 20.4679 19.2484 20.4556 19.1896 20.4314C19.1308 20.4073 19.0774 20.372 19.0324 20.3274C18.9874 20.2828 18.9518 20.2299 18.9274 20.1716C18.9031 20.1134 18.8906 20.051 18.8906 19.9879V17.5879C18.8906 17.4606 18.9417 17.3385 19.0325 17.2485C19.1233 17.1585 19.2465 17.1079 19.375 17.1079C19.5035 17.1079 19.6267 17.1585 19.7175 17.2485C19.8083 17.3385 19.8594 17.4606 19.8594 17.5879V19.9879C19.8594 20.051 19.8469 20.1134 19.8226 20.1716C19.7983 20.2299 19.7626 20.2828 19.7176 20.3274C19.6726 20.372 19.6192 20.4073 19.5604 20.4314C19.5016 20.4556 19.4386 20.4679 19.375 20.4679ZM25.6719 21.4279C25.5434 21.4279 25.4202 21.3773 25.3294 21.2873C25.2385 21.1973 25.1875 21.0752 25.1875 20.9479C25.1875 20.8206 25.2385 20.6985 25.3294 20.6085C25.4202 20.5185 25.5434 20.4679 25.6719 20.4679C25.8003 20.4678 25.9235 20.4172 26.0143 20.3272C26.1051 20.2372 26.1562 20.1152 26.1562 19.9879C26.1562 19.8606 26.2073 19.7385 26.2981 19.6485C26.389 19.5585 26.5122 19.5079 26.6406 19.5079C26.7691 19.5079 26.8923 19.5585 26.9831 19.6485C27.074 19.7385 27.125 19.8606 27.125 19.9879C27.1246 20.3697 26.9713 20.7357 26.6989 21.0057C26.4265 21.2756 26.0571 21.4275 25.6719 21.4279Z" fill="#117F33"/>
<path d="M26.6406 20.4679C26.577 20.4679 26.514 20.4556 26.4552 20.4314C26.3964 20.4073 26.343 20.372 26.298 20.3274C26.2531 20.2828 26.2174 20.2299 26.193 20.1716C26.1687 20.1134 26.1562 20.051 26.1562 19.9879V17.5879C26.1562 17.4606 26.2073 17.3385 26.2981 17.2485C26.389 17.1585 26.5122 17.1079 26.6406 17.1079C26.7691 17.1079 26.8923 17.1585 26.9831 17.2485C27.074 17.3385 27.125 17.4606 27.125 17.5879V19.9879C27.125 20.051 27.1125 20.1134 27.0882 20.1716C27.0639 20.2299 27.0282 20.2828 26.9832 20.3274C26.9382 20.372 26.8848 20.4073 26.826 20.4314C26.7672 20.4556 26.7042 20.4679 26.6406 20.4679ZM25.6719 21.4279H20.3438C20.2153 21.4279 20.0921 21.3773 20.0012 21.2873C19.9104 21.1973 19.8594 21.0752 19.8594 20.9479C19.8594 20.8206 19.9104 20.6985 20.0012 20.6085C20.0921 20.5185 20.2153 20.4679 20.3438 20.4679H25.6719C25.8003 20.4679 25.9235 20.5185 26.0144 20.6085C26.1052 20.6985 26.1562 20.8206 26.1562 20.9479C26.1562 21.0752 26.1052 21.1973 26.0144 21.2873C25.9235 21.3773 25.8003 21.4279 25.6719 21.4279Z" fill="#117F33"/>
</svg>
