<svg width="16" height="16" viewBox="0 0 16 16" fill="none" xmlns="http://www.w3.org/2000/svg">
<path d="M8.33203 4.66634H9.66536V5.99967H8.33203V4.66634ZM8.33203 7.33301H9.66536V11.333H8.33203V7.33301ZM8.9987 1.33301C5.3187 1.33301 2.33203 4.31967 2.33203 7.99967C2.33203 11.6797 5.3187 14.6663 8.9987 14.6663C12.6787 14.6663 15.6654 11.6797 15.6654 7.99967C15.6654 4.31967 12.6787 1.33301 8.9987 1.33301ZM8.9987 13.333C6.0587 13.333 3.66536 10.9397 3.66536 7.99967C3.66536 5.05967 6.0587 2.66634 8.9987 2.66634C11.9387 2.66634 14.332 5.05967 14.332 7.99967C14.332 10.9397 11.9387 13.333 8.9987 13.333Z" fill="#0F7D31"/>
</svg>
