<svg width="24" height="24" viewBox="0 0 24 24" fill="none" xmlns="http://www.w3.org/2000/svg">
<path d="M16.6875 21.5002C16.6875 22.2075 16.1138 22.7812 15.4064 22.7812H8.59359C7.88625 22.7812 7.3125 22.2075 7.3125 21.5002V7.65656C7.3125 6.94875 7.88625 6.375 8.59359 6.375H15.4064C16.1138 6.375 16.6875 6.94875 16.6875 7.65656V21.5002Z" fill="white"/>
<path d="M21.8438 9.1875V12H13.4062C12.9787 12.5695 12.2981 12.9375 11.5312 12.9375C10.2366 12.9375 9.1875 11.8884 9.1875 10.5938C9.1875 9.29953 10.2366 8.25 11.5312 8.25C12.2981 8.25 12.9787 8.61844 13.4062 9.1875H21.8438ZM12 18.5625H13.875V20.4375H12V18.5625ZM10.125 16.6875H12V18.5625H10.125V16.6875ZM12 14.8125H13.875V16.6875H12V14.8125ZM10.125 18.5625H12V20.4375H10.125V18.5625ZM12 16.6875H13.875V18.5625H12V16.6875ZM10.125 14.8125H12V16.6875H10.125V14.8125Z" fill="white"/>
<path d="M15.4064 23.25H8.59359C7.62872 23.25 6.84375 22.465 6.84375 21.5002V7.65656C6.84375 6.69145 7.62872 5.90625 8.59359 5.90625H15.4064C16.3713 5.90625 17.1562 6.69145 17.1562 7.65656V9.1875C17.1562 9.44634 16.9463 9.65625 16.6875 9.65625C16.4287 9.65625 16.2188 9.44634 16.2188 9.1875V7.65656C16.2188 7.20834 15.8543 6.84375 15.4064 6.84375H8.59359C8.14566 6.84375 7.78125 7.20834 7.78125 7.65656V21.5002C7.78125 21.9481 8.14566 22.3125 8.59359 22.3125H15.4064C15.8543 22.3125 16.2188 21.9481 16.2188 21.5002V12C16.2188 11.7412 16.4287 11.5312 16.6875 11.5312C16.9463 11.5312 17.1562 11.7412 17.1562 12V21.5002C17.1562 22.465 16.3713 23.25 15.4064 23.25Z" fill="#117F33"/>
<path d="M11.5312 13.4062C9.98044 13.4062 8.71875 12.1446 8.71875 10.5938C8.71875 9.04294 9.98044 7.78125 11.5312 7.78125C12.3429 7.78125 13.0944 8.12011 13.6278 8.71875H21.8438C22.1026 8.71875 22.3125 8.92866 22.3125 9.1875V12C22.3125 12.2588 22.1026 12.4688 21.8438 12.4688H13.6279C13.0949 13.0674 12.3433 13.4062 11.5312 13.4062ZM11.5312 8.71875C10.4974 8.71875 9.65625 9.55988 9.65625 10.5938C9.65625 11.6276 10.4974 12.4688 11.5312 12.4688C12.1267 12.4688 12.6735 12.1953 13.0313 11.7186C13.075 11.6604 13.1316 11.6132 13.1967 11.5807C13.2617 11.5482 13.3335 11.5312 13.4062 11.5312H21.375V9.65625H13.4062C13.3335 9.65625 13.2618 9.63934 13.1968 9.60685C13.1317 9.57435 13.0751 9.52717 13.0315 9.46903C12.6733 8.99222 12.1265 8.71875 11.5312 8.71875ZM10.125 17.1562C9.86611 17.1562 9.65625 16.9463 9.65625 16.6875V14.8125C9.65625 14.5537 9.86611 14.3438 10.125 14.3438H12C12.2589 14.3438 12.4688 14.5537 12.4688 14.8125C12.4688 15.0713 12.2589 15.2812 12 15.2812H10.5938V16.6875C10.5938 16.9463 10.3839 17.1562 10.125 17.1562Z" fill="#117F33"/>
<path d="M13.875 17.1562C13.6162 17.1562 13.4062 16.9463 13.4062 16.6875V15.2812H12.4688V16.6875C12.4688 16.9463 12.2589 17.1562 12 17.1562C11.7411 17.1562 11.5312 16.9463 11.5312 16.6875V14.8125C11.5312 14.5537 11.7411 14.3438 12 14.3438H13.875C14.1338 14.3438 14.3438 14.5537 14.3438 14.8125V16.6875C14.3438 16.9463 14.1338 17.1562 13.875 17.1562Z" fill="#06511D"/>
<path d="M10.125 19.0312C9.86611 19.0312 9.65625 18.8213 9.65625 18.5625V16.6875C9.65625 16.4287 9.86611 16.2188 10.125 16.2188H12C12.2589 16.2188 12.4688 16.4287 12.4688 16.6875C12.4688 16.9463 12.2589 17.1562 12 17.1562H10.5938V18.5625C10.5938 18.8213 10.3839 19.0312 10.125 19.0312Z" fill="#06511D"/>
<path d="M13.875 19.0312C13.6162 19.0312 13.4062 18.8213 13.4062 18.5625V17.1562H12.4688V18.5625C12.4688 18.8213 12.2589 19.0312 12 19.0312C11.7411 19.0312 11.5312 18.8213 11.5312 18.5625V16.6875C11.5312 16.4287 11.7411 16.2188 12 16.2188H13.875C14.1338 16.2188 14.3438 16.4287 14.3438 16.6875V18.5625C14.3438 18.8213 14.1338 19.0312 13.875 19.0312Z" fill="#06511D"/>
<path d="M12 20.9062H10.125C9.86611 20.9062 9.65625 20.6963 9.65625 20.4375V18.5625C9.65625 18.3037 9.86611 18.0938 10.125 18.0938H12C12.2589 18.0938 12.4688 18.3037 12.4688 18.5625C12.4688 18.8213 12.2589 19.0312 12 19.0312H10.5938V19.9688H12C12.2589 19.9688 12.4688 20.1787 12.4688 20.4375C12.4688 20.6963 12.2589 20.9062 12 20.9062Z" fill="#06511D"/>
<path d="M3.02684 4.0046C3.09265 4.00422 3.15788 4.01684 3.2188 4.04172C3.27971 4.0666 3.33512 4.10326 3.38184 4.1496L5.02684 5.7996L6.67184 4.1496C6.76749 4.06769 6.89053 4.02489 7.01637 4.02975C7.14221 4.03461 7.26158 4.08677 7.35062 4.17582C7.43967 4.26487 7.49184 4.38424 7.4967 4.51008C7.50156 4.63591 7.45876 4.75895 7.37684 4.8546L5.37684 6.8546C5.28316 6.94773 5.15643 7 5.02434 7C4.89225 7 4.76552 6.94773 4.67184 6.8546L2.67184 4.8546C2.60304 4.78441 2.55645 4.6955 2.5379 4.59897C2.51934 4.50245 2.52965 4.4026 2.56753 4.31191C2.60541 4.22121 2.66918 4.14369 2.75087 4.08903C2.83257 4.03438 2.92855 4.00501 3.02684 4.0046Z" fill="#117F33"/>
<path d="M5 7C4.86739 7 4.74021 6.94732 4.64645 6.85355C4.55268 6.75979 4.5 6.63261 4.5 6.5V1.5C4.5 1.36739 4.55268 1.24021 4.64645 1.14645C4.74021 1.05268 4.86739 1 5 1C5.13261 1 5.25979 1.05268 5.35355 1.14645C5.44732 1.24021 5.5 1.36739 5.5 1.5V6.5C5.5 6.63261 5.44732 6.75979 5.35355 6.85355C5.25979 6.94732 5.13261 7 5 7Z" fill="#117F33"/>
</svg>
