<svg width="19" height="3" viewBox="0 0 19 3" fill="none" xmlns="http://www.w3.org/2000/svg">
<path d="M0.666667 1.6543C0.666667 2.39068 1.26362 2.98763 2 2.98763C2.73638 2.98763 3.33333 2.39068 3.33333 1.6543C3.33333 0.917917 2.73638 0.320964 2 0.320964C1.26362 0.320964 0.666667 0.917917 0.666667 1.6543ZM15.6667 1.6543C15.6667 2.39068 16.2636 2.98763 17 2.98763C17.7364 2.98763 18.3333 2.39068 18.3333 1.6543C18.3333 0.917917 17.7364 0.320964 17 0.320964C16.2636 0.320964 15.6667 0.917917 15.6667 1.6543ZM2.9375 1.9043C3.07557 1.9043 3.1875 1.79237 3.1875 1.6543C3.1875 1.51623 3.07557 1.4043 2.9375 1.4043V1.9043ZM4.8125 1.4043C4.67443 1.4043 4.5625 1.51623 4.5625 1.6543C4.5625 1.79237 4.67443 1.9043 4.8125 1.9043V1.4043ZM6.6875 1.9043C6.82557 1.9043 6.9375 1.79237 6.9375 1.6543C6.9375 1.51623 6.82557 1.4043 6.6875 1.4043V1.9043ZM8.5625 1.4043C8.42443 1.4043 8.3125 1.51623 8.3125 1.6543C8.3125 1.79237 8.42443 1.9043 8.5625 1.9043V1.4043ZM10.4375 1.9043C10.5756 1.9043 10.6875 1.79237 10.6875 1.6543C10.6875 1.51623 10.5756 1.4043 10.4375 1.4043V1.9043ZM12.3125 1.4043C12.1744 1.4043 12.0625 1.51623 12.0625 1.6543C12.0625 1.79237 12.1744 1.9043 12.3125 1.9043V1.4043ZM14.1875 1.9043C14.3256 1.9043 14.4375 1.79237 14.4375 1.6543C14.4375 1.51623 14.3256 1.4043 14.1875 1.4043V1.9043ZM16.0625 1.4043C15.9244 1.4043 15.8125 1.51623 15.8125 1.6543C15.8125 1.79237 15.9244 1.9043 16.0625 1.9043V1.4043ZM2 1.6543V1.9043H2.9375V1.6543V1.4043H2V1.6543ZM4.8125 1.6543V1.9043H6.6875V1.6543V1.4043H4.8125V1.6543ZM8.5625 1.6543V1.9043H10.4375V1.6543V1.4043H8.5625V1.6543ZM12.3125 1.6543V1.9043H14.1875V1.6543V1.4043H12.3125V1.6543ZM16.0625 1.6543V1.9043H17V1.6543V1.4043H16.0625V1.6543Z" fill="white"/>
</svg>
