<svg width="17" height="16" viewBox="0 0 17 16" fill="none" xmlns="http://www.w3.org/2000/svg">
<path d="M7.32812 4.66634H8.66146V5.99967H7.32812V4.66634ZM7.32812 7.33301H8.66146V11.333H7.32812V7.33301ZM7.99479 1.33301C4.31479 1.33301 1.32812 4.31967 1.32812 7.99967C1.32812 11.6797 4.31479 14.6663 7.99479 14.6663C11.6748 14.6663 14.6615 11.6797 14.6615 7.99967C14.6615 4.31967 11.6748 1.33301 7.99479 1.33301ZM7.99479 13.333C5.05479 13.333 2.66146 10.9397 2.66146 7.99967C2.66146 5.05967 5.05479 2.66634 7.99479 2.66634C10.9348 2.66634 13.3281 5.05967 13.3281 7.99967C13.3281 10.9397 10.9348 13.333 7.99479 13.333Z" fill="#E31E24"/>
</svg>
