<svg width="32" height="32" viewBox="0 0 32 32" fill="none" xmlns="http://www.w3.org/2000/svg">
<path d="M30 9H2C1.73478 9 1.48043 9.10536 1.29289 9.29289C1.10536 9.48043 1 9.73478 1 10V30C1 30.2652 1.10536 30.5196 1.29289 30.7071C1.48043 30.8946 1.73478 31 2 31H24C24.1316 31.0008 24.2621 30.9755 24.3839 30.9258C24.5057 30.876 24.6166 30.8027 24.71 30.71L30.71 24.71C30.8027 24.6166 30.876 24.5057 30.9258 24.3839C30.9755 24.2621 31.0008 24.1316 31 24V10C31 9.73478 30.8946 9.48043 30.7071 9.29289C30.5196 9.10536 30.2652 9 30 9Z" fill="#FFE5E5"/>
<path d="M30.71 24.71C30.8027 24.6166 30.876 24.5057 30.9258 24.3839C30.9755 24.2621 31.0008 24.1316 31 24H25C24.7348 24 24.4804 24.1054 24.2929 24.2929C24.1054 24.4804 24 24.7348 24 25V31C24.1316 31.0008 24.2621 30.9755 24.3839 30.9258C24.5057 30.876 24.6166 30.8027 24.71 30.71L30.71 24.71ZM26 19H6C5.73478 19 5.48043 18.8946 5.29289 18.7071C5.10536 18.5196 5 18.2652 5 18C5 17.7348 5.10536 17.4804 5.29289 17.2929C5.48043 17.1054 5.73478 17 6 17H26C26.2652 17 26.5196 17.1054 26.7071 17.2929C26.8946 17.4804 27 17.7348 27 18C27 18.2652 26.8946 18.5196 26.7071 18.7071C26.5196 18.8946 26.2652 19 26 19ZM26 23H6C5.73478 23 5.48043 22.8946 5.29289 22.7071C5.10536 22.5196 5 22.2652 5 22C5 21.7348 5.10536 21.4804 5.29289 21.2929C5.48043 21.1054 5.73478 21 6 21H26C26.2652 21 26.5196 21.1054 26.7071 21.2929C26.8946 21.4804 27 21.7348 27 22C27 22.2652 26.8946 22.5196 26.7071 22.7071C26.5196 22.8946 26.2652 23 26 23ZM19 27H6C5.73478 27 5.48043 26.8946 5.29289 26.7071C5.10536 26.5196 5 26.2652 5 26C5 25.7348 5.10536 25.4804 5.29289 25.2929C5.48043 25.1054 5.73478 25 6 25H19C19.2652 25 19.5196 25.1054 19.7071 25.2929C19.8946 25.4804 20 25.7348 20 26C20 26.2652 19.8946 26.5196 19.7071 26.7071C19.5196 26.8946 19.2652 27 19 27ZM19 10C18.7348 10 18.4804 10.1054 18.2929 10.2929C18.1054 10.4804 18 10.7348 18 11C18 11.5304 17.7893 12.0391 17.4142 12.4142C17.0391 12.7893 16.5304 13 16 13C15.4696 13 14.9609 12.7893 14.5858 12.4142C14.2107 12.0391 14 11.5304 14 11V6.5C14 5.57174 14.3687 4.6815 15.0251 4.02513C15.6815 3.36875 16.5717 3 17.5 3C18.4283 3 19.3185 3.36875 19.9749 4.02513C20.6313 4.6815 21 5.57174 21 6.5V9H23V6.5C23 5.04131 22.4205 3.64236 21.3891 2.61091C20.3576 1.57946 18.9587 1 17.5 1C16.0413 1 14.6424 1.57946 13.6109 2.61091C12.5795 3.64236 12 5.04131 12 6.5V11C12 12.0609 12.4214 13.0783 13.1716 13.8284C13.9217 14.5786 14.9391 15 16 15C17.0609 15 18.0783 14.5786 18.8284 13.8284C19.5786 13.0783 20 12.0609 20 11C20 10.7348 19.8946 10.4804 19.7071 10.2929C19.5196 10.1054 19.2652 10 19 10Z" fill="#FD6267"/>
</svg>
