<svg width="13" height="13" viewBox="0 0 13 13" fill="none" xmlns="http://www.w3.org/2000/svg">
<g clip-path="url(#clip0_1806_23799)">
<path d="M6.96345 0.483398C3.63001 0.483398 0.927734 3.18568 0.927734 6.51911C1.22363 14.5167 12.7045 14.5146 12.9992 6.51904C12.9992 3.18568 10.2969 0.483398 6.96345 0.483398ZM6.96345 11.8475C4.02066 11.8475 1.63504 9.4619 1.63504 6.51911C1.89625 -0.541306 12.0317 -0.539396 12.2919 6.51918C12.2919 9.4619 9.90624 11.8475 6.96345 11.8475ZM9.54754 8.60304C9.86667 8.94679 9.39077 9.4222 9.0474 9.10318L6.96345 7.01925L4.87952 9.10318C4.53577 9.42231 4.06036 8.94641 4.37938 8.60304L6.46331 6.51911L4.37938 4.43519C4.06025 4.09144 4.53615 3.61603 4.87952 3.93505L6.96345 6.01895L9.04737 3.93503C9.39113 3.61589 9.86653 4.09179 9.54751 4.43516L7.46359 6.51909L9.54754 8.60304Z" fill="#E70000"/>
</g>
<defs>
<clipPath id="clip0_1806_23799">
<rect width="13" height="13" fill="white"/>
</clipPath>
</defs>
</svg>
