<svg width="54" height="54" viewBox="0 0 54 54" fill="none" xmlns="http://www.w3.org/2000/svg">
<path d="M52.3832 31.3629H1.61677C0.723988 31.3629 0 30.639 0 29.7461V11.4766C0 10.5837 0.723988 9.85986 1.61677 9.85986H52.3832C53.276 9.85986 54 10.5837 54 11.4766V29.7461C54 30.639 53.276 31.3629 52.3832 31.3629ZM3.23353 28.1293H50.7665V13.0934H3.23353V28.1293Z" fill="#555555"/>
<path d="M46.8358 31.3628C46.8348 31.3628 46.8337 31.3628 46.8325 31.3628H7.59912C7.08806 31.3628 6.60707 31.1212 6.30214 30.7112C5.99706 30.3012 5.90377 29.7712 6.05057 29.2817L8.07121 22.5427C8.27638 21.8588 8.90578 21.3904 9.61991 21.3904H44.3804C45.0601 21.3904 45.6673 21.8156 45.8997 22.4544L48.3161 29.0952C48.4037 29.2944 48.4524 29.5146 48.4524 29.7462C48.4525 30.6389 47.7287 31.3628 46.8358 31.3628ZM9.77172 28.1292H44.5236L43.248 24.6238H10.8229L9.77172 28.1292Z" fill="#555555"/>
<path d="M9.53946 17.7282H6.84479C5.95202 17.7282 5.22803 17.0043 5.22803 16.1114C5.22803 15.2185 5.95202 14.4946 6.84479 14.4946H9.53946C10.4322 14.4946 11.1562 15.2185 11.1562 16.1114C11.1562 17.0043 10.4322 17.7282 9.53946 17.7282Z" fill="#555555"/>
<path d="M11.3712 44.1395C10.4784 44.1395 9.75439 43.4157 9.75439 42.5227V35.2935C9.75439 34.4006 10.4784 33.6768 11.3712 33.6768C12.2639 33.6768 12.9879 34.4006 12.9879 35.2935V42.5227C12.9879 43.4157 12.2639 44.1395 11.3712 44.1395Z" fill="#555555"/>
<path d="M25.2755 44.1395C24.3827 44.1395 23.6587 43.4157 23.6587 42.5227V35.2935C23.6587 34.4006 24.3827 33.6768 25.2755 33.6768C26.1682 33.6768 26.8922 34.4006 26.8922 35.2935V42.5227C26.8922 43.4157 26.1682 44.1395 25.2755 44.1395Z" fill="#555555"/>
<path d="M39.1798 44.1395C38.287 44.1395 37.563 43.4157 37.563 42.5227V35.2935C37.563 34.4006 38.287 33.6768 39.1798 33.6768C40.0725 33.6768 40.7965 34.4006 40.7965 35.2935V42.5227C40.7965 43.4157 40.0725 44.1395 39.1798 44.1395Z" fill="#555555"/>
</svg>
