<svg width="54" height="54" viewBox="0 0 54 54" fill="none" xmlns="http://www.w3.org/2000/svg">
<g clip-path="url(#clip0_882_36)">
<path d="M42.1875 18.9148H25.3125C24.8649 18.9148 24.4357 19.0926 24.1193 19.4091C23.8028 19.7255 23.625 20.1547 23.625 20.6023V27.3523C23.629 29.7429 24.478 32.055 26.022 33.8801C27.5661 35.7051 29.7056 36.9255 32.0625 37.3254V47.6023H27V50.9773H40.5V47.6023H35.4375V37.3254C37.7944 36.9255 39.9339 35.7051 41.478 33.8801C43.022 32.055 43.871 29.7429 43.875 27.3523V20.6023C43.875 20.1547 43.6972 19.7255 43.3807 19.4091C43.0643 19.0926 42.6351 18.9148 42.1875 18.9148ZM40.5 27.3523C40.5 29.1425 39.7888 30.8594 38.523 32.1253C37.2571 33.3911 35.5402 34.1023 33.75 34.1023C31.9598 34.1023 30.2429 33.3911 28.977 32.1253C27.7112 30.8594 27 29.1425 27 27.3523V22.2898H40.5V27.3523Z" fill="#555555"/>
<path d="M25.3129 2.03979H16.8754C16.4279 2.03979 15.9987 2.21758 15.6822 2.53405C15.3657 2.85052 15.1879 3.27974 15.1879 3.72729V16.1652C13.5483 17.1258 12.2071 18.5221 11.3134 20.1991C10.4197 21.8762 10.0085 23.7681 10.1254 25.6648V49.2898C10.1254 49.7373 10.3032 50.1666 10.6197 50.483C10.9362 50.7995 11.3654 50.9773 11.8129 50.9773H20.2504V47.6023H13.5004V25.6648C13.5004 20.2859 17.2652 18.881 17.4094 18.8282L18.5629 18.4435V5.41479H23.6254V13.8523H27.0004V3.72729C27.0004 3.27974 26.8226 2.85052 26.5062 2.53405C26.1897 2.21758 25.7605 2.03979 25.3129 2.03979Z" fill="#555555"/>
</g>
<defs>
<clipPath id="clip0_882_36">
<rect width="54" height="54" fill="white"/>
</clipPath>
</defs>
</svg>
