<svg width="54" height="54" viewBox="0 0 54 54" fill="none" xmlns="http://www.w3.org/2000/svg">
<path d="M15.8003 21.7605C11.5638 21.7605 8.12891 25.1979 8.12891 29.4336C8.12891 33.67 11.5638 37.1058 15.8003 37.1058C20.0359 37.1058 23.4717 33.6709 23.4717 29.4336C23.4717 25.1971 20.0359 21.7605 15.8003 21.7605ZM15.7986 34.9044C12.7771 34.9044 10.3294 32.4533 10.3294 29.4336C10.3294 26.4129 12.7771 23.9627 15.7986 23.9627C18.8201 23.9627 21.2686 26.4129 21.2686 29.4336C21.2695 32.4533 18.8201 34.9044 15.7986 34.9044Z" fill="#555555"/>
<path d="M35.3759 23.9306C33.8268 22.2136 31.666 21.0501 29.241 20.7986C24.2351 19.8739 20.8499 17.7974 19.2291 16.5723C19.2046 16.5723 19.1928 16.5487 19.1692 16.5242C18.7364 16.1892 18.425 15.9488 18.2689 15.7927C18.22 15.7201 18.1609 15.6965 18.112 15.6484C16.2397 14.2435 13.9109 13.4395 11.4016 13.4395C5.17223 13.4395 0.118164 18.4935 0.118164 24.7229C0.118164 27.5436 1.13826 30.1145 2.85529 32.0838C2.85529 32.0838 2.92701 32.142 3.04766 32.2998C3.09491 32.3462 3.14301 32.4078 3.19026 32.4804C3.76738 33.2465 4.93091 35.2884 5.30216 39.4675C5.31398 39.6944 5.33845 39.9332 5.35195 40.1745C5.95185 46.1162 10.9452 50.7383 17.0438 50.7383C20.7774 50.7383 24.1018 48.9985 26.2508 46.2968C26.5647 45.8167 26.8752 45.3729 27.1764 44.951C30.0569 40.798 31.8693 39.4784 32.4945 39.1055C32.6616 39.0203 32.746 38.9857 32.746 38.9857C35.7953 37.3657 37.8844 34.1468 37.8844 30.425C37.8836 27.9165 36.9352 25.6477 35.3759 23.9306ZM30.4898 37.8534C30.4898 37.8534 30.4214 37.8837 30.2805 37.9538C29.7599 38.266 28.242 39.3696 25.8348 42.8408C25.5825 43.1918 25.3235 43.5622 25.0619 43.9655C23.2664 46.2234 20.4871 47.6763 17.3661 47.6763C12.269 47.6763 8.09413 43.8153 7.59126 38.8465C7.58198 38.6473 7.56173 38.4457 7.5516 38.2558C7.24194 34.7627 6.26741 33.0583 5.78563 32.4137C5.74598 32.3555 5.70632 32.3032 5.66582 32.266C5.56541 32.1344 5.50466 32.083 5.50466 32.083C4.06945 30.4393 3.21726 28.292 3.21726 25.9312C3.21726 20.7244 7.44107 16.4997 12.6487 16.4997C14.7471 16.4997 16.6928 17.1722 18.2596 18.3459C18.2993 18.3855 18.3499 18.4049 18.3896 18.4657C18.5204 18.5965 18.7802 18.7973 19.1422 19.0774C19.1624 19.0985 19.1726 19.1179 19.1928 19.1179C20.5462 20.143 23.3778 21.877 27.5611 22.6507C29.5861 22.8616 31.3951 23.8336 32.6878 25.2697C33.993 26.704 34.7853 28.6 34.7853 30.6992C34.7862 33.8118 33.0413 36.5 30.4898 37.8534Z" fill="#555555"/>
<path d="M12.8046 27.5318C12.8046 27.5318 13.9361 26.0501 15.875 25.9565C17.1373 25.9379 17.9253 26.3125 18.1692 26.65C18.413 26.9875 18.8256 28.1882 17.3811 28.6008C17.0807 28.6388 16.5559 28.4329 16.5559 28.4329C16.5559 28.4329 15.4861 28.1325 14.7925 28.9197C14.5115 29.2766 14.3985 29.5576 14.3428 29.7458C14.2862 29.9331 14.0323 30.7026 13.1835 30.6832C12.3355 30.6646 11.8292 29.8394 12.0545 29.0699C12.279 28.3013 12.8046 27.5318 12.8046 27.5318Z" fill="#555555"/>
<path d="M19.7109 14.0266C19.7109 14.0266 20.8289 14.6451 21.4482 13.2951C22.0675 11.9451 23.0049 10.2188 25.856 8.39964C27.3005 7.36774 30.9581 5.9612 34.7094 5.73592C36.4357 5.6043 40.9751 5.3613 46.1144 8.09927C47.2028 8.69917 50.7854 10.9689 51.3853 14.7396C51.5735 16.1647 51.6671 18.8419 48.4786 21.7613C48.1031 22.0735 47.9158 22.2987 47.9158 22.7206C47.9158 23.1425 47.8972 36.2164 47.8972 36.2164C47.8972 36.2164 47.7842 37.8296 46.2654 37.8296C44.7458 37.8296 37.6744 37.8296 37.6744 37.8296C37.6744 37.8296 36.548 37.7731 36.3421 38.8624C36.3235 39.275 36.4552 40.231 37.374 40.231C38.2937 40.231 45.6082 40.231 45.6082 40.231C45.6082 40.231 47.634 40.4368 48.7596 39.3686C49.8851 38.2988 50.2977 37.4736 50.2977 36.2172C50.2977 34.9609 50.2977 23.9314 50.2977 23.9314C50.2977 23.9314 50.4479 23.1805 50.8985 22.7215C51.3482 22.2625 53.6558 19.7607 53.8794 16.5376C53.9182 14.2899 53.6921 12.2649 51.5912 9.60114C49.4911 6.93742 45.7389 4.76224 41.9497 3.93705C38.1612 3.11102 31.7842 2.39889 25.3312 5.96289C21.8794 7.80058 20.429 10.0137 19.7109 11.2895C18.9912 12.5635 18.7786 13.3516 19.7109 14.0266Z" fill="#555555"/>
</svg>
