<svg width="54" height="54" viewBox="0 0 54 54" fill="none" xmlns="http://www.w3.org/2000/svg">
<g clip-path="url(#clip0_894_88)">
<path d="M51.7082 11.178H41.0115V6.38616C41.0115 5.44752 40.2478 4.68384 39.3091 4.68384H14.6909C13.7523 4.68384 12.9885 5.44752 12.9885 6.38616V11.178H2.29184C1.02833 11.178 0.000287771 12.2059 0.000287771 13.4695V21.7236C-9.59236e-05 21.7392 -9.59236e-05 21.7547 0.000287771 21.7701V43.4036C0.000287771 44.6671 1.02833 45.695 2.29184 45.695H5.55721C6.12226 45.695 6.58039 45.2369 6.58039 44.6718C6.58039 44.1068 6.12226 43.6486 5.55721 43.6486H2.29184C2.15895 43.6486 2.04666 43.5365 2.04666 43.4036V23.1019C7.70717 24.6551 14.1709 25.6646 20.8813 26.0421C21.109 27.0126 21.8117 27.8021 22.7297 28.1508V31.0604C22.7297 31.6255 23.1878 32.0836 23.7529 32.0836H30.2469C30.812 32.0836 31.2701 31.6255 31.2701 31.0604V28.151C32.1883 27.8021 32.8912 27.0127 33.1189 26.0419C39.8301 25.6644 46.2934 24.6547 51.9533 23.1019V43.4036C51.9533 43.5365 51.841 43.6486 51.7081 43.6486H31.0944C30.5293 43.6486 30.0712 44.1068 30.0712 44.6718C30.0712 45.2369 30.5293 45.695 31.0944 45.695H51.7082C52.9717 45.695 53.9998 44.6671 53.9998 43.4036V21.7701C54.0002 21.7547 54.0002 21.7392 53.9998 21.7236V13.4695C53.9998 12.2059 52.9719 11.178 51.7082 11.178ZM21.1279 24.0063C14.2965 23.6309 7.73237 22.5889 2.04666 20.9775V13.4695C2.04666 13.3367 2.15895 13.2244 2.29184 13.2244H22.7328L22.7609 22.5577C22.0521 22.818 21.4685 23.3402 21.1279 24.0063ZM29.2239 30.0373H24.7762V28.3444H29.2239V30.0373ZM30.2441 26.2975C30.2343 26.2975 30.2245 26.2977 30.2148 26.298C30.2144 26.298 30.2139 26.298 30.2134 26.298H23.7867C23.7861 26.298 23.7855 26.298 23.785 26.298C23.7754 26.2977 23.7657 26.2975 23.756 26.2975C23.2531 26.2812 22.8489 25.867 22.8489 25.3601C22.8489 25.3169 22.8518 25.2744 22.8575 25.2328C22.8588 25.2248 22.86 25.2165 22.8612 25.2084C22.9338 24.7637 23.3203 24.4233 23.785 24.4225C23.7865 24.4225 23.7881 24.4225 23.7896 24.4225H30.2133C30.2215 24.4224 30.23 24.4227 30.2386 24.4229C30.6902 24.4349 31.0634 24.7678 31.1376 25.2015C31.1393 25.2144 31.1412 25.2271 31.1434 25.2398C31.1485 25.2793 31.151 25.3194 31.151 25.3602C31.1513 25.867 30.7471 26.2812 30.2441 26.2975ZM24.7793 13.2244H29.2239V22.3761H24.8069L24.7793 13.2244ZM30.247 11.178H15.0348V6.73021H38.9651V11.1779L30.247 11.178ZM51.9534 20.9775C46.2685 22.5888 39.7046 23.6307 32.8724 24.0063C32.5368 23.3498 31.9652 22.8334 31.2702 22.5694V13.2245H51.7082C51.8411 13.2245 51.9534 13.3368 51.9534 13.4697V20.9775ZM25.9666 40.2187H20.1891C19.8808 40.2187 19.5838 40.2692 19.3064 40.362C19.3994 40.0844 19.4498 39.7874 19.4498 39.4789C19.4498 38.8106 19.2133 38.1969 18.8197 37.7163C19.2134 37.2357 19.4498 36.6217 19.4498 35.9535C19.4498 34.4173 18.2001 33.1676 16.664 33.1676H10.8867C9.35067 33.1676 8.10084 34.4173 8.10084 35.9537C8.10084 36.6219 8.33733 37.2358 8.73087 37.7163C8.3372 38.197 8.10084 38.811 8.10084 39.4793C8.10084 40.1476 8.33733 40.7613 8.73087 41.2419C8.3372 41.7225 8.10084 42.3365 8.10084 43.0047C8.10084 43.6728 8.33746 44.287 8.731 44.7675C8.33733 45.2481 8.10084 45.8623 8.10084 46.5304C8.10084 48.0665 9.35054 49.3162 10.8867 49.3162H16.664C17.3321 49.3162 17.9461 49.0797 18.4266 48.6862C18.9071 49.0797 19.5211 49.3162 20.1891 49.3162H25.9666C27.5026 49.3162 28.7523 48.0665 28.7523 46.5303C28.7523 45.8621 28.5158 45.248 28.1221 44.7675C28.5158 44.2869 28.7523 43.6727 28.7523 43.0045C28.7523 41.4685 27.5026 40.2187 25.9666 40.2187ZM16.664 47.27H10.8867C10.479 47.27 10.1472 46.9382 10.1472 46.5304C10.1472 46.1227 10.479 45.7909 10.8867 45.7909C10.8943 45.7909 10.9017 45.7908 10.9092 45.7907H16.6416C16.6492 45.7908 16.6566 45.7909 16.6641 45.7909C17.0719 45.7909 17.4035 46.1228 17.4035 46.5306C17.4034 46.9382 17.0717 47.27 16.664 47.27ZM16.664 43.7443H10.8867C10.479 43.7443 10.1472 43.4124 10.1472 43.0047C10.1472 42.5969 10.479 42.2652 10.8867 42.2652H16.664C17.0717 42.2652 17.4034 42.5971 17.4034 43.0048C17.4034 43.4125 17.0717 43.7443 16.664 43.7443ZM16.664 40.2187H10.8867C10.479 40.2187 10.1472 39.8869 10.1472 39.4789C10.1472 39.0712 10.479 38.7395 10.8867 38.7395H16.664C17.0717 38.7395 17.4034 39.0713 17.4034 39.4793C17.4034 39.887 17.0717 40.2187 16.664 40.2187ZM16.664 36.6932H10.8867C10.479 36.6932 10.1472 36.3613 10.1472 35.9535C10.1472 35.5458 10.479 35.214 10.8867 35.214H16.664C17.0717 35.214 17.4034 35.5459 17.4034 35.9537C17.4034 36.3614 17.0717 36.6932 16.664 36.6932ZM25.9666 47.27H20.1891C19.7814 47.27 19.4498 46.9382 19.4498 46.5304C19.4498 46.1227 19.7814 45.7909 20.1891 45.7909C20.1967 45.7909 20.2041 45.7908 20.2116 45.7907H25.944C25.9516 45.7908 25.959 45.7909 25.9666 45.7909C26.3743 45.7909 26.7059 46.1228 26.7059 46.5306C26.7059 46.9382 26.3743 47.27 25.9666 47.27ZM25.9666 43.7443H20.1891C19.7814 43.7443 19.4498 43.4124 19.4498 43.0047C19.4498 42.5969 19.7814 42.2652 20.1891 42.2652H25.9666C26.3743 42.2652 26.7059 42.5971 26.7059 43.0048C26.7059 43.4125 26.3743 43.7443 25.9666 43.7443Z" fill="#555555"/>
</g>
<defs>
<clipPath id="clip0_894_88">
<rect width="54" height="54" fill="white"/>
</clipPath>
</defs>
</svg>
