<svg width="54" height="54" viewBox="0 0 54 54" fill="none" xmlns="http://www.w3.org/2000/svg">
<g clip-path="url(#clip0_896_95)">
<path d="M52.2542 48.7048H1.74561V52.3126H52.2542V48.7048Z" fill="#555555"/>
<path d="M42.3332 18.0388H12.5692C11.6126 18.0398 10.6955 18.4202 10.0192 19.0966C9.34279 19.7729 8.96238 20.69 8.96143 21.6466V36.0776C8.96424 38.4688 9.9154 40.7613 11.6063 42.4522C13.2971 44.143 15.5896 45.0942 17.9808 45.097H32.4119C34.8031 45.0942 37.0956 44.143 38.7864 42.4522C40.4773 40.7613 41.4284 38.4688 41.4313 36.0776V34.2737H42.3332C44.4861 34.2737 46.5508 33.4185 48.0731 31.8962C49.5954 30.3739 50.4507 28.3092 50.4507 26.1563C50.4507 24.0034 49.5954 21.9387 48.0731 20.4164C46.5508 18.894 44.4861 18.0388 42.3332 18.0388ZM37.8235 36.0776C37.8219 37.5124 37.2513 38.8879 36.2367 39.9025C35.2222 40.917 33.8466 41.4877 32.4119 41.4893H17.9808C16.5461 41.4877 15.1705 40.917 14.156 39.9025C13.1414 38.8879 12.5708 37.5124 12.5692 36.0776V21.6466H37.8235V36.0776ZM42.3332 30.666H41.4313V21.6466H42.3332C43.5292 21.6466 44.6763 22.1217 45.522 22.9674C46.3678 23.8132 46.8429 24.9602 46.8429 26.1563C46.8429 27.3523 46.3678 28.4994 45.522 29.3451C44.6763 30.1908 43.5292 30.666 42.3332 30.666Z" fill="#555555"/>
<path d="M32.4115 14.431H28.8038V14.1677C28.8062 13.4972 28.6206 12.8396 28.2681 12.2693C27.9156 11.699 27.4103 11.2389 26.8096 10.9412L21.9687 8.5208C20.7675 7.92502 19.7571 7.00466 19.0523 5.86402C18.3474 4.72339 17.9761 3.4081 17.9805 2.06725V0H21.5883V2.06725C21.5861 2.73763 21.7718 3.39522 22.1242 3.96548C22.4767 4.53573 22.9818 4.99585 23.5825 5.29366L28.4233 7.71411C29.6245 8.30996 30.6348 9.23034 31.3397 10.371C32.0446 11.5116 32.4159 12.8268 32.4115 14.1677V14.431Z" fill="#555555"/>
</g>
<defs>
<clipPath id="clip0_896_95">
<rect width="54" height="54" fill="white"/>
</clipPath>
</defs>
</svg>
