<svg width="54" height="54" viewBox="0 0 54 54" fill="none" xmlns="http://www.w3.org/2000/svg">
<g clip-path="url(#clip0_896_117)">
<path d="M7.51741 30.622H46.4826C47.0476 30.622 47.5058 30.1638 47.5058 29.5988V5.8352C47.5058 5.27014 47.0476 4.812 46.4826 4.812H7.51741C6.95235 4.812 6.49422 5.27014 6.49422 5.8352V29.5988C6.49422 30.1638 6.95223 30.622 7.51741 30.622ZM8.54061 6.85839H45.4594V28.5756H8.54061V6.85839ZM29.0535 40.1053H24.947C21.5853 40.1053 18.8503 42.8403 18.8503 46.2022V52.1449C18.8503 52.7099 19.3085 53.1681 19.8735 53.1681H34.1267C34.6918 53.1681 35.1499 52.7099 35.1499 52.1449V46.2022C35.1499 42.8403 32.4151 40.1053 29.0535 40.1053ZM33.1036 51.1217H20.8967V46.2022C20.8967 43.9688 22.7136 42.1517 24.947 42.1517H29.0535C31.2867 42.1517 33.1036 43.9688 33.1036 46.2022V51.1217ZM23.193 1.85523C23.193 1.29017 23.6511 0.832031 24.2162 0.832031H29.7838C30.3489 0.832031 30.807 1.29017 30.807 1.85523C30.807 2.42029 30.3489 2.87842 29.7838 2.87842H24.2162C23.651 2.87842 23.193 2.42029 23.193 1.85523ZM0 37.1529C0 36.5878 0.458135 36.1297 1.02319 36.1297H4.62433C4.62305 36.1082 4.62228 36.0866 4.62228 36.0648C4.62228 35.4998 5.08042 35.0417 5.64548 35.0417H11.2131C11.7781 35.0417 12.2363 35.4998 12.2363 36.0648C12.2363 36.0866 12.2356 36.1082 12.2342 36.1297H23.1948C23.1935 36.1082 23.1928 36.0866 23.1928 36.0648C23.1928 35.4998 23.6509 35.0417 24.216 35.0417H29.7835C30.3486 35.0417 30.8067 35.4998 30.8067 36.0648C30.8067 36.0866 30.8061 36.1082 30.8047 36.1297H41.7655C41.7643 36.1082 41.7635 36.0866 41.7635 36.0648C41.7635 35.4998 42.2216 35.0417 42.7867 35.0417H48.3543C48.9193 35.0417 49.3775 35.4998 49.3775 36.0648C49.3775 36.0866 49.3768 36.1082 49.3754 36.1297H52.9763C53.5414 36.1297 53.9995 36.5878 53.9995 37.1529C53.9995 37.7179 53.5414 38.1761 52.9763 38.1761H1.02319C0.458135 38.1761 0 37.7179 0 37.1529ZM10.4826 40.1053H6.37617C3.01446 40.1053 0.27946 42.8403 0.27946 46.2022V52.1449C0.27946 52.7099 0.737596 53.1681 1.30265 53.1681H15.556C16.1211 53.1681 16.5792 52.7099 16.5792 52.1449V46.2022C16.5792 42.8403 13.8443 40.1053 10.4826 40.1053ZM14.5328 51.1217H2.32585V46.2022C2.32585 43.9688 4.14279 42.1517 6.37617 42.1517H10.4826C12.7159 42.1517 14.5328 43.9688 14.5328 46.2022V51.1217ZM47.6241 40.1053H43.5176C40.1559 40.1053 37.4209 42.8403 37.4209 46.2022V52.1449C37.4209 52.7099 37.8791 53.1681 38.4441 53.1681H52.6975C53.2625 53.1681 53.7207 52.7099 53.7207 52.1449V46.2022C53.7207 42.8403 50.9858 40.1053 47.6241 40.1053ZM51.6743 51.1217H39.4673V46.2022C39.4673 43.9688 41.2842 42.1517 43.5176 42.1517H47.6241C49.8573 42.1517 51.6743 43.9688 51.6743 46.2022V51.1217Z" fill="#555555"/>
</g>
<defs>
<clipPath id="clip0_896_117">
<rect width="54" height="54" fill="white"/>
</clipPath>
</defs>
</svg>
