<svg width="54" height="54" viewBox="0 0 54 54" fill="none" xmlns="http://www.w3.org/2000/svg">
<path d="M47.7746 12.6365H45.6975C39.4253 12.6365 35.894 16.8601 35.894 16.8601L16.911 37.592C15.5068 39.1263 13.7385 40.0215 11.887 40.1354H6.2244C4.97374 40.1354 3.77431 40.7653 2.88996 41.8866C2.00561 43.0078 1.50879 44.5285 1.50879 46.1142C1.50879 47.6999 2.00561 49.2206 2.88996 50.3419C3.77431 51.4631 4.97374 52.093 6.2244 52.093H13.4532C14.5665 52.061 18.4954 51.6348 22.4327 47.3332L41.3481 26.6808L41.7337 26.2591C42.3626 25.6481 43.8011 24.5941 46.2903 24.5941H47.7746C48.3938 24.5941 49.007 24.4395 49.5792 24.139C50.1513 23.8385 50.6711 23.3981 51.109 22.843C51.5469 22.2878 51.8943 21.6287 52.1312 20.9033C52.3682 20.1779 52.4902 19.4004 52.4902 18.6153C52.4902 17.8301 52.3682 17.0527 52.1312 16.3273C51.8943 15.6019 51.5469 14.9428 51.109 14.3876C50.6711 13.8324 50.1513 13.392 49.5792 13.0916C49.007 12.7911 48.3938 12.6365 47.7746 12.6365Z" stroke="#555555" stroke-width="1.5" stroke-linejoin="round"/>
<path d="M18.619 18.5109C20.2412 18.5109 21.5563 17.1958 21.5563 15.5735C21.5563 13.9513 20.2412 12.6362 18.619 12.6362C16.9967 12.6362 15.6816 13.9513 15.6816 15.5735C15.6816 17.1958 16.9967 18.5109 18.619 18.5109Z" stroke="#555555" stroke-width="1.5" stroke-linejoin="round"/>
<path d="M21.5548 27.0001V20.0797C21.5548 19.6643 21.3898 19.2659 21.0961 18.9722C20.8024 18.6784 20.404 18.5134 19.9886 18.5134H17.2489C16.8335 18.5134 16.4351 18.6784 16.1414 18.9722C15.8476 19.2659 15.6826 19.6643 15.6826 20.0797V32.0073" stroke="#555555" stroke-width="1.5" stroke-linejoin="round"/>
</svg>
