<svg width="54" height="54" viewBox="0 0 54 54" fill="none" xmlns="http://www.w3.org/2000/svg">
<g clip-path="url(#clip0_897_141)">
<path d="M32.2038 40.6658L33.3531 38.011C33.7763 37.0336 33.3269 35.8982 32.3495 35.475L20.8455 30.4947C19.8681 30.0715 18.7327 30.5209 18.3095 31.4983L17.1602 34.1531C16.737 35.1305 17.1864 36.2659 18.1638 36.6891L29.6678 41.6694C30.6452 42.0926 31.7807 41.6432 32.2038 40.6658Z" stroke="#555555" stroke-width="2" stroke-miterlimit="10" stroke-linecap="round" stroke-linejoin="round"/>
<path d="M31.8208 41.5506L42.8823 46.3393C44.1035 46.868 45.5236 46.306 46.0523 45.0848C46.581 43.8636 46.019 42.4434 44.7978 41.9147L33.7363 37.126L31.8208 41.5506Z" stroke="#555555" stroke-width="2" stroke-miterlimit="10" stroke-linecap="round" stroke-linejoin="round"/>
<path d="M15.6601 46.1128H15.6601C16.8819 46.6418 18.3012 46.0801 18.8302 44.8583L21.7034 38.2214L17.2788 36.3059L14.4056 42.9428C13.8766 44.1646 14.4383 45.5839 15.6601 46.1128Z" stroke="#555555" stroke-width="2" stroke-miterlimit="10" stroke-linecap="round" stroke-linejoin="round"/>
<path d="M15.0802 31.6763C15.8207 29.9657 15.0344 27.9788 13.3238 27.2382C11.6133 26.4977 9.62631 27.284 8.88578 28.9946C8.14524 30.7051 8.93159 32.6921 10.6421 33.4327C12.3527 34.1732 14.3397 33.3868 15.0802 31.6763Z" stroke="#555555" stroke-width="2" stroke-miterlimit="10" stroke-linecap="round" stroke-linejoin="round"/>
<path d="M0 47.25H54" stroke="#555555" stroke-width="2" stroke-miterlimit="10" stroke-linecap="round" stroke-linejoin="round"/>
<path d="M33.75 6.75H20.25V23.1429H33.75V6.75Z" stroke="#555555" stroke-width="2" stroke-miterlimit="10" stroke-linecap="round" stroke-linejoin="round"/>
</g>
<defs>
<clipPath id="clip0_897_141">
<rect width="54" height="54" fill="white"/>
</clipPath>
</defs>
</svg>
