<svg width="54" height="54" viewBox="0 0 54 54" fill="none" xmlns="http://www.w3.org/2000/svg">
<path d="M54 18.9H52.2V9H27.9H26.1H1.8V18.9H0V39.6H1.8V42.3H3.6V43.2C3.1032 43.2 2.7 43.6032 2.7 44.1C2.7 44.5968 3.1032 45 3.6 45H5.4C5.8968 45 6.3 44.5968 6.3 44.1C6.3 43.6032 5.8968 43.2 5.4 43.2V42.3H7.2V39.6H46.8V42.3H48.6V43.2C48.1032 43.2 47.7 43.6032 47.7 44.1C47.7 44.5968 48.1032 45 48.6 45H50.4C50.8968 45 51.3 44.5968 51.3 44.1C51.3 43.6032 50.8968 43.2 50.4 43.2V42.3H52.2V39.6H54V18.9ZM27.9 10.8H50.4V18.9H46.8V25.2H27.9V10.8ZM7.2 27H26.1H27.9H46.8V32.4H7.2V27ZM3.6 10.8H26.1V25.2H7.2V18.9H3.6V10.8ZM5.4 40.5H3.6V39.6H5.4V40.5ZM50.4 40.5H48.6V39.6H50.4V40.5ZM52.2 37.8H46.8H7.2H1.8V20.7H5.4V25.2V27V34.2H48.6V27V25.2V20.7H52.2V37.8Z" fill="#555555"/>
</svg>
