<svg width="54" height="54" viewBox="0 0 54 54" fill="none" xmlns="http://www.w3.org/2000/svg">
<path d="M42.8373 2.7019H32.6693H21.3302H11.1623L2.70166 16.2384V51.2981H21.3302H32.6693H51.2979V16.2384L42.8373 2.7019ZM41.9398 4.32178L49.0268 15.6609H32.6693V4.32178H41.9398ZM26.9998 4.32178H31.0494V15.6609H26.9998H22.9501V4.32178H26.9998ZM30.1828 21.8618C30.0686 21.5524 29.7778 21.3304 29.4296 21.3304C28.9825 21.3304 28.6196 21.6933 28.6196 22.1404C28.6196 22.4887 28.8416 22.7794 29.1509 22.8936L27.7538 24.2908C27.6388 23.9822 27.348 23.7603 26.9998 23.7603C26.6515 23.7603 26.3607 23.9822 26.2465 24.2916L24.8494 22.8944C25.158 22.7794 25.3799 22.4887 25.3799 22.1404C25.3799 21.6933 25.017 21.3304 24.5699 21.3304C24.2217 21.3304 23.9309 21.5524 23.8167 21.8618L23.76 21.8051L22.9501 22.615V17.2808H23.76C23.76 17.7278 24.1229 18.0907 24.5699 18.0907C25.017 18.0907 25.3799 17.7278 25.3799 17.2808H28.6196C28.6196 17.7278 28.9825 18.0907 29.4296 18.0907C29.8767 18.0907 30.2395 17.7278 30.2395 17.2808H31.0494V22.615L30.2395 21.8051L30.1828 21.8618ZM12.0597 4.32178H21.3302V15.6609H4.97272L12.0597 4.32178ZM22.9501 49.6782V46.7738L23.76 47.5837L26.9998 44.344L30.2395 47.5837L31.0494 46.7738V49.6782H22.9501ZM32.6693 49.6782V42.8634L30.2395 45.2932L26.9998 42.0535L23.76 45.2932L21.3302 42.8634V49.6782H4.32153V17.2808H21.3302V26.5254L23.76 24.0956L26.9998 27.3353L30.2395 24.0956L32.6693 26.5254V17.2808H49.678V49.6782H32.6693Z" fill="#555555"/>
<path d="M26.9999 5.94165C27.4472 5.94165 27.8098 5.57903 27.8098 5.13171C27.8098 4.6844 27.4472 4.32178 26.9999 4.32178C26.5526 4.32178 26.1899 4.6844 26.1899 5.13171C26.1899 5.57903 26.5526 5.94165 26.9999 5.94165Z" fill="#555555"/>
<path d="M24.5702 8.37134C25.0175 8.37134 25.3801 8.00872 25.3801 7.5614C25.3801 7.11409 25.0175 6.75146 24.5702 6.75146C24.1229 6.75146 23.7603 7.11409 23.7603 7.5614C23.7603 8.00872 24.1229 8.37134 24.5702 8.37134Z" fill="#555555"/>
<path d="M24.5702 13.231C25.0175 13.231 25.3801 12.8683 25.3801 12.421C25.3801 11.9737 25.0175 11.6111 24.5702 11.6111C24.1229 11.6111 23.7603 11.9737 23.7603 12.421C23.7603 12.8683 24.1229 13.231 24.5702 13.231Z" fill="#555555"/>
<path d="M26.9999 10.8013C27.4472 10.8013 27.8098 10.4386 27.8098 9.99133C27.8098 9.54402 27.4472 9.1814 26.9999 9.1814C26.5526 9.1814 26.1899 9.54402 26.1899 9.99133C26.1899 10.4386 26.5526 10.8013 26.9999 10.8013Z" fill="#555555"/>
<path d="M29.4296 8.37134C29.8769 8.37134 30.2395 8.00872 30.2395 7.5614C30.2395 7.11409 29.8769 6.75146 29.4296 6.75146C28.9822 6.75146 28.6196 7.11409 28.6196 7.5614C28.6196 8.00872 28.9822 8.37134 29.4296 8.37134Z" fill="#555555"/>
<path d="M29.4296 13.231C29.8769 13.231 30.2395 12.8683 30.2395 12.421C30.2395 11.9737 29.8769 11.6111 29.4296 11.6111C28.9822 11.6111 28.6196 11.9737 28.6196 12.421C28.6196 12.8683 28.9822 13.231 29.4296 13.231Z" fill="#555555"/>
<path d="M26.9999 15.6609C27.4472 15.6609 27.8098 15.2983 27.8098 14.851C27.8098 14.4036 27.4472 14.041 26.9999 14.041C26.5526 14.041 26.1899 14.4036 26.1899 14.851C26.1899 15.2983 26.5526 15.6609 26.9999 15.6609Z" fill="#555555"/>
<path d="M26.9999 20.5205C27.4472 20.5205 27.8098 20.1579 27.8098 19.7106C27.8098 19.2633 27.4472 18.9006 26.9999 18.9006C26.5526 18.9006 26.1899 19.2633 26.1899 19.7106C26.1899 20.1579 26.5526 20.5205 26.9999 20.5205Z" fill="#555555"/>
</svg>
