<svg width="54" height="54" viewBox="0 0 54 54" fill="none" xmlns="http://www.w3.org/2000/svg">
<path d="M52.2647 13.8066H1.73527C0.776707 13.8066 0 14.5836 0 15.5419V45.5753C0 46.5336 0.776707 47.3105 1.73527 47.3105H52.2647C53.2233 47.3105 54 46.5336 54 45.5753V15.5419C54 14.5836 53.2231 13.8066 52.2647 13.8066ZM50.5295 43.8398H3.47054V17.2772H50.5295V43.8398Z" fill="#555555"/>
<path d="M8.14054 32.2935H18.1042C19.0628 32.2935 19.8395 31.5166 19.8395 30.5583C19.8395 29.5999 19.0628 28.823 18.1042 28.823H8.14054C7.18198 28.823 6.40527 29.5999 6.40527 30.5583C6.40527 31.5166 7.18198 32.2935 8.14054 32.2935Z" fill="#555555"/>
<path d="M35.8959 32.2935H39.1427V35.5403C39.1427 36.4986 39.9194 37.2755 40.878 37.2755C41.8366 37.2755 42.6133 36.4986 42.6133 35.5403V32.2935H45.8596C46.8182 32.2935 47.5949 31.5165 47.5949 30.5582C47.5949 29.5999 46.8182 28.8229 45.8596 28.8229H42.6133V25.5766C42.6133 24.6182 41.8366 23.8413 40.878 23.8413C39.9194 23.8413 39.1427 24.6182 39.1427 25.5766V28.8229H35.8959C34.9374 28.8229 34.1606 29.5999 34.1606 30.5582C34.1606 31.5165 34.9374 32.2935 35.8959 32.2935Z" fill="#555555"/>
<path d="M8.14054 10.1602H18.1042C19.0628 10.1602 19.8395 9.3833 19.8395 8.42497C19.8395 7.46664 19.0628 6.6897 18.1042 6.6897H8.14054C7.18198 6.6897 6.40527 7.46664 6.40527 8.42497C6.40527 9.3833 7.18198 10.1602 8.14054 10.1602Z" fill="#555555"/>
<path d="M35.8959 10.1602H45.8596C46.8182 10.1602 47.5949 9.3833 47.5949 8.42497C47.5949 7.46664 46.8182 6.6897 45.8596 6.6897H35.8959C34.9374 6.6897 34.1606 7.46664 34.1606 8.42497C34.1606 9.3833 34.9374 10.1602 35.8959 10.1602Z" fill="#555555"/>
</svg>
