<svg width="54" height="54" viewBox="0 0 54 54" fill="none" xmlns="http://www.w3.org/2000/svg">
<g clip-path="url(#clip0_901_236)">
<path d="M47.9386 11.0205H6.06155C2.71918 11.0205 0 13.7396 0 17.0816V30.3069C0 33.6489 2.71918 36.368 6.06155 36.368H13.225V39.6736H8.26564C7.35271 39.6736 6.61258 40.4137 6.61258 41.3266C6.61258 42.2396 7.35271 42.9797 8.26564 42.9797H14.8781C15.791 42.9797 16.5312 42.2396 16.5312 41.3266V36.368H37.4688V41.3266C37.4688 42.2396 38.209 42.9797 39.1219 42.9797H45.734C46.647 42.9797 47.3871 42.2396 47.3871 41.3266C47.3871 40.4137 46.647 39.6736 45.734 39.6736H40.775V36.368H47.9386C51.2808 36.368 54 33.6489 54 30.3069V17.0816C54 13.7396 51.2808 11.0205 47.9386 11.0205V11.0205ZM50.6939 30.3069C50.6939 31.8259 49.4578 33.0619 47.9386 33.0619H6.06155C4.54217 33.0619 3.30612 31.8259 3.30612 30.3069V17.0816C3.30612 15.5626 4.54217 14.3266 6.06155 14.3266H47.9386C49.4578 14.3266 50.6939 15.5626 50.6939 17.0816V30.3069ZM27.3557 23.6943C27.3557 24.6072 26.6156 25.3474 25.7027 25.3474H10.2739C9.36095 25.3474 8.62082 24.6072 8.62082 23.6943C8.62082 22.7814 9.36095 22.0412 10.2739 22.0412H25.7027C26.6156 22.0412 27.3557 22.7814 27.3557 23.6943ZM39.1221 17.633C35.7798 17.633 33.0607 20.352 33.0607 23.6943C33.0607 27.0365 35.7798 29.7555 39.1221 29.7555C42.4644 29.7555 45.1836 27.0365 45.1836 23.6943C45.1836 20.352 42.4644 17.633 39.1221 17.633ZM39.1221 26.4494C37.6028 26.4494 36.3668 25.2135 36.3668 23.6943C36.3668 22.1751 37.6028 20.9391 39.1221 20.9391C40.6414 20.9391 41.8774 22.1751 41.8774 23.6943C41.8774 25.2135 40.6414 26.4494 39.1221 26.4494Z" fill="#555555"/>
</g>
<defs>
<clipPath id="clip0_901_236">
<rect width="54" height="54" fill="white"/>
</clipPath>
</defs>
</svg>
