<svg width="54" height="54" viewBox="0 0 54 54" fill="none" xmlns="http://www.w3.org/2000/svg">
<g clip-path="url(#clip0_901_238)">
<path d="M38.1686 14.9944V2.4502C38.1686 1.88514 38.6268 1.427 39.1918 1.427C39.7569 1.427 40.215 1.88514 40.215 2.4502V14.9944C40.215 15.5595 39.7569 16.0176 39.1918 16.0176C38.6268 16.0176 38.1686 15.5595 38.1686 14.9944ZM35.3382 16.0176C35.9033 16.0176 36.3614 15.5595 36.3614 14.9944V2.4502C36.3614 1.88514 35.9033 1.427 35.3382 1.427C34.7732 1.427 34.315 1.88514 34.315 2.4502V14.9944C34.315 15.5595 34.7732 16.0176 35.3382 16.0176ZM14.7166 25.5729C14.7166 25.0078 14.2585 24.5497 13.6934 24.5497H1.02321C0.60933 24.5497 0.236248 24.7989 0.0779083 25.1812C-0.0804311 25.5635 0.00705204 26.0036 0.299686 26.2963L10.7384 36.7352C10.9382 36.9349 11.2 37.0348 11.462 37.0348C11.7239 37.0348 11.9857 36.9349 12.1855 36.7352C12.5852 36.3356 12.5852 35.6878 12.1855 35.2882L3.49346 26.5962H13.6934C14.2585 26.5961 14.7166 26.1381 14.7166 25.5729ZM20.8307 32.206V49.3245C20.8307 51.1156 19.3734 52.5728 17.5823 52.5728C15.7914 52.5728 14.3342 51.1156 14.3342 49.3245V32.206C14.3342 30.7724 15.2679 29.5525 16.5591 29.1228V20.7347C12.6755 20.1183 9.66575 16.0421 9.66575 11.1211C9.66575 5.77571 13.2171 1.427 17.5823 1.427C21.9477 1.427 25.4991 5.77571 25.4991 11.1211C25.4991 16.0421 22.4893 20.1183 18.6055 20.7347V29.1228C19.8971 29.5523 20.8307 30.7721 20.8307 32.206ZM17.5823 18.7689C20.8192 18.7689 23.4527 15.3381 23.4527 11.1211C23.4527 6.90416 20.8192 3.47339 17.5823 3.47339C14.3455 3.47339 11.7121 6.90416 11.7121 11.1211C11.7121 15.3381 14.3455 18.7689 17.5823 18.7689ZM18.7843 32.206C18.7843 31.5433 18.2451 31.0042 17.5823 31.0042C16.9197 31.0042 16.3806 31.5433 16.3806 32.206V49.3245C16.3806 49.9873 16.9197 50.5264 17.5823 50.5264C18.2451 50.5264 18.7843 49.9872 18.7843 49.3245V32.206V32.206ZM53.9221 25.1814C53.7638 24.7991 53.3907 24.5498 52.9768 24.5498H40.5463C39.9812 24.5498 39.5231 25.0079 39.5231 25.573C39.5231 26.1381 39.9812 26.5962 40.5463 26.5962H50.5067L42.2339 34.8688C41.8344 35.2684 41.8344 35.9162 42.2339 36.3158C42.4338 36.5156 42.6956 36.6154 42.9574 36.6154C43.2194 36.6154 43.4812 36.5156 43.681 36.3158L53.7004 26.2964C53.9931 26.0038 54.0805 25.5637 53.9221 25.1814ZM40.5134 32.206V49.3245C40.5134 51.1156 39.0561 52.5728 37.265 52.5728C35.4739 52.5728 34.0169 51.1156 34.0169 49.3245V32.206C34.0169 30.7724 34.9507 29.5525 36.2418 29.1228V20.7387C32.9738 20.2438 30.4613 17.4157 30.4613 14.0117V2.4502C30.4613 1.88514 30.9194 1.427 31.4845 1.427C32.0495 1.427 32.5077 1.88514 32.5077 2.4502V14.0117C32.5077 16.6299 34.6339 18.7609 37.2503 18.769C37.26 18.7689 37.27 18.7689 37.2797 18.769C39.8962 18.7609 42.0225 16.6299 42.0225 14.0117V2.4502C42.0225 1.88514 42.4806 1.427 43.0457 1.427C43.6108 1.427 44.0689 1.88514 44.0689 2.4502V14.0117C44.0689 17.4157 41.5563 20.2438 38.2882 20.7387V29.1228C39.5796 29.5523 40.5134 30.7721 40.5134 32.206ZM38.467 32.206C38.467 31.5433 37.9278 31.0042 37.265 31.0042C36.6023 31.0042 36.0633 31.5433 36.0633 32.206V49.3245C36.0633 49.9873 36.6024 50.5264 37.265 50.5264C37.9279 50.5264 38.467 49.9872 38.467 49.3245V32.206ZM31.0065 46.096L27.0001 50.1027L24.0161 47.1187C23.6165 46.7191 22.9687 46.7191 22.569 47.1187C22.1695 47.5182 22.1695 48.166 22.569 48.5656L26.2766 52.273C26.4684 52.4649 26.7287 52.5727 27.0001 52.5727C27.2715 52.5727 27.5316 52.4649 27.7236 52.273L32.4535 47.5429C32.853 47.1432 32.853 46.4955 32.4533 46.0958C32.0539 45.6963 31.4061 45.6965 31.0065 46.096ZM34.5016 25.5731C34.5016 25.0081 34.0435 24.5499 33.4784 24.5499H21.4884C20.9233 24.5499 20.4652 25.0081 20.4652 25.5731C20.4652 26.1382 20.9233 26.5963 21.4884 26.5963H33.4786C34.0435 26.5963 34.5016 26.1383 34.5016 25.5731Z" fill="#555555"/>
</g>
<defs>
<clipPath id="clip0_901_238">
<rect width="54" height="54" fill="white"/>
</clipPath>
</defs>
</svg>
