<svg width="54" height="54" viewBox="0 0 54 54" fill="none" xmlns="http://www.w3.org/2000/svg">
<g clip-path="url(#clip0_901_257)">
<path d="M0 34.0438L0.580184 34.2258C0.65359 34.2488 1.70859 34.5762 3.43248 34.939V40.3302H0V45.4189H3.43237V50.1684C3.43237 52.2811 5.15109 53.9998 7.26384 53.9998C9.37659 53.9998 11.0953 52.2811 11.0953 50.1684C11.0953 48.0557 9.37659 46.3369 7.26384 46.3369C6.45638 46.3369 5.70713 46.5885 5.08876 47.0166V45.419H36.8979V50.1685C36.8979 52.2812 38.6166 53.9999 40.7294 53.9999C42.8421 53.9999 44.5609 52.2812 44.5609 50.1685C44.5609 48.0558 42.8421 46.337 40.7294 46.337C39.9219 46.337 39.1726 46.5886 38.5543 47.0167V45.419H41.9867V40.3303H38.5543V33.0467C41.5005 33.5193 43.4051 34.1977 43.4485 34.2135L44.5609 34.6208V16.3037H0V34.0438ZM7.26395 47.9934C8.46323 47.9934 9.43903 48.9691 9.43903 50.1685C9.43903 51.3679 8.46323 52.3435 7.26395 52.3435C6.06466 52.3435 5.08887 51.3679 5.08887 50.1685C5.08887 48.9691 6.06456 47.9934 7.26395 47.9934ZM40.7295 47.9934C41.9288 47.9934 42.9046 48.9691 42.9046 50.1685C42.9046 51.3679 41.9288 52.3435 40.7295 52.3435C39.5302 52.3435 38.5544 51.3679 38.5544 50.1685C38.5542 48.9691 39.5301 47.9934 40.7295 47.9934ZM40.3303 41.9866V43.7626H1.65639V41.9866H40.3303ZM5.08876 40.3303V35.2564C5.97312 35.4096 6.96146 35.5551 8.03081 35.6725C9.71388 35.8574 11.2823 35.9375 12.7363 35.9375C17.5465 35.9375 21.1045 35.0622 23.4233 34.2134C28.2743 32.4378 33.164 32.3973 36.8979 32.8202V40.3302H5.08876V40.3303ZM1.65639 17.9601H42.9047V32.3045C41.7725 31.9772 39.8413 31.4981 37.3984 31.2C30.852 30.401 25.876 31.5521 22.854 32.658C22.6537 32.7313 22.4524 32.8007 22.2506 32.8682V31.7194H20.5943V33.3568C20.0042 33.5087 19.4113 33.639 18.8182 33.7492V30.8615H17.1619V34.0077C16.5666 34.0835 15.9737 34.1417 15.3859 34.1838V28.2872H13.7295V34.2628C8.14461 34.3998 3.28546 33.2479 1.65628 32.8098V17.9601H1.65639Z" fill="#555555"/>
<path d="M30.0034 13.729H7.69336V15.3854H30.0034V13.729Z" fill="#555555"/>
<path d="M51.4558 16.3037C50.3427 16.3037 49.3949 17.0225 49.0506 18.0199H45.4492V19.6763H49.0506C49.3951 20.6737 50.3428 21.3925 51.4558 21.3925C52.8587 21.3925 54.0002 20.2511 54.0002 18.848C54.0002 17.4452 52.8587 16.3037 51.4558 16.3037ZM51.4558 19.7362C51.0438 19.7362 50.6974 19.4539 50.5977 19.0727V18.6237C50.6974 18.2426 51.0438 17.9603 51.4558 17.9603C51.9455 17.9603 52.3438 18.3586 52.3438 18.8484C52.3438 19.3378 51.9456 19.7362 51.4558 19.7362Z" fill="#555555"/>
<path d="M18.8479 5.08876C23.1228 5.08876 26.6007 8.5667 26.6007 12.8415H28.2571C28.2571 7.93241 24.4776 3.8919 19.6762 3.47087V1.65628H20.5642V0H17.1319V1.65639H18.0199V3.47087C13.2184 3.8919 9.43896 7.93241 9.43896 12.8415H11.0954C11.0952 8.56659 14.5732 5.08876 18.8479 5.08876Z" fill="#555555"/>
</g>
<defs>
<clipPath id="clip0_901_257">
<rect width="54" height="54" fill="white"/>
</clipPath>
</defs>
</svg>
