<svg width="54" height="54" viewBox="0 0 54 54" fill="none" xmlns="http://www.w3.org/2000/svg">
<g clip-path="url(#clip0_901_290)">
<path d="M8.38098 46.2914C8.20959 46.2914 8.04471 46.2233 7.92327 46.1019L7.91546 46.0937C2.68086 40.847 0.0294196 34.4252 0.0332072 27.0062C0.0334439 25.7392 0.111327 24.486 0.264962 23.2813C1.00508 17.4284 3.5848 12.257 7.93132 7.91141C8.05276 7.79009 8.21752 7.72168 8.38927 7.72168C8.38927 7.72168 8.38926 7.72168 8.38962 7.72168C8.56136 7.72192 8.72648 7.79021 8.84792 7.91165L13.1551 12.2266C13.4078 12.48 13.4076 12.8895 13.1548 13.1425C9.81802 16.4777 7.91427 20.4703 7.4961 25.0095C7.43786 25.6557 7.40875 26.3277 7.40946 27.0053C7.40851 32.389 9.33629 37.0508 13.1393 40.8627C13.3917 41.1157 13.3996 41.5331 13.1472 41.7861L8.83964 46.101C8.7182 46.2225 8.55367 46.2909 8.38157 46.2911C8.38157 46.2914 8.38133 46.2914 8.38098 46.2914ZM8.39353 9.2907C4.52851 13.3309 2.22742 18.0892 1.55038 23.4446C1.40337 24.5962 1.32892 25.7941 1.32869 27.0066C1.32526 33.8563 3.69926 39.8129 8.38607 44.7219L11.7799 41.322C8.01595 37.3383 6.11291 32.5277 6.11386 27.0066C6.11315 26.2906 6.14392 25.579 6.20547 24.8922C6.63312 20.2514 8.51 16.1503 11.7873 12.6904L8.39353 9.2907ZM45.6516 46.2834C45.4799 46.2834 45.3148 46.2149 45.1933 46.0931L40.8854 41.7782C40.6329 41.5251 40.6329 41.1153 40.886 40.8627C42.4055 39.3428 43.6384 37.6778 44.5499 35.9142C45.9284 33.2476 46.6258 30.2507 46.6233 27.0072C46.628 24.4038 46.1883 21.9618 45.3161 19.7382C44.3627 17.342 42.875 15.1218 40.8944 13.1427C40.6413 12.8902 40.641 12.4805 40.8931 12.2275L45.1845 7.92041C45.3059 7.79862 45.471 7.73008 45.6431 7.72973C45.6431 7.72973 45.6435 7.72973 45.6437 7.72973C45.8155 7.72973 45.9803 7.79802 46.1018 7.91958C49.3564 11.175 51.6311 14.9055 52.863 19.0077C53.615 21.5053 53.9976 24.1939 53.9998 26.9979C54.0007 31.1083 53.1876 34.932 51.5827 38.3723C50.288 41.1541 48.447 43.7518 46.1099 46.0932C45.9884 46.2149 45.8236 46.2834 45.6516 46.2834ZM42.2534 41.3145L45.6466 44.7136C47.6616 42.6026 49.2621 40.2879 50.4083 37.825C51.9328 34.5575 52.7051 30.9177 52.7042 27.0066C52.7019 24.321 52.3378 21.7577 51.6221 19.3804C50.5103 15.678 48.499 12.2898 45.6391 9.29957L42.2611 12.6898C44.1433 14.6766 45.5752 16.8845 46.5205 19.2622C47.454 21.6408 47.9239 24.2431 47.9186 26.9995C47.9215 30.4592 47.1751 33.6564 45.7005 36.5094C44.82 38.2126 43.6618 39.8269 42.2534 41.3145ZM15.7331 38.9321C15.7318 38.9321 15.7306 38.9321 15.7293 38.9321C15.5566 38.9311 15.3915 38.8609 15.2704 38.7376L15.2625 38.7294C12.0525 35.5117 10.4223 31.5662 10.4218 27.0065C10.4186 26.7921 10.4186 26.5934 10.4218 26.3971C10.5584 22.0793 12.1886 18.3336 15.2671 15.2545C15.5198 15.0015 15.9297 15.0015 16.1826 15.2538L20.4987 19.5613C20.6202 19.6827 20.6886 19.8472 20.6886 20.0192C20.6889 20.191 20.621 20.3557 20.4994 20.4772C18.689 22.2893 17.8103 24.4164 17.814 26.9812C17.8118 27.2918 17.8219 27.5712 17.8444 27.8439C17.8451 27.8534 17.8457 27.8629 17.8464 27.8724C18.0286 30.0273 18.9212 31.9217 20.4994 33.5035C20.6209 33.6249 20.6971 33.7982 20.6967 33.9699C20.6965 34.1417 20.636 34.3146 20.5143 34.4358L16.1903 38.7433C16.0686 38.8641 15.9041 38.9321 15.7331 38.9321ZM15.734 16.6365C13.1867 19.3842 11.8354 22.6752 11.7166 26.4279C11.7141 26.6005 11.7141 26.7858 11.7173 26.9721C11.7173 26.9756 11.7173 27.0035 11.7173 27.0066C11.7179 30.9971 13.0716 34.4771 15.743 37.3608L19.152 33.965C17.6184 32.2584 16.7409 30.2369 16.5533 27.9586C16.5527 27.9486 16.552 27.9388 16.5514 27.9289C16.5271 27.6244 16.5159 27.3123 16.5185 27.0013C16.5149 24.3176 17.3954 21.9814 19.1374 20.0331L15.734 16.6365ZM38.3077 38.9239H38.2995C38.1282 38.9239 37.9636 38.8559 37.8422 38.7344L33.5261 34.4276C33.2756 34.1772 33.2723 33.7714 33.5197 33.5175C33.7684 33.262 34.0033 32.997 34.219 32.7295C34.2329 32.7068 34.2485 32.6849 34.2649 32.6643C35.563 31.0537 36.2227 29.1469 36.2268 26.9971C36.2237 24.4234 35.3427 22.3009 33.5343 20.4942C33.4125 20.3729 33.3442 20.2078 33.3442 20.036C33.3442 19.8643 33.4122 19.6992 33.534 19.5777L37.858 15.2546C37.9952 15.1167 38.1863 15.0485 38.3814 15.0681C38.5728 15.0876 38.7448 15.1907 38.8524 15.3498C39.8791 16.3907 40.7514 17.5177 41.4463 18.7024C41.4662 18.7268 41.4839 18.7531 41.5001 18.7806C42.9066 21.2122 43.6198 23.9718 43.6195 26.9826C43.6178 30.124 42.8509 32.9794 41.3403 35.4853C41.3231 35.5139 41.3038 35.5411 41.2831 35.5657C40.597 36.6809 39.7507 37.7461 38.7662 38.7333C38.6448 38.8554 38.4797 38.9239 38.3077 38.9239ZM34.8829 33.9515L38.2943 37.3556C39.0395 36.5511 39.6866 35.6991 40.2238 34.8148C40.2395 34.7889 40.2569 34.7641 40.2758 34.7408C41.6333 32.4575 42.3226 29.8528 42.3239 26.9982C42.3242 24.2336 41.6844 21.7182 40.4217 19.5043C40.4031 19.4809 40.3857 19.4556 40.3704 19.4289C39.8068 18.4555 39.1113 17.5211 38.2987 16.6449L34.8954 20.0482C36.6356 21.9909 37.5187 24.3202 37.5221 26.9811C37.5178 29.426 36.7767 31.5853 35.3199 33.4191C35.3066 33.441 35.2922 33.4617 35.2763 33.4813C35.1511 33.6396 35.0195 33.7965 34.8829 33.9515ZM27.0364 32.6981C27.0364 32.6981 27.0279 32.6981 27.0275 32.6981C25.4574 32.6981 24.1022 32.1358 22.9916 31.0271C21.8777 29.912 21.3127 28.5514 21.3121 26.9825C21.3128 25.4155 21.8782 24.057 22.9919 22.9453C24.1031 21.8327 25.4614 21.2671 27.0282 21.2665C28.5979 21.2671 29.9586 21.8319 31.0735 22.9455C32.185 24.0583 32.7474 25.4164 32.7451 26.9831C32.7474 28.5505 32.185 29.9109 31.0744 31.026C29.9598 32.1361 28.6021 32.6981 27.0364 32.6981ZM27.0282 22.562C25.8016 22.5626 24.7806 22.9876 23.9083 23.8615C23.0335 24.7347 22.6084 25.7556 22.6077 26.9826C22.6084 28.2122 23.0336 29.2359 23.908 30.1109C24.7781 30.9801 25.7965 31.4029 27.0206 31.4029H27.0365C28.2637 31.4029 29.2849 30.9801 30.1582 30.11C31.0284 29.2368 31.4512 28.2135 31.4496 26.9832C31.4512 25.7543 31.0286 24.7337 30.1572 23.8619C29.2823 22.9875 28.2585 22.5626 27.0282 22.562Z" fill="#555555"/>
</g>
<defs>
<clipPath id="clip0_901_290">
<rect width="54" height="54" fill="white"/>
</clipPath>
</defs>
</svg>
