<svg width="18" height="19" viewBox="0 0 18 19" fill="none" xmlns="http://www.w3.org/2000/svg">
<path d="M17.4611 10.5717H0.538922C0.241329 10.5717 0 10.3304 0 10.0328V3.94297C0 3.64533 0.241329 3.40405 0.538922 3.40405H17.4611C17.7587 3.40405 18 3.64533 18 3.94297V10.0328C18 10.3304 17.7587 10.5717 17.4611 10.5717ZM1.07784 9.49387H16.9222V4.4819H1.07784V9.49387Z" fill="#555555"/>
<path d="M15.6119 10.5717C15.6116 10.5717 15.6112 10.5717 15.6108 10.5717H2.53304C2.36269 10.5717 2.20236 10.4912 2.10071 10.3545C1.99902 10.2178 1.96792 10.0412 2.01686 9.87798L2.6904 7.63165C2.75879 7.40368 2.96859 7.24756 3.20664 7.24756H14.7935C15.02 7.24756 15.2224 7.38929 15.2999 7.60222L16.1054 9.81585C16.1346 9.88224 16.1508 9.95564 16.1508 10.0328C16.1508 10.3304 15.9096 10.5717 15.6119 10.5717ZM3.25724 9.49384H14.8412L14.416 8.32535H3.60765L3.25724 9.49384Z" fill="#555555"/>
<path d="M3.17982 6.02682H2.2816C1.98401 6.02682 1.74268 5.78554 1.74268 5.4879C1.74268 5.19025 1.98401 4.94897 2.2816 4.94897H3.17982C3.47741 4.94897 3.71874 5.19025 3.71874 5.4879C3.71874 5.78554 3.47741 6.02682 3.17982 6.02682Z" fill="#555555"/>
<path d="M3.79039 14.8306C3.49279 14.8306 3.25146 14.5893 3.25146 14.2917V11.8819C3.25146 11.5843 3.49279 11.343 3.79039 11.343C4.08798 11.343 4.32931 11.5843 4.32931 11.8819V14.2917C4.32931 14.5893 4.08798 14.8306 3.79039 14.8306Z" fill="#555555"/>
<path d="M8.42515 14.8306C8.12756 14.8306 7.88623 14.5893 7.88623 14.2917V11.8819C7.88623 11.5843 8.12756 11.343 8.42515 11.343C8.72275 11.343 8.96407 11.5843 8.96407 11.8819V14.2917C8.96407 14.5893 8.72275 14.8306 8.42515 14.8306Z" fill="#555555"/>
<path d="M13.0599 14.8306C12.7623 14.8306 12.521 14.5893 12.521 14.2917V11.8819C12.521 11.5843 12.7623 11.343 13.0599 11.343C13.3575 11.343 13.5988 11.5843 13.5988 11.8819V14.2917C13.5988 14.5893 13.3575 14.8306 13.0599 14.8306Z" fill="#555555"/>
</svg>
