<svg width="18" height="18" viewBox="0 0 18 18" fill="none" xmlns="http://www.w3.org/2000/svg">
<g clip-path="url(#clip0_882_32)">
<path d="M14.0625 6.30493H8.4375C8.28832 6.30493 8.14524 6.36419 8.03975 6.46968C7.93426 6.57517 7.875 6.71825 7.875 6.86743V9.11743C7.87632 9.91428 8.15934 10.685 8.67401 11.2934C9.18869 11.9017 9.90188 12.3085 10.6875 12.4418V15.8674H9V16.9924H13.5V15.8674H11.8125V12.4418C12.5981 12.3085 13.3113 11.9017 13.826 11.2934C14.3407 10.685 14.6237 9.91428 14.625 9.11743V6.86743C14.625 6.71825 14.5657 6.57517 14.4602 6.46968C14.3548 6.36419 14.2117 6.30493 14.0625 6.30493ZM13.5 9.11743C13.5 9.71417 13.2629 10.2865 12.841 10.7084C12.419 11.1304 11.8467 11.3674 11.25 11.3674C10.6533 11.3674 10.081 11.1304 9.65901 10.7084C9.23705 10.2865 9 9.71417 9 9.11743V7.42993H13.5V9.11743Z" fill="#555555"/>
<path d="M8.43765 0.679932H5.62515C5.47596 0.679932 5.33289 0.739195 5.2274 0.844684C5.12191 0.950173 5.06265 1.09325 5.06265 1.24243V5.38839C4.51611 5.70859 4.06905 6.17405 3.77115 6.73305C3.47324 7.29205 3.33617 7.92271 3.37515 8.55493V16.4299C3.37515 16.5791 3.43441 16.7222 3.5399 16.8277C3.64539 16.9332 3.78846 16.9924 3.93765 16.9924H6.75015V15.8674H4.50015V8.55493C4.50015 6.76196 5.75508 6.29368 5.80312 6.27608L6.18765 6.14783V1.80493H7.87515V4.61743H9.00015V1.24243C9.00015 1.09325 8.94088 0.950173 8.83539 0.844684C8.7299 0.739195 8.58683 0.679932 8.43765 0.679932Z" fill="#555555"/>
</g>
<defs>
<clipPath id="clip0_882_32">
<rect width="18" height="18" fill="white"/>
</clipPath>
</defs>
</svg>
