<svg width="18" height="19" viewBox="0 0 18 19" fill="none" xmlns="http://www.w3.org/2000/svg">
<path d="M5.26709 7.37109C3.85493 7.37109 2.70996 8.51691 2.70996 9.92878C2.70996 11.3409 3.85493 12.4862 5.26709 12.4862C6.67896 12.4862 7.82421 11.3412 7.82421 9.92878C7.82421 8.51662 6.67896 7.37109 5.26709 7.37109ZM5.26652 11.7524C4.25937 11.7524 3.44346 10.9354 3.44346 9.92878C3.44346 8.92191 4.25937 8.10516 5.26652 8.10516C6.27368 8.10516 7.08987 8.92191 7.08987 9.92878C7.09015 10.9354 6.27368 11.7524 5.26652 11.7524Z" fill="#555555"/>
<path d="M11.7921 8.09447C11.2758 7.52213 10.5555 7.13429 9.74718 7.05047C8.07852 6.74222 6.95014 6.05007 6.40986 5.64169C6.40171 5.64169 6.39777 5.63382 6.38989 5.62566C6.24561 5.51401 6.14183 5.43385 6.0898 5.38182C6.07349 5.35763 6.0538 5.34976 6.03749 5.33372C5.41339 4.86544 4.63714 4.59741 3.80071 4.59741C1.72424 4.59741 0.0395508 6.2821 0.0395508 8.35857C0.0395508 9.29879 0.379582 10.1558 0.951926 10.8122C0.951926 10.8122 0.975832 10.8316 1.01605 10.8842C1.0318 10.8997 1.04783 10.9202 1.06358 10.9444C1.25596 11.1998 1.6438 11.8804 1.76755 13.2734C1.77149 13.3491 1.77964 13.4287 1.78414 13.5091C1.98411 15.4897 3.64855 17.0303 5.68143 17.0303C6.92596 17.0303 8.03408 16.4504 8.75043 15.5498C8.85505 15.3898 8.95855 15.2419 9.05896 15.1013C10.0191 13.7169 10.6233 13.2771 10.8317 13.1528C10.8874 13.1243 10.9155 13.1128 10.9155 13.1128C11.9319 12.5728 12.6283 11.4998 12.6283 10.2593C12.628 9.4231 12.3119 8.66682 11.7921 8.09447ZM10.1634 12.7354C10.1634 12.7354 10.1406 12.7455 10.0937 12.7688C9.92014 12.8729 9.41418 13.2408 8.61177 14.3978C8.52768 14.5148 8.44133 14.6383 8.35414 14.7728C7.75564 15.5254 6.82921 16.0097 5.78886 16.0097C4.08983 16.0097 2.69821 14.7227 2.53058 13.0664C2.52749 13 2.52074 12.9328 2.51736 12.8695C2.41414 11.7052 2.0893 11.137 1.92871 10.9222C1.91549 10.9028 1.90227 10.8853 1.88877 10.8729C1.8553 10.8291 1.83505 10.8119 1.83505 10.8119C1.35664 10.264 1.07258 9.54826 1.07258 8.76132C1.07258 7.02572 2.48052 5.61751 4.21639 5.61751C4.91586 5.61751 5.56443 5.84166 6.08671 6.23288C6.09993 6.2461 6.1168 6.25257 6.13002 6.27282C6.17361 6.31641 6.26024 6.38335 6.38089 6.47672C6.38764 6.48376 6.39102 6.49022 6.39777 6.49022C6.84889 6.83194 7.79277 7.40991 9.18721 7.66782C9.86221 7.73813 10.4652 8.06213 10.8961 8.54082C11.3312 9.01894 11.5953 9.65091 11.5953 10.3507C11.5956 11.3882 11.0139 12.2843 10.1634 12.7354Z" fill="#555555"/>
<path d="M4.26837 9.29485C4.26837 9.29485 4.64553 8.80097 5.29184 8.76975C5.71259 8.76356 5.97528 8.88844 6.05656 9.00094C6.13784 9.11344 6.27537 9.51366 5.79387 9.65119C5.69375 9.66385 5.51881 9.59522 5.51881 9.59522C5.51881 9.59522 5.16218 9.4951 4.931 9.7575C4.83734 9.87647 4.79965 9.97013 4.78109 10.0328C4.76225 10.0953 4.67759 10.3518 4.39465 10.3453C4.112 10.3391 3.94325 10.0641 4.01834 9.80756C4.09315 9.55135 4.26837 9.29485 4.26837 9.29485Z" fill="#555555"/>
<path d="M6.57064 4.79305C6.57064 4.79305 6.94329 4.99921 7.14973 4.54921C7.35617 4.09921 7.66864 3.52377 8.61898 2.91739C9.10048 2.57342 10.3197 2.10458 11.5701 2.02949C12.1456 1.98561 13.6587 1.90461 15.3718 2.81727C15.7346 3.01724 16.9288 3.7738 17.1288 5.03071C17.1915 5.50574 17.2227 6.39814 16.1599 7.37127C16.0347 7.47533 15.9723 7.55042 15.9723 7.69105C15.9723 7.83167 15.9661 12.1896 15.9661 12.1896C15.9661 12.1896 15.9284 12.7274 15.4221 12.7274C14.9156 12.7274 12.5585 12.7274 12.5585 12.7274C12.5585 12.7274 12.183 12.7085 12.1144 13.0716C12.1082 13.2092 12.152 13.5278 12.4583 13.5278C12.7649 13.5278 15.203 13.5278 15.203 13.5278C15.203 13.5278 15.8783 13.5965 16.2535 13.2404C16.6287 12.8838 16.7662 12.6087 16.7662 12.1899C16.7662 11.7711 16.7662 8.09464 16.7662 8.09464C16.7662 8.09464 16.8163 7.84433 16.9665 7.69133C17.1164 7.53833 17.8856 6.70443 17.9601 5.63005C17.9731 4.8808 17.8977 4.2058 17.1974 3.31789C16.4974 2.42999 15.2466 1.70492 13.9835 1.42986C12.7207 1.15452 10.595 0.917144 8.44404 2.10514C7.29345 2.71771 6.80998 3.45543 6.57064 3.88068C6.33073 4.30536 6.25986 4.56805 6.57064 4.79305Z" fill="#555555"/>
</svg>
