<svg width="18" height="19" viewBox="0 0 18 19" fill="none" xmlns="http://www.w3.org/2000/svg">
<g clip-path="url(#clip0_893_71)">
<path d="M17.2361 3.84343H13.6705V2.24615C13.6705 1.93327 13.4159 1.67871 13.103 1.67871H4.89697C4.58409 1.67871 4.32949 1.93327 4.32949 2.24615V3.84343H0.763946C0.342778 3.84343 9.59236e-05 4.18607 9.59236e-05 4.60728V7.35862C-3.19745e-05 7.36383 -3.19745e-05 7.36898 9.59236e-05 7.37414V14.5853C9.59236e-05 15.0065 0.342778 15.3491 0.763946 15.3491H1.8524C2.04075 15.3491 2.19346 15.1964 2.19346 15.008C2.19346 14.8197 2.04075 14.667 1.8524 14.667H0.763946C0.719651 14.667 0.682219 14.6296 0.682219 14.5853V7.81808C2.56906 8.33581 4.72363 8.67231 6.96044 8.79812C7.03633 9.12162 7.27055 9.38479 7.57657 9.50105V10.4709C7.57657 10.6592 7.72928 10.812 7.91763 10.812H10.0823C10.2707 10.812 10.4234 10.6592 10.4234 10.4709V9.50109C10.7294 9.38479 10.9637 9.12166 11.0396 8.79808C13.2767 8.67222 15.4311 8.33568 17.3178 7.81808V14.5853C17.3178 14.6296 17.2803 14.667 17.236 14.667H10.3648C10.1764 14.667 10.0237 14.8197 10.0237 15.008C10.0237 15.1964 10.1764 15.3491 10.3648 15.3491H17.2361C17.6572 15.3491 17.9999 15.0065 17.9999 14.5853V7.37414C18.0001 7.36898 18.0001 7.36383 17.9999 7.35862V4.60728C17.9999 4.18607 17.6573 3.84343 17.2361 3.84343ZM7.04264 8.11953C4.76549 7.99441 2.57746 7.64708 0.682219 7.10995V4.60728C0.682219 4.56298 0.719651 4.52555 0.763946 4.52555H7.57759L7.58697 7.63667C7.3507 7.72343 7.15617 7.8975 7.04264 8.11953ZM9.74129 10.1299H8.25873V9.56555H9.74129V10.1299ZM10.0814 8.88326C10.0781 8.88326 10.0748 8.88334 10.0716 8.88343C10.0715 8.88343 10.0713 8.88343 10.0711 8.88343H7.92889C7.92871 8.88343 7.9285 8.88343 7.92833 8.88343C7.92513 8.88334 7.92189 8.88326 7.91865 8.88326C7.75102 8.87784 7.6163 8.73975 7.6163 8.5708C7.6163 8.55639 7.61728 8.54224 7.61916 8.52838C7.61958 8.52569 7.62001 8.52292 7.62039 8.52024C7.64461 8.372 7.77345 8.25852 7.92833 8.25826C7.92884 8.25826 7.92935 8.25826 7.92987 8.25826H10.0711C10.0738 8.25822 10.0767 8.25835 10.0795 8.25839C10.2301 8.2624 10.3545 8.37337 10.3792 8.51794C10.3798 8.52224 10.3804 8.52646 10.3811 8.53068C10.3828 8.54386 10.3837 8.55724 10.3837 8.57084C10.3838 8.73975 10.249 8.87784 10.0814 8.88326ZM8.25976 4.52555H9.74129V7.57614H8.26897L8.25976 4.52555ZM10.0823 3.84343H5.01161V2.36083H12.9884V3.84339L10.0823 3.84343ZM17.3178 7.10995C15.4228 7.64703 13.2349 7.99432 10.9575 8.11953C10.8456 7.9007 10.6551 7.72855 10.4234 7.64055V4.5256H17.2361C17.2804 4.5256 17.3178 4.56303 17.3178 4.60732V7.10995ZM8.65552 13.5237H6.72971C6.62692 13.5237 6.52793 13.5405 6.43546 13.5714C6.46646 13.4789 6.48325 13.3799 6.48325 13.2771C6.48325 13.0543 6.40442 12.8497 6.27324 12.6895C6.40447 12.5293 6.48325 12.3247 6.48325 12.1019C6.48325 11.5899 6.06669 11.1733 5.55467 11.1733H3.62891C3.11689 11.1733 2.70028 11.5899 2.70028 12.102C2.70028 12.3247 2.77911 12.5294 2.91029 12.6895C2.77907 12.8498 2.70028 13.0544 2.70028 13.2772C2.70028 13.5 2.77911 13.7045 2.91029 13.8647C2.77907 14.0249 2.70028 14.2296 2.70028 14.4523C2.70028 14.675 2.77915 14.8798 2.91033 15.0399C2.77911 15.2001 2.70028 15.4049 2.70028 15.6276C2.70028 16.1396 3.11685 16.5562 3.62891 16.5562H5.55467C5.77738 16.5562 5.98202 16.4773 6.14219 16.3462C6.30236 16.4773 6.50704 16.5562 6.72971 16.5562H8.65552C9.16754 16.5562 9.5841 16.1396 9.5841 15.6275C9.5841 15.4048 9.50527 15.2001 9.37405 15.0399C9.50527 14.8797 9.5841 14.675 9.5841 14.4523C9.5841 13.9403 9.16754 13.5237 8.65552 13.5237ZM5.55467 15.8741H3.62891C3.49299 15.8741 3.3824 15.7635 3.3824 15.6276C3.3824 15.4917 3.49299 15.3811 3.62891 15.3811C3.63142 15.3811 3.6339 15.381 3.63641 15.381H5.54721C5.54972 15.381 5.5522 15.3811 5.55471 15.3811C5.69063 15.3811 5.80117 15.4917 5.80117 15.6276C5.80113 15.7635 5.69058 15.8741 5.55467 15.8741ZM5.55467 14.6989H3.62891C3.49299 14.6989 3.3824 14.5882 3.3824 14.4523C3.3824 14.3164 3.49299 14.2058 3.62891 14.2058H5.55467C5.69058 14.2058 5.80113 14.3165 5.80113 14.4524C5.80113 14.5883 5.69058 14.6989 5.55467 14.6989ZM5.55467 13.5237H3.62891C3.49299 13.5237 3.3824 13.4131 3.3824 13.2771C3.3824 13.1412 3.49299 13.0306 3.62891 13.0306H5.55467C5.69058 13.0306 5.80113 13.1412 5.80113 13.2772C5.80113 13.4131 5.69058 13.5237 5.55467 13.5237ZM5.55467 12.3485H3.62891C3.49299 12.3485 3.3824 12.2379 3.3824 12.1019C3.3824 11.966 3.49299 11.8554 3.62891 11.8554H5.55467C5.69058 11.8554 5.80113 11.9661 5.80113 12.102C5.80113 12.2379 5.69058 12.3485 5.55467 12.3485ZM8.65552 15.8741H6.72971C6.5938 15.8741 6.48325 15.7635 6.48325 15.6276C6.48325 15.4917 6.5938 15.3811 6.72971 15.3811C6.73223 15.3811 6.7347 15.381 6.73722 15.381H8.64801C8.65053 15.381 8.653 15.3811 8.65552 15.3811C8.79143 15.3811 8.90198 15.4917 8.90198 15.6276C8.90198 15.7635 8.79143 15.8741 8.65552 15.8741ZM8.65552 14.6989H6.72971C6.5938 14.6989 6.48325 14.5882 6.48325 14.4523C6.48325 14.3164 6.5938 14.2058 6.72971 14.2058H8.65552C8.79143 14.2058 8.90198 14.3165 8.90198 14.4524C8.90198 14.5883 8.79143 14.6989 8.65552 14.6989Z" fill="#555555"/>
</g>
<defs>
<clipPath id="clip0_893_71">
<rect width="18" height="18" fill="white" transform="translate(0 0.117432)"/>
</clipPath>
</defs>
</svg>
