<svg width="18" height="18" viewBox="0 0 18 18" fill="none" xmlns="http://www.w3.org/2000/svg">
<g clip-path="url(#clip0_896_90)">
<path d="M17.4182 16.2349H0.582031V17.4374H17.4182V16.2349Z" fill="#555555"/>
<path d="M14.1112 6.01294H4.18989C3.87104 6.01326 3.56535 6.14006 3.33989 6.36552C3.11443 6.59098 2.98762 6.89668 2.9873 7.21553V12.0259C2.98824 12.8229 3.3053 13.5871 3.86892 14.1507C4.43253 14.7143 5.19669 15.0314 5.99377 15.0323H10.8041C11.6012 15.0314 12.3654 14.7143 12.929 14.1507C13.4926 13.5871 13.8096 12.8229 13.8106 12.0259V11.4246H14.1112C14.8289 11.4246 15.5171 11.1395 16.0245 10.6321C16.532 10.1246 16.817 9.43639 16.817 8.71876C16.817 8.00113 16.532 7.3129 16.0245 6.80546C15.5171 6.29802 14.8289 6.01294 14.1112 6.01294ZM12.608 12.0259C12.6075 12.5041 12.4173 12.9626 12.0791 13.3008C11.7409 13.639 11.2824 13.8292 10.8041 13.8298H5.99377C5.51551 13.8292 5.05699 13.639 4.71882 13.3008C4.38064 12.9626 4.19042 12.5041 4.18989 12.0259V7.21553H12.608V12.0259ZM14.1112 10.222H13.8106V7.21553H14.1112C14.5099 7.21553 14.8923 7.3739 15.1742 7.65581C15.4561 7.93772 15.6145 8.32008 15.6145 8.71876C15.6145 9.11744 15.4561 9.49979 15.1742 9.7817C14.8923 10.0636 14.5099 10.222 14.1112 10.222Z" fill="#555555"/>
<path d="M10.804 4.81034H9.60142V4.72256C9.60221 4.49908 9.54035 4.27986 9.42286 4.08976C9.30536 3.89966 9.13694 3.7463 8.93669 3.64708L7.32306 2.84027C6.92265 2.64167 6.58588 2.33489 6.35091 1.95467C6.11595 1.57446 5.99219 1.13603 5.99367 0.689082V0H7.19625V0.689082C7.19553 0.912544 7.25741 1.13174 7.3749 1.32183C7.49239 1.51191 7.66078 1.66528 7.86098 1.76455L9.47461 2.57137C9.87501 2.76999 10.2118 3.07678 10.4467 3.45699C10.6817 3.83719 10.8055 4.27561 10.804 4.72256V4.81034Z" fill="#555555"/>
</g>
<defs>
<clipPath id="clip0_896_90">
<rect width="18" height="18" fill="white"/>
</clipPath>
</defs>
</svg>
