<svg width="18" height="18" viewBox="0 0 18 18" fill="none" xmlns="http://www.w3.org/2000/svg">
<g clip-path="url(#clip0_896_100)">
<path d="M2.5058 10.2073H15.4942C15.6825 10.2073 15.8353 10.0546 15.8353 9.86626V1.94507C15.8353 1.75671 15.6825 1.604 15.4942 1.604H2.5058C2.31745 1.604 2.16474 1.75671 2.16474 1.94507V9.86626C2.16474 10.0546 2.31741 10.2073 2.5058 10.2073ZM2.84687 2.28613H15.1531V9.52519H2.84687V2.28613ZM9.6845 13.3684H8.31567C7.19511 13.3684 6.28344 14.2801 6.28344 15.4007V17.3816C6.28344 17.57 6.43615 17.7227 6.6245 17.7227H11.3756C11.5639 17.7227 11.7166 17.57 11.7166 17.3816V15.4007C11.7166 14.2801 10.805 13.3684 9.6845 13.3684ZM11.0345 17.0406H6.96557V15.4007C6.96557 14.6563 7.57122 14.0506 8.31567 14.0506H9.6845C10.4289 14.0506 11.0345 14.6563 11.0345 15.4007V17.0406ZM7.731 0.618409C7.731 0.430056 7.88372 0.277344 8.07207 0.277344H9.92793C10.1163 0.277344 10.269 0.430056 10.269 0.618409C10.269 0.806762 10.1163 0.959474 9.92793 0.959474H8.07207C7.88367 0.959474 7.731 0.806762 7.731 0.618409ZM0 12.3843C0 12.1959 0.152712 12.0432 0.341065 12.0432H1.54144C1.54102 12.0361 1.54076 12.0289 1.54076 12.0216C1.54076 11.8333 1.69347 11.6806 1.88183 11.6806H3.73769C3.92604 11.6806 4.07875 11.8333 4.07875 12.0216C4.07875 12.0289 4.07854 12.0361 4.07807 12.0432H7.7316C7.73117 12.0361 7.73092 12.0289 7.73092 12.0216C7.73092 11.8333 7.88363 11.6806 8.07198 11.6806H9.92785C10.1162 11.6806 10.2689 11.8333 10.2689 12.0216C10.2689 12.0289 10.2687 12.0361 10.2682 12.0432H13.9218C13.9214 12.0361 13.9212 12.0289 13.9212 12.0216C13.9212 11.8333 14.0739 11.6806 14.2622 11.6806H16.1181C16.3064 11.6806 16.4592 11.8333 16.4592 12.0216C16.4592 12.0289 16.4589 12.0361 16.4585 12.0432H17.6588C17.8471 12.0432 17.9998 12.1959 17.9998 12.3843C17.9998 12.5726 17.8471 12.7254 17.6588 12.7254H0.341065C0.152712 12.7254 0 12.5726 0 12.3843ZM3.49421 13.3684H2.12539C1.00482 13.3684 0.0931534 14.2801 0.0931534 15.4007V17.3816C0.0931534 17.57 0.245865 17.7227 0.434218 17.7227H5.18534C5.37369 17.7227 5.5264 17.57 5.5264 17.3816V15.4007C5.5264 14.2801 4.61478 13.3684 3.49421 13.3684ZM4.84427 17.0406H0.775283V15.4007C0.775283 14.6563 1.38093 14.0506 2.12539 14.0506H3.49421C4.23863 14.0506 4.84427 14.6563 4.84427 15.4007V17.0406ZM15.8747 13.3684H14.5059C13.3853 13.3684 12.4736 14.2801 12.4736 15.4007V17.3816C12.4736 17.57 12.6264 17.7227 12.8147 17.7227H17.5658C17.7542 17.7227 17.9069 17.57 17.9069 17.3816V15.4007C17.9069 14.2801 16.9953 13.3684 15.8747 13.3684ZM17.2248 17.0406H13.1558V15.4007C13.1558 14.6563 13.7614 14.0506 14.5059 14.0506H15.8747C16.6191 14.0506 17.2248 14.6563 17.2248 15.4007V17.0406Z" fill="#555555"/>
</g>
<defs>
<clipPath id="clip0_896_100">
<rect width="18" height="18" fill="white"/>
</clipPath>
</defs>
</svg>
