<svg width="18" height="18" viewBox="0 0 18 18" fill="none" xmlns="http://www.w3.org/2000/svg">
<path d="M15.9249 4.21216H15.2325C13.1418 4.21216 11.9647 5.62005 11.9647 5.62005L5.63701 12.5307C5.16895 13.0421 4.5795 13.3405 3.96233 13.3785H2.0748C1.65791 13.3785 1.2581 13.5884 0.96332 13.9622C0.668537 14.3359 0.50293 14.8428 0.50293 15.3714C0.50293 15.9 0.668537 16.4069 0.96332 16.7806C1.2581 17.1544 1.65791 17.3643 2.0748 17.3643H4.48442C4.8555 17.3537 6.16512 17.2116 7.47756 15.7777L13.7827 8.89358L13.9112 8.75305C14.1209 8.54938 14.6004 8.19804 15.4301 8.19804H15.9249C16.1313 8.19804 16.3357 8.14649 16.5264 8.04634C16.7171 7.94618 16.8904 7.79938 17.0363 7.61432C17.1823 7.42926 17.2981 7.20956 17.3771 6.96776C17.4561 6.72597 17.4967 6.46682 17.4967 6.2051C17.4967 5.94338 17.4561 5.68423 17.3771 5.44243C17.2981 5.20064 17.1823 4.98094 17.0363 4.79588C16.8904 4.61082 16.7171 4.46402 16.5264 4.36386C16.3357 4.26371 16.1313 4.21216 15.9249 4.21216Z" stroke="#555555" stroke-width="0.7" stroke-linejoin="round"/>
<path d="M6.20616 6.17037C6.7469 6.17037 7.18526 5.73201 7.18526 5.19126C7.18526 4.65052 6.7469 4.21216 6.20616 4.21216C5.66541 4.21216 5.22705 4.65052 5.22705 5.19126C5.22705 5.73201 5.66541 6.17037 6.20616 6.17037Z" stroke="#555555" stroke-width="0.7" stroke-linejoin="round"/>
<path d="M7.18495 9.00003V6.69323C7.18495 6.55476 7.12994 6.42197 7.03203 6.32406C6.93412 6.22615 6.80133 6.17114 6.66287 6.17114H5.74962C5.61116 6.17114 5.47836 6.22615 5.38045 6.32406C5.28254 6.42197 5.22754 6.55476 5.22754 6.69323V10.6691" stroke="#555555" stroke-width="0.7" stroke-linejoin="round"/>
</svg>
