<svg width="18" height="19" viewBox="0 0 18 19" fill="none" xmlns="http://www.w3.org/2000/svg">
<g clip-path="url(#clip0_896_132)">
<path d="M10.7346 13.6727L11.1177 12.7878C11.2588 12.462 11.109 12.0835 10.7832 11.9424L6.94852 10.2823C6.6227 10.1413 6.24422 10.2911 6.10317 10.6169L5.72007 11.5018C5.57901 11.8276 5.72879 12.2061 6.05461 12.3471L9.88926 14.0072C10.2151 14.1483 10.5936 13.9985 10.7346 13.6727Z" stroke="#555555" stroke-width="0.7" stroke-miterlimit="10" stroke-linecap="round" stroke-linejoin="round"/>
<path d="M10.6069 13.9675L14.2941 15.5638C14.7012 15.74 15.1745 15.5527 15.3508 15.1456C15.527 14.7385 15.3397 14.2652 14.9326 14.0889L11.2454 12.4927L10.6069 13.9675Z" stroke="#555555" stroke-width="0.7" stroke-miterlimit="10" stroke-linecap="round" stroke-linejoin="round"/>
<path d="M5.21988 15.4885H5.21988C5.62715 15.6648 6.10024 15.4776 6.27656 15.0703L7.23431 12.858L5.75945 12.2195L4.8017 14.4318C4.62538 14.8391 4.8126 15.3121 5.21988 15.4885Z" stroke="#555555" stroke-width="0.7" stroke-miterlimit="10" stroke-linecap="round" stroke-linejoin="round"/>
<path d="M5.0269 10.6762C5.27374 10.106 5.01163 9.44368 4.44144 9.19684C3.87126 8.95 3.20893 9.21211 2.96209 9.78229C2.71524 10.3525 2.97736 11.0148 3.54754 11.2616C4.11772 11.5085 4.78005 11.2464 5.0269 10.6762Z" stroke="#555555" stroke-width="0.7" stroke-miterlimit="10" stroke-linecap="round" stroke-linejoin="round"/>
<path d="M0 15.8674H18" stroke="#555555" stroke-width="0.7" stroke-miterlimit="10" stroke-linecap="round" stroke-linejoin="round"/>
<path d="M11.25 2.36743H6.75V7.83172H11.25V2.36743Z" stroke="#555555" stroke-width="0.7" stroke-miterlimit="10" stroke-linecap="round" stroke-linejoin="round"/>
</g>
<defs>
<clipPath id="clip0_896_132">
<rect width="18" height="18" fill="white" transform="translate(0 0.117432)"/>
</clipPath>
</defs>
</svg>
