<svg width="18" height="18" viewBox="0 0 18 18" fill="none" xmlns="http://www.w3.org/2000/svg">
<path d="M18 6.3H17.4V3H9.3H8.7H0.6V6.3H0V13.2H0.6V14.1H1.2V14.4C1.0344 14.4 0.9 14.5344 0.9 14.7C0.9 14.8656 1.0344 15 1.2 15H1.8C1.9656 15 2.1 14.8656 2.1 14.7C2.1 14.5344 1.9656 14.4 1.8 14.4V14.1H2.4V13.2H15.6V14.1H16.2V14.4C16.0344 14.4 15.9 14.5344 15.9 14.7C15.9 14.8656 16.0344 15 16.2 15H16.8C16.9656 15 17.1 14.8656 17.1 14.7C17.1 14.5344 16.9656 14.4 16.8 14.4V14.1H17.4V13.2H18V6.3ZM9.3 3.6H16.8V6.3H15.6V8.4H9.3V3.6ZM2.4 9H8.7H9.3H15.6V10.8H2.4V9ZM1.2 3.6H8.7V8.4H2.4V6.3H1.2V3.6ZM1.8 13.5H1.2V13.2H1.8V13.5ZM16.8 13.5H16.2V13.2H16.8V13.5ZM17.4 12.6H15.6H2.4H0.6V6.9H1.8V8.4V9V11.4H16.2V9V8.4V6.9H17.4V12.6Z" fill="#555555"/>
</svg>
