<svg width="18" height="18" viewBox="0 0 18 18" fill="none" xmlns="http://www.w3.org/2000/svg">
<g clip-path="url(#clip0_900_168)">
<path d="M14.3043 0.862305H10.8989H7.10128H3.69589L0.862305 5.39587V17.1379H7.10128H10.8989H17.1379V5.39587L14.3043 0.862305ZM14.0038 1.40482L16.3773 5.20246H10.8989V1.40482H14.0038ZM9.0001 1.40482H10.3564V5.20246H9.0001H7.6438V1.40482H9.0001ZM10.0662 7.27923C10.0279 7.17561 9.93052 7.10128 9.81388 7.10128C9.66415 7.10128 9.54262 7.22281 9.54262 7.37254C9.54262 7.48918 9.61695 7.58657 9.72057 7.62481L9.25265 8.09274C9.21413 7.98939 9.11674 7.91506 9.0001 7.91506C8.88346 7.91506 8.78608 7.98939 8.74783 8.09301L8.27991 7.62509C8.38326 7.58657 8.45758 7.48918 8.45758 7.37254C8.45758 7.22281 8.33606 7.10128 8.18632 7.10128C8.06968 7.10128 7.9723 7.17561 7.93405 7.27923L7.91506 7.26024L7.6438 7.5315V5.74498H7.91506C7.91506 5.89472 8.03659 6.01624 8.18632 6.01624C8.33606 6.01624 8.45758 5.89472 8.45758 5.74498H9.54262C9.54262 5.89472 9.66415 6.01624 9.81388 6.01624C9.96362 6.01624 10.0851 5.89472 10.0851 5.74498H10.3564V7.5315L10.0851 7.26024L10.0662 7.27923ZM3.99644 1.40482H7.10128V5.20246H1.62292L3.99644 1.40482ZM7.6438 16.5954V15.6226L7.91506 15.8939L9.0001 14.8089L10.0851 15.8939L10.3564 15.6226V16.5954H7.6438ZM10.8989 16.5954V14.313L10.0851 15.1268L9.0001 14.0417L7.91506 15.1268L7.10128 14.313V16.5954H1.40482V5.74498H7.10128V8.84114L7.91506 8.02736L9.0001 9.1124L10.0851 8.02736L10.8989 8.84114V5.74498H16.5954V16.5954H10.8989Z" fill="#555555"/>
<path d="M9.00026 1.94731C9.15008 1.94731 9.27152 1.82586 9.27152 1.67605C9.27152 1.52623 9.15008 1.40479 9.00026 1.40479C8.85045 1.40479 8.729 1.52623 8.729 1.67605C8.729 1.82586 8.85045 1.94731 9.00026 1.94731Z" fill="#555555"/>
<path d="M8.18581 2.76103C8.33562 2.76103 8.45707 2.63958 8.45707 2.48977C8.45707 2.33995 8.33562 2.21851 8.18581 2.21851C8.036 2.21851 7.91455 2.33995 7.91455 2.48977C7.91455 2.63958 8.036 2.76103 8.18581 2.76103Z" fill="#555555"/>
<path d="M8.18581 4.38871C8.33562 4.38871 8.45707 4.26726 8.45707 4.11745C8.45707 3.96764 8.33562 3.84619 8.18581 3.84619C8.036 3.84619 7.91455 3.96764 7.91455 4.11745C7.91455 4.26726 8.036 4.38871 8.18581 4.38871Z" fill="#555555"/>
<path d="M9.00026 3.57475C9.15008 3.57475 9.27152 3.4533 9.27152 3.30349C9.27152 3.15367 9.15008 3.03223 9.00026 3.03223C8.85045 3.03223 8.729 3.15367 8.729 3.30349C8.729 3.4533 8.85045 3.57475 9.00026 3.57475Z" fill="#555555"/>
<path d="M9.81374 2.76103C9.96355 2.76103 10.085 2.63958 10.085 2.48977C10.085 2.33995 9.96355 2.21851 9.81374 2.21851C9.66393 2.21851 9.54248 2.33995 9.54248 2.48977C9.54248 2.63958 9.66393 2.76103 9.81374 2.76103Z" fill="#555555"/>
<path d="M9.81374 4.38871C9.96355 4.38871 10.085 4.26726 10.085 4.11745C10.085 3.96764 9.96355 3.84619 9.81374 3.84619C9.66393 3.84619 9.54248 3.96764 9.54248 4.11745C9.54248 4.26726 9.66393 4.38871 9.81374 4.38871Z" fill="#555555"/>
<path d="M9.00026 5.20243C9.15008 5.20243 9.27152 5.08098 9.27152 4.93117C9.27152 4.78136 9.15008 4.65991 9.00026 4.65991C8.85045 4.65991 8.729 4.78136 8.729 4.93117C8.729 5.08098 8.85045 5.20243 9.00026 5.20243Z" fill="#555555"/>
<path d="M9.00026 6.82987C9.15008 6.82987 9.27152 6.70843 9.27152 6.55861C9.27152 6.4088 9.15008 6.28735 9.00026 6.28735C8.85045 6.28735 8.729 6.4088 8.729 6.55861C8.729 6.70843 8.85045 6.82987 9.00026 6.82987Z" fill="#555555"/>
</g>
<defs>
<clipPath id="clip0_900_168">
<rect width="18" height="18" fill="white"/>
</clipPath>
</defs>
</svg>
