<svg width="54" height="52" viewBox="0 0 54 52" fill="none" xmlns="http://www.w3.org/2000/svg">
<path d="M49.5 45.4669C47.0025 45.4669 45.6075 44.6658 44.595 44.0813C43.7625 43.6049 43.245 43.3018 42.0075 43.3018C40.7475 43.3018 40.2525 43.5833 39.42 44.0813C38.385 44.6658 37.0125 45.4669 34.515 45.4669C32.0175 45.4669 30.6225 44.6658 29.61 44.0813C28.7775 43.6049 28.26 43.3018 27.0225 43.3018C25.7625 43.3018 25.2675 43.5833 24.435 44.0813C23.4 44.6658 22.005 45.4669 19.5075 45.4669C17.01 45.4669 15.615 44.6658 14.6025 44.0813C13.77 43.5833 13.2525 43.3018 12.015 43.3018C10.7775 43.3018 10.26 43.5833 9.4275 44.0813C8.3925 44.6658 6.9975 45.4669 4.5 45.4669V41.1367C5.76 41.1367 6.255 40.8553 7.0875 40.3573C8.1225 39.7727 9.5175 38.9716 12.015 38.9716C14.5125 38.9716 15.9075 39.7727 16.92 40.3573C17.7525 40.8553 18.2475 41.1367 19.5075 41.1367C20.7675 41.1367 21.2625 40.8553 22.095 40.3573C23.13 39.7727 24.525 38.9716 27.0225 38.9716C29.52 38.9716 30.915 39.7727 31.9275 40.3573C32.76 40.8336 33.2775 41.1367 34.515 41.1367C35.7525 41.1367 36.27 40.8553 37.1025 40.3573C38.115 39.7727 39.51 38.9716 42.0075 38.9716C44.505 38.9716 45.9 39.7727 46.9125 40.3573C47.745 40.8553 48.24 41.1367 49.5 41.1367V45.4669ZM49.5 35.724C47.0025 35.724 45.6075 34.9229 44.595 34.3383C43.7625 33.862 43.245 33.5589 42.0075 33.5589C40.7475 33.5589 40.2525 33.8404 39.42 34.3383C38.4075 34.9229 37.0125 35.724 34.515 35.724C32.0175 35.724 30.6225 34.9229 29.61 34.3383C28.7775 33.862 28.26 33.5589 27.0225 33.5589C25.7625 33.5589 25.2675 33.8404 24.435 34.3383C23.4225 34.9229 22.0275 35.724 19.53 35.724C17.0325 35.724 15.6375 34.9229 14.625 34.3383C13.7925 33.862 13.275 33.5589 12.0375 33.5589C10.8 33.5589 10.2825 33.8404 9.45 34.3383C8.3925 34.9229 6.9975 35.724 4.5 35.724V31.3938C5.76 31.3938 6.255 31.1123 7.0875 30.6144C8.1 30.0298 9.495 29.2287 11.9925 29.2287C14.49 29.2287 15.885 30.0298 16.8975 30.6144C17.73 31.0907 18.2475 31.3938 19.485 31.3938C20.745 31.3938 21.24 31.1123 22.0725 30.6144C23.085 30.0298 24.48 29.2287 26.9775 29.2287C29.475 29.2287 30.87 30.0298 31.8825 30.6144C32.715 31.0907 33.2325 31.3938 34.47 31.3938C35.7075 31.3938 36.225 31.1123 37.0575 30.6144C38.07 30.0298 39.465 29.2287 41.9625 29.2287C44.46 29.2287 45.855 30.0298 46.8675 30.6144C47.7 31.0907 48.2175 31.3938 49.455 31.3938V35.724H49.5ZM19.5075 25.9811C20.7675 25.9811 21.2625 25.6996 22.095 25.2016C23.13 24.6171 24.525 23.816 27.0225 23.816C29.52 23.816 30.915 24.6171 31.9275 25.2016C32.76 25.678 33.2775 25.9811 34.515 25.9811C35.7525 25.9811 36.27 25.6996 37.1025 25.2016C37.3725 25.0501 37.6875 24.8769 38.025 24.7037L23.58 10.8254C20.0925 7.46951 16.875 6.47357 11.25 6.49522V11.908C15.345 11.8863 17.7525 12.7523 20.25 15.1556L22.5 17.3207L15.1875 24.3573C15.885 24.6171 16.4475 24.9418 16.92 25.2016C17.7525 25.6996 18.2475 25.9811 19.5075 25.9811Z" fill="#555555"/>
<path d="M37.125 17.3208C40.2316 17.3208 42.75 14.8975 42.75 11.9081C42.75 8.91873 40.2316 6.49536 37.125 6.49536C34.0184 6.49536 31.5 8.91873 31.5 11.9081C31.5 14.8975 34.0184 17.3208 37.125 17.3208Z" fill="#555555"/>
</svg>
