<svg width="18" height="18" viewBox="0 0 18 18" fill="none" xmlns="http://www.w3.org/2000/svg">
<path d="M17.4216 4.60229H0.578424C0.258902 4.60229 0 4.86127 0 5.18072V15.1918C0 15.5113 0.258902 15.7703 0.578424 15.7703H17.4216C17.7411 15.7703 18 15.5113 18 15.1918V5.18072C18 4.86127 17.741 4.60229 17.4216 4.60229ZM16.8432 14.6133H1.15685V5.75914H16.8432V14.6133Z" fill="#555555"/>
<path d="M2.71368 10.7645H6.03491C6.35443 10.7645 6.61333 10.5055 6.61333 10.1861C6.61333 9.86665 6.35443 9.60767 6.03491 9.60767H2.71368C2.39416 9.60767 2.13525 9.86665 2.13525 10.1861C2.13525 10.5055 2.39416 10.7645 2.71368 10.7645Z" fill="#555555"/>
<path d="M11.9651 10.7647H13.0474V11.8469C13.0474 12.1664 13.3063 12.4253 13.6258 12.4253C13.9454 12.4253 14.2043 12.1664 14.2043 11.8469V10.7647H15.2864C15.6059 10.7647 15.8648 10.5057 15.8648 10.1862C15.8648 9.86678 15.6059 9.6078 15.2864 9.6078H14.2043V8.52569C14.2043 8.20625 13.9454 7.94727 13.6258 7.94727C13.3063 7.94727 13.0474 8.20625 13.0474 8.52569V9.6078H11.9651C11.6456 9.6078 11.3867 9.86678 11.3867 10.1862C11.3867 10.5057 11.6456 10.7647 11.9651 10.7647Z" fill="#555555"/>
<path d="M2.71368 3.38683H6.03491C6.35443 3.38683 6.61333 3.12785 6.61333 2.8084C6.61333 2.48896 6.35443 2.22998 6.03491 2.22998H2.71368C2.39416 2.22998 2.13525 2.48896 2.13525 2.8084C2.13525 3.12785 2.39416 3.38683 2.71368 3.38683Z" fill="#555555"/>
<path d="M11.9651 3.38683H15.2864C15.6059 3.38683 15.8648 3.12785 15.8648 2.8084C15.8648 2.48896 15.6059 2.22998 15.2864 2.22998H11.9651C11.6456 2.22998 11.3867 2.48896 11.3867 2.8084C11.3867 3.12785 11.6456 3.38683 11.9651 3.38683Z" fill="#555555"/>
</svg>
