<svg width="18" height="19" viewBox="0 0 18 19" fill="none" xmlns="http://www.w3.org/2000/svg">
<g clip-path="url(#clip0_901_234)">
<path d="M15.9795 3.79102H2.02052C0.906392 3.79102 0 4.69737 0 5.81139V10.2198C0 11.3338 0.906392 12.2402 2.02052 12.2402H4.40835V13.342H2.75521C2.4509 13.342 2.20419 13.5887 2.20419 13.8931C2.20419 14.1974 2.4509 14.4441 2.75521 14.4441H4.95937C5.26368 14.4441 5.51039 14.1974 5.51039 13.8931V12.2402H12.4896V13.8931C12.4896 14.1974 12.7363 14.4441 13.0406 14.4441H15.2447C15.549 14.4441 15.7957 14.1974 15.7957 13.8931C15.7957 13.5887 15.549 13.342 15.2447 13.342H13.5917V12.2402H15.9795C17.0936 12.2402 18 11.3338 18 10.2198V5.81139C18 4.69737 17.0936 3.79102 15.9795 3.79102V3.79102ZM16.898 10.2198C16.898 10.7262 16.4859 11.1381 15.9795 11.1381H2.02052C1.51406 11.1381 1.10204 10.7262 1.10204 10.2198V5.81139C1.10204 5.30504 1.51406 4.89306 2.02052 4.89306H15.9795C16.4859 4.89306 16.898 5.30504 16.898 5.81139V10.2198ZM9.11858 8.01562C9.11858 8.31993 8.87187 8.56664 8.56756 8.56664H3.42463C3.12032 8.56664 2.87361 8.31993 2.87361 8.01562C2.87361 7.71131 3.12032 7.4646 3.42463 7.4646H8.56756C8.87187 7.4646 9.11858 7.71131 9.11858 8.01562ZM13.0407 5.99517C11.9266 5.99517 11.0202 6.90153 11.0202 8.01562C11.0202 9.12967 11.9266 10.036 13.0407 10.036C14.1548 10.036 15.0612 9.12967 15.0612 8.01562C15.0612 6.90153 14.1548 5.99517 13.0407 5.99517ZM13.0407 8.93398C12.5343 8.93398 12.1223 8.522 12.1223 8.01562C12.1223 7.50923 12.5343 7.09721 13.0407 7.09721C13.5471 7.09721 13.9591 7.50923 13.9591 8.01562C13.9591 8.522 13.5471 8.93398 13.0407 8.93398Z" fill="#555555"/>
</g>
<defs>
<clipPath id="clip0_901_234">
<rect width="18" height="18" fill="white" transform="translate(0 0.117432)"/>
</clipPath>
</defs>
</svg>
