<svg width="18" height="19" viewBox="0 0 18 19" fill="none" xmlns="http://www.w3.org/2000/svg">
<g clip-path="url(#clip0_901_255)">
<path d="M12.7229 5.1155V0.934083C12.7229 0.745729 12.8756 0.593018 13.0639 0.593018C13.2523 0.593018 13.405 0.745729 13.405 0.934083V5.1155C13.405 5.30385 13.2523 5.45656 13.0639 5.45656C12.8756 5.45656 12.7229 5.30385 12.7229 5.1155ZM11.7794 5.45656C11.9678 5.45656 12.1205 5.30385 12.1205 5.1155V0.934083C12.1205 0.745729 11.9678 0.593018 11.7794 0.593018C11.5911 0.593018 11.4383 0.745729 11.4383 0.934083V5.1155C11.4383 5.30385 11.5911 5.45656 11.7794 5.45656ZM4.90554 8.64164C4.90554 8.45328 4.75283 8.30057 4.56448 8.30057H0.341071C0.20311 8.30057 0.0787492 8.38367 0.0259694 8.5111C-0.0268104 8.63853 0.00235068 8.78523 0.0998953 8.88277L3.57948 12.3624C3.64608 12.429 3.73335 12.4623 3.82066 12.4623C3.90797 12.4623 3.99524 12.429 4.06183 12.3624C4.19506 12.2292 4.19506 12.0133 4.06183 11.8801L1.16449 8.98275H4.56448C4.75283 8.9827 4.90554 8.83003 4.90554 8.64164ZM6.94358 10.8527V16.5589C6.94358 17.1559 6.45781 17.6416 5.86078 17.6416C5.26379 17.6416 4.77807 17.1559 4.77807 16.5589V10.8527C4.77807 10.3748 5.08929 9.96817 5.51972 9.82496V7.02891C4.22516 6.82346 3.22192 5.4647 3.22192 3.82439C3.22192 2.04259 4.40571 0.593018 5.86078 0.593018C7.31589 0.593018 8.49968 2.04259 8.49968 3.82439C8.49968 5.4647 7.49644 6.82346 6.20185 7.02891V9.82496C6.63235 9.96812 6.94358 10.3747 6.94358 10.8527ZM5.86078 6.37364C6.93974 6.37364 7.81755 5.23005 7.81755 3.82439C7.81755 2.41874 6.93974 1.27515 5.86078 1.27515C4.78182 1.27515 3.90405 2.41874 3.90405 3.82439C3.90405 5.23005 4.78182 6.37364 5.86078 6.37364ZM6.26145 10.8527C6.26145 10.6318 6.08171 10.4521 5.86078 10.4521C5.6399 10.4521 5.4602 10.6318 5.4602 10.8527V16.5589C5.4602 16.7798 5.6399 16.9595 5.86078 16.9595C6.08171 16.9595 6.26145 16.7797 6.26145 16.5589V10.8527V10.8527ZM17.974 8.51114C17.9213 8.38371 17.7969 8.30062 17.6589 8.30062H13.5154C13.3271 8.30062 13.1744 8.45333 13.1744 8.64168C13.1744 8.83003 13.3271 8.98275 13.5154 8.98275H16.8356L14.078 11.7403C13.9448 11.8735 13.9448 12.0894 14.078 12.2226C14.1446 12.2892 14.2319 12.3225 14.3191 12.3225C14.4065 12.3225 14.4937 12.2892 14.5603 12.2226L17.9001 8.88281C17.9977 8.78527 18.0268 8.63857 17.974 8.51114ZM13.5045 10.8527V16.5589C13.5045 17.1559 13.0187 17.6416 12.4217 17.6416C11.8246 17.6416 11.339 17.1559 11.339 16.5589V10.8527C11.339 10.3748 11.6502 9.96817 12.0806 9.82496V7.03023C10.9913 6.86529 10.1538 5.92258 10.1538 4.7879V0.934083C10.1538 0.745729 10.3065 0.593018 10.4948 0.593018C10.6832 0.593018 10.8359 0.745729 10.8359 0.934083V4.7879C10.8359 5.66065 11.5446 6.371 12.4168 6.37368C12.42 6.37364 12.4233 6.37364 12.4266 6.37368C13.2987 6.371 14.0075 5.66065 14.0075 4.7879V0.934083C14.0075 0.745729 14.1602 0.593018 14.3486 0.593018C14.5369 0.593018 14.6896 0.745729 14.6896 0.934083V4.7879C14.6896 5.92258 13.8521 6.86529 12.7627 7.03023V9.82496C13.1932 9.96812 13.5045 10.3747 13.5045 10.8527ZM12.8223 10.8527C12.8223 10.6318 12.6426 10.4521 12.4217 10.4521C12.2008 10.4521 12.0211 10.6318 12.0211 10.8527V16.5589C12.0211 16.7798 12.2008 16.9595 12.4217 16.9595C12.6426 16.9595 12.8223 16.7797 12.8223 16.5589V10.8527ZM10.3355 15.4827L9.00003 16.8182L8.00535 15.8236C7.87217 15.6904 7.65623 15.6904 7.523 15.8236C7.38982 15.9568 7.38982 16.1727 7.523 16.3059L8.75885 17.5417C8.8228 17.6056 8.90956 17.6416 9.00003 17.6416C9.09049 17.6416 9.17721 17.6056 9.2412 17.5417L10.8178 15.965C10.951 15.8318 10.951 15.6159 10.8178 15.4826C10.6846 15.3494 10.4687 15.3495 10.3355 15.4827ZM11.5005 8.64172C11.5005 8.45337 11.3478 8.30066 11.1595 8.30066H7.1628C6.97444 8.30066 6.82173 8.45337 6.82173 8.64172C6.82173 8.83008 6.97444 8.98279 7.1628 8.98279H11.1595C11.3478 8.98279 11.5005 8.83012 11.5005 8.64172Z" fill="#555555"/>
</g>
<defs>
<clipPath id="clip0_901_255">
<rect width="18" height="18" fill="white" transform="translate(0 0.117432)"/>
</clipPath>
</defs>
</svg>
