<svg width="18" height="19" viewBox="0 0 18 19" fill="none" xmlns="http://www.w3.org/2000/svg">
<g clip-path="url(#clip0_901_278)">
<path d="M0 11.4654L0.193395 11.526C0.217863 11.5337 0.569531 11.6428 1.14416 11.7638V13.5608H0V15.2571H1.14412V16.8402C1.14412 17.5445 1.71703 18.1174 2.42128 18.1174C3.12553 18.1174 3.69844 17.5445 3.69844 16.8402C3.69844 16.136 3.12553 15.5631 2.42128 15.5631C2.15213 15.5631 1.90238 15.6469 1.69625 15.7896V15.2571H12.2993V16.8403C12.2993 17.5445 12.8722 18.1174 13.5765 18.1174C14.2807 18.1174 14.8536 17.5445 14.8536 16.8403C14.8536 16.136 14.2807 15.5631 13.5765 15.5631C13.3073 15.5631 13.0575 15.647 12.8514 15.7897V15.2571H13.9956V13.5609H12.8514V11.133C13.8335 11.2905 14.4684 11.5167 14.4828 11.5219L14.8536 11.6577V5.552H0V11.4654ZM2.42132 16.1152C2.82108 16.1152 3.14634 16.4405 3.14634 16.8403C3.14634 17.24 2.82108 17.5653 2.42132 17.5653C2.02155 17.5653 1.69629 17.24 1.69629 16.8403C1.69629 16.4405 2.02152 16.1152 2.42132 16.1152ZM13.5765 16.1152C13.9763 16.1152 14.3015 16.4405 14.3015 16.8403C14.3015 17.24 13.9763 17.5653 13.5765 17.5653C13.1767 17.5653 12.8515 17.24 12.8515 16.8403C12.8514 16.4405 13.1767 16.1152 13.5765 16.1152ZM13.4434 14.113V14.705H0.552129V14.113H13.4434ZM1.69625 13.5609V11.8696C1.99104 11.9206 2.32049 11.9691 2.67694 12.0083C3.23796 12.0699 3.76077 12.0966 4.24543 12.0966C5.84884 12.0966 7.03484 11.8048 7.80778 11.5219C9.42476 10.93 11.0547 10.9165 12.2993 11.0575V13.5608H1.69625V13.5609ZM0.552129 6.10413H14.3016V10.8856C13.9242 10.7765 13.2804 10.6168 12.4661 10.5174C10.284 10.2511 8.62534 10.6348 7.61801 11.0034C7.55125 11.0279 7.48413 11.051 7.41688 11.0735V10.6906H6.86475V11.2364C6.66805 11.287 6.47044 11.3304 6.27272 11.3672V10.4046H5.72063V11.4533C5.5222 11.4786 5.32455 11.498 5.12863 11.512V9.54649H4.5765V11.5384C2.71487 11.584 1.09515 11.2001 0.552094 11.054V6.10413H0.552129Z" fill="#555555"/>
<path d="M10.0011 4.6936H2.56445V5.24573H10.0011V4.6936Z" fill="#555555"/>
<path d="M17.1521 5.552C16.781 5.552 16.4651 5.79159 16.3503 6.12406H15.1499V6.67619H16.3503C16.4652 7.00867 16.7811 7.24826 17.1521 7.24826C17.6197 7.24826 18.0002 6.86779 18.0002 6.40011C18.0002 5.9325 17.6197 5.552 17.1521 5.552ZM17.1521 6.69616C17.0148 6.69616 16.8993 6.60205 16.8661 6.47499V6.32533C16.8993 6.19831 17.0148 6.1042 17.1521 6.1042C17.3153 6.1042 17.4481 6.23695 17.4481 6.40022C17.4481 6.56338 17.3154 6.69616 17.1521 6.69616Z" fill="#555555"/>
<path d="M6.28281 1.81369C7.70776 1.81369 8.86707 2.973 8.86707 4.39792H9.4192C9.4192 2.76157 8.15938 1.41473 6.55889 1.27439V0.669525H6.85491V0.117432H5.71078V0.669561H6.0068V1.27439C4.40631 1.41473 3.14648 2.76157 3.14648 4.39792H3.69861C3.69858 2.97296 4.85789 1.81369 6.28281 1.81369Z" fill="#555555"/>
</g>
<defs>
<clipPath id="clip0_901_278">
<rect width="18" height="18" fill="white" transform="translate(0 0.117432)"/>
</clipPath>
</defs>
</svg>
