<svg width="18" height="19" viewBox="0 0 18 19" fill="none" xmlns="http://www.w3.org/2000/svg">
<path d="M2.79382 15.548C2.73669 15.548 2.68173 15.5253 2.64125 15.4848L2.63865 15.4821C0.893784 13.7332 0.00996928 11.5926 0.0112318 9.11957C0.0113107 8.69725 0.0372716 8.27951 0.0884833 7.87795C0.335191 5.92697 1.1951 4.20318 2.64394 2.75465C2.68442 2.71421 2.73934 2.69141 2.79658 2.69141C2.79658 2.69141 2.79658 2.69141 2.7967 2.69141C2.85395 2.69149 2.90899 2.71425 2.94947 2.75473L4.38521 4.19304C4.46945 4.27751 4.46937 4.41402 4.38509 4.49833C3.27284 5.61007 2.63825 6.94095 2.49886 8.45402C2.47945 8.6694 2.46975 8.89342 2.46998 9.11929C2.46967 10.9138 3.11226 12.4678 4.37992 13.7384C4.46408 13.8228 4.46668 13.9619 4.38257 14.0462L2.94671 15.4845C2.90623 15.525 2.85139 15.5478 2.79402 15.5479C2.79402 15.548 2.79394 15.548 2.79382 15.548ZM2.798 3.21441C1.50967 4.56114 0.742635 6.14724 0.516957 7.93239C0.467954 8.31624 0.443138 8.71556 0.443059 9.11973C0.441914 11.4029 1.23325 13.3885 2.79552 15.0248L3.92679 13.8915C2.67215 12.5636 2.0378 10.9601 2.03812 9.11973C2.03788 8.88103 2.04814 8.64383 2.06865 8.41492C2.2112 6.868 2.83683 5.50094 3.92928 4.34766L2.798 3.21441ZM15.2174 15.5453C15.1601 15.5453 15.1051 15.5225 15.0646 15.4819L13.6286 14.0436C13.5445 13.9592 13.5445 13.8226 13.6288 13.7384C14.1353 13.2318 14.5463 12.6768 14.8501 12.0889C15.3096 11.2 15.5421 10.2011 15.5413 9.11993C15.5428 8.25213 15.3963 7.43811 15.1055 6.69692C14.7877 5.89817 14.2918 5.15813 13.6316 4.49841C13.5473 4.41426 13.5472 4.27766 13.6312 4.19335L15.0617 2.75765C15.1021 2.71705 15.1572 2.69421 15.2145 2.69409C15.2145 2.69409 15.2147 2.69409 15.2147 2.69409C15.272 2.69409 15.3269 2.71685 15.3674 2.75737C16.4523 3.84252 17.2105 5.086 17.6212 6.45341C17.8718 7.28593 17.9994 8.18214 18.0001 9.11681C18.0004 10.4869 17.7294 11.7615 17.1944 12.9083C16.7628 13.8355 16.1492 14.7014 15.3701 15.4819C15.3296 15.5225 15.2747 15.5453 15.2174 15.5453ZM14.0846 13.889L15.2157 15.022C15.8874 14.3184 16.4209 13.5468 16.8029 12.7258C17.3111 11.6367 17.5685 10.4234 17.5682 9.11973C17.5675 8.22451 17.4461 7.37009 17.2075 6.57765C16.8369 5.34352 16.1665 4.2141 15.2132 3.21737L14.0872 4.34746C14.7146 5.0097 15.1919 5.74568 15.507 6.53824C15.8181 7.33111 15.9748 8.19855 15.973 9.11736C15.974 10.2706 15.7252 11.3363 15.2337 12.2873C14.9402 12.8551 14.5541 13.3931 14.0846 13.889ZM5.24452 13.0949C5.24409 13.0949 5.2437 13.0949 5.24326 13.0949C5.1857 13.0945 5.13066 13.0712 5.0903 13.03L5.08765 13.0273C4.01765 11.9548 3.47425 10.6396 3.47409 9.11969C3.47303 9.0482 3.47303 8.98199 3.47409 8.91654C3.51962 7.47729 4.06303 6.22872 5.08919 5.20235C5.17343 5.118 5.31006 5.118 5.39437 5.20212L6.83307 6.63794C6.87355 6.67842 6.89636 6.73326 6.89636 6.79059C6.89647 6.84783 6.87383 6.90275 6.83331 6.94323C6.22982 7.54728 5.93695 8.25631 5.93817 9.11125C5.93742 9.21477 5.94081 9.30793 5.94831 9.39883C5.94855 9.40198 5.94874 9.40514 5.94898 9.4083C6.0097 10.1266 6.30722 10.7581 6.83331 11.2853C6.87379 11.3258 6.8992 11.3836 6.89908 11.4408C6.899 11.4981 6.87884 11.5557 6.83828 11.5961L5.39694 13.0319C5.35638 13.0722 5.30154 13.0949 5.24452 13.0949ZM5.24484 5.66302C4.39574 6.57891 3.9453 7.6759 3.90568 8.9268C3.90485 8.98436 3.90485 9.04611 3.90592 9.10821C3.90592 9.10939 3.90592 9.11866 3.90592 9.11973C3.90612 10.4499 4.35736 11.6099 5.24784 12.5711L6.38416 11.4392C5.87295 10.8703 5.58048 10.1965 5.51794 9.43706C5.51774 9.43371 5.51751 9.43043 5.51731 9.42716C5.50918 9.32564 5.50547 9.2216 5.50634 9.11795C5.50512 8.22337 5.79862 7.44466 6.37931 6.7952L5.24484 5.66302ZM12.7694 13.0921H12.7667C12.7095 13.0921 12.6547 13.0695 12.6142 13.029L11.1755 11.5934C11.092 11.5099 11.0909 11.3747 11.1734 11.29C11.2563 11.2048 11.3346 11.1165 11.4065 11.0273C11.4111 11.0198 11.4163 11.0125 11.4218 11.0056C11.8545 10.4687 12.0744 9.83314 12.0758 9.11653C12.0747 8.25864 11.7811 7.55115 11.1782 6.94892C11.1376 6.90848 11.1149 6.85344 11.1149 6.79619C11.1149 6.73894 11.1376 6.6839 11.1782 6.64342L12.6195 5.20239C12.6652 5.15643 12.7289 5.13366 12.794 5.14021C12.8578 5.14672 12.9151 5.18109 12.951 5.23411C13.2932 5.58108 13.584 5.95676 13.8156 6.35166C13.8222 6.35978 13.8281 6.36854 13.8335 6.3777C14.3024 7.18824 14.5401 8.10812 14.54 9.11172C14.5394 10.1588 14.2838 11.1106 13.7803 11.946C13.7745 11.9555 13.7681 11.9645 13.7612 11.9727C13.5325 12.3445 13.2504 12.6995 12.9222 13.0286C12.8818 13.0693 12.8267 13.0921 12.7694 13.0921ZM11.6278 11.4347L12.7649 12.5694C13.0133 12.3012 13.229 12.0172 13.4081 11.7224C13.4133 11.7138 13.4191 11.7056 13.4254 11.6978C13.8779 10.9367 14.1077 10.0684 14.1081 9.11693C14.1082 8.19539 13.8949 7.35691 13.4741 6.61896C13.4679 6.61115 13.4621 6.6027 13.457 6.59383C13.2691 6.26936 13.0373 5.95786 12.7664 5.66582L11.632 6.80025C12.212 7.44781 12.5064 8.22424 12.5075 9.11121C12.5061 9.92617 12.2591 10.6459 11.7735 11.2572C11.769 11.2645 11.7642 11.2714 11.7589 11.278C11.7172 11.3307 11.6733 11.383 11.6278 11.4347ZM9.01229 11.0169C9.01229 11.0169 9.00945 11.0169 9.00933 11.0169C8.48597 11.0169 8.03422 10.8294 7.66402 10.4599C7.29271 10.0882 7.1044 9.63465 7.1042 9.11168C7.10444 8.58934 7.29291 8.13653 7.66414 7.76593C8.03453 7.39506 8.48731 7.20655 9.00957 7.20635C9.53281 7.20655 9.98637 7.39483 10.358 7.76601C10.7285 8.13696 10.916 8.58966 10.9152 9.11188C10.916 9.63433 10.7285 10.0878 10.3583 10.4595C9.98677 10.8296 9.53419 11.0169 9.01229 11.0169ZM9.00957 7.63818C8.6007 7.63838 8.26037 7.78006 7.96959 8.07135C7.67798 8.3624 7.5363 8.7027 7.53607 9.11172C7.5363 9.52157 7.67802 9.86281 7.96951 10.1545C8.25954 10.4442 8.599 10.5851 9.00704 10.5851H9.01233C9.42139 10.5851 9.7618 10.4442 10.0529 10.1542C10.343 9.86313 10.4839 9.522 10.4834 9.11192C10.4839 8.70226 10.343 8.36209 10.0526 8.07147C9.76093 7.78002 9.41965 7.63838 9.00957 7.63818Z" fill="#555555"/>
</svg>
