<svg width="119" height="27" viewBox="0 0 119 27" fill="none" xmlns="http://www.w3.org/2000/svg">
<g id="Layer_1" clip-path="url(#clip0_10410_48845)">
<g id="Design">
<g id="Group">
<path id="Vector" d="M35.7212 19.3005C36.8398 18.673 37.5516 17.4892 37.5516 16.0488C37.5516 12.8542 35.2128 11.7988 31.0727 11.7988H23.882V22.6234H27.412V20.3558H31.0872C31.6392 20.3558 32.1622 20.3273 32.6416 20.2703C33.2953 20.8978 33.8618 21.9104 34.0942 22.6092H37.755C37.3628 21.454 36.5928 20.0849 35.7212 19.3005ZM31.247 17.86H27.412V14.2946H31.247C33.1064 14.2946 34.1669 14.6226 34.1669 16.0488C34.1524 17.4892 33.1064 17.86 31.247 17.86Z" fill="url(#paint0_linear_10410_48845)"/>
<path id="Vector_2" d="M21.0347 11.7988H17.5047V22.6234H21.0347V11.7988Z" fill="url(#paint1_linear_10410_48845)"/>
<path id="Vector_3" d="M49.4782 11.7988H45.9482V22.6234H49.4782V11.7988Z" fill="url(#paint2_linear_10410_48845)"/>
<path id="Vector_4" d="M89.0339 11.7988H85.5039V22.6234H89.0339V11.7988Z" fill="url(#paint3_linear_10410_48845)"/>
<path id="Vector_5" d="M76.3089 11.7988H69.3361V22.6234H76.3089C80.4054 22.6234 83.427 20.8122 83.427 17.204C83.427 13.5958 80.4054 11.7988 76.3089 11.7988ZM75.8876 20.0421H72.8661V14.3802H75.8876C78.517 14.3802 79.9115 15.2929 79.9115 17.204C79.9115 19.1151 78.517 20.0421 75.8876 20.0421Z" fill="url(#paint4_linear_10410_48845)"/>
<path id="Vector_6" d="M63.1044 16.7334C60.9981 14.423 58.4559 12.7544 55.3036 11.7988H52.3111V22.6234H55.6958V15.3072C58.9208 16.334 61.8987 19.5572 63.3659 22.6234H66.4747V11.7988H63.0899V16.7334H63.1044Z" fill="url(#paint5_linear_10410_48845)"/>
<path id="Vector_7" d="M5.59279 11.7988C3.26851 14.3802 0 18.73 0 22.6234H3.51547C3.51547 22.0387 3.5881 21.4397 3.73337 20.855H11.7376C11.8829 21.454 11.9555 22.0387 11.9555 22.6234H15.471C15.471 18.73 12.2024 14.3802 9.87817 11.7988H5.59279ZM4.53234 18.5731C5.38941 16.7334 6.63871 15.022 7.72822 13.7812C8.81772 15.022 10.067 16.7334 10.9241 18.5731H4.53234Z" fill="url(#paint6_linear_10410_48845)"/>
<path id="Vector_8" d="M100.946 11.7988H96.6604C94.3361 14.3802 91.0676 18.73 91.0676 22.6234H94.5831C94.5831 22.0387 94.6557 21.4397 94.801 20.855H102.805C102.95 21.454 103.023 22.0387 103.023 22.6234H106.539C106.539 18.7157 103.27 14.3802 100.946 11.7988ZM95.6 18.5731C96.457 16.7334 97.7063 15.022 98.7958 13.7812C99.8853 15.022 101.135 16.7334 101.992 18.5731H95.6Z" fill="url(#paint7_linear_10410_48845)"/>
</g>
</g>
<g id="Layer 3">
<path id="Vector_9" d="M118.916 18.6445C119.207 16.5338 118.684 14.7083 118.248 13.5103C117.943 12.6689 117.696 11.9986 117.478 11.3996C116.49 8.67558 116.301 8.17642 115.619 5.45244L115.386 4.55395L114.485 4.26872C111.754 3.39876 111.275 3.18483 108.573 2.00111C107.977 1.7444 107.309 1.4449 106.481 1.08836C105.508 0.674772 104.026 0.104305 102.239 0.0472582C99.4939 -0.0525736 96.8646 1.04558 94.4095 3.29892L94.4531 3.28466C93.8285 3.82661 93.1893 4.45412 92.5356 5.18147C92.5356 5.18147 92.5501 5.22425 92.6954 5.11016C93.5525 4.4256 96.3561 1.85849 103.983 5.22425C107.731 6.87861 111.333 8.34756 111.333 8.34756C111.333 8.34756 112.51 11.9843 113.861 15.8064C116.606 23.5505 113.759 26.0748 112.989 26.845C112.873 26.9733 112.917 26.9876 112.917 26.9876C114.021 26.2032 114.907 25.4188 115.648 24.6487C117.507 22.8089 118.611 20.798 118.916 18.6445Z" fill="url(#paint8_linear_10410_48845)"/>
<path id="Vector_10" d="M115.401 4.52465L114.5 4.23942C111.769 3.36946 111.29 3.15553 108.588 1.97181C107.992 1.7151 107.324 1.41561 106.496 1.05906C105.522 0.645476 104.041 0.0750081 102.254 0.0179613C99.5084 -0.0818705 96.8791 1.01628 94.4241 3.26963L94.4676 3.25536C93.843 3.79731 93.2038 4.42482 92.5501 5.15217C92.5501 5.15217 92.5646 5.19495 92.7099 5.08086C93.567 4.3963 96.3706 1.8292 103.997 5.19495C107.745 6.84931 111.348 8.31826 111.348 8.31826L115.401 4.52465Z" fill="#FED9A0"/>
</g>
</g>
<defs>
<linearGradient id="paint0_linear_10410_48845" x1="23.882" y1="17.5603" x2="37.755" y2="17.5603" gradientUnits="userSpaceOnUse">
<stop stop-color="#DA0E2B"/>
<stop offset="1" stop-color="#B61032"/>
</linearGradient>
<linearGradient id="paint1_linear_10410_48845" x1="17.5047" y1="17.5603" x2="21.0347" y2="17.5603" gradientUnits="userSpaceOnUse">
<stop stop-color="#DA0E2B"/>
<stop offset="1" stop-color="#B61032"/>
</linearGradient>
<linearGradient id="paint2_linear_10410_48845" x1="45.9482" y1="17.5603" x2="49.4782" y2="17.5603" gradientUnits="userSpaceOnUse">
<stop stop-color="#DA0E2B"/>
<stop offset="1" stop-color="#B61032"/>
</linearGradient>
<linearGradient id="paint3_linear_10410_48845" x1="85.5039" y1="17.5603" x2="89.0339" y2="17.5603" gradientUnits="userSpaceOnUse">
<stop stop-color="#DA0E2B"/>
<stop offset="1" stop-color="#B61032"/>
</linearGradient>
<linearGradient id="paint4_linear_10410_48845" x1="69.3361" y1="17.5603" x2="83.427" y2="17.5603" gradientUnits="userSpaceOnUse">
<stop stop-color="#DA0E2B"/>
<stop offset="1" stop-color="#B61032"/>
</linearGradient>
<linearGradient id="paint5_linear_10410_48845" x1="52.3111" y1="17.5603" x2="66.4747" y2="17.5603" gradientUnits="userSpaceOnUse">
<stop stop-color="#DA0E2B"/>
<stop offset="1" stop-color="#B61032"/>
</linearGradient>
<linearGradient id="paint6_linear_10410_48845" x1="0" y1="17.5603" x2="15.471" y2="17.5603" gradientUnits="userSpaceOnUse">
<stop stop-color="#DA0E2B"/>
<stop offset="1" stop-color="#B61032"/>
</linearGradient>
<linearGradient id="paint7_linear_10410_48845" x1="91.0676" y1="17.5603" x2="106.539" y2="17.5603" gradientUnits="userSpaceOnUse">
<stop stop-color="#DA0E2B"/>
<stop offset="1" stop-color="#B61032"/>
</linearGradient>
<linearGradient id="paint8_linear_10410_48845" x1="129.229" y1="38.6137" x2="101.008" y2="-0.488668" gradientUnits="userSpaceOnUse">
<stop offset="0.18" stop-color="#FED9A0"/>
<stop offset="0.31" stop-color="#ECC890"/>
<stop offset="0.57" stop-color="#BF9A66"/>
<stop offset="0.75" stop-color="#9E7947"/>
</linearGradient>
<clipPath id="clip0_10410_48845">
<rect width="119" height="27" fill="white"/>
</clipPath>
</defs>
</svg>
