<svg width="12" height="12" viewBox="0 0 12 12" fill="none" xmlns="http://www.w3.org/2000/svg">
<g clip-path="url(#clip0_49809_109773)">
<path d="M11 6C11 8.76142 8.76142 11 6 11M11 6C11 3.23858 8.76142 1 6 1M11 6H1M6 11C3.23858 11 1 8.76142 1 6M6 11C4.71612 9.65192 4 7.86163 4 6C4 4.13837 4.71612 2.34808 6 1M6 11C7.28388 9.65192 8 7.86163 8 6C8 4.13837 7.28388 2.34808 6 1M1 6C1 3.23858 3.23858 1 6 1" stroke="#1C1213" stroke-linecap="round" stroke-linejoin="round"/>
</g>
<defs>
<clipPath id="clip0_49809_109773">
<rect width="12" height="12" fill="white"/>
</clipPath>
</defs>
</svg>
