<svg width="137" height="32" viewBox="0 0 137 32" fill="none" xmlns="http://www.w3.org/2000/svg">
<g id="AI Logo" clip-path="url(#clip0_9219_4211)">
<g id="Design">
<g id="Group">
<path id="Vector" d="M41.5617 22.7559C42.8433 22.0202 43.6589 20.6324 43.6589 18.9436C43.6589 15.1983 40.9792 13.9609 36.2355 13.9609H27.9965V26.6518H32.0411V23.9932H36.2521C36.8846 23.9932 37.4838 23.9598 38.0331 23.8929C38.7821 24.6286 39.4312 25.8157 39.6975 26.635H43.8919C43.4425 25.2807 42.5604 23.6755 41.5617 22.7559ZM36.4352 21.0671H32.0411V16.887H36.4352C38.5657 16.887 39.7808 17.2716 39.7808 18.9436C39.7641 20.6324 38.5657 21.0671 36.4352 21.0671Z" fill="white"/>
<path id="Vector_2" d="M24.7342 13.9609H20.6896V26.6518H24.7342V13.9609Z" fill="white"/>
<path id="Vector_3" d="M57.324 13.9609H53.2794V26.6518H57.324V13.9609Z" fill="white"/>
<path id="Vector_4" d="M102.647 13.9609H98.6021V26.6518H102.647V13.9609Z" fill="white"/>
<path id="Vector_5" d="M88.0662 13.9609H80.0769V26.6518H88.0662C92.7599 26.6518 96.2219 24.5283 96.2219 20.298C96.2219 16.0677 92.7599 13.9609 88.0662 13.9609ZM87.5835 23.6254H84.1215V16.9873H87.5835C90.5961 16.9873 92.194 18.0574 92.194 20.298C92.194 22.5385 90.5961 23.6254 87.5835 23.6254Z" fill="white"/>
<path id="Vector_6" d="M72.9364 19.7462C70.523 17.0375 67.6102 15.0812 63.9984 13.9609H60.5696V26.6518H64.4478V18.0742C68.1428 19.278 71.5549 23.0569 73.236 26.6518H76.7979V13.9609H72.9198V19.7462H72.9364Z" fill="white"/>
<path id="Vector_7" d="M7.04121 13.9609C4.37811 16.9873 0.633118 22.0871 0.633118 26.6518H4.66106C4.66106 25.9662 4.74429 25.264 4.91073 24.5784H14.0818C14.2482 25.2807 14.3315 25.9662 14.3315 26.6518H18.3594C18.3594 22.0871 14.6144 16.9873 11.9513 13.9609H7.04121ZM5.82617 21.9032C6.80819 19.7462 8.23961 17.7398 9.48794 16.2851C10.7363 17.7398 12.1677 19.7462 13.1497 21.9032H5.82617Z" fill="white"/>
<path id="Vector_8" d="M116.295 13.9609H111.385C108.722 16.9873 104.977 22.0871 104.977 26.6518H109.005C109.005 25.9662 109.088 25.264 109.255 24.5784H118.426C118.592 25.2807 118.675 25.9662 118.675 26.6518H122.703C122.703 22.0704 118.958 16.9873 116.295 13.9609ZM110.17 21.9032C111.152 19.7462 112.583 17.7398 113.832 16.2851C115.08 17.7398 116.511 19.7462 117.493 21.9032H110.17Z" fill="white"/>
</g>
</g>
<g id="Layer_3">
<g id="Group_2">
<path id="Vector_9" d="M136.884 21.9866C137.217 19.5119 136.618 17.3717 136.119 15.9672C135.769 14.9807 135.486 14.1948 135.236 13.4926C134.105 10.299 133.888 9.71375 133.106 6.52015L132.84 5.46676L131.808 5.13235C128.679 4.1124 128.129 3.8616 125.033 2.4738C124.351 2.17283 123.585 1.8217 122.637 1.40369C121.521 0.9188 119.824 0.249982 117.776 0.1831C114.631 0.066057 111.618 1.35353 108.805 3.99536L108.855 3.97864C108.139 4.61402 107.407 5.34972 106.658 6.20246C106.658 6.20246 106.675 6.25262 106.841 6.11886C107.823 5.31628 111.035 2.3066 119.774 6.25262C124.068 8.19219 128.196 9.9144 128.196 9.9144C128.196 9.9144 129.544 14.1781 131.092 18.6592C134.238 27.7384 130.975 30.6979 130.093 31.6008C129.96 31.7513 130.01 31.768 130.01 31.768C131.275 30.8484 132.29 29.9288 133.139 29.0259C135.27 26.8689 136.535 24.5113 136.884 21.9866Z" fill="url(#paint0_linear_9219_4211)"/>
</g>
<path id="Vector_10" d="M132.856 5.43356L131.824 5.09915C128.695 4.0792 128.146 3.82839 125.05 2.4406C124.368 2.13963 123.602 1.7885 122.653 1.37049C121.538 0.885596 119.84 0.216779 117.793 0.149897C114.647 0.0328538 111.635 1.32033 108.822 3.96216L108.872 3.94544C108.156 4.58081 107.424 5.31652 106.675 6.16926C106.675 6.16926 106.691 6.21942 106.858 6.08566C107.84 5.28307 111.052 2.27339 119.79 6.21942C124.085 8.15899 128.212 9.8812 128.212 9.8812L132.856 5.43356Z" fill="#FED9A0"/>
</g>
</g>
<defs>
<linearGradient id="paint0_linear_9219_4211" x1="148.721" y1="45.3824" x2="115.402" y2="0.265396" gradientUnits="userSpaceOnUse">
<stop offset="0.1805" stop-color="#FED9A0"/>
<stop offset="0.3124" stop-color="#ECC890"/>
<stop offset="0.5738" stop-color="#BF9A66"/>
<stop offset="0.7464" stop-color="#9E7947"/>
</linearGradient>
<clipPath id="clip0_9219_4211">
<rect width="137" height="32" fill="white"/>
</clipPath>
</defs>
</svg>
