<svg width="16" height="16" viewBox="0 0 16 16" fill="none" xmlns="http://www.w3.org/2000/svg">
<path d="M6.5799 9.70683H9.0799C9.2799 9.6935 9.38656 9.6335 9.45989 9.56683C9.57323 9.4735 9.61322 9.3535 9.67989 9.1935C9.75322 9.00683 9.85323 8.84683 9.85323 8.84683C9.85323 8.84683 9.75322 8.68683 9.67989 8.50016C9.61322 8.34016 9.56656 8.22016 9.45989 8.12683C9.37989 8.06016 9.2799 8.00016 9.0799 7.98683H6.93323L5.03989 7.3335L3.43323 7.7935" stroke="#1C1213" stroke-width="0.666667" stroke-miterlimit="10"/>
<path d="M4.33325 11.6532L8.59325 12.3198L13.8932 9.08649C14.2799 8.83982 14.3999 8.33316 14.1732 7.93316C13.9466 7.53316 13.4466 7.37982 13.0333 7.58649L9.61325 9.35316" stroke="#1C1213" stroke-width="0.666667" stroke-miterlimit="10"/>
<path d="M3.01573 7.49674L1.54114 7.96338L3.03357 12.6795L4.50816 12.2129L3.01573 7.49674Z" stroke="black" stroke-width="0.666667" stroke-miterlimit="10"/>
<path d="M6.66663 5.66352C6.66663 5.66352 6.86961 3.71128 8.21886 3.36501C9.29349 3.09038 10.6666 2.6665 10.6666 2.6665C10.6666 2.6665 10.5353 7.01874 6.66663 5.66949V5.66352Z" stroke="black" stroke-width="0.666667" stroke-miterlimit="10"/>
<path d="M6.66663 5.66375C6.66663 5.66375 8.26663 4.97121 8.99498 4.20703" stroke="black" stroke-width="0.333333" stroke-miterlimit="10"/>
</svg>
